<svg width="108" height="108" viewBox="0 0 108 108" fill="none" xmlns="http://www.w3.org/2000/svg">
<circle cx="54" cy="54" r="54" fill="#FFFEFE"/>
<path d="M30.27 21.05C30.27 23.294 29.604 25.172 28.272 26.684C26.952 28.184 25.062 29.276 22.602 29.96L21.648 28.052C23.472 27.56 24.882 26.87 25.878 25.982C26.886 25.094 27.48 24.08 27.66 22.94H22.422V21.05H30.27ZM29.442 34.712C30.462 34.712 31.254 34.586 31.818 34.334C32.382 34.07 32.664 33.68 32.664 33.164C32.664 32.648 32.382 32.264 31.818 32.012C31.254 31.748 30.462 31.616 29.442 31.616C28.422 31.616 27.63 31.748 27.066 32.012C26.502 32.264 26.22 32.648 26.22 33.164C26.22 33.68 26.502 34.07 27.066 34.334C27.63 34.586 28.422 34.712 29.442 34.712ZM29.442 29.762C30.282 29.762 31.044 29.846 31.728 30.014C32.412 30.17 32.994 30.398 33.474 30.698C33.966 30.986 34.344 31.34 34.608 31.76C34.872 32.18 35.004 32.648 35.004 33.164C35.004 33.692 34.872 34.166 34.608 34.586C34.344 34.994 33.966 35.348 33.474 35.648C32.994 35.948 32.412 36.176 31.728 36.332C31.044 36.488 30.282 36.566 29.442 36.566C28.602 36.566 27.84 36.488 27.156 36.332C26.472 36.176 25.884 35.948 25.392 35.648C24.912 35.348 24.54 34.994 24.276 34.586C24.012 34.166 23.88 33.692 23.88 33.164C23.88 32.648 24.012 32.18 24.276 31.76C24.54 31.34 24.912 30.986 25.392 30.698C25.884 30.398 26.472 30.17 27.156 30.014C27.84 29.846 28.602 29.762 29.442 29.762ZM37.02 23.84V25.802H34.824V29.546H32.448V19.952H34.824V23.84H37.02ZM43.6606 21.068C44.3086 21.068 44.9086 21.17 45.4606 21.374C46.0246 21.578 46.5106 21.86 46.9186 22.22C47.3266 22.58 47.6446 23.012 47.8726 23.516C48.1126 24.02 48.2326 24.566 48.2326 25.154C48.2326 25.754 48.1126 26.306 47.8726 26.81C47.6446 27.302 47.3266 27.728 46.9186 28.088C46.5106 28.448 46.0246 28.73 45.4606 28.934C44.9086 29.138 44.3086 29.24 43.6606 29.24C43.0126 29.24 42.4066 29.138 41.8426 28.934C41.2906 28.73 40.8106 28.448 40.4026 28.088C40.0066 27.728 39.6886 27.302 39.4486 26.81C39.2206 26.306 39.1066 25.754 39.1066 25.154C39.1066 24.566 39.2206 24.02 39.4486 23.516C39.6886 23.012 40.0066 22.58 40.4026 22.22C40.8106 21.86 41.2906 21.578 41.8426 21.374C42.4066 21.17 43.0126 21.068 43.6606 21.068ZM43.6606 23.102C43.0126 23.102 42.4726 23.282 42.0406 23.642C41.6206 24.002 41.4106 24.506 41.4106 25.154C41.4106 25.802 41.6206 26.306 42.0406 26.666C42.4726 27.026 43.0126 27.206 43.6606 27.206C44.3086 27.206 44.8426 27.026 45.2626 26.666C45.6946 26.306 45.9106 25.802 45.9106 25.154C45.9106 24.506 45.6946 24.002 45.2626 23.642C44.8426 23.282 44.3086 23.102 43.6606 23.102ZM52.1566 19.952V36.584H49.7806V19.952H52.1566ZM38.4046 31.292C39.1366 31.292 39.9286 31.292 40.7806 31.292C41.6326 31.28 42.5146 31.256 43.4266 31.22C44.3386 31.184 45.2566 31.13 46.1806 31.058C47.1046 30.986 48.0046 30.884 48.8806 30.752L49.0246 32.462C48.1366 32.642 47.2306 32.786 46.3066 32.894C45.3946 32.99 44.4946 33.062 43.6066 33.11C42.7186 33.158 41.8606 33.188 41.0326 33.2C40.2046 33.212 39.4306 33.218 38.7106 33.218L38.4046 31.292ZM35.544 46.268H33.15V37.97H35.544V46.268ZM24.312 42.236C24.312 42.836 24.516 43.298 24.924 43.622C25.332 43.946 25.842 44.108 26.454 44.108C27.066 44.108 27.57 43.946 27.966 43.622C28.362 43.298 28.56 42.836 28.56 42.236C28.56 41.648 28.362 41.192 27.966 40.868C27.57 40.532 27.066 40.364 26.454 40.364C25.842 40.364 25.332 40.532 24.924 40.868C24.516 41.192 24.312 41.648 24.312 42.236ZM30.864 42.236C30.864 42.788 30.75 43.298 30.522 43.766C30.306 44.234 30 44.636 29.604 44.972C29.208 45.308 28.74 45.572 28.2 45.764C27.66 45.944 27.078 46.034 26.454 46.034C25.818 46.034 25.23 45.944 24.69 45.764C24.15 45.572 23.682 45.308 23.286 44.972C22.89 44.636 22.578 44.234 22.35 43.766C22.122 43.298 22.008 42.788 22.008 42.236C22.008 41.684 22.122 41.18 22.35 40.724C22.578 40.256 22.89 39.854 23.286 39.518C23.682 39.182 24.15 38.924 24.69 38.744C25.23 38.552 25.818 38.456 26.454 38.456C27.078 38.456 27.66 38.552 28.2 38.744C28.74 38.924 29.208 39.182 29.604 39.518C30 39.854 30.306 40.256 30.522 40.724C30.75 41.18 30.864 41.684 30.864 42.236ZM35.958 52.514V54.368H24.51V49.778H33.186V48.77H24.492V46.952H35.544V51.47H26.868V52.514H35.958ZM49.8166 41.966V37.97H52.1926V47.834H49.8166V43.892H47.3326V41.966H49.8166ZM47.1706 47.384C46.2706 47.084 45.5086 46.658 44.8846 46.106C44.2606 45.542 43.7686 44.894 43.4086 44.162C43.0486 45.002 42.5386 45.746 41.8786 46.394C41.2306 47.03 40.4206 47.51 39.4486 47.834L38.2426 45.962C38.9026 45.734 39.4726 45.44 39.9526 45.08C40.4326 44.708 40.8286 44.3 41.1406 43.856C41.4646 43.4 41.7046 42.92 41.8606 42.416C42.0286 41.9 42.1246 41.384 42.1486 40.868H38.8906V38.96H47.8006V40.868H44.5786C44.5906 41.336 44.6746 41.804 44.8306 42.272C44.9866 42.74 45.2146 43.184 45.5146 43.604C45.8266 44.012 46.2106 44.384 46.6666 44.72C47.1346 45.056 47.6866 45.326 48.3226 45.53L47.1706 47.384ZM46.5946 52.766C47.6866 52.766 48.5086 52.652 49.0606 52.424C49.6126 52.196 49.8886 51.848 49.8886 51.38C49.8886 50.912 49.6126 50.564 49.0606 50.336C48.5086 50.108 47.6866 49.994 46.5946 49.994C44.3866 49.994 43.2826 50.456 43.2826 51.38C43.2826 52.304 44.3866 52.766 46.5946 52.766ZM46.5946 48.194C47.4706 48.194 48.2566 48.266 48.9526 48.41C49.6606 48.554 50.2546 48.764 50.7346 49.04C51.2266 49.304 51.6046 49.634 51.8686 50.03C52.1326 50.426 52.2646 50.876 52.2646 51.38C52.2646 51.884 52.1326 52.334 51.8686 52.73C51.6046 53.126 51.2266 53.456 50.7346 53.72C50.2546 53.996 49.6606 54.206 48.9526 54.35C48.2566 54.494 47.4706 54.566 46.5946 54.566C45.7066 54.566 44.9086 54.494 44.2006 54.35C43.5046 54.206 42.9106 53.996 42.4186 53.72C41.9386 53.456 41.5666 53.126 41.3026 52.73C41.0386 52.334 40.9066 51.884 40.9066 51.38C40.9066 50.876 41.0386 50.426 41.3026 50.03C41.5666 49.634 41.9386 49.304 42.4186 49.04C42.9106 48.764 43.5046 48.554 44.2006 48.41C44.9086 48.266 45.7066 48.194 46.5946 48.194Z" fill="#4A30E9"/>
<path d="M51.7071 70.7071C52.0976 70.3166 52.0976 69.6834 51.7071 69.2929L45.3431 62.9289C44.9526 62.5384 44.3195 62.5384 43.9289 62.9289C43.5384 63.3195 43.5384 63.9526 43.9289 64.3431L49.5858 70L43.9289 75.6569C43.5384 76.0474 43.5384 76.6805 43.9289 77.0711C44.3195 77.4616 44.9526 77.4616 45.3431 77.0711L51.7071 70.7071ZM31 71L51 71L51 69L31 69L31 71Z" fill="#4A30E9"/>
</svg>
