<svg xmlns="http://www.w3.org/2000/svg" width="139" height="72" fill="none" viewBox="0 0 139 72"><path fill="#fff" d="M5.162 8.314V5.012h8.112V.592H.456V19h4.706v-6.344h7.098V8.314H5.162zm15.813 4.836L25.237 19h5.799l-5.018-6.318c2.236-.702 3.614-2.626 3.614-6.032C29.529 2.334 26.59.592 22.794.592h-7.359V19h4.706v-5.85h.832zm1.897-4.004h-2.73V4.934h2.73c2.939 0 2.939 4.212 0 4.212zm8.779-2.496v6.292c0 4.212 3.822 6.318 7.644 6.318s7.618-2.106 7.618-6.318V6.65c0-4.212-3.822-6.318-7.644-6.318S31.65 2.412 31.65 6.65zm4.654 6.292V6.65c0-1.352 1.456-2.08 2.912-2.08 1.508 0 3.042.65 3.042 2.08v6.292c0 1.326-1.482 2.002-2.964 2.002s-2.99-.65-2.99-2.002zM49.384.592V19h4.654v-7.358L53.44 8.08l.13-.026 1.612 3.692L59.342 19h4.706V.592H59.42v8.346c.026 0 .494 3.172.52 3.172l-.13.026-1.56-3.692L53.804.592h-4.42zm26.072 4.394h4.888V.566H65.862v4.42h4.888V19h4.706V4.986zm13.137 8.684V9.25h-8.112v4.42h8.112zm7.366-5.85V4.96h8.112V.592H91.253V19h12.818v-4.394h-8.112V11.85h7.462V7.82h-7.462zM106.538.592V19h4.654v-7.358l-.598-3.562.13-.026 1.612 3.692 4.16 7.254h4.706V.592h-4.628v8.346c.026 0 .494 3.172.52 3.172l-.13.026-1.56-3.692-4.446-7.852h-4.42zm24.46 0h-6.89V19h6.89c3.692.026 7.15-1.82 7.15-6.058V6.754c0-4.29-3.458-6.162-7.15-6.162zm.156 14.04h-2.366V4.934h2.366c1.56 0 2.314.754 2.314 1.95v5.746c0 1.196-.728 2.002-2.314 2.002zM.456 26.592V45H5.11v-5.304l-.312-3.718.13-.026 2.47 6.318h3.198l2.418-6.318.156.026-.286 3.718L12.858 45h4.68V26.592h-4.654l-3.9 8.996-3.874-8.996H.456zM36.064 45l-6.578-18.408h-4.238L18.826 45h4.992l1.144-3.692h4.914L31.072 45h4.992zm-7.306-7.826h-2.756l1.352-5.382h.13l1.274 5.382zm10.314 2.002l-2.938 2.756c1.716 2.21 4.056 3.328 6.267 3.328 3.38 0 7.123-1.95 7.28-5.512.208-4.524-3.069-5.668-6.344-6.266-1.43-.312-2.393-.832-2.445-1.716.078-2.132 3.38-2.21 5.304-.156l3.043-2.34c-1.898-2.314-4.056-2.938-6.292-2.938-3.38 0-6.657 1.898-6.657 5.512 0 3.51 2.705 5.382 5.669 5.85 1.508.208 3.197.806 3.145 1.846-.13 1.976-4.185 1.872-6.032-.364zm21.124-8.19h4.888v-4.42H50.602v4.42h4.888V45h4.706V30.986zM71.61 33.82v-2.86h8.112v-4.368H66.903V45h12.818v-4.394H71.61V37.85h7.462v-4.03H71.61zm16.117 5.33L91.99 45h5.798l-5.018-6.318c2.236-.702 3.614-2.626 3.614-6.032-.104-4.316-3.042-6.058-6.838-6.058h-7.358V45h4.706v-5.85h.832zm1.898-4.004h-2.73v-4.212h2.73c2.938 0 2.938 4.212 0 4.212zm11.427 4.03l-2.938 2.756c1.716 2.21 4.056 3.328 6.266 3.328 3.38 0 7.124-1.95 7.28-5.512.208-4.524-3.068-5.668-6.344-6.266-1.43-.312-2.392-.832-2.444-1.716.078-2.132 3.38-2.21 5.304-.156l3.042-2.34c-1.898-2.314-4.056-2.938-6.292-2.938-3.38 0-6.656 1.898-6.656 5.512 0 3.51 2.704 5.382 5.668 5.85 1.508.208 3.198.806 3.146 1.846-.13 1.976-4.186 1.872-6.032-.364zM.456 52.592V71h12.168v-4.602H5.136V52.592H.456zm18.722 7.228v-2.86h8.112v-4.368H14.472V71H27.29v-4.394h-8.112V63.85h7.462v-4.03h-7.462zM45.383 71l-6.578-18.408h-4.238L28.145 71h4.992l1.144-3.692h4.914L40.39 71h4.992zm-7.306-7.826H35.32l1.352-5.382h.13l1.274 5.382zm17.39-5.122l3.9-1.794c-1.273-2.938-4.003-3.926-6.395-3.926-3.64 0-7.28 2.08-7.28 6.24v6.318c0 4.238 3.64 6.37 7.28 6.37 3.692 0 7.228-2.132 7.228-6.37v-4.576h-7.41v3.9h2.938v.676c0 2.86-5.382 2.886-5.382 0v-6.318c0-2.418 4.108-2.99 5.122-.52zm11.493 6.786V52.592h-4.706v12.246c-.026 8.632 14.664 8.632 14.69 0V52.592h-4.706v12.246c-.026 2.964-5.278 2.964-5.278 0zm17.446-5.018v-2.86h8.112v-4.368H79.7V71h12.818v-4.394h-8.112V63.85h7.462v-4.03h-7.462z"/></svg>