<svg width="96" height="96" viewBox="0 0 96 96" fill="none" xmlns="http://www.w3.org/2000/svg">
<path fill-rule="evenodd" clip-rule="evenodd" d="M0 0H96V96H0V0ZM29.4674 27.67V23.86H38.8274V18.76H24.0374V40H29.4674V32.68H37.6574V27.67H29.4674ZM61.2916 23.8V27.1H69.9016V31.75H61.2916V34.93H70.6516V40H55.8616V18.76H70.6516V23.8H61.2916ZM31.0939 57.76H23.1439V79H31.0939C35.3539 79.03 39.3439 76.9 39.3439 72.01V64.87C39.3439 59.92 35.3539 57.76 31.0939 57.76ZM31.2739 73.96H28.5439V62.77H31.2739C33.0739 62.77 33.9439 63.64 33.9439 65.02V71.65C33.9439 73.03 33.1039 73.96 31.2739 73.96ZM73.1327 67.6651L55.9313 57.7338V77.5963L73.1327 67.6651Z" fill="white"/>
</svg>
