<svg xmlns="http://www.w3.org/2000/svg" width="96" height="96" fill="none" viewBox="0 0 96 96"><path fill="#fff" d="M0 0h96v96H0z"/><path fill="#4A30E9" d="M29.467 27.67v-3.81h9.36v-5.1h-14.79V40h5.43v-7.32h8.19v-5.01h-8.19zm31.825-.57v-3.3h9.36v-5.04h-14.79V40h14.79v-5.07h-9.36v-3.18h8.61V27.1h-8.61zM31.094 57.76h-7.95V79h7.95c4.26.03 8.25-2.1 8.25-6.99v-7.14c0-4.95-3.99-7.11-8.25-7.11zm.18 16.2h-2.73V62.77h2.73c1.8 0 2.67.87 2.67 2.25v6.63c0 1.38-.84 2.31-2.67 2.31zm24.657-16.226l17.202 9.931-17.202 9.931V57.734z"/></svg>