<svg width="250" height="250" viewBox="0 0 250 250" fill="none" xmlns="http://www.w3.org/2000/svg">
<g opacity="0.2">
<path fill-rule="evenodd" clip-rule="evenodd" d="M131.953 161.619C171.207 161.619 203.028 129.798 203.028 90.5438C203.028 51.29 171.207 19.4684 131.953 19.4684C92.6992 19.4684 60.8776 51.29 60.8776 90.5438C60.8776 129.798 92.6992 161.619 131.953 161.619Z" fill="#ADD7DC"/>
<path fill-rule="evenodd" clip-rule="evenodd" d="M175.216 250C182.214 250 187.886 244.327 187.886 237.33C187.886 230.333 182.214 224.66 175.216 224.66C168.219 224.66 162.546 230.333 162.546 237.33C162.546 244.327 168.219 250 175.216 250Z" fill="#2B44FF"/>
<path fill-rule="evenodd" clip-rule="evenodd" d="M120.21 -6.10352e-05L135.352 15.1421L120.21 30.2842L105.068 15.1421L120.21 -6.10352e-05Z" fill="#D2D4EC"/>
<path fill-rule="evenodd" clip-rule="evenodd" d="M78.1829 213.226L85.5995 220.643L78.1829 228.059L70.7664 220.643L78.1829 213.226Z" fill="#FF9B21"/>
<path fill-rule="evenodd" clip-rule="evenodd" d="M185.414 19.4684L189.122 23.1767L185.414 26.885L181.706 23.1767L185.414 19.4684Z" fill="#2026A2"/>
</g>
<g filter="url(#filter0_d)">
<rect x="46.9716" y="36.7107" width="77.5649" height="159.456" rx="11.2639" transform="rotate(-2 46.9716 36.7107)" fill="#FFA593"/>
</g>
<path fill-rule="evenodd" clip-rule="evenodd" d="M57.9921 39.7272C53.8474 39.872 50.6047 43.3493 50.7495 47.494L55.5457 184.839C55.6904 188.984 59.1677 192.226 63.3124 192.081L118.802 190.144C122.947 189.999 126.189 186.522 126.045 182.377L121.249 45.0321C121.104 40.8874 117.626 37.6448 113.482 37.7895L57.9921 39.7272ZM104.875 39.3427L104.831 38.0916L66.8557 39.4177L66.8994 40.6688C66.9814 43.0175 68.9519 44.855 71.3005 44.773L100.771 43.7439C103.119 43.6618 104.957 41.6914 104.875 39.3427Z" fill="#FF6849"/>
<mask id="mask0" mask-type="alpha" maskUnits="userSpaceOnUse" x="52" y="33" width="105" height="160">
<rect x="52.8394" y="36.5059" width="98.5785" height="155.748" transform="rotate(-2 52.8394 36.5059)" fill="white"/>
</mask>
<g mask="url(#mask0)">
<path fill-rule="evenodd" clip-rule="evenodd" d="M125.41 72.5806C126.441 76.4405 128.168 79.4929 129.586 80.2972C133.142 82.3141 143.45 72.1634 145.208 65.9342C146.965 59.7051 137.364 46.9789 128.946 54.5538C126.024 57.1827 124.779 60.8449 124.548 64.5906L107.285 76.1798L116.411 84.9923L125.41 72.5806Z" fill="#F3B2AB"/>
<path fill-rule="evenodd" clip-rule="evenodd" d="M150.01 63.1351C148.051 65.1632 144.859 65.2824 142.752 63.4538C141.264 62.7 139.541 61.5369 137.801 60.0688C137.385 60.8176 136.818 61.5775 136.079 62.3422C135.427 63.0174 134.661 63.6614 133.821 64.2558C133.873 63.4931 133.665 62.7611 133.184 62.2968C131.839 60.9978 129.835 61.1987 128.702 62.372C127.264 63.8611 127.085 65.7696 128.258 67.0692C125.032 68.1456 121.889 68.2678 120.326 66.7579C117.356 63.8899 119.073 57.8854 123.19 53.622C123.335 53.4722 123.482 53.3263 123.63 53.1843C121.96 52.9024 120.156 52.9059 118.339 52.9094C114.479 52.9168 110.56 52.9244 107.733 50.1948C102.078 44.7335 110.833 31.173 118.734 38.8032C124.108 43.9923 125.995 47.3273 127.156 50.684C128.827 49.853 130.539 49.4511 132.094 49.5174C132.514 49.4855 133.032 49.5671 133.625 49.7511C133.997 49.8533 134.354 49.9883 134.692 50.1569C136.553 50.9793 138.886 52.5453 141.184 54.6143C141.613 55.0007 142.024 55.3901 142.417 55.7794C144.443 53.694 147.778 53.642 149.874 55.666C151.974 57.6939 152.035 61.0379 150.01 63.1351Z" fill="#191847"/>
<path fill-rule="evenodd" clip-rule="evenodd" d="M44.7476 158.058C44.7476 158.058 62.2405 167.218 75.7352 170.086C89.2299 172.955 102.508 167.397 102.508 167.397C102.508 167.397 85.4429 158.185 73.665 155.681C61.8871 153.178 44.7476 158.058 44.7476 158.058Z" fill="#6C8B8F"/>
<path fill-rule="evenodd" clip-rule="evenodd" d="M85.406 177.371C85.3247 177.165 85.2653 176.948 85.2302 176.719C84.5052 171.98 68.0158 119.016 67.2099 109.802L97.0992 116.155C97.7119 123.16 97.9884 166.364 97.5116 174.871C98.7691 188.717 98.1005 232.55 98.5372 235.689C98.9967 238.992 92.0652 240.857 91.2003 236.733C89.8242 230.172 87.0351 212.232 86.3765 201.5C85.759 191.439 85.4287 182.436 85.406 177.371Z" fill="#F3B2AB"/>
<path fill-rule="evenodd" clip-rule="evenodd" d="M59.7243 177.95C46.9345 178.441 1.35906 174.554 -1.87259 174.777C-5.19696 175.006 -6.57076 167.957 -2.39927 167.38C4.23828 166.462 22.317 164.924 33.0613 165.012C41.7033 165.082 49.5546 165.31 54.8006 165.581C57.4028 151.225 62.7142 116.574 65.5738 109.454L92.0202 115.075C89.2781 121.903 67.8407 171.417 64.7993 176.183C63.7905 177.9 61.7792 178.327 59.7243 177.95Z" fill="#F3B2AB"/>
<path fill-rule="evenodd" clip-rule="evenodd" d="M65.6593 109.472C65.6593 109.472 84.2043 108.183 98.7398 116.504C98.8464 133.793 106.244 142.219 102.407 167.876C82.9751 172.879 64.4482 153.294 44.5459 157.97C41.9108 144.952 55.249 117.783 65.6593 109.472Z" fill="#89C5CC"/>
<path fill-rule="evenodd" clip-rule="evenodd" d="M126.637 153.369L122.024 132.979L113.173 137.478L121.238 153.647C121.167 160.924 121.645 164.399 122.671 164.07C123.537 163.793 123.736 163.003 123.919 162.275C124.062 161.708 124.195 161.179 124.626 160.96C125.611 160.46 127.935 162.621 130.052 164.767C132.169 166.913 132.384 165.33 132.27 164.357C131.158 160.961 129.28 157.298 126.637 153.369ZM41.0728 123.074C44.0811 121.286 65.1638 98.5066 65.1638 98.5066L74.4041 104.559C74.4041 104.559 47.8609 126.648 46.0779 127.896C43.7618 129.518 43.1963 133.692 42.8129 136.523C42.7535 136.961 42.6986 137.367 42.6422 137.726C40.8104 137.438 40.6264 136.228 40.4324 134.953C40.2133 133.512 39.9815 131.988 37.3482 131.614C36.3309 131.47 35.3125 131.419 34.3176 131.369C30.881 131.197 27.7239 131.039 25.853 127.092C25.5564 126.466 25.7595 124.967 27.651 124.92C32.3632 124.805 39.6021 123.948 41.0728 123.074Z" fill="#F3B2AB"/>
<path fill-rule="evenodd" clip-rule="evenodd" d="M116.701 76.7829L120.96 78.6157C116.868 99.3662 118.675 121.809 126.382 145.944L104.164 152.951C100.163 123.114 102.864 96.7648 116.701 76.7829Z" fill="#E1D873"/>
<path fill-rule="evenodd" clip-rule="evenodd" d="M68.7483 114.04L102.883 136.207C102.883 136.207 109.726 99.6996 122.801 79.5664L113.499 71.3475C96.9661 79.0896 84.2888 93.6079 68.7483 114.04Z" fill="white"/>
<path fill-rule="evenodd" clip-rule="evenodd" d="M43.745 118.573C74.7918 78.9379 113.273 71.2006 113.273 71.2006L113.276 71.2132C113.279 71.2117 113.282 71.2101 113.285 71.2086L113.957 71.6451C115.136 72.47 117.535 74.1811 117.535 74.1811L115.412 82.8976C107.373 96.1402 86.0316 138.233 86.0316 138.233L63.6884 123.723C62.5546 125.553 61.4504 127.437 60.3826 129.378L43.745 118.573Z" fill="#FAEF80"/>
<path fill-rule="evenodd" clip-rule="evenodd" d="M63.579 123.9C68.5037 115.927 73.9933 109.002 79.4939 103.081C74.9577 111.399 70.0393 121.76 69.8037 127.943L63.579 123.9Z" fill="black" fill-opacity="0.1"/>
<path fill-rule="evenodd" clip-rule="evenodd" d="M77.4354 113.387L91.7955 115.43L88.4689 120.552L77.4354 113.387Z" fill="white" fill-opacity="0.2"/>
</g>
<path fill-rule="evenodd" clip-rule="evenodd" d="M156.488 109.249C154.158 109.415 152.141 109.042 151.427 108.411C149.636 106.829 153.29 99.1884 156.401 97.0273C159.512 94.8663 168.375 97.7494 165.786 103.853C164.887 105.971 163.098 107.358 161.071 108.201L157.943 119.964L151.335 116.597L156.488 109.249Z" fill="#B28B67"/>
<path fill-rule="evenodd" clip-rule="evenodd" d="M155.574 91.4128C155.956 91.0016 156.534 90.7773 157.092 90.9078C157.227 90.9395 157.358 90.9908 157.479 91.0589C157.522 91.0833 157.528 91.1024 157.565 91.0819C157.592 91.0668 157.621 91.0107 157.641 90.9869C157.704 90.9128 157.771 90.8423 157.842 90.7769C158.087 90.5538 158.386 90.3984 158.701 90.2997C159.29 90.1152 159.957 90.1203 160.533 90.3535C160.849 90.4812 161.124 90.6831 161.36 90.927C161.482 91.0532 161.593 91.1897 161.697 91.3309C161.728 91.3734 161.812 91.5462 161.857 91.561C161.908 91.5774 162.06 91.5093 162.113 91.4995C162.765 91.3788 163.415 91.5322 163.997 91.8339C164.653 92.1743 165.27 92.5304 165.615 93.2117C165.688 93.356 165.751 93.5055 165.807 93.6572C165.836 93.7371 165.862 93.818 165.885 93.8999C165.899 93.9493 165.912 93.999 165.923 94.0491C165.941 94.1341 165.924 94.1498 166.014 94.1431C166.36 94.1172 166.705 94.1982 166.994 94.3933C167.166 94.5092 167.316 94.655 167.448 94.8137C167.493 94.8677 167.576 95.0339 167.637 95.0662C167.698 95.0982 167.876 95.0741 167.95 95.0829C168.353 95.1305 168.734 95.2858 169.061 95.5252C169.398 95.7721 169.685 96.1028 169.893 96.4641C169.993 96.6379 170.069 96.8125 170.1 97.0109C170.113 97.0966 170.12 97.1837 170.142 97.2679C170.155 97.3172 170.197 97.3824 170.191 97.4336C170.194 97.4029 170.687 97.454 170.731 97.4636C170.965 97.515 171.171 97.6333 171.339 97.8033C171.656 98.1228 171.841 98.571 171.963 98.9966C172.026 99.2151 172.064 99.4405 172.078 99.6673C172.084 99.7759 172.086 99.8848 172.082 99.9935C172.08 100.046 172.066 100.106 172.073 100.158C172.082 100.224 172.104 100.237 172.155 100.29C172.411 100.558 172.601 100.888 172.69 101.248C172.78 101.612 172.764 101.996 172.656 102.354C172.65 102.375 172.611 102.456 172.617 102.473C172.625 102.495 172.691 102.521 172.714 102.535C172.791 102.587 172.865 102.643 172.936 102.703C173.066 102.814 173.185 102.939 173.287 103.076C173.685 103.611 173.814 104.299 173.717 104.95C173.616 105.633 173.272 106.299 172.746 106.752C172.661 106.826 172.571 106.892 172.475 106.95C172.416 106.986 172.405 106.981 172.398 107.046C172.391 107.119 172.404 107.2 172.401 107.274C172.393 107.514 172.352 107.752 172.285 107.982C172.175 108.361 172.023 108.739 171.781 109.054C171.669 109.2 171.536 109.33 171.383 109.433C171.305 109.486 171.222 109.531 171.135 109.568C171.09 109.587 171.044 109.603 170.997 109.618C170.97 109.626 170.939 109.63 170.914 109.641C170.853 109.67 170.865 109.627 170.849 109.707C170.826 109.818 170.837 109.945 170.826 110.058C170.814 110.175 170.798 110.292 170.779 110.408C170.739 110.643 170.688 110.877 170.615 111.104C170.474 111.54 170.244 111.964 169.865 112.236C169.703 112.353 169.516 112.432 169.319 112.468C169.223 112.485 169.124 112.492 169.026 112.49C168.976 112.488 168.92 112.47 168.882 112.5C168.84 112.532 168.827 112.631 168.81 112.681C168.66 113.121 168.47 113.566 168.143 113.905C167.843 114.218 167.429 114.419 166.998 114.472C166.163 114.574 165.336 114.123 164.853 113.454C164.728 113.28 164.623 113.09 164.547 112.889C163.936 113.192 163.199 112.797 162.74 112.389C162.169 111.88 161.873 111.151 161.876 110.394C161.2 110.689 160.409 110.078 160.401 109.381C160.399 109.21 160.432 109.04 160.488 108.879C160.518 108.795 160.565 108.718 160.597 108.636C160.637 108.531 160.62 108.4 160.631 108.283C160.652 108.057 160.705 107.839 160.806 107.636C160.859 107.529 160.925 107.433 160.989 107.333C161.046 107.243 161.065 107.141 161.097 107.04C161.252 107.155 161.481 107.214 161.666 107.246C161.847 107.278 162.058 107.225 162.227 107.166C162.62 107.028 162.956 106.755 163.242 106.459C163.869 105.809 164.243 104.837 163.684 104.02C163.424 103.639 162.343 103.089 161.864 102.968C161.36 102.84 160.341 103.576 160.268 103.656C160.223 103.706 160.194 103.782 160.121 103.794C159.961 103.819 159.843 103.573 159.793 103.457C159.708 103.255 159.687 103.034 159.682 102.818C159.669 102.347 159.709 101.869 159.8 101.407C159.871 101.051 159.978 100.701 160.018 100.339C160.057 99.9785 160.014 99.6167 159.821 99.3027C159.61 98.9611 159.31 98.6848 159.035 98.3971C158.761 98.112 158.507 97.804 158.375 97.4269C158.346 97.344 158.32 97.2585 158.307 97.1717C158.297 97.1031 158.31 96.9888 158.272 96.929C158.212 96.836 158.022 96.9015 157.924 96.9108C157.443 96.9564 156.975 97.1239 156.551 97.3511C156.13 97.577 155.759 97.812 155.397 98.12C155.129 98.3485 154.865 98.6813 154.533 98.811C154.384 98.8689 153.649 98.5752 153.469 98.3667C153.289 98.1582 153.156 97.788 153.157 97.5984C153.157 97.4044 153.225 97.2255 153.344 97.0737C153.414 96.9844 153.502 96.9121 153.573 96.8258C153.633 96.7532 153.69 96.6843 153.768 96.6296C153.916 96.5259 154.097 96.4894 154.275 96.526C154.189 96.294 154.145 96.0469 154.154 95.7997C154.164 95.543 154.21 95.2488 154.303 95.0092C154.379 94.8145 154.505 94.6376 154.688 94.5302C154.879 94.4175 155.123 94.4046 155.339 94.3835C155.189 94.0621 155.097 93.7168 155.055 93.3655C154.975 92.6823 155.091 91.9324 155.574 91.4128Z" fill="#191847"/>
<path fill-rule="evenodd" clip-rule="evenodd" d="M152.04 142.769L136.872 181.158L126.699 213.613H122.682L138.234 142.769L152.04 142.769Z" fill="#997659"/>
<path fill-rule="evenodd" clip-rule="evenodd" d="M155.094 142.769C155.255 156.259 157.611 174.421 157.987 175.262C158.363 176.103 183.969 196.649 183.969 196.649L181.202 199.61C181.202 199.61 150.99 181.994 149.592 179.645C148.194 177.295 143.642 155.675 139.988 142.769H155.094Z" fill="#B28B67"/>
<path fill-rule="evenodd" clip-rule="evenodd" d="M183.524 196.095C183.625 195.748 183.991 195.541 184.331 195.665C184.951 195.892 185.858 196.258 186.259 196.595C186.9 197.133 187.949 198.377 187.949 198.377C187.326 199.12 176.746 211.729 176.746 211.729C176.746 211.729 174.589 210.805 175.392 209.569C176.196 208.333 176.708 207.498 176.708 207.498L179.148 198.971C179.196 198.804 179.373 198.709 179.539 198.761L180.841 199.174C180.841 199.174 182.197 198.543 182.741 197.894C183.073 197.499 183.354 196.677 183.524 196.095Z" fill="#E4E4E4"/>
<path fill-rule="evenodd" clip-rule="evenodd" d="M127.488 211.769C127.819 211.623 128.213 211.771 128.336 212.111C128.561 212.731 128.863 213.662 128.863 214.186C128.863 215.022 128.584 216.625 128.584 216.625C127.615 216.625 111.155 216.625 111.155 216.625C111.155 216.625 110.475 214.379 111.939 214.2C113.403 214.021 114.371 213.877 114.371 213.877L122.472 210.265C122.631 210.195 122.817 210.269 122.884 210.43L123.405 211.693C123.405 211.693 124.76 212.325 125.607 212.325C126.123 212.325 126.933 212.013 127.488 211.769Z" fill="#E4E4E4"/>
<path fill-rule="evenodd" clip-rule="evenodd" d="M141.842 210.27L122.743 208.197L136.897 142.769H154.004L141.842 210.27Z" fill="#3E4587"/>
<path fill-rule="evenodd" clip-rule="evenodd" d="M180.019 191.873L167.491 206.701C167.491 206.701 147.698 185.084 144.412 178.491C141.126 171.897 138.505 142.769 138.505 142.769H157.763C157.763 142.769 159.195 168.395 159.694 169.587C160.192 170.78 180.019 191.873 180.019 191.873Z" fill="#2F3676"/>
<path fill-rule="evenodd" clip-rule="evenodd" d="M120.62 123.035L130.295 130.515L125.717 134.094L119.136 125.827C115.258 124.067 113.533 122.956 113.961 122.493C114.322 122.103 114.79 122.193 115.222 122.275C115.558 122.34 115.872 122.4 116.095 122.225C116.604 121.827 116.032 120.062 115.418 118.41C114.804 116.758 115.696 117.035 116.184 117.336C117.711 118.764 119.189 120.664 120.62 123.035ZM167.443 142.468L173.892 142.781C175.32 154.803 176.304 161.441 176.843 162.695C177.238 163.615 180.366 166.51 182.555 168.185C183.433 168.857 183.014 169.637 182.659 169.831C180.418 171.056 178.871 170.045 177.187 168.945C176.7 168.626 176.201 168.3 175.67 168.019C174.296 167.29 173.663 167.932 173.065 168.538C172.535 169.075 172.032 169.585 171.067 169.091C171.164 168.901 171.277 168.69 171.4 168.463C172.191 166.991 173.358 164.821 172.82 163.256C172.543 162.454 170.751 155.524 167.443 142.468Z" fill="#B28B67"/>
<path fill-rule="evenodd" clip-rule="evenodd" d="M156.779 114.097L154.297 113.006C147.284 117.076 141.698 129.662 137.5 130.466C133.531 131.226 128.884 128.374 123.425 124.727L120.566 128.372C124.545 135.624 134.909 143.497 140.322 141.827C148.976 139.158 154.76 123.358 156.779 114.097Z" fill="#545778"/>
<path fill-rule="evenodd" clip-rule="evenodd" d="M159.958 149.498C159.958 149.498 144.364 145.61 137.016 143.778C135.968 143.517 136.543 142.052 136.885 141.326C140.832 132.947 150.028 125.146 153.157 112.598L160.033 113.21C163.312 123.378 162.502 134.688 159.958 149.498Z" fill="#DDE3E9"/>
<path fill-rule="evenodd" clip-rule="evenodd" d="M159.266 113.019L160.46 113.316C173.022 126.164 178.458 142.579 176.765 162.561L171.722 162.304C169.462 157.799 167.045 150.745 164.471 141.143C164.639 146.583 164.387 152.056 163.485 157.066L142.834 151.917C141.356 140.817 157.84 112.663 157.84 112.663L159.266 113.019L159.266 113.019Z" fill="#767CBD"/>
<defs>
<filter id="filter0_d" x="33.7606" y="30.6816" width="103.324" height="182.307" filterUnits="userSpaceOnUse" color-interpolation-filters="sRGB">
<feFlood flood-opacity="0" result="BackgroundImageFix"/>
<feColorMatrix in="SourceAlpha" type="matrix" values="0 0 0 0 0 0 0 0 0 0 0 0 0 0 0 0 0 0 127 0"/>
<feOffset dx="-3.09023" dy="6.79852"/>
<feGaussianBlur stdDeviation="5.2534"/>
<feColorMatrix type="matrix" values="0 0 0 0 0 0 0 0 0 0 0 0 0 0 0 0 0 0 0.1 0"/>
<feBlend mode="normal" in2="BackgroundImageFix" result="effect1_dropShadow"/>
<feBlend mode="normal" in="SourceGraphic" in2="effect1_dropShadow" result="shape"/>
</filter>
</defs>
</svg>
