<svg width="284" height="254" viewBox="0 0 284 254" fill="none" xmlns="http://www.w3.org/2000/svg">
<path fill-rule="evenodd" clip-rule="evenodd" d="M238.792 76.0187C238.631 75.9014 238.248 75.8599 238.07 75.8247C237.331 75.6789 236.569 75.6154 235.815 75.6154C233.489 75.6189 231.126 75.8472 228.839 76.2422C227.387 76.493 225.632 77.337 224.188 76.8787C221.672 76.08 219.129 76.1192 216.742 77.2594C214.559 78.302 212.902 80.282 211.935 82.4216C211.789 82.7445 211.198 83.9332 211.03 84.7345C210.958 84.8984 210.89 85.0634 210.828 85.2308C210.651 85.7061 210.494 86.1899 210.347 86.6746C210.284 86.8813 210.127 87.3378 210.314 87.4261C210.015 87.9782 209.749 88.5471 209.529 89.1345C208.886 90.8428 208.184 92.7167 207.958 94.5273C207.875 95.1977 207.872 95.872 207.949 96.5438C207.988 96.8758 207.972 97.5435 208.197 97.7959C208.674 98.3316 208.92 97.5817 208.866 97.2245C208.455 94.5022 209.249 91.9458 210.19 89.3868C210.798 87.7321 211.798 86.2183 212.918 84.8473C213.825 83.7375 214.797 82.8636 216.04 82.1279C217.56 81.2281 219.184 80.5008 220.794 79.7712C221.853 79.2911 222.913 78.8239 224.001 78.4103C224.243 78.3183 224.624 78.0823 224.892 78.0814C225.46 78.0793 226.264 78.4981 226.812 78.6538C228.614 79.1664 230.44 79.8226 232.303 80.0843C233.498 80.2523 234.618 80.0632 235.736 79.6651C235.85 79.6245 236.041 79.52 236.276 79.3707C237.106 79.0515 237.89 78.6497 238.574 78.0702C238.968 77.7363 239.325 77.3048 239.651 76.9098C239.748 76.7917 239.791 76.6563 239.793 76.5277C239.867 76.4891 239.916 76.4441 239.927 76.3914C240.008 76.0027 239.267 75.9955 238.792 76.0187Z" fill="#89C5CC"/>
<path fill-rule="evenodd" clip-rule="evenodd" d="M49.8926 108.423C49.4364 108.793 48.989 109.17 48.5525 109.563C48.2198 109.862 47.631 110.22 47.5116 110.673C47.3874 111.144 47.7794 111.585 48.089 111.87C49.7264 113.377 51.5701 114.395 53.8389 114.565C57.3324 114.825 60.3728 113.933 63.4038 112.178C65.533 110.945 66.9433 109.121 67.2514 106.658C69.787 107.712 72.2394 109.164 74.3234 110.947C75.3517 111.827 76.2374 112.801 77.0566 113.882C77.5812 114.574 78.0888 115.277 78.5597 116.007C78.7645 116.324 78.9726 116.887 79.3106 117.07C79.7074 117.284 80.1869 116.948 80.1673 116.507C80.1509 116.139 79.7544 115.714 79.5691 115.413C79.2611 114.915 78.9486 114.42 78.6195 113.935C78.0869 113.15 77.5365 112.376 76.9362 111.642C75.5871 109.992 73.8705 108.629 72.0911 107.466C68.6773 105.236 64.9308 103.831 60.777 103.712C58.2229 103.639 56.0743 104.512 53.8902 105.815C52.5303 106.626 51.1266 107.424 49.8926 108.423Z" fill="#DDE3E9"/>
<path fill-rule="evenodd" clip-rule="evenodd" d="M83.0235 97.6369C80.3619 94.8959 77.6911 92.189 74.7174 89.7754C72.9649 88.3531 71.118 87.0598 69.3091 85.7113C69.5179 85.8941 69.7226 86.0822 69.9223 86.2749C69.3577 85.8916 68.6186 85.675 68.02 85.3202C67.3523 84.9245 66.7141 84.4719 66.088 84.0156C64.866 83.1252 63.6623 82.2178 62.4062 81.3738C61.0067 80.4336 59.5563 79.5647 58.133 78.6599C56.925 77.892 55.7023 77.0515 54.41 76.4238C53.7057 76.0816 52.9997 75.6761 52.2925 75.3192C52.0558 75.1998 49.6541 73.6833 49.6601 73.6787C49.7929 73.5787 51.0015 74.1465 51.1883 74.2229C51.7343 74.4459 52.2565 74.7127 52.7814 74.9786C52.4933 74.4103 52.2652 73.8132 52.141 73.1847C52.1027 72.9907 51.7954 71.5785 51.9527 71.46C52.0312 71.4008 52.7974 73.9275 52.8367 74.1705C52.8686 74.3678 52.8639 74.6519 52.9285 74.8388C53.0327 75.1405 53.0275 75.0494 53.2572 75.2194C53.6783 75.531 54.2372 75.7257 54.6929 75.9862C54.9387 76.1234 55.6995 76.6673 56.1578 76.8224C57.5444 77.4959 58.9499 78.532 60.2674 79.3923C59.9216 78.7424 59.6585 78.0629 59.4666 77.3508C59.4209 77.1818 58.9285 75.6652 59.048 75.5751C59.1824 75.4738 60.1207 77.7901 60.1763 78.0094C60.2795 78.4167 60.3009 78.87 60.4302 79.2663C60.5721 79.7013 61.0148 79.8555 61.4139 80.1091C62.8821 81.0419 64.2999 82.0331 65.694 83.0698C67.2152 80.3644 65.4612 77.0973 63.9829 74.8274C62.9174 73.1914 61.483 71.7888 59.9684 70.5643C57.947 68.9301 55.6343 67.6245 53.3244 66.4304C50.633 65.0389 47.724 64.1767 44.6998 63.7784C43.118 63.5701 41.4998 63.5759 39.9021 63.6427C39.1216 63.6753 38.3725 63.7787 37.6245 64.0332C37.2874 64.1481 36.9616 64.2929 36.6441 64.4549C36.4029 64.5781 35.8193 64.7081 35.6806 64.8916C34.5389 66.3776 33.9548 67.8584 34.044 69.7258C34.1283 71.4935 34.6866 73.2621 35.4442 74.8389C36.288 76.5946 37.3732 78.1882 38.7925 79.5256C39.8753 80.546 41.0859 81.4341 42.2885 82.3105C46.5658 85.4278 51.9888 88.139 57.5287 87.4425C59.322 87.2171 61.0276 86.5899 62.6215 85.7377C62.9971 85.5369 63.3704 85.3338 63.7249 85.0967C63.964 84.9369 64.603 84.2166 64.8434 84.1905C65.1729 84.1546 65.8829 84.8249 66.1921 85.029C68.5418 86.58 70.8299 88.2151 73.0701 89.9164C75.4535 91.7264 77.72 93.6596 79.9198 95.6836C80.8554 96.5445 81.7851 97.4074 82.6935 98.2972C82.905 98.5042 83.4222 99.2666 83.8057 99.3011C84.0482 99.323 84.2117 99.1159 84.1771 98.8915C84.1169 98.5013 83.2961 97.9176 83.0235 97.6369Z" fill="#C1DEE2"/>
<path fill-rule="evenodd" clip-rule="evenodd" d="M235.998 86.9986C234.967 86.7733 233.828 86.7906 232.778 86.8091C227.146 86.8857 221.615 89.5523 218.016 93.813C214.951 97.4403 214.109 101.95 213.503 106.509C213.443 106.961 213.418 107.411 213.384 107.865C213.376 107.962 213.366 108.049 213.354 108.131C213.116 108.343 212.991 108.592 213.132 108.864C212.607 110.012 212.164 111.189 211.783 112.403C210.663 115.975 209.523 119.616 210.225 123.373C210.389 121.305 210.734 119.191 211.147 117.158C211.17 117.041 211.196 116.925 211.223 116.81C211.225 116.798 211.228 116.785 211.231 116.773C211.377 116.151 211.567 115.547 211.798 114.952C211.8 114.946 211.802 114.939 211.805 114.933C211.835 114.855 211.868 114.777 211.9 114.699C211.966 114.538 212.034 114.377 212.106 114.217C212.13 114.162 212.154 114.107 212.176 114.052C212.512 113.228 212.654 112.3 212.955 111.447C213.027 111.253 213.103 111.06 213.182 110.868C213.186 110.857 213.191 110.846 213.196 110.834C213.409 110.317 213.645 109.807 213.894 109.301C214.029 109.2 214.102 108.947 214.218 108.718C214.243 108.672 214.431 108.371 214.488 108.197C214.634 107.913 214.781 107.629 214.928 107.346C214.924 107.348 214.92 107.349 214.915 107.351C215.063 107.079 215.211 106.808 215.358 106.538C215.391 106.479 215.424 106.42 215.456 106.36C215.509 106.265 215.562 106.171 215.615 106.077C216.108 105.194 216.631 104.328 217.174 103.474C217.368 103.169 217.831 102.732 217.92 102.389C217.923 102.377 217.924 102.365 217.926 102.353C219.105 100.697 220.462 99.1699 222.089 97.9599C221.893 98.1725 221.475 98.8942 221.364 99.037C221.026 99.4745 220.658 99.8817 220.29 100.294C219.629 101.032 218.985 101.794 218.412 102.6C217.365 104.073 216.461 105.623 215.607 107.205C215.599 107.214 215.59 107.223 215.582 107.232C215.153 107.762 214.883 108.561 214.573 109.167C215.797 108.6 217.149 108.231 218.404 107.728C219.656 107.227 220.874 106.668 222.049 106.013C223.612 105.141 225.233 104.157 226.709 103.044C228.401 101.994 229.823 100.55 231.078 99.0337C232.562 97.2402 233.923 95.431 234.765 93.2534C235.178 92.1832 235.503 91.0674 235.696 89.9386C235.705 89.8893 235.715 89.836 235.727 89.7805C235.924 89.3906 236.101 88.992 236.249 88.5842C236.484 87.9374 237.039 87.2259 235.998 86.9986Z" fill="#69A1AC"/>
<path fill-rule="evenodd" clip-rule="evenodd" d="M39.9235 90.4304C39.515 90.023 39.0562 89.6556 38.5174 89.3934C38.3812 89.3272 37.3667 88.8834 37.3006 88.9808C37.1467 89.2076 39.8008 90.3003 39.9235 90.4304ZM44.7336 87.7095C44.7303 87.7267 45.0821 88.2763 45.1778 88.4453C45.3817 88.8046 45.5699 89.1709 45.747 89.5379C45.4848 88.8897 45.2155 88.2885 44.7336 87.7095ZM20.1333 92.1836C19.7945 92.2841 19.3872 91.8881 19.8266 91.7905C20.1822 91.7122 20.1648 91.6938 20.3245 91.43C20.4541 91.2159 20.534 90.9547 20.6477 90.7299C20.8891 90.2532 21.1628 89.7986 21.4988 89.3726C22.219 88.4594 23.0964 87.6725 24.0804 87.0094C25.7979 85.8523 27.7235 84.7947 29.7662 84.2634C33.014 83.4185 36.7106 83.3662 39.9635 83.9521C41.9782 84.3148 43.8193 84.9454 45.1571 86.4391C45.8257 87.1856 46.3506 88.0601 46.58 89.023C46.6399 89.2748 46.6287 89.5547 46.7036 89.8011C46.8188 90.18 46.768 90.0791 47.2493 90.1528C47.7748 90.2333 48.2998 90.3154 48.8247 90.399C50.1991 90.6179 51.5815 90.8503 52.9207 91.2056C53.3614 91.3224 53.7925 91.4653 54.2136 91.6313C54.5321 91.7567 55.8003 92.1505 55.9544 92.5315C56.2109 93.1654 55.3514 92.878 55.0843 92.74C54.8504 92.619 54.6102 92.5062 54.3665 92.4024C53.753 92.1409 53.1137 91.9387 52.46 91.7777C51.7536 91.6037 51.0327 91.4738 50.3146 91.3437C49.6449 91.2225 48.9728 91.1123 48.2997 91.0069C47.9258 90.9483 47.5516 90.8914 47.1774 90.8345C47.0496 90.815 46.8241 90.7131 46.8412 90.8661C46.0544 90.7265 45.2036 90.7466 44.4023 90.7081C43.4207 90.661 42.4355 90.6223 41.4507 90.6506C40.7404 90.671 40.0295 90.7139 39.3228 90.8018C38.9098 90.8532 38.5035 90.9283 38.0983 91.0234C37.8758 91.0757 36.9982 91.1866 36.877 91.3652C36.9291 91.2885 37.8976 91.3629 38.0209 91.3585C38.514 91.3415 39.0032 91.2966 39.4945 91.246C40.4061 91.1522 41.3182 91.1032 42.2326 91.1104C42.2291 91.2582 41.6045 91.5215 41.452 91.6194C41.1101 91.8392 40.7826 92.0789 40.4771 92.3417C39.9389 92.8047 39.2945 93.3783 38.9223 93.9268C39.032 93.7651 39.5732 93.5548 39.7653 93.4313C40.073 93.2333 40.3744 93.0222 40.6596 92.7964C40.9229 92.588 41.1686 92.3629 41.4102 92.133C41.6518 91.9029 41.9796 91.4245 42.2971 91.2713C42.3163 91.2621 42.4546 91.3627 42.5333 91.3285C42.6125 91.294 42.7112 91.1216 42.7313 91.1146C43.0268 91.0096 43.5881 91.1402 43.8987 91.1534C44.7044 91.1876 45.5093 91.2323 46.3144 91.2731C46.5638 91.2857 46.7757 91.2335 46.87 91.4029C46.9703 91.5836 46.7864 92.0585 46.7341 92.2553C46.54 92.9862 46.1952 93.6416 45.6525 94.2078C44.6361 95.2685 43.3828 95.9756 41.967 96.4485C36.5439 98.2602 30.7746 98.9857 25.3532 97.1012C23.1087 96.3209 19.7286 94.9267 20.1333 92.1836Z" fill="#89C5CC"/>
<g opacity="0.6">
<g clip-path="url(#clip0)">
<path fill-rule="evenodd" clip-rule="evenodd" d="M268.335 177.535C272.023 200.532 182.587 215.532 105.608 205.064C28.6282 194.596 -6.68635 153.716 30.0469 131.934C66.7802 110.151 264.647 154.538 268.335 177.535Z" fill="#DDE3E9"/>
</g>
</g>
<g clip-path="url(#clip1)">
<rect x="71.8752" y="39.9485" width="48.0597" height="91.2832" rx="2.4181" fill="#F2F2F2"/>
<path fill-rule="evenodd" clip-rule="evenodd" d="M95.7539 125.489C98.2579 125.489 100.288 123.459 100.288 120.955C100.288 118.451 98.2579 116.421 95.7539 116.421C93.2498 116.421 91.2199 118.451 91.2199 120.955C91.2199 123.459 93.2498 125.489 95.7539 125.489Z" fill="white"/>
<path fill-rule="evenodd" clip-rule="evenodd" d="M91.8244 45.9937C92.1583 45.9937 92.429 45.7231 92.429 45.3892C92.429 45.0553 92.1583 44.7847 91.8244 44.7847C91.4906 44.7847 91.2199 45.0553 91.2199 45.3892C91.2199 45.7231 91.4906 45.9937 91.8244 45.9937Z" fill="white"/>
<rect x="93.9403" y="44.7847" width="6.34751" height="1.20905" rx="0.604525" fill="white"/>
<g clip-path="url(#clip2)">
<g clip-path="url(#clip3)">
<rect x="76.1068" y="48.4118" width="39.5964" height="16.3222" rx="1.20905" fill="white"/>
<g clip-path="url(#clip4)">
<rect x="87.895" y="53.3085" width="22.0651" height="2.44832" rx="0.906787" fill="#DDE3E9"/>
<rect x="87.895" y="57.389" width="14.8109" height="2.44832" rx="0.906787" fill="#DDE3E9"/>
</g>
<path fill-rule="evenodd" clip-rule="evenodd" d="M82.4543 60.2C84.4575 60.2 86.0815 58.5761 86.0815 56.5729C86.0815 54.5697 84.4575 52.9458 82.4543 52.9458C80.4511 52.9458 78.8272 54.5697 78.8272 56.5729C78.8272 58.5761 80.4511 60.2 82.4543 60.2Z" fill="#C5CFD6"/>
</g>
<g clip-path="url(#clip5)">
<rect x="76.1068" y="67.1521" width="39.5964" height="12.695" rx="1.20905" fill="white"/>
<g clip-path="url(#clip6)">
<rect x="87.895" y="70.9606" width="22.0651" height="1.90425" rx="0.906787" fill="#DDE3E9"/>
<rect x="87.895" y="74.1343" width="14.8109" height="1.90425" rx="0.906787" fill="#DDE3E9"/>
</g>
<path fill-rule="evenodd" clip-rule="evenodd" d="M82.4543 77.1267C84.4575 77.1267 86.0815 75.5028 86.0815 73.4996C86.0815 71.4964 84.4575 69.8724 82.4543 69.8724C80.4511 69.8724 78.8272 71.4964 78.8272 73.4996C78.8272 75.5028 80.4511 77.1267 82.4543 77.1267Z" fill="#C5CFD6"/>
</g>
<g clip-path="url(#clip7)">
<rect x="76.1068" y="82.2652" width="39.5964" height="12.695" rx="1.20905" fill="white"/>
<g clip-path="url(#clip8)">
<rect x="87.895" y="86.0737" width="22.0651" height="1.90425" rx="0.906787" fill="#DDE3E9"/>
<rect x="87.895" y="89.2475" width="14.8109" height="1.90425" rx="0.906787" fill="#DDE3E9"/>
</g>
<path fill-rule="evenodd" clip-rule="evenodd" d="M82.4543 92.2399C84.4575 92.2399 86.0815 90.6159 86.0815 88.6127C86.0815 86.6095 84.4575 84.9856 82.4543 84.9856C80.4511 84.9856 78.8272 86.6095 78.8272 88.6127C78.8272 90.6159 80.4511 92.2399 82.4543 92.2399Z" fill="#AFB9C5"/>
</g>
<g clip-path="url(#clip9)">
<rect x="76.1068" y="97.3783" width="39.5964" height="12.695" rx="1.20905" fill="white"/>
<g clip-path="url(#clip10)">
<rect x="87.895" y="101.187" width="22.0651" height="1.90425" rx="0.906787" fill="#DDE3E9"/>
<rect x="87.895" y="104.361" width="14.8109" height="1.90425" rx="0.906787" fill="#DDE3E9"/>
</g>
<path fill-rule="evenodd" clip-rule="evenodd" d="M82.4543 107.353C84.4575 107.353 86.0815 105.729 86.0815 103.726C86.0815 101.723 84.4575 100.099 82.4543 100.099C80.4511 100.099 78.8272 101.723 78.8272 103.726C78.8272 105.729 80.4511 107.353 82.4543 107.353Z" fill="#C5CFD6"/>
</g>
</g>
</g>
<g clip-path="url(#clip11)">
<path fill-rule="evenodd" clip-rule="evenodd" d="M80.9853 113.701C80.5849 113.701 80.1856 113.709 79.7857 113.729C79.4808 113.745 79.015 113.682 78.757 113.872C78.489 114.069 78.5074 114.473 78.5493 114.759C78.7707 116.268 79.3108 117.605 80.4409 118.674C82.181 120.32 84.1757 121.157 86.5362 121.529C88.1942 121.791 89.7249 121.427 90.9455 120.248C91.8373 121.904 92.5139 123.735 92.8534 125.584C93.0208 126.496 93.072 127.397 93.0425 128.326C93.0236 128.921 92.9908 129.515 92.927 130.107C92.8993 130.364 92.7681 130.754 92.8689 130.997C92.9871 131.282 93.3857 131.31 93.5647 131.067C93.7136 130.864 93.6863 130.466 93.7169 130.226C93.7676 129.828 93.8146 129.429 93.8482 129.029C93.9027 128.381 93.9431 127.731 93.9402 127.081C93.9333 125.62 93.6085 124.154 93.1642 122.767C92.3118 120.106 90.9288 117.742 88.7778 115.886C87.4553 114.745 85.9416 114.283 84.2243 114.035C83.1551 113.881 82.0684 113.701 80.9853 113.701Z" fill="#89C5CC"/>
<path fill-rule="evenodd" clip-rule="evenodd" d="M87.161 124.28C82.8389 124.28 79.9281 127.763 78.5517 131.383C78.0329 132.748 77.9113 134.246 77.7114 135.679C77.6472 136.139 77.671 136.84 77.4843 137.249C77.4166 137.398 77.2613 137.451 77.3355 137.654C77.3805 137.776 77.4687 137.851 77.6011 137.876C77.873 137.926 78.2574 137.63 78.4904 137.513C80.4237 136.543 81.6939 135.044 82.7301 133.21C83.3725 132.073 84.0242 130.893 84.4058 129.645C84.6389 128.882 84.7745 128.079 84.8542 127.288C84.8856 126.977 84.916 126.658 84.9141 126.345C84.9123 126.034 84.7676 125.869 84.6636 125.599C86.1058 125.053 87.7336 124.904 89.1944 125.47C90.5455 125.993 91.6678 127.004 92.2963 128.274C92.4596 128.604 92.5855 128.953 92.6772 129.308C92.7373 129.541 92.7402 129.843 92.8514 130.053C93.1212 130.563 93.6889 130.222 93.6344 129.747C93.4824 128.423 92.7248 127.093 91.7565 126.173C90.5352 125.011 88.8797 124.28 87.161 124.28Z" fill="#89C5CC"/>
<rect x="91.8245" y="47.8073" width="48.0597" height="91.2832" rx="2.4181" fill="#DDE3E9"/>
<path fill-rule="evenodd" clip-rule="evenodd" d="M115.703 133.348C118.207 133.348 120.237 131.318 120.237 128.814C120.237 126.31 118.207 124.28 115.703 124.28C113.199 124.28 111.169 126.31 111.169 128.814C111.169 131.318 113.199 133.348 115.703 133.348Z" fill="white"/>
<path fill-rule="evenodd" clip-rule="evenodd" d="M111.774 53.8526C112.108 53.8526 112.378 53.5819 112.378 53.248C112.378 52.9142 112.108 52.6435 111.774 52.6435C111.44 52.6435 111.169 52.9142 111.169 53.248C111.169 53.5819 111.44 53.8526 111.774 53.8526Z" fill="white"/>
<rect x="113.89" y="52.6435" width="6.34751" height="1.20905" rx="0.604525" fill="white"/>
<g clip-path="url(#clip12)">
<g clip-path="url(#clip13)">
<rect x="96.0561" y="56.2706" width="39.5964" height="16.3222" rx="1.20905" fill="white"/>
<g clip-path="url(#clip14)">
<rect x="98.7765" y="61.1673" width="22.0651" height="2.44832" rx="0.906787" fill="#DDE3E9"/>
<rect x="98.7765" y="65.2478" width="14.8109" height="2.44832" rx="0.906787" fill="#DDE3E9"/>
</g>
<path fill-rule="evenodd" clip-rule="evenodd" d="M131.421 66.5475C132.589 66.5475 133.537 65.6003 133.537 64.4317C133.537 63.2632 132.589 62.3159 131.421 62.3159C130.252 62.3159 129.305 63.2632 129.305 64.4317C129.305 65.6003 130.252 66.5475 131.421 66.5475Z" fill="#DDE3E9"/>
<path fill-rule="evenodd" clip-rule="evenodd" d="M131.421 65.3385C131.922 65.3385 132.328 64.9325 132.328 64.4317C132.328 63.9309 131.922 63.5249 131.421 63.5249C130.92 63.5249 130.514 63.9309 130.514 64.4317C130.514 64.9325 130.92 65.3385 131.421 65.3385Z" fill="#F2F2F2"/>
</g>
<g clip-path="url(#clip15)">
<rect x="96.0561" y="75.0109" width="39.5964" height="12.695" rx="1.20905" fill="white"/>
<g clip-path="url(#clip16)">
<rect x="107.844" y="78.8194" width="22.0651" height="1.90425" rx="0.906787" fill="#DDE3E9"/>
<rect x="107.844" y="81.9931" width="14.8109" height="1.90425" rx="0.906787" fill="#DDE3E9"/>
</g>
<path fill-rule="evenodd" clip-rule="evenodd" d="M102.404 84.9855C104.407 84.9855 106.031 83.3616 106.031 81.3584C106.031 79.3552 104.407 77.7312 102.404 77.7312C100.4 77.7312 98.7765 79.3552 98.7765 81.3584C98.7765 83.3616 100.4 84.9855 102.404 84.9855Z" fill="#C5CFD6"/>
</g>
<g clip-path="url(#clip17)">
<rect x="96.0561" y="90.124" width="39.5964" height="12.695" rx="1.20905" fill="white"/>
<g clip-path="url(#clip18)">
<rect x="98.7765" y="93.9325" width="22.0651" height="1.90425" rx="0.906787" fill="#DDE3E9"/>
<rect x="98.7765" y="97.1063" width="14.8109" height="1.90425" rx="0.906787" fill="#AFB9C5"/>
</g>
<path fill-rule="evenodd" clip-rule="evenodd" d="M131.421 98.5874C132.589 98.5874 133.537 97.6401 133.537 96.4715C133.537 95.303 132.589 94.3557 131.421 94.3557C130.252 94.3557 129.305 95.303 129.305 96.4715C129.305 97.6401 130.252 98.5874 131.421 98.5874Z" fill="#DDE3E9"/>
<path fill-rule="evenodd" clip-rule="evenodd" d="M131.421 97.3783C131.922 97.3783 132.328 96.9723 132.328 96.4715C132.328 95.9707 131.922 95.5647 131.421 95.5647C130.92 95.5647 130.514 95.9707 130.514 96.4715C130.514 96.9723 130.92 97.3783 131.421 97.3783Z" fill="#F2F2F2"/>
</g>
<g clip-path="url(#clip19)">
<rect x="96.0561" y="105.237" width="39.5964" height="12.695" rx="1.20905" fill="white"/>
<g clip-path="url(#clip20)">
<rect x="107.844" y="109.046" width="22.0651" height="1.90425" rx="0.906787" fill="#DDE3E9"/>
<rect x="107.844" y="112.219" width="14.8109" height="1.90425" rx="0.906787" fill="#DDE3E9"/>
</g>
<path fill-rule="evenodd" clip-rule="evenodd" d="M102.404 115.212C104.407 115.212 106.031 113.588 106.031 111.585C106.031 109.581 104.407 107.957 102.404 107.957C100.4 107.957 98.7765 109.581 98.7765 111.585C98.7765 113.588 100.4 115.212 102.404 115.212Z" fill="#C5CFD6"/>
</g>
</g>
</g>
<g clip-path="url(#clip21)">
<rect x="111.774" y="55.3638" width="101.258" height="104.583" rx="2.4181" fill="#F2F2F2"/>
<rect x="187.037" y="68.3611" width="21.1584" height="24.4832" rx="2.4181" fill="white"/>
<path fill-rule="evenodd" clip-rule="evenodd" d="M197.616 82.5675C200.287 82.5675 202.452 80.4022 202.452 77.7313C202.452 75.0603 200.287 72.8951 197.616 72.8951C194.945 72.8951 192.78 75.0603 192.78 77.7313C192.78 80.4022 194.945 82.5675 197.616 82.5675Z" fill="#DDE3E9"/>
<rect x="190.06" y="83.7765" width="15.1131" height="1.81357" rx="0.906787" fill="#DDE3E9"/>
<rect x="192.478" y="86.7991" width="10.2769" height="1.81357" rx="0.906787" fill="#DDE3E9"/>
<path d="M111.774 57.7819C111.774 56.4465 112.856 55.3638 114.192 55.3638H210.614C211.949 55.3638 213.032 56.4465 213.032 57.7819V63.5249H111.774V57.7819Z" fill="#C5CFD6"/>
<path fill-rule="evenodd" clip-rule="evenodd" d="M115.703 60.8046C116.371 60.8046 116.912 60.2632 116.912 59.5955C116.912 58.9278 116.371 58.3865 115.703 58.3865C115.035 58.3865 114.494 58.9278 114.494 59.5955C114.494 60.2632 115.035 60.8046 115.703 60.8046Z" fill="#F2F2F2"/>
<path fill-rule="evenodd" clip-rule="evenodd" d="M119.33 60.8046C119.998 60.8046 120.539 60.2633 120.539 59.5955C120.539 58.9278 119.998 58.3865 119.33 58.3865C118.663 58.3865 118.121 58.9278 118.121 59.5955C118.121 60.2633 118.663 60.8046 119.33 60.8046Z" fill="#F2F2F2"/>
<path fill-rule="evenodd" clip-rule="evenodd" d="M122.957 60.8046C123.625 60.8046 124.167 60.2633 124.167 59.5955C124.167 58.9278 123.625 58.3865 122.957 58.3865C122.29 58.3865 121.748 58.9278 121.748 59.5955C121.748 60.2633 122.29 60.8046 122.957 60.8046Z" fill="#F2F2F2"/>
<g clip-path="url(#clip22)">
<rect x="187.037" y="95.2625" width="21.1584" height="58.6389" rx="2.4181" fill="white"/>
<g clip-path="url(#clip23)">
<rect x="192.478" y="100.703" width="10.2769" height="7.85882" rx="1.20905" fill="#DDE3E9"/>
<rect x="192.478" y="110.98" width="10.2769" height="7.55656" rx="1.20905" fill="#AFB9C5"/>
<rect x="192.478" y="120.955" width="10.2769" height="7.55656" rx="1.20905" fill="#DDE3E9"/>
<rect x="192.478" y="140.904" width="10.2769" height="7.55656" rx="1.20905" fill="#DDE3E9"/>
<rect x="192.478" y="130.929" width="10.2769" height="7.55656" rx="1.20905" fill="#C5CFD6"/>
</g>
</g>
<g clip-path="url(#clip24)">
<g clip-path="url(#clip25)">
<rect x="116.61" y="68.6634" width="68.009" height="14.2063" rx="1.20905" fill="white"/>
<g clip-path="url(#clip26)">
<rect x="119.33" y="72.9253" width="50.4778" height="2.13095" rx="0.906787" fill="#DDE3E9"/>
<rect x="119.33" y="76.4769" width="33.8824" height="2.13095" rx="0.906787" fill="#DDE3E9"/>
</g>
<path fill-rule="evenodd" clip-rule="evenodd" d="M177.351 77.8824C178.519 77.8824 179.467 76.9351 179.467 75.7666C179.467 74.598 178.519 73.6507 177.351 73.6507C176.182 73.6507 175.235 74.598 175.235 75.7666C175.235 76.9351 176.182 77.8824 177.351 77.8824Z" fill="#DDE3E9"/>
<path fill-rule="evenodd" clip-rule="evenodd" d="M177.351 76.6733C177.852 76.6733 178.258 76.2674 178.258 75.7666C178.258 75.2658 177.852 74.8598 177.351 74.8598C176.85 74.8598 176.444 75.2658 176.444 75.7666C176.444 76.2674 176.85 76.6733 177.351 76.6733Z" fill="#F2F2F2"/>
</g>
<g clip-path="url(#clip27)">
<rect x="116.61" y="85.2878" width="68.009" height="11.7882" rx="1.20905" fill="white"/>
<g clip-path="url(#clip28)">
<rect x="119.33" y="88.8243" width="50.4778" height="1.76823" rx="0.884117" fill="#DDE3E9"/>
<rect x="119.33" y="91.7713" width="33.8824" height="1.76823" rx="0.884117" fill="#DDE3E9"/>
</g>
<path fill-rule="evenodd" clip-rule="evenodd" d="M177.351 93.2978C178.519 93.2978 179.467 92.3505 179.467 91.1819C179.467 90.0134 178.519 89.0661 177.351 89.0661C176.182 89.0661 175.235 90.0134 175.235 91.1819C175.235 92.3505 176.182 93.2978 177.351 93.2978Z" fill="#DDE3E9"/>
<path fill-rule="evenodd" clip-rule="evenodd" d="M177.351 92.0888C177.852 92.0888 178.258 91.6828 178.258 91.182C178.258 90.6812 177.852 90.2752 177.351 90.2752C176.85 90.2752 176.444 90.6812 176.444 91.182C176.444 91.6828 176.85 92.0888 177.351 92.0888Z" fill="#F2F2F2"/>
</g>
<g clip-path="url(#clip29)">
<rect x="116.61" y="99.4942" width="68.009" height="11.7882" rx="1.20905" fill="white"/>
<g clip-path="url(#clip30)">
<rect x="119.33" y="103.031" width="50.4778" height="1.76823" rx="0.884117" fill="#DDE3E9"/>
<rect x="119.33" y="105.978" width="33.8824" height="1.76823" rx="0.884117" fill="#DDE3E9"/>
</g>
<path fill-rule="evenodd" clip-rule="evenodd" d="M177.351 107.504C178.519 107.504 179.467 106.557 179.467 105.388C179.467 104.22 178.519 103.272 177.351 103.272C176.182 103.272 175.235 104.22 175.235 105.388C175.235 106.557 176.182 107.504 177.351 107.504Z" fill="#DDE3E9"/>
<path fill-rule="evenodd" clip-rule="evenodd" d="M177.351 106.295C177.852 106.295 178.258 105.889 178.258 105.388C178.258 104.887 177.852 104.482 177.351 104.482C176.85 104.482 176.444 104.887 176.444 105.388C176.444 105.889 176.85 106.295 177.351 106.295Z" fill="#AFB9C5"/>
</g>
<g clip-path="url(#clip31)">
<rect x="116.61" y="142.113" width="68.009" height="11.7882" rx="1.20905" fill="white"/>
<g clip-path="url(#clip32)">
<rect x="119.33" y="145.65" width="50.4778" height="1.76823" rx="0.884117" fill="#DDE3E9"/>
<rect x="119.33" y="148.597" width="33.8824" height="1.76823" rx="0.884117" fill="#DDE3E9"/>
</g>
<path fill-rule="evenodd" clip-rule="evenodd" d="M177.351 150.123C178.519 150.123 179.467 149.176 179.467 148.007C179.467 146.839 178.519 145.891 177.351 145.891C176.182 145.891 175.235 146.839 175.235 148.007C175.235 149.176 176.182 150.123 177.351 150.123Z" fill="#DDE3E9"/>
<path fill-rule="evenodd" clip-rule="evenodd" d="M177.351 148.914C177.852 148.914 178.258 148.508 178.258 148.007C178.258 147.506 177.852 147.1 177.351 147.1C176.85 147.1 176.444 147.506 176.444 148.007C176.444 148.508 176.85 148.914 177.351 148.914Z" fill="#F2F2F2"/>
</g>
<g clip-path="url(#clip33)">
<rect x="116.61" y="127.907" width="68.009" height="11.7882" rx="1.20905" fill="white"/>
<g clip-path="url(#clip34)">
<rect x="119.33" y="131.443" width="50.4778" height="1.76823" rx="0.884117" fill="#DDE3E9"/>
<rect x="119.33" y="134.39" width="33.8824" height="1.76823" rx="0.884117" fill="#DDE3E9"/>
</g>
<path fill-rule="evenodd" clip-rule="evenodd" d="M177.351 135.917C178.519 135.917 179.467 134.969 179.467 133.801C179.467 132.632 178.519 131.685 177.351 131.685C176.182 131.685 175.235 132.632 175.235 133.801C175.235 134.969 176.182 135.917 177.351 135.917Z" fill="#DDE3E9"/>
<path fill-rule="evenodd" clip-rule="evenodd" d="M177.351 134.708C177.852 134.708 178.258 134.302 178.258 133.801C178.258 133.3 177.852 132.894 177.351 132.894C176.85 132.894 176.444 133.3 176.444 133.801C176.444 134.302 176.85 134.708 177.351 134.708Z" fill="#F2F2F2"/>
</g>
<g clip-path="url(#clip35)">
<rect x="116.61" y="113.7" width="68.009" height="11.7882" rx="1.20905" fill="white"/>
<g clip-path="url(#clip36)">
<rect x="119.33" y="117.237" width="50.4778" height="1.76823" rx="0.884117" fill="#DDE3E9"/>
<rect x="119.33" y="120.184" width="33.8824" height="1.76823" rx="0.884117" fill="#DDE3E9"/>
</g>
<path fill-rule="evenodd" clip-rule="evenodd" d="M177.351 121.71C178.519 121.71 179.467 120.763 179.467 119.595C179.467 118.426 178.519 117.479 177.351 117.479C176.182 117.479 175.235 118.426 175.235 119.595C175.235 120.763 176.182 121.71 177.351 121.71Z" fill="#DDE3E9"/>
<path fill-rule="evenodd" clip-rule="evenodd" d="M177.351 120.501C177.852 120.501 178.258 120.095 178.258 119.595C178.258 119.094 177.852 118.688 177.351 118.688C176.85 118.688 176.444 119.094 176.444 119.595C176.444 120.095 176.85 120.501 177.351 120.501Z" fill="#F2F2F2"/>
</g>
</g>
</g>
<path fill-rule="evenodd" clip-rule="evenodd" d="M238.115 106.862C236.923 106.053 235.337 105.842 233.911 105.842C228.338 105.842 223.1 107.909 218.575 110.99C216.096 112.678 213.878 114.827 211.92 117.065C210.79 118.357 209.782 119.755 209.068 121.309C208.587 122.358 208.256 123.452 208.032 124.579C207.759 125.953 207.542 127.355 207.444 128.752C207.406 129.302 207.086 132.221 208.001 132.271C207.995 132.343 207.994 132.411 208 132.473C206.014 135.578 204.787 139.217 203.649 142.668C202.659 145.67 201.777 148.698 201.204 151.805C200.45 155.894 199.955 160.045 199.719 164.193C199.669 165.085 199.634 165.977 199.604 166.869C199.579 167.631 199.553 168.392 199.528 169.154C199.5 170.007 199.35 170.989 199.486 171.838C199.604 172.576 200.243 172.465 200.272 171.729C200.306 170.842 200.3 169.952 200.339 169.064C200.391 167.884 200.444 166.705 200.502 165.527C200.903 157.338 202.41 149.269 205.191 141.534C206.317 138.404 207.606 135.441 209.264 132.545C210.721 129.999 212.474 127.534 214.266 125.239C216.008 123.008 217.818 120.829 219.952 118.939C221.684 117.405 223.588 116.069 225.546 114.826C228.033 113.247 230.515 111.706 233.209 110.494C234.609 109.864 236.036 109.3 237.447 108.695C237.701 108.586 237.974 108.481 238.218 108.355C239.032 107.935 238.764 107.302 238.115 106.862Z" fill="#C1DEE2"/>
<path fill-rule="evenodd" clip-rule="evenodd" d="M215.697 135.463C217.957 135.463 219.968 135.757 222.051 136.655C223.848 137.43 225.486 138.457 227.077 139.574C229.314 141.145 231.076 142.974 232.31 145.397C233.047 146.845 233.587 148.893 233.092 150.472C232.509 152.332 230.909 153.883 228.8 153.555C227.497 153.353 226.302 152.49 225.311 151.678C224.126 150.706 223.177 149.538 222.393 148.24C221.115 146.123 220.364 143.731 219.279 141.519C218.764 140.469 218.266 139.412 217.649 138.414C217.343 137.92 217.018 137.431 216.555 137.064C216.307 136.867 215.262 136.527 215.661 136.086C209.8 136.163 204.608 140.664 203.483 146.236C203.378 146.756 203.296 147.279 203.21 147.802C203.155 148.132 203.177 149.348 202.882 149.559C202.232 150.024 202.505 148.611 202.533 148.408C202.605 147.883 202.682 147.357 202.763 146.833C203.202 143.982 204.472 141.331 206.589 139.297C209.01 136.972 212.276 135.463 215.697 135.463Z" fill="#89C5CC"/>
<path fill-rule="evenodd" clip-rule="evenodd" d="M23.1921 145.358C28.8343 154.824 35.4057 163.989 39.352 174.338C39.193 173.118 39.0243 171.9 38.8356 170.683C37.8343 164.232 36.5898 157.829 35.2821 151.433C34.6161 148.177 33.9117 144.932 33.1893 141.688C32.8008 139.946 32.417 138.202 32.0204 136.461C31.9244 136.039 31.8419 135.303 31.7216 134.557C35.5568 147.142 39.2552 159.736 41.9605 172.624C42.3154 174.316 42.6176 176.004 42.8652 177.689C42.9499 177.305 43.0332 176.92 43.1243 176.537C44.2189 171.94 45.8609 167.38 47.8159 163.082C48.7505 161.027 49.824 159.017 51.088 157.143C51.8762 155.976 53.735 154.588 54.4541 153.392C50.5217 160.604 49.1018 169.629 46.8313 177.47C46.2771 179.383 45.7194 181.294 45.173 183.207C48.5971 176.34 53.9097 170.699 61.296 168.254C52.3551 174.161 46.9923 184.507 43.3785 195.088C43.3666 195.213 43.3524 195.339 43.3402 195.464C44.4036 193.446 45.7431 191.621 47.5586 190.342C51.4442 187.605 55.7546 188.402 59.5238 190.75C56.5656 188.87 51.2194 190.582 48.7303 192.493C46.9485 193.861 45.4256 195.697 44.1032 197.487C43.7864 197.917 43.3541 198.418 42.8974 198.952C42.2571 203.108 41.2136 207.236 39.7364 211.331C39.9801 210.156 39.8039 208.276 39.8715 207.4C39.8788 207.305 39.8848 207.21 39.8921 207.115C39.6675 208.012 39.4506 208.898 39.2417 209.771C39.6569 208.106 39.8826 206.369 40.0588 204.614C40.1042 203.859 40.1484 203.105 40.1952 202.351C40.1804 200.919 40.1214 199.482 40.0217 198.043C39.6681 196.644 39.2722 195.324 38.9456 194.227C37.7674 190.267 36.0402 186.473 33.9143 182.934C31.9746 179.704 29.6529 176.779 26.9725 174.133C25.5276 172.707 24.0154 171.349 22.5245 169.973C21.9853 169.475 21.0217 168.251 20.1883 167.613C26.2579 170.959 32.5051 174.579 36.9329 179.971C36.4138 177.977 35.85 176.012 35.2536 174.086C32.2278 164.316 28.4072 154.189 23.1921 145.358Z" fill="#DDE3E9"/>
<path fill-rule="evenodd" clip-rule="evenodd" d="M29.2562 198.938C29.2562 209.789 30.1155 218.586 41.6489 218.586C53.1824 218.586 54.0417 209.789 54.0417 198.938" fill="#C5CFD6"/>
<rect x="187.339" y="42.3666" width="1.81357" height="7.55656" rx="0.906787" fill="#DDE3E9"/>
<rect x="191.571" y="37.5304" width="1.81357" height="12.3928" rx="0.906787" fill="#DDE3E9"/>
<rect x="195.803" y="35.1123" width="1.81357" height="14.8109" rx="0.906787" fill="#DDE3E9"/>
<rect x="200.034" y="37.5304" width="1.81357" height="12.3928" rx="0.906787" fill="#DDE3E9"/>
<rect x="204.266" y="32.6942" width="1.81357" height="17.229" rx="0.906787" fill="#C5CFD6"/>
<path fill-rule="evenodd" clip-rule="evenodd" d="M38.6263 125.264C38.6263 121.897 41.3473 119.141 44.6716 119.141V125.264L40.5402 129.72C39.365 128.631 38.6263 127.032 38.6263 125.264Z" fill="#F2F2F2"/>
<path fill-rule="evenodd" clip-rule="evenodd" d="M44.5116 125.186H50.6165C50.6165 126.765 49.9727 128.243 48.955 129.318C47.8357 130.493 46.2417 131.232 44.5116 131.232C42.9179 131.232 41.4592 130.594 40.3395 129.586L44.5116 125.186Z" fill="#AFB9C5"/>
<path fill-rule="evenodd" clip-rule="evenodd" d="M50.7168 125.186C50.7168 121.862 47.9958 119.141 44.6716 119.141V125.186H50.7168ZM41.6489 119.141L44.067 124.582L38.6263 122.164C39.1643 120.753 40.3725 119.679 41.6489 119.141Z" fill="#C5CFD6"/>
<path fill-rule="evenodd" clip-rule="evenodd" d="M235.328 127.961C234.748 128.578 233.925 128.965 233.01 128.965C231.251 128.965 229.826 127.544 229.826 125.791C229.826 124.038 231.251 122.617 233.01 122.617V116.723C228.007 116.723 223.913 120.805 223.913 125.791C223.913 130.777 228.007 134.859 233.01 134.859C235.637 134.859 238.012 133.751 239.631 131.988L235.328 127.961Z" fill="#F2F2F2"/>
<path fill-rule="evenodd" clip-rule="evenodd" d="M232.981 116.723V122.617C234.734 122.617 236.155 124.038 236.155 125.791H242.049C242.049 120.805 237.967 116.723 232.981 116.723Z" fill="#AFB9C5"/>
<path fill-rule="evenodd" clip-rule="evenodd" d="M236.033 125.791C236.033 126.821 235.548 127.736 234.795 128.327L238.501 133.045C240.658 131.356 242.049 128.738 242.049 125.791H236.033Z" fill="#C5CFD6"/>
<path fill-rule="evenodd" clip-rule="evenodd" d="M177.682 44.6347C177.236 45.1075 176.603 45.4043 175.899 45.4043C174.546 45.4043 173.45 44.3149 173.45 42.9711C173.45 41.6273 174.546 40.5379 175.899 40.5379V36.0191C172.051 36.0191 168.901 39.1482 168.901 42.9711C168.901 46.794 172.051 49.9231 175.899 49.9231C177.92 49.9231 179.747 49.0736 180.992 47.7221L177.682 44.6347Z" fill="#F2F2F2"/>
<path fill-rule="evenodd" clip-rule="evenodd" d="M175.853 36.019V40.5379C177.197 40.5379 178.287 41.6272 178.287 42.9711H182.805C182.805 39.1482 179.676 36.019 175.853 36.019Z" fill="#AFB9C5"/>
<path fill-rule="evenodd" clip-rule="evenodd" d="M178.293 42.9711C178.293 43.7434 177.93 44.43 177.365 44.8732L180.144 48.4118C181.762 47.145 182.805 45.1812 182.805 42.9711H178.293Z" fill="#C5CFD6"/>
<path fill-rule="evenodd" clip-rule="evenodd" d="M67.6456 49.919C67.6444 49.922 67.6432 49.925 67.6414 49.9287C67.6432 49.9257 67.6456 49.9136 67.6456 49.919Z" fill="#C5CFD6"/>
<path fill-rule="evenodd" clip-rule="evenodd" d="M67.6428 49.9236C67.6428 49.9242 67.6422 49.9254 67.6422 49.9266C67.6422 49.9236 67.6476 49.9145 67.6428 49.9236Z" fill="#C5CFD6"/>
<path fill-rule="evenodd" clip-rule="evenodd" d="M67.6638 49.8725C67.6595 49.8845 67.6541 49.896 67.6493 49.9081C67.6517 49.9021 67.6541 49.8972 67.6565 49.8912C67.5936 50.0484 67.6335 49.9462 67.6638 49.8725Z" fill="#C5CFD6"/>
<path fill-rule="evenodd" clip-rule="evenodd" d="M67.6502 49.9089C67.6478 49.9143 67.6454 49.9203 67.643 49.9258C67.6255 49.9596 67.6502 49.9089 67.6502 49.9089Z" fill="#C5CFD6"/>
<path fill-rule="evenodd" clip-rule="evenodd" d="M67.6432 49.9237C67.6432 49.9231 67.6432 49.9231 67.6438 49.9225C67.6432 49.9231 67.6432 49.9231 67.6432 49.9237Z" fill="#C5CFD6"/>
<path fill-rule="evenodd" clip-rule="evenodd" d="M67.6403 49.9281C67.6367 49.9353 67.6572 49.9003 67.6403 49.9281V49.9281Z" fill="#C5CFD6"/>
<path fill-rule="evenodd" clip-rule="evenodd" d="M67.6429 49.9237L67.6441 49.9225C67.6435 49.9231 67.6435 49.9237 67.6429 49.9237Z" fill="#C5CFD6"/>
<rect x="53.1349" y="34.2055" width="28.7149" height="19.0425" rx="1.20905" fill="#DDE3E9"/>
<path fill-rule="evenodd" clip-rule="evenodd" d="M64.0163 39.6462L55.553 53.248H72.4797L64.0163 39.6462Z" fill="#AFB9C5"/>
<path fill-rule="evenodd" clip-rule="evenodd" d="M72.3285 43.2734L64.9231 53.248H79.734L72.3285 43.2734Z" fill="#C5CFD6"/>
<path fill-rule="evenodd" clip-rule="evenodd" d="M75.5023 43.2734C77.0047 43.2734 78.2227 42.0554 78.2227 40.553C78.2227 39.0506 77.0047 37.8327 75.5023 37.8327C73.9999 37.8327 72.7819 39.0506 72.7819 40.553C72.7819 42.0554 73.9999 43.2734 75.5023 43.2734Z" fill="white"/>
<path fill-rule="evenodd" clip-rule="evenodd" d="M211.82 178.985C211.822 178.988 211.823 178.991 211.825 178.995C211.823 178.992 211.82 178.98 211.82 178.985Z" fill="#C5CFD6"/>
<path fill-rule="evenodd" clip-rule="evenodd" d="M211.823 178.99C211.823 178.99 211.824 178.991 211.824 178.993C211.824 178.99 211.818 178.98 211.823 178.99Z" fill="#C5CFD6"/>
<path fill-rule="evenodd" clip-rule="evenodd" d="M211.802 178.938C211.807 178.95 211.812 178.962 211.817 178.974C211.814 178.968 211.812 178.963 211.81 178.957C211.872 179.114 211.833 179.012 211.802 178.938Z" fill="#C5CFD6"/>
<path fill-rule="evenodd" clip-rule="evenodd" d="M211.816 178.975C211.818 178.98 211.821 178.986 211.823 178.992C211.841 179.026 211.816 178.975 211.816 178.975Z" fill="#C5CFD6"/>
<path fill-rule="evenodd" clip-rule="evenodd" d="M211.823 178.99C211.823 178.989 211.823 178.989 211.822 178.988C211.823 178.989 211.823 178.989 211.823 178.99Z" fill="#C5CFD6"/>
<path fill-rule="evenodd" clip-rule="evenodd" d="M211.826 178.994C211.829 179.001 211.809 178.966 211.826 178.994V178.994Z" fill="#C5CFD6"/>
<path fill-rule="evenodd" clip-rule="evenodd" d="M211.823 178.99L211.822 178.988C211.823 178.989 211.823 178.99 211.823 178.99Z" fill="#C5CFD6"/>
<rect width="42.9212" height="28.4127" rx="1.20905" transform="matrix(-1 0 0 1 233.283 155.715)" fill="#DDE3E9"/>
<path fill-rule="evenodd" clip-rule="evenodd" d="M217.346 163.876L229.756 184.128H204.937L217.346 163.876Z" fill="#AFB9C5"/>
<path fill-rule="evenodd" clip-rule="evenodd" d="M204.551 169.301L215.522 184.128H193.581L204.551 169.301Z" fill="#C5CFD6"/>
<path fill-rule="evenodd" clip-rule="evenodd" d="M199.883 169.317C197.63 169.317 195.803 167.49 195.803 165.236C195.803 162.983 197.63 161.156 199.883 161.156C202.137 161.156 203.964 162.983 203.964 165.236C203.964 167.49 202.137 169.317 199.883 169.317Z" fill="white"/>
<path fill-rule="evenodd" clip-rule="evenodd" d="M84.6248 134.431C86.8236 135.757 88.9839 136.398 89.998 136.136C92.5409 135.48 92.7747 126.171 90.8072 122.501C88.8396 118.831 78.7246 117.231 78.2147 124.503C78.0378 127.026 79.0967 129.279 80.6613 131.116L77.8559 144.201H86.0049L84.6248 134.431Z" fill="#F9E1CB"/>
<path fill-rule="evenodd" clip-rule="evenodd" d="M74.662 122.082C74.3988 121.821 74.2552 121.449 74.131 121.095C74.002 120.727 73.8767 120.356 73.7911 119.974C73.62 119.209 73.6183 118.331 74.1632 117.737C74.6001 117.261 75.2557 117.048 75.8608 117.001C76.2639 116.97 76.6779 117.027 77.0644 117.154C77.4478 117.28 77.7782 117.532 78.1499 117.688C78.1641 116.864 78.3051 116.002 78.7226 115.299C79.1244 114.622 79.765 114.243 80.4945 114.142C81.2433 114.039 81.9827 114.214 82.653 114.577C82.8208 114.668 82.9871 114.763 83.1462 114.871C83.2794 114.961 83.4179 115.07 83.5742 115.107C83.7485 115.147 83.8349 115.047 83.9481 114.92C84.0809 114.77 84.2305 114.639 84.3888 114.522C85.0889 114.008 86.0074 113.796 86.8184 114.104C87.1921 114.247 87.5555 114.488 87.809 114.821C88.035 115.118 88.1962 115.588 88.5081 115.795C88.6404 115.883 88.7339 115.766 88.8544 115.68C89.0354 115.551 89.208 115.409 89.3912 115.283C89.6486 115.107 89.9272 114.975 90.2255 114.906C90.6623 114.805 91.2659 114.828 91.3908 115.401C91.4377 115.616 91.4017 115.846 91.3866 116.063C91.3658 116.36 91.3441 116.658 91.3183 116.955C91.2987 117.18 91.2739 117.398 91.2314 117.619C91.2087 117.737 91.1377 117.958 91.1883 118.076C91.2515 118.224 91.5433 118.14 91.668 118.145C91.9142 118.155 92.1615 118.198 92.3892 118.303C92.5656 118.385 92.7511 118.505 92.8256 118.707C92.8714 118.832 92.8593 118.959 92.8377 119.087C92.8117 119.241 92.8414 119.322 92.8608 119.477C93.1915 119.314 94.3375 118.952 94.4817 119.545C94.5297 119.743 94.4204 119.966 94.337 120.132C94.1907 120.425 93.9989 120.692 93.8028 120.946C93.3938 121.477 92.9055 121.935 92.3802 122.327C92.9957 122.601 93.1564 123.409 92.6234 123.89C92.3882 124.103 92.0718 124.15 91.775 124.136C91.6664 124.131 91.5098 124.089 91.4243 124.108C91.3783 124.119 91.329 124.158 91.2653 124.162C90.8464 124.191 90.3736 124.09 89.9641 123.997C89.2345 123.831 88.5438 123.485 87.9797 122.958C87.835 122.823 87.7155 122.745 87.5207 122.747C87.35 122.749 87.1826 122.796 87.0121 122.8C86.5609 122.812 86.1541 122.591 85.7352 122.444C85.7096 123.01 85.5484 123.634 85.3169 124.144C85.1281 124.559 84.7338 124.62 84.3464 124.656C83.1076 124.773 81.8644 124.642 80.624 124.644C81.8247 124.916 83.0655 125.028 84.2556 125.347C84.7935 125.492 84.3827 125.855 84.1527 126.106C83.774 126.52 83.4924 127.033 83.2971 127.574C82.7097 126.808 81.6714 126.303 80.7516 126.538C79.7353 126.798 79.0197 128.174 79.6696 129.163C80.0469 129.737 80.7282 129.958 81.2952 130.205C80.8529 130.665 80.7459 131.345 80.4797 131.917C80.3484 132.199 80.1641 132.518 79.8705 132.617C79.7619 132.653 79.6345 132.656 79.5488 132.745C79.4426 132.855 79.4174 132.977 79.2818 133.072C78.7408 133.448 77.8958 133.419 77.4163 132.928C76.9827 132.484 77.0955 131.781 77.4576 131.33C76.8812 131.09 75.8309 130.781 76.06 129.882C74.8109 129.799 71.778 127.772 73.4545 126.29C72.5344 125.77 71.6891 124.498 72.2801 123.377C72.7352 122.514 73.7936 122.128 74.662 122.082Z" fill="#9E6A31"/>
<path fill-rule="evenodd" clip-rule="evenodd" d="M65.8438 187.014H92.0749L95.5121 229.146H56.4648L65.8438 187.014Z" fill="#C5CFD6"/>
<path fill-rule="evenodd" clip-rule="evenodd" d="M65.8438 187.014H73.9114L78.74 229.146H56.4648L65.8438 187.014Z" fill="black" fill-opacity="0.1"/>
<path fill-rule="evenodd" clip-rule="evenodd" d="M106.487 195.361C103.539 201.617 98.9335 216.803 98.9335 216.803L102.844 218.591C102.844 218.591 112.766 202.627 118.829 191.715C118.547 194.171 118.259 196.937 117.992 199.845C117.36 206.732 117.992 221.612 118.332 225.911C118.545 228.612 122.214 228.046 122.556 225.904C122.614 225.541 122.85 224.267 123.203 222.366C124.932 213.045 129.458 188.651 129.466 182.677C129.469 180.274 124.777 178.115 121.98 179.795C120.059 177.744 116.424 176.562 114.335 179.95C113.007 182.104 109.852 188.22 106.487 195.361Z" fill="#B28B67"/>
<path fill-rule="evenodd" clip-rule="evenodd" d="M99.213 211.181L112.634 179.364C115.849 174.189 124.864 180.417 123.768 183.419C121.278 190.234 108.618 212.298 107.877 214.328L99.213 211.181Z" fill="#F68892"/>
<path fill-rule="evenodd" clip-rule="evenodd" d="M99.4246 214.873C99.2169 214.586 98.8115 214.518 98.5399 214.745C97.9842 215.21 97.1352 215.966 96.8361 216.484C96.3769 217.28 95.7609 218.96 95.7609 218.96C96.6836 219.493 112.346 228.542 112.346 228.542C112.346 228.542 114.226 226.777 112.932 225.802C111.637 224.826 110.795 224.157 110.795 224.157L105.048 216.233C104.948 216.095 104.754 216.067 104.619 216.171L103.4 217.111C103.4 217.111 101.763 216.968 100.957 216.502C100.446 216.207 99.8166 215.414 99.4246 214.873Z" fill="#E4E4E4"/>
<path fill-rule="evenodd" clip-rule="evenodd" d="M118.34 223.774C118.017 223.629 117.632 223.773 117.51 224.106C117.261 224.786 116.903 225.865 116.903 226.464C116.903 227.383 117.209 229.146 117.209 229.146C118.275 229.146 136.36 229.146 136.36 229.146C136.36 229.146 137.106 226.677 135.498 226.48C133.89 226.283 132.826 226.124 132.826 226.124L123.89 222.138C123.734 222.068 123.552 222.141 123.487 222.298L122.901 223.723C122.901 223.723 121.412 224.418 120.481 224.418C119.891 224.418 118.95 224.046 118.34 223.774Z" fill="#E4E4E4"/>
<path fill-rule="evenodd" clip-rule="evenodd" d="M130.407 185.122C130.407 194.149 126.123 215.205 126.12 217.193L116.903 217.2C116.903 217.2 118.927 189.017 118.338 188.714C117.75 188.41 94.2136 191.065 87.1547 191.065C76.9758 191.065 72.7649 184.642 72.4233 172.743H92.5874C96.693 173.182 118.108 177.505 126.061 178.991C129.466 179.627 130.407 182.635 130.407 185.122Z" fill="#FEA1AC"/>
<path fill-rule="evenodd" clip-rule="evenodd" d="M78.9062 137.503C78.9855 137.245 79.066 136.986 79.1476 136.726L79.4491 136.868C79.4962 136.82 79.5436 136.772 79.5913 136.726L89.0953 138.197C89.0953 142.499 91.8462 146.578 94.3226 150.25C94.9252 151.143 95.5115 152.012 96.0379 152.855C96.7275 153.959 97.5057 155.082 98.3032 156.233C102.342 162.063 106.874 168.606 102.89 176.91C96.4416 190.349 69.2965 181.275 69.2965 181.275C69.2965 178.946 70.2195 176.611 71.1889 174.159C72.2283 171.53 73.3211 168.766 73.3864 165.73C73.5067 160.144 74.5504 143.22 78.9062 137.503Z" fill="#C1DEE2"/>
<path fill-rule="evenodd" clip-rule="evenodd" d="M90.712 174.369C91.3476 171.087 91.7599 168.896 91.9489 167.795C97.0121 173.521 99.9372 176.417 100.724 176.483C102.204 176.608 103.298 175.295 103.609 175.664C104.124 177.193 102.67 181.021 99.8915 181.577C98.5648 181.843 96.5117 179.105 95.6657 178.135C95.333 177.753 93.6818 176.498 90.712 174.369H90.712ZM99.458 156.869C100.77 156.869 101.475 157.412 102.252 158.508C103.028 159.603 103.762 164.77 102.516 164.77C101.27 164.77 96.0497 162.773 96.0497 161.43C96.0497 160.087 99.6117 159.518 99.6117 158.508C99.6117 157.497 98.1454 156.869 99.458 156.869Z" fill="#F9E1CB"/>
<path fill-rule="evenodd" clip-rule="evenodd" d="M77.3687 143.086C74.0353 156.994 75.3933 168.724 88.0619 179.364C87.913 179.899 87.8238 180.218 87.8238 180.218C72.9532 169.818 72.9461 157.214 77.3687 143.086Z" fill="black" fill-opacity="0.2"/>
<path fill-rule="evenodd" clip-rule="evenodd" d="M180.334 112.99C178.132 114.317 175.968 114.959 174.953 114.697C172.406 114.04 172.172 104.724 174.142 101.051C176.113 97.3781 186.243 95.7773 186.753 103.054C186.931 105.58 185.87 107.834 184.303 109.673L187.113 122.768H178.952L180.334 112.99Z" fill="#B28B67"/>
<path fill-rule="evenodd" clip-rule="evenodd" d="M178.794 96.8179C179.869 96.6415 182.766 96.5202 183.3 96.5203C183.641 96.5203 184.011 96.5983 184.213 96.2849C184.379 96.0282 184.318 95.5942 184.367 95.2964C184.425 94.9504 184.506 94.6089 184.589 94.2683C184.823 93.299 185.178 92.3768 185.674 91.511C186.605 89.8866 187.969 88.6142 189.691 87.8739C191.593 87.0563 193.745 86.8692 195.79 87.035C197.979 87.2124 199.961 87.935 202.028 88.615C203.997 89.263 206.06 89.5181 208.12 89.2017C210.195 88.8829 211.764 87.758 213.514 86.6903C215.306 85.5973 217.354 84.8825 219.473 85.0468C221.451 85.2002 223.273 86.0168 224.909 87.1076C226.439 88.1282 227.701 89.3561 228.414 91.0843C229.181 92.9433 229.18 94.9839 227.919 96.6268C226.091 99.0082 222.698 99.624 219.876 99.5628C218.243 99.5275 216.639 99.2295 215.098 98.6873C213.042 97.9642 211.266 96.7387 209.342 95.7443C208.44 95.2777 207.507 94.8944 206.529 94.6184C205.58 94.3504 204.645 94.2275 203.786 94.8007C202.877 95.4072 202.063 96.0029 201.023 96.3825C200.026 96.7467 198.969 96.9504 197.906 96.9422C195.839 96.9262 193.8 96.282 191.792 95.8504C190.155 95.4986 188.402 95.148 186.733 95.4862C186.036 95.6273 185.018 95.9187 184.767 96.6427C189.002 97.4103 190.665 102.648 189.471 106.493C188.827 108.568 184.953 110.994 183.447 109.903C182.493 109.212 183.073 108.304 183.447 107.705C184.165 106.558 184.411 105.085 183.083 104.286C181.937 103.597 180.732 105.233 180.709 105.231C180.394 105.207 177.673 103.668 175.798 101.422C173.948 101.531 173.668 100.312 174.109 99.3144C174.551 98.317 177.308 97.0618 178.794 96.8179Z" fill="#191847"/>
<path fill-rule="evenodd" clip-rule="evenodd" d="M192.542 151.483L179.765 193.336L173.575 228.93H168.722L175.263 151.483H192.542Z" fill="#997659"/>
<path fill-rule="evenodd" clip-rule="evenodd" d="M197.113 151.483C196.245 174.463 197.267 186.316 197.461 188.404C197.655 190.492 200.315 204.029 206.612 229.631L201.44 227.851C191.489 204.371 188.098 192.168 186.957 189.084C185.815 186.001 182.784 173.467 177.863 151.483H197.113Z" fill="#B28B67"/>
<path fill-rule="evenodd" clip-rule="evenodd" d="M205.705 227.413C206.029 227.268 206.414 227.412 206.536 227.745C206.785 228.426 207.143 229.507 207.143 230.106C207.143 231.026 206.837 232.792 206.837 232.792C205.771 232.792 187.686 232.792 187.686 232.792C187.686 232.792 186.939 230.319 188.548 230.122C190.156 229.925 191.22 229.766 191.22 229.766L200.156 225.775C200.311 225.705 200.494 225.778 200.558 225.936L201.145 227.362C201.145 227.362 202.634 228.058 203.565 228.058C204.155 228.058 205.095 227.685 205.705 227.413Z" fill="#E4E4E4"/>
<path fill-rule="evenodd" clip-rule="evenodd" d="M173.788 227.413C174.112 227.268 174.497 227.412 174.619 227.745C174.868 228.426 175.226 229.507 175.226 230.106C175.226 231.026 174.92 232.792 174.92 232.792C173.854 232.792 155.769 232.792 155.769 232.792C155.769 232.792 155.022 230.319 156.631 230.122C158.239 229.925 159.303 229.766 159.303 229.766L168.239 225.775C168.394 225.705 168.577 225.778 168.642 225.936L169.228 227.362C169.228 227.362 170.717 228.058 171.648 228.058C172.238 228.058 173.178 227.685 173.788 227.413Z" fill="#E4E4E4"/>
<path fill-rule="evenodd" clip-rule="evenodd" d="M194.24 151.483L188.807 172.807H172.214L174.688 151.483H194.24Z" fill="#69A1AC"/>
<path fill-rule="evenodd" clip-rule="evenodd" d="M197.296 151.483C199.977 159.536 198.315 172.807 198.315 172.807H181.381L176.725 151.483H197.296Z" fill="#89C5CC"/>
<path fill-rule="evenodd" clip-rule="evenodd" d="M215.772 162.209C214.505 160.349 205.96 135.323 205.96 135.323L198.59 136.387C198.59 136.387 210.843 162.447 211.543 163.659C212.452 165.234 211.647 167.82 211.101 169.574C211.016 169.845 210.938 170.097 210.873 170.321C212.02 170.651 212.456 169.996 212.916 169.306C213.435 168.526 213.985 167.7 215.622 168.198C216.254 168.39 216.862 168.637 217.455 168.878C219.506 169.712 221.389 170.478 223.553 168.686C223.896 168.401 224.186 167.473 223.096 166.932C220.38 165.584 216.392 163.118 215.772 162.209ZM152.262 160.915L160.496 150.286L164.433 155.313L155.334 162.544C153.397 166.805 152.173 168.7 151.664 168.23C151.235 167.833 151.334 167.319 151.425 166.845C151.496 166.476 151.562 166.131 151.37 165.886C150.932 165.327 148.99 165.955 147.172 166.631C145.354 167.306 145.659 166.325 145.99 165.789C147.562 164.112 149.653 162.487 152.262 160.915Z" fill="#B28B67"/>
<path fill-rule="evenodd" clip-rule="evenodd" d="M180.557 117.601L177.575 117.511C175.262 134.342 153.245 148.687 152.649 154.94C152.43 157.234 154.188 158.131 153.456 158.923L157.63 161.157C158.166 160.32 159.725 161.493 162.447 160.137C165.169 158.78 183.25 136.766 180.557 117.601Z" fill="#CF4E38"/>
<path fill-rule="evenodd" clip-rule="evenodd" d="M185.408 113.462C186.061 113.324 186.704 113.741 186.842 114.394L187.288 116.489C193.36 119.928 208.709 130.598 215.539 153.517C216.257 155.925 215.77 157.337 215.38 158.465C215.114 159.237 214.894 159.876 215.136 160.61L210.375 162.671C210.296 162.115 209.613 161.779 208.731 161.347C207.448 160.718 205.746 159.883 204.876 157.864C204.052 155.951 202.905 153.578 201.564 150.947C201.988 154.621 201.766 158.087 200.643 161.089C197.84 168.578 174.919 164.018 171.639 157.24C169.889 153.623 171.17 150.2 172.865 145.673C175.016 139.926 177.833 132.401 175.961 120.441L175.201 116.867C175.062 116.214 175.479 115.572 176.132 115.433L185.408 113.462Z" fill="#FF6849"/>
<defs>
<clipPath id="clip0">
<rect x="15.4518" y="126.083" width="253.096" height="82.3789" fill="white"/>
</clipPath>
<clipPath id="clip1">
<rect x="71.8752" y="39.9485" width="48.0597" height="91.2832" fill="white"/>
</clipPath>
<clipPath id="clip2">
<rect x="76.1068" y="48.4118" width="39.5964" height="61.6615" fill="white"/>
</clipPath>
<clipPath id="clip3">
<rect x="76.1068" y="48.4118" width="39.5964" height="16.3222" fill="white"/>
</clipPath>
<clipPath id="clip4">
<rect x="87.895" y="53.3085" width="22.0651" height="6.52887" fill="white"/>
</clipPath>
<clipPath id="clip5">
<rect x="76.1068" y="67.1521" width="39.5964" height="12.695" fill="white"/>
</clipPath>
<clipPath id="clip6">
<rect x="87.895" y="70.9606" width="22.0651" height="5.07801" fill="white"/>
</clipPath>
<clipPath id="clip7">
<rect x="76.1068" y="82.2652" width="39.5964" height="12.695" fill="white"/>
</clipPath>
<clipPath id="clip8">
<rect x="87.895" y="86.0737" width="22.0651" height="5.07801" fill="white"/>
</clipPath>
<clipPath id="clip9">
<rect x="76.1068" y="97.3783" width="39.5964" height="12.695" fill="white"/>
</clipPath>
<clipPath id="clip10">
<rect x="87.895" y="101.187" width="22.0651" height="5.07801" fill="white"/>
</clipPath>
<clipPath id="clip11">
<rect x="77.3159" y="47.8073" width="62.5683" height="91.2832" fill="white"/>
</clipPath>
<clipPath id="clip12">
<rect x="96.0561" y="56.2706" width="39.5964" height="61.6615" fill="white"/>
</clipPath>
<clipPath id="clip13">
<rect x="96.0561" y="56.2706" width="39.5964" height="16.3222" fill="white"/>
</clipPath>
<clipPath id="clip14">
<rect x="98.7765" y="61.1673" width="22.0651" height="6.52887" fill="white"/>
</clipPath>
<clipPath id="clip15">
<rect x="96.0561" y="75.0109" width="39.5964" height="12.695" fill="white"/>
</clipPath>
<clipPath id="clip16">
<rect x="107.844" y="78.8194" width="22.0651" height="5.07801" fill="white"/>
</clipPath>
<clipPath id="clip17">
<rect x="96.0561" y="90.124" width="39.5964" height="12.695" fill="white"/>
</clipPath>
<clipPath id="clip18">
<rect x="98.7765" y="93.9325" width="22.0651" height="5.07801" fill="white"/>
</clipPath>
<clipPath id="clip19">
<rect x="96.0561" y="105.237" width="39.5964" height="12.695" fill="white"/>
</clipPath>
<clipPath id="clip20">
<rect x="107.844" y="109.046" width="22.0651" height="5.07801" fill="white"/>
</clipPath>
<clipPath id="clip21">
<rect x="111.774" y="55.3638" width="101.258" height="104.583" fill="white"/>
</clipPath>
<clipPath id="clip22">
<rect x="187.037" y="95.2625" width="21.1584" height="58.6389" fill="white"/>
</clipPath>
<clipPath id="clip23">
<rect x="192.478" y="100.703" width="10.2769" height="47.7574" fill="white"/>
</clipPath>
<clipPath id="clip24">
<rect x="116.61" y="68.6634" width="68.009" height="85.238" fill="white"/>
</clipPath>
<clipPath id="clip25">
<rect x="116.61" y="68.6634" width="68.009" height="14.2063" fill="white"/>
</clipPath>
<clipPath id="clip26">
<rect x="119.33" y="72.9253" width="50.4778" height="5.68253" fill="white"/>
</clipPath>
<clipPath id="clip27">
<rect x="116.61" y="85.2878" width="68.009" height="11.7882" fill="white"/>
</clipPath>
<clipPath id="clip28">
<rect x="119.33" y="88.8243" width="50.4778" height="4.71529" fill="white"/>
</clipPath>
<clipPath id="clip29">
<rect x="116.61" y="99.4942" width="68.009" height="11.7882" fill="white"/>
</clipPath>
<clipPath id="clip30">
<rect x="119.33" y="103.031" width="50.4778" height="4.71529" fill="white"/>
</clipPath>
<clipPath id="clip31">
<rect x="116.61" y="142.113" width="68.009" height="11.7882" fill="white"/>
</clipPath>
<clipPath id="clip32">
<rect x="119.33" y="145.65" width="50.4778" height="4.71529" fill="white"/>
</clipPath>
<clipPath id="clip33">
<rect x="116.61" y="127.907" width="68.009" height="11.7882" fill="white"/>
</clipPath>
<clipPath id="clip34">
<rect x="119.33" y="131.443" width="50.4778" height="4.71529" fill="white"/>
</clipPath>
<clipPath id="clip35">
<rect x="116.61" y="113.7" width="68.009" height="11.7882" fill="white"/>
</clipPath>
<clipPath id="clip36">
<rect x="119.33" y="117.237" width="50.4778" height="4.71529" fill="white"/>
</clipPath>
</defs>
</svg>
