<svg width="250" height="272" viewBox="0 0 250 272" fill="none" xmlns="http://www.w3.org/2000/svg">
<path fill-rule="evenodd" clip-rule="evenodd" d="M63.2793 50.6599C80.5858 11.482 190.619 18.6525 224.476 69.5115C258.332 120.37 219.639 233.361 184.955 233.361C150.27 233.361 150.27 157.074 135.969 134.67C121.667 112.266 45.9729 89.8378 63.2793 50.6599Z" fill="#C1DEE2" fill-opacity="0.49"/>
<path fill-rule="evenodd" clip-rule="evenodd" d="M27.2938 161.751C37.103 180.156 54.2898 166.285 76.3865 147.032C98.4833 127.778 126.499 108.77 116.69 90.365C106.881 71.9601 71.6392 74.3113 49.5424 93.5647C27.4457 112.818 17.4846 143.346 27.2938 161.751Z" fill="#89C5CC" fill-opacity="0.45"/>
<path fill-rule="evenodd" clip-rule="evenodd" d="M217.903 218.221C231.882 218.221 247.305 204.814 247.305 187.729C247.305 170.644 231.882 157.237 217.903 157.237C203.923 157.237 198.724 176.789 198.724 190.801C198.724 204.814 203.923 218.221 217.903 218.221Z" fill="#E5FAFB" fill-opacity="0.71"/>
<path fill-rule="evenodd" clip-rule="evenodd" d="M122.772 80.8284C116.987 80.2697 111.846 84.5063 111.29 90.2911L110.422 99.3005C109.917 104.548 113.357 109.266 118.317 110.515C118.316 110.558 118.314 110.601 118.312 110.645L131.812 111.949C134.325 109.915 133.203 94.3661 132.073 89.1397C131.94 88.5228 131.798 88.0468 131.648 87.6902C130.298 84.0079 126.936 81.2306 122.772 80.8284Z" fill="#191847"/>
<path fill-rule="evenodd" clip-rule="evenodd" d="M120.8 103.431C123.639 105.549 126.516 106.718 127.941 106.492C131.514 105.925 133.069 93.1311 130.858 87.8146C128.648 82.4981 114.992 78.955 113.329 88.9049C112.751 92.3583 113.905 95.6013 115.806 98.3403L110.225 115.995L121.397 117.074L120.8 103.431Z" fill="#F3B2AB"/>
<path fill-rule="evenodd" clip-rule="evenodd" d="M106.986 96.2508C108.486 94.571 110.045 92.8254 111.058 90.2769C111.203 89.229 112.782 79.7693 122.522 80.7101C127.913 81.2307 130.924 84.543 132.167 86.8244C131.157 89.3671 128.489 90.1919 125.465 91.1269C124.045 91.5662 122.546 92.0297 121.103 92.7071C120.685 92.1985 120.073 91.8501 119.368 91.7819C117.954 91.6454 116.697 92.6873 116.56 94.1092C116.423 95.531 117.458 96.7944 118.872 96.931C118.911 96.9348 118.95 96.9376 118.989 96.9396C118.969 102.549 118.151 108.879 116.472 110.238L102.972 108.934C101.788 102.072 104.292 99.2676 106.986 96.2508Z" fill="#2C5257"/>
<path fill-rule="evenodd" clip-rule="evenodd" d="M84.2135 178.691C76.798 178.691 70.7865 184.702 70.7865 192.118V223.577C70.7865 230.992 76.798 237.004 84.2135 237.004H126.107C133.523 237.004 139.534 230.992 139.534 223.577V192.118C139.534 184.702 133.523 178.691 126.107 178.691H84.2135ZM87.238 191.858C85.3841 191.858 83.8813 193.361 83.8813 195.215V220.48C83.8813 222.333 85.3841 223.836 87.238 223.836H123.082C124.936 223.836 126.439 222.333 126.439 220.48V195.215C126.439 193.361 124.936 191.858 123.082 191.858H87.238Z" fill="#FAEF80"/>
<path fill-rule="evenodd" clip-rule="evenodd" d="M185.908 234.652C176.687 223.33 170.448 214.937 167.191 209.472C161.614 200.114 157.05 191.787 155.609 188.606C152.174 181.021 163.517 177.469 166.084 181.007C169.97 186.362 178.267 203.212 190.978 231.557L185.908 234.652Z" fill="#F3B2AB"/>
<path fill-rule="evenodd" clip-rule="evenodd" d="M167.013 231.361L149.853 187.925C146.183 180.007 163.907 174.803 166.604 178.488C172.728 186.853 187.283 219.855 189.107 222.348L167.013 231.361Z" fill="#152D31"/>
<path fill-rule="evenodd" clip-rule="evenodd" d="M121.31 222.65C124.653 217.747 136.811 201.252 143.434 194.426C145.337 192.465 147.194 190.583 148.95 188.829C154.17 183.614 164.565 192.378 159.355 197.127C146.379 208.955 127.445 224.921 125.863 226.345C123.646 228.34 119.21 225.731 121.31 222.65Z" fill="#F3B2AB"/>
<path fill-rule="evenodd" clip-rule="evenodd" d="M123.968 221.277C123.353 220.508 122.228 220.31 121.497 220.967C120.843 221.554 120.144 222.249 119.845 222.771C119.212 223.872 118.364 226.198 118.364 226.198C119.635 226.935 141.207 239.46 141.207 239.46C141.207 239.46 143.797 237.016 142.015 235.667C140.232 234.317 139.072 233.39 139.072 233.39L131.412 222.777C131.134 222.393 130.596 222.314 130.222 222.604L128.885 223.638C128.885 223.638 126.631 223.441 125.52 222.796C125.027 222.509 124.453 221.884 123.968 221.277Z" fill="#E1DDDD"/>
<path fill-rule="evenodd" clip-rule="evenodd" d="M183.99 232.749C183.072 232.391 181.996 232.785 181.69 233.722C181.416 234.559 181.157 235.511 181.157 236.113C181.157 237.385 181.578 239.825 181.578 239.825C183.046 239.825 207.956 239.825 207.956 239.825C207.956 239.825 208.984 236.407 206.769 236.135C204.553 235.862 203.088 235.643 203.088 235.643L191.18 230.304C190.747 230.11 190.24 230.313 190.06 230.752L189.417 232.319C189.417 232.319 187.366 233.281 186.084 233.281C185.516 233.281 184.71 233.029 183.99 232.749Z" fill="#E1DDDD"/>
<path fill-rule="evenodd" clip-rule="evenodd" d="M143.679 190.095C143.679 190.095 122.285 186.59 115.019 185.302C101.212 182.854 97.1857 175.383 99.5663 159.082L125.006 159.082C130.055 160.548 167.205 177.22 167.205 177.22C171.661 179.444 170.831 186.002 170.017 188.163C169.967 188.295 147.481 226.993 147.481 226.993L126.67 213.662L143.718 191.666C143.718 191.666 144.393 190.298 143.679 190.095Z" fill="#2B4F55"/>
<path fill-rule="evenodd" clip-rule="evenodd" d="M74.436 176.52C76.0435 173.854 85.9819 138.603 85.9819 138.603L96.1807 139.531C96.1807 139.531 81.2235 176.486 80.3491 178.214C79.2131 180.46 80.5051 183.978 81.3812 186.364C81.5167 186.734 81.6423 187.076 81.7474 187.382C80.1968 187.923 79.5506 187.049 78.8693 186.127C78.0999 185.086 77.2856 183.985 75.0731 184.794C74.2183 185.107 73.4016 185.493 72.6036 185.871C69.8473 187.175 67.3151 188.373 64.214 186.054C63.7223 185.686 63.2584 184.422 64.7168 183.593C68.3504 181.529 73.6501 177.823 74.436 176.52ZM161.574 170.049L149.502 155.95L144.455 163.195L157.472 172.529C160.439 178.28 162.256 180.812 162.921 180.124C163.482 179.543 163.309 178.839 163.15 178.19C163.026 177.684 162.91 177.213 163.156 176.86C163.718 176.053 166.431 176.78 168.976 177.58C171.522 178.38 171.033 177.046 170.539 176.328C168.26 174.124 165.271 172.031 161.574 170.049Z" fill="#F3B2AB"/>
<path fill-rule="evenodd" clip-rule="evenodd" d="M119.6 112.213L123.689 111.87C128.074 134.982 159.345 153.204 160.614 161.812C161.079 164.968 158.73 166.339 159.791 167.38L154.219 170.778C153.423 169.66 151.365 171.398 147.529 169.722C143.693 168.046 117.277 138.925 119.6 112.213Z" fill="#AAE8D8"/>
<path fill-rule="evenodd" clip-rule="evenodd" d="M114.312 107.111C112.481 106.821 110.763 108.07 110.474 109.901L110.275 111.17C102.183 116.376 81.8663 132.269 74.1316 164.478C73.3191 167.862 74.0897 169.779 74.7054 171.311C75.1265 172.359 75.4752 173.227 75.1951 174.26L81.883 176.76C81.9504 175.985 82.8654 175.471 84.0459 174.807C85.7624 173.843 88.0402 172.563 89.0896 169.706C90.0844 166.999 91.4891 163.631 93.1425 159.893C92.8231 165.007 93.3775 169.785 95.1362 173.855C99.5238 184.01 130.677 176.011 134.696 166.393C136.84 161.26 134.834 156.619 132.181 150.481C128.809 142.68 124.392 132.46 126.123 115.739C126.133 115.689 126.142 115.638 126.15 115.587L126.642 112.464C126.93 110.633 125.68 108.913 123.849 108.623L114.312 107.111Z" fill="#D0F4EA"/>
</svg>
