<svg width="282" height="260" viewBox="0 0 282 260" fill="none" xmlns="http://www.w3.org/2000/svg">
<path fill-rule="evenodd" clip-rule="evenodd" d="M70.5714 83.0051C74.0968 84.4989 77.4239 84.9925 78.8694 84.397C82.494 82.9037 80.9153 69.1617 77.2471 64.1723C73.5789 59.1828 58.291 58.932 59.0403 69.7338C59.3003 73.4828 61.3318 76.5756 64.0253 78.9537L62.5819 98.7838L74.632 97.0902L70.5714 83.0051Z" fill="#D5BCA5"/>
<path fill-rule="evenodd" clip-rule="evenodd" d="M74.0313 60.9942C73.7323 60.869 73.1062 60.6042 72.796 60.52C72.7225 60.4995 72.1894 60.2234 72.177 60.2296C71.8273 60.4045 70.8286 61.0089 70.7926 61.4149C70.7827 61.4467 70.7727 61.4766 70.7626 61.5029C70.6503 61.7966 70.5514 62.0953 70.4593 62.3964C70.2573 63.0576 70.0988 63.7412 69.9507 64.4182C69.6624 65.7365 69.4391 67.0755 69.2487 68.4129C69.0549 69.7743 68.9203 71.1429 68.7461 72.5071C68.4954 74.47 68.0936 76.4069 67.8464 78.3686C67.6885 79.6212 67.6779 80.8675 67.9384 82.0972C67.9414 82.112 67.9439 82.1267 67.9474 82.1416C67.9488 82.1478 67.9504 82.1538 67.9519 82.1599C67.9933 82.3488 68.0411 82.5372 68.0958 82.7252C68.1432 82.886 68.1908 83.0472 68.2399 83.2083C68.5777 82.2126 68.7913 81.1378 69.0341 80.1121C69.0579 80.0116 69.0798 79.9108 69.1009 79.8097C69.1956 79.5953 69.2928 79.382 69.3916 79.1692C70.0144 77.8273 70.641 76.4896 71.228 75.1301C72.2838 72.685 73.3201 70.194 74.6564 67.8971C75.051 67.2189 75.4581 66.5484 75.846 65.866C76.0667 65.4777 76.2795 65.0845 76.483 64.6861C76.6284 64.4013 77.2922 63.3864 76.9295 62.8836C76.7439 62.6264 74.8071 61.319 74.0313 60.9942Z" fill="#2C2C2C"/>
<path fill-rule="evenodd" clip-rule="evenodd" d="M72.8895 60.553C73.1706 60.6051 72.9618 60.0675 72.6744 59.9083C71.3425 59.1712 66.6916 59.4894 62.8008 60.8806C60.1944 61.8126 57.2664 63.632 55.3717 65.7082C53.6637 67.58 52.6949 70.3318 52.3589 72.9063C52.006 75.6095 52.2785 78.3377 53.0538 80.9499C53.2241 81.5237 53.4916 82.0557 53.6776 82.6146C53.8869 83.244 54.0352 83.8575 54.3349 84.4563C54.5184 84.823 54.7914 85.1693 54.9563 85.5408C55.1444 85.9647 55.125 86.384 55.0962 86.8461C55.0492 87.5993 54.9661 88.356 54.8004 89.0923C54.5515 90.198 54.2085 91.249 54.06 92.3809C53.8624 93.8871 52.8465 98.8407 54.2542 99.9542L77.6105 96.6717C76.798 95.1573 74.7684 93.526 74.1708 91.8667C73.8188 90.8892 73.4095 88.704 73.3763 88.6272C72.3423 85.0895 71.0722 83.5092 70.3406 82.9737C69.609 82.4383 68.7246 82.3663 68.6041 81.8295C68.1059 79.6096 68.7006 77.3319 69.0638 75.1438C69.4968 72.5358 69.7115 69.8953 70.1699 67.2924C70.3728 66.1398 71.4303 60.2827 72.8895 60.553Z" fill="#D9E4F4"/>
<path fill-rule="evenodd" clip-rule="evenodd" d="M65.3167 72.4789C64.5931 68.7045 64.5738 67.1929 65.0636 64.2873L64.5205 64.3636C63.8172 65.5883 63.5734 69.066 64.8846 72.5396L65.3167 72.4789ZM54.6483 73.7956C54.5211 73.5781 54.3909 73.3554 54.2565 73.1272L53.9345 73.3409C55.5812 77.1541 57.3366 80.0297 62.2473 81.9572L62.5665 81.6607C57.8401 79.2535 56.6015 77.1355 54.6483 73.7956ZM60.4332 68.1451C60.5271 68.4827 60.6178 68.8115 60.7064 69.1327C62.0666 74.0657 62.9292 77.1939 67.3875 82.4604L66.992 82.6443C62.2419 77.8466 60.9936 73.5614 60.0518 68.2302L60.4332 68.1451ZM58.7859 84.9857L58.4925 85.4631C60.3151 85.5832 61.7012 86.7103 63.2903 88.0025C64.9716 89.3696 66.88 90.9215 69.7729 91.6607L70.2375 91.2831C67.0353 90.1576 65.4308 88.8172 64.0298 87.6469C62.5794 86.4353 61.3471 85.4059 58.7859 84.9857Z" fill="black" fill-opacity="0.2"/>
<path fill-rule="evenodd" clip-rule="evenodd" d="M125.822 176.219C124.878 186.485 125.821 208.553 126.329 214.918C126.648 218.919 132.125 217.872 132.636 214.67C132.723 214.128 133.076 212.222 133.603 209.378C136.185 195.436 142.943 158.945 142.955 150.072C142.961 146.004 133.861 142.75 130.221 147.665C127.228 145.572 122.98 145.011 120.36 149.238C118.378 152.437 113.666 161.521 108.642 172.128C104.24 181.421 97.3622 203.978 97.3622 203.978L103.201 206.634C103.201 206.634 117.625 183.549 126.707 167.364C126.405 170.149 126.105 173.131 125.822 176.219Z" fill="#B28B67"/>
<path fill-rule="evenodd" clip-rule="evenodd" d="M97.7796 195.627L117.821 148.367C122.622 140.679 136.083 149.932 134.446 154.391C130.729 164.514 111.824 197.287 110.717 200.303L97.7796 195.627Z" fill="#612D56"/>
<path fill-rule="evenodd" clip-rule="evenodd" d="M143.462 153.762C143.462 167.158 137.564 198.645 137.56 201.595L123.271 201.116C123.271 201.116 127.017 160.05 126.431 159.772C125.551 159.355 90.358 164.621 79.8031 165.018C64.5829 165.592 58.2867 156.297 57.7758 138.658L87.2578 138.658C87.2578 138.658 125.072 143.151 136.964 144.908C142.056 145.661 143.462 150.072 143.462 153.762Z" fill="#8A477B"/>
<path fill-rule="evenodd" clip-rule="evenodd" d="M97.8803 202.138C97.5176 201.852 96.9846 201.913 96.7228 202.294C96.1183 203.175 95.1484 204.679 94.924 205.575C94.5922 206.899 94.3991 209.551 94.3991 209.551C95.9428 209.934 122.146 216.437 122.146 216.437C122.146 216.437 124.12 213.146 121.86 212.284C119.601 211.422 118.117 210.811 118.117 210.811L106.563 201.816C106.388 201.679 106.134 201.714 106.001 201.893L104.603 203.781C104.603 203.781 102.195 204.247 100.846 203.912C99.9552 203.691 98.6581 202.751 97.8803 202.138Z" fill="#E4E4E4"/>
<path fill-rule="evenodd" clip-rule="evenodd" d="M126.735 206.711C126.314 206.522 125.812 206.709 125.651 207.142C125.278 208.142 124.702 209.835 124.702 210.758C124.702 212.123 125.159 214.743 125.159 214.743C126.75 214.743 153.756 214.743 153.756 214.743C153.756 214.743 154.871 211.074 152.469 210.782C150.068 210.489 148.479 210.254 148.479 210.254L135.082 204.308C134.879 204.218 134.641 204.313 134.556 204.518L133.658 206.687C133.658 206.687 131.435 207.719 130.045 207.719C129.126 207.719 127.639 207.119 126.735 206.711Z" fill="#E4E4E4"/>
<rect x="125.209" y="214.743" width="26.8721" height="3.53295" rx="1.58204" fill="#2F3676"/>
<path d="M51.1845 145.515C51.1845 143.331 52.9553 141.56 55.1396 141.56H111.621C113.805 141.56 115.576 143.331 115.576 145.515V171.338H52.7665C51.8928 171.338 51.1845 170.629 51.1845 169.756V145.515Z" fill="#2F3676"/>
<path fill-rule="evenodd" clip-rule="evenodd" d="M110.506 141.56H112.568C114.503 141.56 116.155 142.961 116.47 144.871L127.745 213.229H122.327" fill="#2F3676"/>
<path fill-rule="evenodd" clip-rule="evenodd" d="M125.209 223.323C130.25 223.323 134.336 219.255 134.336 214.238C134.336 209.221 130.25 205.153 125.209 205.153C120.169 205.153 116.083 209.221 116.083 214.238C116.083 219.255 120.169 223.323 125.209 223.323Z" fill="#191847"/>
<path fill-rule="evenodd" clip-rule="evenodd" d="M96.3093 183.955C96.3093 205.14 79.0572 222.313 57.7757 222.313C36.4942 222.313 19.2422 205.14 19.2422 183.955C19.2422 162.771 36.4942 145.598 57.7757 145.598C79.0572 145.598 96.3093 162.771 96.3093 183.955ZM89.211 183.955C89.211 201.237 75.137 215.247 57.7758 215.247C40.4146 215.247 26.3405 201.237 26.3405 183.955C26.3405 166.673 40.4146 152.664 57.7758 152.664C75.137 152.664 89.211 166.673 89.211 183.955Z" fill="#191847"/>
<rect x="55.7477" y="150.645" width="4.05617" height="66.6214" fill="#191847"/>
<rect width="4.04692" height="66.7742" rx="0.79102" transform="matrix(0.708721 0.705489 -0.708721 0.705489 80.0038 158.974)" fill="#191847"/>
<rect x="91.2391" y="181.937" width="4.03766" height="66.9267" rx="0.79102" transform="rotate(90 91.2391 181.937)" fill="#191847"/>
<rect width="4.04692" height="66.7742" rx="0.79102" transform="matrix(-0.708721 0.705489 -0.708721 -0.705489 82.8719 206.082)" fill="#191847"/>
<path fill-rule="evenodd" clip-rule="evenodd" d="M124.246 109.449L104.8 114.926L109.6 123.267L124.793 114.659C131.822 114.365 135.151 113.73 134.781 112.754C134.47 111.93 133.696 111.777 132.984 111.636C132.43 111.526 131.912 111.423 131.678 111.017C131.144 110.089 133.111 107.733 135.074 105.577C137.036 103.422 135.497 103.292 134.564 103.451C131.342 104.696 127.903 106.696 124.246 109.449ZM34.615 171.474C35.6688 168.296 43.1685 128.246 43.1685 128.246L54.1687 126.742C54.1687 126.742 41.7784 169.792 41.2724 171.812C40.6151 174.435 42.831 177.801 44.3335 180.084C44.566 180.437 44.7814 180.764 44.9664 181.059C43.459 182.001 42.5649 181.244 41.6223 180.445C40.5576 179.544 39.4311 178.59 37.2891 179.973C36.4615 180.507 35.692 181.109 34.9402 181.698C32.3433 183.731 29.9577 185.598 26.1202 183.925C25.5118 183.66 24.7161 182.451 26.0567 181.23C29.3965 178.19 34.0999 173.028 34.615 171.474Z" fill="#D5BCA5"/>
<path fill-rule="evenodd" clip-rule="evenodd" d="M68.4052 89.3029L77.0936 88.6639C81.897 107.459 95.1396 117.896 120.421 110.179L127.311 134.284C103.583 140.789 81.0363 134.137 73.0284 108.672C70.9554 102.08 69.0803 95.1802 68.4052 89.3029Z" fill="#DADEE1"/>
<path fill-rule="evenodd" clip-rule="evenodd" d="M63.7721 87.4057L62.946 87.5218C46.128 107.553 36.955 133.815 35.4272 166.31L61.802 162.604C61.1192 156.593 60.6044 150.719 60.3033 144.976L95.5278 140.025C93.7265 135.229 91.6363 130.675 89.5092 126.04C84.5837 115.308 79.4605 104.145 77.2686 88.5492L63.8081 87.4087L63.8002 87.4018L63.7721 87.4057Z" fill="#F2F6F9"/>
<path fill-rule="evenodd" clip-rule="evenodd" d="M60.3033 144.976C59.6903 133.284 59.9629 122.135 61.5056 111.474C62.3913 122.518 64.1194 136.131 67.4624 143.97L60.3033 144.976Z" fill="black" fill-opacity="0.1"/>
<path fill-rule="evenodd" clip-rule="evenodd" d="M195.794 43.1568C192.776 45.5149 189.69 46.854 188.14 46.6524C184.252 46.1468 182.218 32.4455 184.469 26.6693C186.719 20.893 201.421 16.6906 203.495 27.3331C204.215 31.0267 203.053 34.5445 201.068 37.5425L207.598 56.3498L195.52 57.8328L195.794 43.1568Z" fill="#8C7158"/>
<path fill-rule="evenodd" clip-rule="evenodd" d="M193.536 29.7593C192.301 28.337 191.153 27.2774 189.764 26.7508C184.464 27.4864 183.726 26.6139 183.334 23.4158C184.116 22.6988 187.016 21.2972 190.369 20.5914C192.037 19.886 194.096 19.7273 196.17 20.3077C198.69 20.6974 200.934 21.9276 202.186 24.5928C206.177 29.857 204.401 36.0652 201.277 38.4949C200.25 37.5455 199.341 36.6147 198.522 35.7175C199.016 35.1021 199.271 34.2965 199.167 33.4527C198.963 31.7904 197.446 30.6089 195.778 30.8136C195.655 30.8287 195.535 30.8508 195.418 30.8795C195.598 32.9671 196.153 40.0363 195.642 42.5782C195.039 45.5751 189.545 46.9673 187.599 47.2063C185.918 47.4127 185.78 45.8189 185.682 44.6766C185.668 44.5121 185.654 44.357 185.637 44.218C185.602 43.9274 185.981 43.8816 186.409 43.8299C186.965 43.7627 187.605 43.6855 187.527 43.0495C187.441 42.3561 186.415 41.9423 185.496 41.5721C184.923 41.341 184.392 41.1269 184.158 40.8725C183.419 40.0697 183.061 38.9086 184.013 38.7917C184.533 38.7278 185.283 38.9392 186.186 39.1934C187.549 39.5772 189.26 40.0588 191.05 39.839C194.006 39.476 193.542 29.8808 193.536 29.7593Z" fill="#191847"/>
<path fill-rule="evenodd" clip-rule="evenodd" d="M216.112 98.894L197.539 162.689L188.804 210.588H180.036L188.788 98.894H216.112Z" fill="#D9D2CC"/>
<path fill-rule="evenodd" clip-rule="evenodd" d="M224.459 98.894C223.163 132.035 223.674 150.112 223.964 153.123C224.254 156.134 225.9 176.3 237.121 211.599H228.002C213.142 177.735 207.955 157.569 206.25 153.123C204.546 148.676 199.512 130.6 192.164 98.894H224.459Z" fill="#D9D2CC"/>
<path fill-rule="evenodd" clip-rule="evenodd" d="M216.511 98.894C211.68 120.846 203.324 155.887 191.444 204.018H178.62C177.673 154.617 181.702 122.102 188.68 98.894H216.511Z" fill="#88705D"/>
<path fill-rule="evenodd" clip-rule="evenodd" d="M224.523 98.894C223.254 132.035 226.543 164.686 236.732 204.534H223.05C208.163 171.176 197.493 138.686 190.2 98.894H224.523Z" fill="#B6967E"/>
<path fill-rule="evenodd" clip-rule="evenodd" d="M238.421 218.169L237.948 210.576C237.933 210.323 237.687 210.15 237.439 210.206C233.035 211.211 226.848 209.072 226.848 209.072C220.573 213.502 211.448 215.467 208.606 215.995C208.138 216.082 207.842 216.552 207.973 217.01L208.733 219.685H226.848H237.415L238.421 218.169Z" fill="#191847"/>
<path fill-rule="evenodd" clip-rule="evenodd" d="M190.761 218.169L190.289 210.576C190.273 210.323 190.027 210.15 189.779 210.206C185.375 211.211 179.188 209.072 179.188 209.072C172.913 213.502 163.788 215.467 160.946 215.995C160.478 216.082 160.182 216.552 160.313 217.01L161.073 219.685H179.188H189.755L190.761 218.169Z" fill="#191847"/>
<path fill-rule="evenodd" clip-rule="evenodd" d="M158.674 110.036L173.284 96.3147L177.906 104.623L162.817 113.146C158.967 118.962 156.723 121.465 156.083 120.655C155.544 119.972 155.81 119.238 156.055 118.562C156.246 118.036 156.424 117.544 156.199 117.14C155.684 116.215 152.677 116.688 149.842 117.259C147.007 117.83 147.686 116.458 148.299 115.747C151.006 113.645 154.464 111.741 158.674 110.036ZM245.399 120.404C243.558 117.602 234.967 89.1526 234.967 89.1526L224.456 90.4851C224.456 90.4851 238.044 120.632 239.056 122.454C240.371 124.821 239.102 128.651 238.242 131.248C238.109 131.65 237.985 132.022 237.883 132.355C239.583 132.876 240.251 131.912 240.954 130.896C241.749 129.748 242.59 128.533 245.017 129.316C245.955 129.619 246.854 130.002 247.733 130.377C250.768 131.67 253.556 132.859 256.829 130.246C257.348 129.832 257.803 128.457 256.192 127.623C252.179 125.547 246.299 121.773 245.399 120.404Z" fill="#8C7158"/>
<path fill-rule="evenodd" clip-rule="evenodd" d="M199.68 48.8349L195.238 48.6252C180.799 64.5106 177.447 92.0343 159.394 108.613L164.88 113.914C198.692 105.461 203.202 71.8372 199.68 48.8349Z" fill="#E9ADAD"/>
<path fill-rule="evenodd" clip-rule="evenodd" d="M225.343 101.017C225.343 101.017 199.171 104.231 186.84 105.745C185.08 105.961 185.101 103.388 185.198 102.079C186.323 86.9701 195.829 69.6652 193.251 48.6714L204.145 45.5717C215.139 59.1709 220.542 76.9131 225.343 101.017Z" fill="#DDE3E9"/>
<path fill-rule="evenodd" clip-rule="evenodd" d="M218.603 58.3151C220.606 57.923 222.326 56.8561 223.225 54.6407C226.388 46.8409 224.428 43.0009 219.928 42.2122C217.453 41.7785 215.27 42.5499 212.657 43.4734C210.519 44.2293 208.092 45.087 204.981 45.469C204.679 45.506 204.408 45.5598 204.163 45.6289L200.504 46.291C200.504 46.291 191.747 98.6783 200.532 114.757L230.966 111.02C233.205 114.95 235.346 118.357 237.286 120.937L245.544 119.923C242.916 91.1803 229.335 70.4827 218.603 58.3151Z" fill="#FBCCCC"/>
<path fill-rule="evenodd" clip-rule="evenodd" d="M230.966 111.02C228.028 105.863 224.921 99.8045 221.876 93.5273C221.928 100.845 221.429 108.263 219.591 112.417L230.966 111.02Z" fill="black" fill-opacity="0.1"/>
<path fill-rule="evenodd" clip-rule="evenodd" d="M133.288 89.3864C148.469 89.3864 160.775 77.0796 160.775 61.8984C160.775 46.7173 148.469 34.4105 133.288 34.4105C118.106 34.4105 105.8 46.7173 105.8 61.8984C105.8 77.0796 118.106 89.3864 133.288 89.3864Z" fill="url(#paint0_radial)"/>
<defs>
<radialGradient id="paint0_radial" cx="0" cy="0" r="1" gradientUnits="userSpaceOnUse" gradientTransform="translate(133.288 61.8984) rotate(90) scale(34.0972)">
<stop stop-color="#F8FA8F"/>
<stop offset="1" stop-color="#F8F8D9" stop-opacity="0"/>
</radialGradient>
</defs>
</svg>
