<svg width="250" height="250" viewBox="0 0 250 250" fill="none" xmlns="http://www.w3.org/2000/svg">
<g opacity="0.504511">
<path fill-rule="evenodd" clip-rule="evenodd" d="M231.473 179.291C234.578 204.04 159.285 220.183 94.4795 208.917C29.6737 197.652 -0.0560932 153.658 30.8681 130.217C61.7924 106.775 228.368 154.543 231.473 179.291Z" fill="#F2F2F2"/>
</g>
<path fill-rule="evenodd" clip-rule="evenodd" d="M138.333 76.1625C139.504 75.2081 141.322 75.8164 142.501 76.3797C142.956 76.597 144.117 77.2917 144.978 78.0737C144.864 77.5317 144.763 76.985 144.674 76.4337C144.31 74.1672 144.059 71.8577 143.938 69.5617C143.907 68.9628 143.948 68.2937 143.989 67.6158C144.003 67.3861 144.017 67.1554 144.029 66.9261C143.981 66.872 143.95 66.7972 143.936 66.6959C143.931 66.7379 143.928 66.7716 143.926 66.7973C143.923 66.8393 143.921 66.8602 143.915 66.8617C143.908 66.8632 143.898 66.8455 143.876 66.8102C143.867 66.7964 143.857 66.7799 143.845 66.7608C142.974 65.3712 142.242 63.8054 142.141 62.084C142.056 60.6242 143.181 57.862 144.776 59.7742C145.489 60.6281 145.304 66.6256 144.233 66.9931C144.519 68.9804 144.879 70.9644 145.33 72.9232C145.397 72.9105 145.466 72.9093 145.534 72.9193C145.528 72.4323 145.527 71.9009 145.546 71.7182C145.706 70.1441 146.94 66.9484 148.903 67.5688C150.412 68.0457 149.487 70.0085 148.974 70.8677C148.147 72.2508 147.212 72.8498 146.028 73.5691C146.005 73.8663 145.825 74.0391 145.612 74.0953C146.405 77.2586 147.447 80.3439 148.81 83.2581L148.846 83.0728C149.019 82.1883 149.221 81.1569 149.349 80.9403C150.017 79.8066 151.496 78.4219 152.86 79.0927C155.724 80.5035 152.615 84.5582 150.176 84.9993C150.075 85.1487 149.968 85.2688 149.854 85.3377C150.327 86.2174 150.834 87.0788 151.376 87.9179C152.188 89.1802 153.061 90.4384 153.977 91.6892C154.005 90.7108 154.368 88.5301 154.47 88.2958C155.096 86.8729 156.898 85.4088 158.36 86.4196C160.004 87.5593 158.513 89.7129 157.575 90.6876C157.191 91.0872 155.29 92.5516 154.619 92.5582C156.831 95.5079 159.272 98.4071 161.755 101.201C161.549 99.9505 161.281 96.5054 161.311 96.1231C161.465 94.1495 162.681 90.9928 165.077 91.762C167.402 92.5071 166.374 95.7863 165.578 97.3496C165.096 98.2957 164.429 99.257 163.626 99.9168C163.481 100.036 163.291 100.133 163.103 100.23L163.102 100.23C162.875 100.347 162.647 100.463 162.499 100.617C162.367 100.755 162.326 100.913 162.286 101.07C162.243 101.235 162.201 101.399 162.051 101.536C163.393 103.039 164.744 104.512 166.075 105.943C166.704 106.619 167.343 107.281 167.989 107.935C168.343 107.779 168.847 107.985 168.821 108.518C168.817 108.596 168.8 108.663 168.777 108.724C169.267 109.21 169.76 109.692 170.256 110.169C170.245 110.03 170.248 109.834 170.271 109.564C169.913 110.106 169.928 109.316 169.94 108.714C169.944 108.501 169.947 108.312 169.934 108.213C169.881 107.826 169.813 107.443 169.746 107.06L169.746 107.06C169.601 106.243 169.456 105.428 169.463 104.585C169.479 102.794 170.542 99.7932 172.779 100.859C174.837 101.838 174.088 104.491 173.312 106.155C172.821 107.208 172.149 108.148 171.446 109.047C171.321 109.208 171.182 109.425 171.044 109.641L171.044 109.641C170.84 109.961 170.638 110.276 170.489 110.393C172.399 112.219 174.354 113.991 176.309 115.764L176.31 115.764L176.31 115.764C177.186 116.558 178.061 117.352 178.933 118.151C178.971 117.975 179.002 117.802 179.029 117.639C178.975 117.705 178.901 117.735 178.805 117.729C178.78 117.595 178.743 117.416 178.699 117.202L178.699 117.202C178.161 114.583 176.521 106.608 180.961 108.154C184.214 109.29 181.918 116.234 179.492 118.663C180.964 120.019 182.423 121.393 183.847 122.808C184.877 123.831 185.878 124.89 186.84 125.984C186.342 124.567 185.873 122.734 186.181 121.274C186.629 119.151 188.729 117.145 190.78 118.354C193.337 119.867 191.37 121.933 189.526 123.871C188.584 124.86 187.674 125.816 187.415 126.648C190.473 130.236 193.084 134.223 194.829 138.764C196.726 143.702 198.488 150.338 197.514 155.863C197.693 153.434 196.924 150.383 196.384 148.241L196.384 148.24C196.31 147.949 196.241 147.674 196.179 147.42C195.367 144.098 194.214 140.865 192.694 137.839C190.26 132.993 187.044 128.879 183.332 125.144C182.487 125.458 181.569 126.04 180.808 126.522C180.342 126.818 179.935 127.076 179.64 127.211C178.22 127.865 175.493 128.802 174.588 126.743C173.698 124.718 175.969 123.585 177.377 123.131C178.737 122.693 179.963 122.746 181.232 123.105C179.267 121.246 177.254 119.446 175.241 117.647L175.241 117.647L175.24 117.645C174.87 117.315 174.501 116.984 174.131 116.653C173.62 117.101 173.055 117.748 172.455 118.435L172.455 118.435C170.551 120.615 168.295 123.198 166.28 121.088C163.24 117.903 169.055 114.666 171.532 114.919C171.836 114.95 172.13 115.018 172.417 115.111C169.891 112.823 167.404 110.488 165.052 107.988C164.629 108.07 163.957 108.733 163.15 109.529C161.336 111.319 158.838 113.782 156.957 111.842C155.599 110.442 156.064 108.262 157.377 107.015C158.694 105.763 160.605 105.765 162.229 106.187C162.931 106.368 163.579 106.714 164.182 107.136L164.257 107.141C161.943 104.655 159.614 102.113 157.371 99.4852C157.332 99.4986 157.292 99.5124 157.251 99.5265C157.116 99.7038 156.889 99.7686 156.681 99.7294C156.566 99.7713 156.449 99.8145 156.329 99.8585C154.553 100.513 152.269 101.354 150.498 100.991C149.195 100.724 148.013 99.5936 149.116 98.2017C150.013 97.0697 152.446 97.2323 153.633 97.5004C154.212 97.6314 154.842 98.011 155.475 98.3918L155.475 98.3919C155.741 98.5519 156.007 98.712 156.27 98.8541C156.338 98.7072 156.457 98.6128 156.593 98.5675C154.378 95.9264 152.264 93.194 150.347 90.3429C149.767 90.4388 149.124 90.7108 148.46 90.9913C146.863 91.6662 145.149 92.3906 143.919 90.8305C142.103 88.5267 145.518 87.1821 147.142 87.401C147.69 87.4748 148.23 87.6406 148.752 87.8596C147.357 85.5122 146.292 83.0031 145.544 80.368C145.54 80.3702 145.536 80.3725 145.532 80.3748C145.529 80.3765 145.526 80.3782 145.523 80.3799C145.512 80.3862 145.502 80.3926 145.489 80.3986C145.509 80.3873 145.524 80.375 145.542 80.3636C145.468 80.1 145.396 79.8352 145.328 79.5694C145.201 79.4941 145.083 79.4386 145.026 79.4158C145.763 79.9585 142.651 80.2241 142.068 80.2738C140.78 80.3836 139.054 80.4246 138.109 79.2982C137.315 78.352 137.361 76.9542 138.333 76.1625ZM197.652 155.871C197.597 156.672 197.462 157.405 197.208 158.009C197.398 157.321 197.544 156.606 197.652 155.871Z" fill="#F2F2F2"/>
<path opacity="0.2" fill-rule="evenodd" clip-rule="evenodd" d="M79.8301 25.0295C78.9751 24.3399 77.6479 24.7804 76.7866 25.1882C76.4547 25.3455 75.6066 25.8484 74.9775 26.4141C75.0607 26.0222 75.1351 25.6268 75.2 25.2281C75.4668 23.5891 75.6509 21.919 75.7398 20.2587C75.7629 19.8256 75.7333 19.3418 75.7032 18.8517L75.7032 18.8516L75.7032 18.8513C75.693 18.6854 75.6828 18.5187 75.6746 18.353C75.709 18.3138 75.7323 18.2597 75.7421 18.1864C75.7457 18.2168 75.7478 18.2412 75.7493 18.2598C75.7519 18.2901 75.7532 18.3052 75.7578 18.3064C75.7624 18.3075 75.7703 18.2946 75.7862 18.2691C75.7923 18.2591 75.7997 18.2472 75.8086 18.2334C76.4454 17.2282 76.9804 16.0957 77.0544 14.8509C77.1171 13.7953 76.2965 11.7984 75.1314 13.1817C74.6102 13.7995 74.7434 18.1361 75.5257 18.4015C75.316 19.8386 75.0525 21.2734 74.7226 22.6899C74.6733 22.6808 74.623 22.68 74.5732 22.6872C74.5781 22.335 74.5788 21.9508 74.5652 21.8187C74.4484 20.6805 73.5491 18.3702 72.1154 18.8196C71.0137 19.165 71.6882 20.584 72.0628 21.205C72.6657 22.2049 73.3481 22.6376 74.2123 23.1573C74.2295 23.3722 74.3607 23.4971 74.5157 23.5376C73.9358 25.8253 73.1742 28.0566 72.178 30.1645L72.1516 30.0306L72.1515 30.0305C72.0255 29.3909 71.8785 28.6453 71.7853 28.4887C71.2979 27.6692 70.2185 26.6685 69.2226 27.1541C67.1308 28.1753 69.3994 31.1061 71.1797 31.424C71.2536 31.532 71.3319 31.6188 71.4152 31.6686C71.0689 32.3049 70.6989 32.928 70.303 33.535C69.7093 34.448 69.0712 35.3582 68.4023 36.263C68.382 35.5555 68.1182 33.9788 68.0432 33.8094C67.5872 32.7808 66.2718 31.7228 65.2039 32.4543C64.0029 33.2791 65.0908 34.8357 65.7753 35.5401C66.0558 35.8289 67.4437 36.8871 67.9334 36.8916C66.3173 39.0254 64.5336 41.1228 62.7201 43.1443C62.8707 42.2397 63.068 39.7485 63.0463 39.472C62.9345 38.045 62.0475 35.7629 60.2975 36.32C58.5998 36.8597 59.3496 39.2305 59.9301 40.3606C60.2817 41.0445 60.768 41.7393 61.3547 42.2162C61.4604 42.302 61.5986 42.3722 61.7364 42.4422C61.9027 42.5266 62.0686 42.6108 62.177 42.7223C62.2736 42.8217 62.3033 42.9359 62.3326 43.0492C62.3636 43.1688 62.3943 43.2873 62.5035 43.3862C61.5234 44.474 60.5365 45.5391 59.5638 46.5746C59.1048 47.0634 58.6375 47.5427 58.1656 48.0161C57.9076 47.9032 57.5396 48.052 57.5585 48.4379C57.5613 48.494 57.5735 48.5424 57.5901 48.5867C57.2324 48.9381 56.8725 49.287 56.5098 49.6322C56.5182 49.5317 56.5158 49.39 56.4993 49.1943C56.7601 49.5863 56.7495 49.0151 56.7413 48.5797C56.7385 48.4258 56.7359 48.2889 56.7458 48.2174C56.7843 47.9376 56.834 47.6605 56.8837 47.3839C56.9898 46.7928 57.0956 46.2037 57.0906 45.5938C57.0799 44.2992 56.3047 42.1295 54.6708 42.9013C53.1684 43.6097 53.714 45.5281 54.28 46.7307C54.6383 47.4917 55.1289 48.1711 55.6415 48.8215C55.733 48.9377 55.8344 49.0949 55.9348 49.2505C56.084 49.4816 56.2309 49.7093 56.3395 49.794C54.9443 51.1152 53.5163 52.3975 52.0882 53.68L52.0881 53.6801C51.4484 54.2546 50.8086 54.8291 50.1718 55.4071C50.1441 55.2804 50.1213 55.1546 50.1017 55.0371C50.1415 55.0845 50.1956 55.1067 50.2651 55.1023C50.2837 55.0051 50.3105 54.876 50.3428 54.7209C50.7368 52.8273 51.9369 47.0598 48.6945 48.1793C46.3188 49.0018 47.993 54.0223 49.7636 55.7778C48.6881 56.7591 47.6228 57.753 46.5824 58.7765C45.8295 59.517 45.0989 60.2829 44.396 61.0743C44.76 60.0499 45.1032 58.7237 44.8789 57.6686C44.5523 56.1331 43.0194 54.684 41.5216 55.5586C39.6545 56.6537 41.0898 58.1471 42.4358 59.5475C43.123 60.2625 43.787 60.9533 43.9761 61.5545C41.7418 64.1505 39.8339 67.0342 38.5585 70.3186C37.1713 73.8904 35.8829 78.6893 36.5923 82.6841C36.4618 80.9275 37.0245 78.7214 37.4197 77.1722L37.4198 77.1719C37.4736 76.9611 37.5243 76.7623 37.5697 76.5786C38.1635 74.1757 39.0067 71.8377 40.1174 69.6491C41.8964 66.1439 44.2456 63.1679 46.9574 60.4656C47.5745 60.6925 48.2446 61.1129 48.7996 61.4611L48.7997 61.4611C49.1401 61.6746 49.4372 61.861 49.6522 61.9589C50.689 62.4311 52.6799 63.1077 53.3413 61.6182C53.9917 60.1535 52.3339 59.3355 51.3064 59.0078C50.3134 58.6916 49.4181 58.7303 48.4916 58.9905C49.9268 57.6457 51.3971 56.3435 52.8671 55.0415L52.8673 55.0412L52.8674 55.0412C53.1378 54.8017 53.4081 54.5622 53.6782 54.3225C54.0516 54.6459 54.4639 55.1135 54.9017 55.61C56.2912 57.1856 57.9373 59.0523 59.4089 57.5257C61.6299 55.2218 57.3855 52.8837 55.5766 53.0674C55.3545 53.0898 55.1397 53.1394 54.9302 53.2068C56.7755 51.5512 58.5924 49.8615 60.3107 48.0531C60.619 48.1124 61.1094 48.5914 61.6985 49.1668C63.0226 50.4599 64.8453 52.2402 66.2196 50.8369C67.2116 49.824 66.8729 48.2474 65.9148 47.3463C64.9531 46.4413 63.558 46.4436 62.3721 46.7492C61.8595 46.8807 61.3865 47.1313 60.9455 47.4367L60.8908 47.4399C62.5817 45.6416 64.2829 43.8029 65.9216 41.9016C65.9501 41.9113 65.9795 41.9213 66.0088 41.9314C66.1078 42.0595 66.2735 42.1063 66.4254 42.0779C66.5089 42.1081 66.5942 42.1392 66.6811 42.1708L66.6818 42.1711C67.9788 42.6436 69.6458 43.2508 70.9389 42.9878C71.8906 42.7943 72.7544 41.9763 71.9494 40.9702C71.2949 40.152 69.5182 40.2706 68.6516 40.4649C68.2288 40.5599 67.7683 40.8346 67.3063 41.1102C67.1122 41.226 66.9178 41.342 66.7259 41.4448C66.6761 41.3386 66.5891 41.2704 66.4901 41.2377C68.1082 39.3271 69.6523 37.3504 71.0529 35.288C71.4765 35.3572 71.9463 35.5536 72.4308 35.7561C73.5966 36.2436 74.8479 36.7667 75.7466 35.6381C77.0734 33.9715 74.5801 33.0006 73.3946 33.1595C72.9943 33.2131 72.5995 33.3332 72.2184 33.4917C73.2377 31.7938 74.0164 29.9791 74.5637 28.0733C74.567 28.0751 74.57 28.0768 74.573 28.0786C74.575 28.0797 74.5769 28.0808 74.5788 28.082C74.5834 28.0847 74.5881 28.0875 74.5931 28.0902C74.5964 28.092 74.5999 28.0937 74.6037 28.0955C74.5955 28.0908 74.5882 28.0858 74.581 28.0809C74.5756 28.0773 74.5703 28.0737 74.5646 28.0702C74.6193 27.8795 74.6717 27.688 74.7216 27.4958C74.8142 27.4413 74.9008 27.4011 74.9422 27.3846C74.4034 27.7773 76.6756 27.9681 77.1012 28.0039C78.0419 28.0827 79.3022 28.1117 79.9928 27.2968C80.5727 26.6124 80.5394 25.6016 79.8301 25.0295ZM36.4514 82.5265C36.4929 83.06 36.6164 83.5469 36.8595 83.9458C36.681 83.4898 36.5472 83.0149 36.4514 82.5265Z" fill="#C1DEE2"/>
<g opacity="0.7">
<path fill-rule="evenodd" clip-rule="evenodd" d="M164.875 115.669C169.924 115.407 176.168 118.355 176.707 123.843C177.098 127.83 176.977 131.807 177.582 135.788C178.067 138.97 179.091 142.025 180.487 144.924C181.831 147.711 184.617 150.084 185.341 153.062C185.803 154.959 185.544 157.628 184.908 159.484C184.133 161.741 184.545 161.562 186.088 163.456C189.112 167.166 191.835 170.971 193.761 175.403C196.535 181.786 198.353 189.247 197.324 196.235C197.193 197.122 197.038 200.306 195.816 200.528C194.451 200.777 195.089 198.956 195.162 198.368C195.626 194.615 196.039 191.334 195.479 187.522C193.318 172.814 182.767 163.123 175.896 150.64C175.518 149.996 174.721 148.463 174.167 147.452C173.292 145.856 172.412 142.818 171.227 141.634C168.995 139.403 171.047 143.887 171.482 144.743C172.031 145.826 172.636 146.977 173.2 147.925C175.777 152.323 178.654 157.124 181.317 161.657C169.803 164.28 161.694 150.438 158.604 141.338C156.059 133.84 153.013 116.311 164.875 115.669Z" fill="#69A1AC"/>
<path fill-rule="evenodd" clip-rule="evenodd" d="M232.546 101.746C224.106 102.416 218.687 107.985 216.165 115.775C214.806 119.973 214.65 124.286 213.894 128.6C212.758 135.09 210.313 140.009 205.534 144.633C204.054 146.065 202.963 147.536 202.188 149.109C200.649 150.68 199.309 152.457 198.324 154.63C197.067 157.405 196.711 160.735 198.163 163.502C198.553 164.246 199.527 165.739 200.536 166.417C196.758 174.465 194.68 183.278 194.914 192.08C195.056 197.394 195.315 202.71 195.618 208.017C195.699 209.442 196.163 211.795 196.86 209.405C197.498 207.219 196.698 203.788 196.624 201.504C196.264 190.379 195.956 180.264 200.536 169.871C201.016 168.782 201.525 167.701 202.055 166.629C202.086 166.611 202.115 166.589 202.144 166.568C202.165 166.584 202.183 166.6 202.203 166.616C202.237 166.555 202.284 166.483 202.338 166.403C202.49 166.246 202.623 166.048 202.749 165.826C203.155 165.263 203.615 164.602 203.617 164.24C203.617 164.237 203.616 164.233 203.616 164.23C206.451 159.603 209.698 155.23 213.014 150.943C212.989 150.974 216.612 146.042 216.052 148.769C215.782 150.084 213.117 152.587 212.041 153.979C209.661 157.077 206.865 161.001 204.542 164.796C204.23 164.976 203.788 165.858 203.468 166.515C203.292 166.848 203.128 167.183 202.966 167.476C211.197 170.195 217.6 164.717 221.966 158.346C221.971 158.339 221.976 158.331 221.981 158.323C223.309 156.563 224.67 154.815 226.371 153.423C229.208 151.101 232.246 150.691 235.59 149.548C244.711 146.432 248.589 134.611 249.821 125.839C251.211 115.944 244.413 100.77 232.546 101.746Z" fill="#89C5CC"/>
<path fill-rule="evenodd" clip-rule="evenodd" d="M215.874 74.0349C207.211 83.0508 203.026 95.5559 199.712 107.312C196.011 120.442 193.566 133.775 193.472 147.427C193.411 156.396 193.167 165.421 193.69 174.38C193.876 177.562 194.193 180.749 194.698 183.896C194.739 184.155 195.867 191.183 196.947 189.545C197.561 188.614 195.79 182.255 195.657 181.196C194.904 175.23 194.729 169.221 194.766 163.212C194.826 153.319 194.535 143.477 195.537 133.62C195.687 132.149 195.805 130.603 196.155 129.163C196.526 127.633 196.053 128.301 197.262 127.695C198.437 127.106 199.888 127.19 201.107 126.451C205.942 123.52 208.415 115.989 210.339 111.049C212.541 105.399 213.879 99.3736 214.948 93.4277C215.732 89.0591 216.294 84.717 216.611 80.2922C216.711 78.8976 216.717 77.4393 216.991 76.0681C217.065 75.6982 217.435 75.0439 217.422 74.7163C217.393 74.0231 216.975 73.6153 216.941 73.0328C216.578 73.3591 216.222 73.6934 215.874 74.0349Z" fill="#89C5CC"/>
<path fill-rule="evenodd" clip-rule="evenodd" d="M168.639 194.157C168.639 209.067 180.726 221.154 195.636 221.154C210.546 221.154 222.633 209.067 222.633 194.157" fill="#89C5CC"/>
<path fill-rule="evenodd" clip-rule="evenodd" d="M214.137 170.52C220.819 170.027 228.281 175.417 231.504 181.027C234.102 185.55 233.664 191.489 232.059 196.294C230.985 199.51 228.639 204.097 224.728 204.142C219.835 204.198 219.599 198.15 219.504 194.614C219.378 189.913 218.784 185.818 215.08 182.614C214.623 182.219 214.143 181.849 213.663 181.479C213.237 181.15 212.812 180.821 212.402 180.475C212.336 180.42 212.27 180.365 212.204 180.309C210.894 179.208 209.519 178.052 209.351 176.237C209.109 173.608 210.593 173.135 212.859 173.623C212.932 173.639 213.131 173.714 213.401 173.817C214.558 174.255 217.028 175.191 216.561 174.072C216.385 173.651 215.743 173.317 214.932 173.066C212.833 172.838 210.33 172.573 209.611 172.732C201.846 174.435 198.823 185.19 198.02 192.024C197.933 192.762 197.863 193.502 197.802 194.243H196.376C196.475 192.453 196.605 190.666 196.905 188.896C198.049 182.128 201.627 172.186 209.475 171.087C209.764 171.046 210.829 171.04 212.12 171.115C212.731 170.774 213.416 170.567 214.137 170.52Z" fill="#69A1AC"/>
</g>
<g opacity="0.5">
<path fill-rule="evenodd" clip-rule="evenodd" d="M74.047 66.3626C75.6011 64.1467 78.4851 58.5188 80.6725 57.727C82.0814 57.2169 81.6706 62.4927 81.688 63.4986C81.7557 67.3905 81.3768 71.2578 80.9089 75.117C80.066 82.0771 77.3095 88.2757 73.5289 94.1994C71.5834 97.2476 69.3016 100.333 66.1411 102.235C64.6863 103.11 62.9359 103.257 61.4992 104.012C59.826 104.89 60.7372 104.18 59.9831 105.924C58.936 108.344 58.601 111.467 58.1165 114.05C55.8919 125.908 50.5061 188.589 51.4397 200.65C51.5227 201.719 50.032 201.975 49.9576 200.67C49.5621 193.75 52.9846 145.829 54.7114 130.158C56.4381 114.486 58.1855 100.641 59.9376 95.2196C62.0632 88.6418 65.9021 80.7315 69.0977 74.5974C70.582 71.7476 72.2 68.996 74.047 66.3626Z" fill="#69A1AC"/>
<path fill-rule="evenodd" clip-rule="evenodd" d="M85.5822 143.224C89.6262 140.255 94.0035 145.858 90.3441 148.828C88.3211 150.469 86.2062 149.885 85.0155 148.517C84.2426 149.46 83.5191 150.445 82.824 151.277C80.7061 153.812 78.7044 156.408 76.7914 159.065C72.8173 164.584 69.4116 170.414 65.8507 176.138C62.3366 181.788 58.8505 187.466 55.6654 193.258C52.9671 198.166 49.3706 203.939 48.4468 209.32C49.8484 197.909 55.1671 186.942 61.5008 176.883C67.7829 166.906 74.9923 156.011 84.7193 148.137C83.7294 146.682 83.7019 144.604 85.5822 143.224Z" fill="#C1DEE2"/>
<path fill-rule="evenodd" clip-rule="evenodd" d="M8.84366 115.396C11.1067 115.839 14.8045 120.958 16.6699 122.908C18.8868 125.226 20.8981 127.697 22.794 130.285C26.8754 135.857 30.5256 141.781 33.6294 147.959C38.6895 158.029 42.7433 168.367 45.6854 179.333C47.4863 186.046 48.6523 193.004 49.3433 199.913C49.4738 201.216 50.84 211.262 48.8715 211.533C47.101 211.777 47.6478 203.905 47.5624 202.834C46.5969 190.754 43.7046 179 39.6814 167.613C38.8051 165.133 37.991 162.095 36.5896 159.863C35.5803 158.255 36.5823 158.816 34.8088 158.207C33.2859 157.684 31.5507 157.812 29.9913 157.172C26.6034 155.783 23.8908 153.086 21.5129 150.373C16.8919 145.1 13.2301 139.396 11.3213 132.641C10.2624 128.895 9.28936 125.127 8.74938 121.265C8.60969 120.267 7.38606 115.111 8.84366 115.396Z" fill="#69A1AC"/>
<path fill-rule="evenodd" clip-rule="evenodd" d="M17.7742 30.2204C26.2986 45.0039 33.3035 61.2431 37.8267 77.6909C40.5672 87.6565 42.4837 97.8826 44.3879 108.035C47.3363 123.754 50.125 139.473 50.9183 155.472C51.7164 171.563 53.2946 190.123 48.0255 205.621C50.6574 189.886 48.1516 173.137 47.7079 157.304C47.4959 149.746 46.8815 142.261 46.0756 134.747C45.2934 127.458 44.0157 120.203 42.8258 112.971C42.2462 109.449 41.6375 105.932 41.0177 102.417C40.8327 101.369 40.7545 98.2569 40.0893 97.5406C39.4198 96.8195 36.0038 96.5255 34.9314 95.9964C32.7718 94.9307 30.7404 93.417 28.9426 91.8176C25.4962 88.7515 22.498 84.7453 20.1316 80.796C14.6563 71.6582 12.4673 60.5067 12.578 49.9239C12.5992 47.8692 15.9036 25.7433 14.5765 25.4386C14.6564 25.3451 14.732 25.2484 14.8033 25.1479C15.808 26.8302 16.7939 28.5238 17.7742 30.2204Z" fill="#89C5CC"/>
<path fill-rule="evenodd" clip-rule="evenodd" d="M109.78 83.5382C109.912 83.3485 110.768 82.0291 110.337 82.1134C111.215 81.9417 109.13 83.5686 111.317 82.5704C110.278 83.551 110.878 84.8249 110.891 86.1448C110.914 88.2876 110.555 90.4129 110.152 92.5098C109.514 95.8243 108.564 99.047 107.185 102.13C104.18 108.848 99.076 115.316 93.0172 119.516C90.0261 121.59 87.0947 122.296 83.6833 123.251C81.5286 123.854 81.3577 124.969 80.214 127.059C77.8328 131.414 75.494 135.754 73.394 140.256C70.8864 145.631 68.4522 151.013 66.1561 156.484C58.4207 174.91 52.1248 194.001 48.8184 213.757C48.7374 202.115 51.4307 190.124 54.8281 179.027C57.3029 170.941 60.5245 163.148 63.9608 155.433C64.7935 153.563 66.0553 151.159 66.4089 149.096C66.6565 147.65 65.8995 146.259 65.5529 144.736C64.2018 138.805 64.2985 132.161 65.485 126.198C66.7933 119.623 70.5767 116.571 76.9768 115.64C79.3174 115.299 82.2924 115.424 84.4387 114.426C86.777 113.339 87.7416 109.767 89.0713 107.474C92.6427 101.314 96.886 95.4065 101.759 90.2163C103.108 88.7791 104.559 87.4531 106.098 86.2242C107.068 85.4487 109.119 84.4934 109.78 83.5382Z" fill="#89C5CC"/>
<path fill-rule="evenodd" clip-rule="evenodd" d="M36.1853 203.302C36.0206 202.186 36.886 201.183 38.0146 201.183H60.728C61.8567 201.183 62.722 202.186 62.5574 203.302L60.8018 215.206C60.2666 218.835 57.1527 221.524 53.4845 221.524H45.2581C41.59 221.524 38.476 218.835 37.9408 215.206L36.1853 203.302Z" fill="#C1DEE2"/>
</g>
<path fill-rule="evenodd" clip-rule="evenodd" d="M17.5361 207.269C17.5361 215.142 18.1574 221.524 26.4961 221.524C34.8349 221.524 35.4561 215.142 35.4561 207.269" fill="#F2F2F2"/>
<path fill-rule="evenodd" clip-rule="evenodd" d="M28.9769 202.357C28.6712 202.886 28.3987 203.425 28.1579 203.972C28.1494 202.845 28.2117 201.71 28.3819 200.559C28.6727 198.589 29.1169 196.628 29.5344 194.67C29.8344 193.263 29.8154 190.737 30.9539 189.616C31.2661 189.373 31.3413 189.849 31.3413 190.055C31.3452 190.098 31.3404 189.213 31.0374 189.367C29.2361 190.297 28.6525 193.223 28.0758 194.687C27.2344 196.825 26.5185 199.01 26.2238 201.234C26.1493 201.796 26.1087 202.358 26.0994 202.919C26.0381 202.769 25.9806 202.618 25.917 202.468C24.8774 200.03 23.4744 197.651 21.7245 195.456C21.2938 194.917 15.878 189.589 15.4541 190.405C15.4959 190.523 15.5835 190.621 15.717 190.699C15.7249 190.708 15.7251 190.703 15.7205 190.69C16.0386 191.204 16.9429 191.998 17.2246 192.448C17.9335 193.581 18.4845 194.783 19.0444 195.962C20.2274 198.455 21.3247 200.972 22.3885 203.495C22.6363 204.083 22.8944 204.667 23.1578 205.249C20.4426 201.333 16.8205 197.778 11.8343 195.742C13.5373 196.609 14.6539 198.239 15.8039 199.487C17.1911 200.992 18.652 202.457 20.0418 203.961C21.6809 205.735 23.6097 207.603 25.1863 209.566C26.7135 212.772 28.1976 215.982 29.1137 219.352C28.7383 218.188 29.0843 216.579 29.02 215.356C28.969 214.384 28.8553 213.419 28.6995 212.456C28.8921 212.89 29.0581 213.325 29.1333 213.729C29.0647 213.051 28.9856 212.377 28.9006 211.707C29.1187 211.079 29.3328 210.494 29.4775 210.011C30.2189 207.537 31.1016 205.104 32.3038 202.734C33.4162 200.541 34.6922 198.376 36.0826 196.278C36.7311 195.299 37.3886 194.324 38.042 193.348C38.4697 192.708 38.8769 191.685 39.4723 191.072C35.6235 194.591 31.4186 198.135 28.9769 202.357Z" fill="#F2F2F2"/>
<path fill-rule="evenodd" clip-rule="evenodd" d="M238.77 48.3829C237.667 44.7027 235.076 41.8223 232.387 39.1831C227.152 34.0452 224.337 30.8685 222.471 23.3527C221.374 18.9325 220.257 14.2484 216.777 11.0415C214.243 8.70612 209.882 6.74401 206.493 8.41631C201.28 11.528 199.88 17.9137 200.406 23.6317C201.057 30.7187 204.368 35.0886 210.727 37.699C214.311 39.1691 216.693 41.1089 218.638 44.4891C220.194 47.192 221.101 50.5765 223.057 53.0268C225.98 56.6896 229.638 58.3178 234.147 57.7094C229.924 49.9389 224.989 42.0954 219.038 35.5529C218.48 34.8952 215.194 32.3777 215.857 31.2567C216.587 30.0224 219.961 34.6588 219.937 34.6308C221.666 36.6162 223.267 38.726 224.839 40.8561C224.835 40.8581 224.83 40.8593 224.826 40.8615C226.444 43.0472 228.049 45.2651 229.624 47.5108C230.26 48.4607 230.88 49.4228 231.474 50.409C232.344 51.8561 233.726 55.9633 235.151 56.8531C235.456 57.0433 235.738 57.1497 236.002 57.1936C236.974 58.7854 237.92 60.39 238.819 62.0136C241.169 66.254 243.186 70.7312 244.111 75.5186C244.381 76.9159 244.19 82.1428 245.144 83.1515C246.888 84.9965 246.377 81.4435 246.273 80.3711C245.406 71.4903 242.218 63.9244 237.589 56.4584C239.011 54.6011 239.217 49.874 238.77 48.3829Z" fill="#F2F2F2"/>
<path fill-rule="evenodd" clip-rule="evenodd" d="M179.042 52.6738C180.881 50.5076 185.3 50.1401 188.003 50.2851C191.348 50.4645 194.783 51.2787 197.965 52.2632C203.207 53.8847 208.3 56.8439 212.917 59.7081C213.473 60.0532 220.327 64.175 219.72 64.8984C219.119 65.6151 212.391 60.719 210.891 59.8751C207.691 58.0739 204.757 55.9437 201.229 54.7542C197.577 53.5223 193.715 53.0345 189.874 53.0682C189.381 53.0726 187.774 52.7289 187.739 53.4581C187.705 54.1713 190.365 53.7992 190.834 53.8035C192.772 53.8213 194.721 54.0036 196.631 54.3394C200.21 54.9684 203.574 56.2357 206.639 58.1794C205.784 60.1678 203.734 61.0847 201.583 60.5871C199.725 60.1568 197.913 59.0959 196.093 58.7892C194.839 58.578 193.584 58.7036 192.368 59.0568C189.162 59.9886 187.313 61.8975 183.788 60.5697C181.024 59.5287 176.402 55.7889 179.042 52.6738Z" fill="#F2F2F2"/>
<path fill-rule="evenodd" clip-rule="evenodd" d="M171.136 17.7704C167.054 17.4727 162.495 20.7306 160.526 24.121C158.939 26.8545 159.206 30.444 160.187 33.3481C160.843 35.2924 162.276 38.0644 164.666 38.0915C167.656 38.1253 167.8 34.4699 167.858 32.3329C167.934 29.4919 168.297 27.017 170.56 25.0805C170.84 24.8415 171.133 24.6177 171.426 24.394C171.686 24.1954 171.946 23.9968 172.197 23.7876C172.237 23.7541 172.277 23.7207 172.317 23.6871C173.118 23.0218 173.958 22.323 174.06 21.2263C174.209 19.637 173.302 19.351 171.917 19.6463C171.873 19.6558 171.751 19.7013 171.586 19.7632C170.879 20.0283 169.37 20.5941 169.656 19.9177C169.763 19.6629 170.156 19.461 170.651 19.3096C171.933 19.1717 173.462 19.0117 173.902 19.1073C178.646 20.1369 180.493 26.6375 180.983 30.7676C181.039 31.2353 181.083 31.7045 181.122 32.1745H181.991C181.93 31.0708 181.851 29.9688 181.665 28.8774C180.965 24.7863 178.779 18.7777 173.985 18.1137C173.808 18.0889 173.157 18.0848 172.369 18.1305C171.996 17.924 171.577 17.7991 171.136 17.7704Z" fill="#F2F2F2"/>
<path fill-rule="evenodd" clip-rule="evenodd" d="M131.263 86.6288C133.658 88.0723 136.011 88.7697 137.116 88.485C139.885 87.7711 140.14 77.6387 137.997 73.6442C135.854 69.6497 124.837 67.9087 124.281 75.823C124.089 78.5699 125.242 81.0212 126.946 83.0215L123.891 97.2633H132.766L131.263 86.6288Z" fill="#E3C1A2"/>
<path fill-rule="evenodd" clip-rule="evenodd" d="M136.822 72.2792C137.019 72.3457 136.822 71.495 136.349 71.1839C134.899 70.23 130.582 68.818 127.631 69.4307C125.654 69.8412 123.188 70.8715 121.608 72.1848C120.185 73.3688 118.889 75.4561 118.385 77.2899C117.856 79.2154 117.656 81.8946 118.385 83.5745C119.254 85.5752 122.33 87.7314 122.411 88.0178C122.504 88.3445 122.141 89.6212 121.874 90.9664C121.608 92.3116 121.729 95.7366 121.874 96.2953C122.106 97.1879 123.349 97.6269 123.891 97.6914C126.886 98.0484 129.058 101.767 129.961 102.719C129.961 102.719 135.996 108.777 138.384 107.988C138.803 107.85 138.175 102.831 137.756 100.68C137.337 98.5294 133.227 94.6909 132.963 93.426C132.808 92.6808 132.783 91.3836 132.766 91.3245C132.379 88.652 132.445 88.4348 131.88 87.3458C131.314 86.2568 130.876 86.1929 131.012 85.8757C131.676 84.3257 133.812 79.5833 134.296 78.0325C134.873 76.1843 134.601 76.7914 135.196 74.9494C135.46 74.1338 135.795 71.9343 136.822 72.2792Z" fill="#767CBD"/>
<mask id="mask0" mask-type="alpha" maskUnits="userSpaceOnUse" x="117" y="69" width="22" height="40">
<path fill-rule="evenodd" clip-rule="evenodd" d="M136.822 72.2792C137.019 72.3457 136.822 71.495 136.349 71.1839C134.899 70.23 130.582 68.818 127.631 69.4307C125.654 69.8412 123.188 70.8715 121.608 72.1848C120.185 73.3688 118.889 75.4561 118.385 77.2899C117.856 79.2154 117.656 81.8946 118.385 83.5745C119.254 85.5752 122.33 87.7314 122.411 88.0178C122.504 88.3445 122.141 89.6212 121.874 90.9664C121.608 92.3116 121.729 95.7366 121.874 96.2953C122.106 97.1879 123.349 97.6269 123.891 97.6914C126.886 98.0484 129.058 101.767 129.961 102.719C129.961 102.719 135.996 108.777 138.384 107.988C138.803 107.85 138.175 102.831 137.756 100.68C137.337 98.5294 133.227 94.6909 132.963 93.426C132.808 92.6808 132.783 91.3836 132.766 91.3245C132.379 88.652 132.445 88.4348 131.88 87.3458C131.314 86.2568 130.876 86.1929 131.012 85.8757C131.676 84.3257 133.812 79.5833 134.296 78.0325C134.873 76.1843 134.601 76.7914 135.196 74.9494C135.46 74.1338 135.795 71.9343 136.822 72.2792Z" fill="white"/>
</mask>
<g mask="url(#mask0)">
<path fill-rule="evenodd" clip-rule="evenodd" d="M128.536 78.4549C128.397 75.6424 128.536 74.5436 129.185 72.4852H128.785C128.153 73.3021 127.623 75.8007 128.218 78.4549H128.536ZM120.697 78.3224C120.627 78.1516 120.555 77.9768 120.482 77.7975L120.227 77.9197C121.03 80.8545 122.006 83.1201 125.357 85.0195L125.618 84.837C122.448 82.6083 121.768 80.9451 120.697 78.3224ZM125.546 75.5567L125.546 75.5568C126.028 79.2749 126.333 81.6328 129.019 85.9089L128.714 86.0019C125.77 82.0363 125.304 78.7996 125.165 74.8351L125.449 74.8123C125.482 75.0668 125.514 75.3146 125.546 75.5567ZM122.549 86.8641L122.289 87.1806C123.593 87.4536 124.48 88.4128 125.497 89.5124C126.572 90.6759 127.793 91.9966 129.808 92.828L130.182 92.6014C127.983 91.4581 126.96 90.3219 126.067 89.3298C125.142 88.3028 124.357 87.4301 122.549 86.8641Z" fill="black" fill-opacity="0.2"/>
</g>
<path fill-rule="evenodd" clip-rule="evenodd" d="M109.618 164.234C109.618 164.234 122.926 167.956 132.581 167.956C142.237 167.956 150.518 162.224 150.518 162.224C150.518 162.224 137.495 158.403 129.068 158.403C120.641 158.403 109.618 164.234 109.618 164.234Z" fill="#1F28CF"/>
<path fill-rule="evenodd" clip-rule="evenodd" d="M140.261 171.533C140.176 171.404 140.104 171.264 140.046 171.113C138.86 167.977 119.866 134.144 117.973 127.959H139.359C140.798 132.661 147.273 162.174 148.185 168.063C151.06 177.351 156.98 207.432 157.736 209.516C158.531 211.708 154.058 213.992 152.866 211.296C150.969 207.008 146.449 195.142 144.437 187.897C142.55 181.105 141.014 174.994 140.261 171.533Z" fill="#E3C1A2"/>
<path fill-rule="evenodd" clip-rule="evenodd" d="M122.765 175.663C114.081 177.858 82.3166 181.826 80.1368 182.448C77.8944 183.089 75.9283 178.467 78.7 177.465C83.1102 175.872 95.2623 172.191 102.63 170.689C108.556 169.481 113.964 168.495 117.595 167.918C117.287 157.719 115.881 133.245 116.803 127.959H135.725C134.841 133.028 127.371 170.014 125.982 173.716C125.541 175.038 124.227 175.622 122.765 175.663Z" fill="#E3C1A2"/>
<path fill-rule="evenodd" clip-rule="evenodd" d="M79.4863 177.172C79.5893 176.752 79.3336 176.319 78.9071 176.244C78.1291 176.108 76.97 175.945 76.3519 176.054C75.3668 176.228 73.5347 176.889 73.5347 176.889C73.7362 178.032 77.1567 197.431 77.1567 197.431C77.1567 197.431 79.945 197.765 79.8519 196.003C79.7588 194.24 79.7277 193.069 79.7277 193.069L82.3006 182.771C82.3511 182.569 82.2247 182.365 82.0212 182.32L80.4243 181.969C80.4243 181.969 79.3975 180.503 79.2215 179.505C79.1143 178.897 79.3138 177.877 79.4863 177.172Z" fill="#2F3676"/>
<path fill-rule="evenodd" clip-rule="evenodd" d="M152.533 210.534C152.137 210.36 151.666 210.536 151.518 210.943C151.249 211.686 150.888 212.799 150.888 213.427C150.888 214.427 151.221 216.346 151.221 216.346C152.381 216.346 172.08 216.346 172.08 216.346C172.08 216.346 172.893 213.658 171.141 213.444C169.389 213.229 168.23 213.057 168.23 213.057L158.535 208.735C158.345 208.65 158.122 208.739 158.043 208.932L157.42 210.443C157.42 210.443 155.798 211.2 154.784 211.2C154.167 211.2 153.197 210.826 152.533 210.534Z" fill="#2F3676"/>
<path fill-rule="evenodd" clip-rule="evenodd" d="M116.864 127.959C116.864 127.959 129.371 124.38 140.533 127.959C143.121 139.77 149.412 144.458 150.518 162.566C137.944 168.814 122.411 158.11 109.467 164.203C105.769 155.681 110.947 135.157 116.864 127.959Z" fill="#FAEF80"/>
<path fill-rule="evenodd" clip-rule="evenodd" d="M90.6165 140.237C92.0656 138.26 100.791 117.003 100.791 117.003L107.304 118.182C107.304 118.182 95.9654 140.682 95.158 141.976C94.1093 143.656 94.8856 146.502 95.4121 148.432C95.4935 148.731 95.569 149.008 95.6308 149.255C94.3723 149.571 93.9232 148.841 93.4498 148.072C92.915 147.203 92.3492 146.284 90.5509 146.764C89.8562 146.949 89.1863 147.195 88.5319 147.436C86.2713 148.266 84.1945 149.029 81.9109 146.996C81.5488 146.674 81.2701 145.651 82.4757 145.104C85.4794 143.739 89.9081 141.204 90.6165 140.237ZM165.972 129.273L154.175 120.611L151.567 127.057L163.249 131.901C166.553 135.782 168.4 137.4 168.791 136.755C169.121 136.211 168.863 135.701 168.626 135.232C168.441 134.867 168.269 134.526 168.396 134.212C168.686 133.495 170.905 133.57 173.008 133.732C175.111 133.894 174.498 132.958 173.991 132.496C171.844 131.211 169.171 130.137 165.972 129.273Z" fill="#E3C1A2"/>
<path fill-rule="evenodd" clip-rule="evenodd" d="M132.864 89.8816L128.909 91.5037C128.95 92.5368 128.946 94.0063 128.942 95.69C128.927 100.974 128.906 108.367 130.272 110.991C135.001 120.081 144.713 124.816 155.529 130.09C156.979 130.797 158.449 131.513 159.929 132.252L162.905 126.176C162.561 125.932 162.219 125.686 161.881 125.439C162.348 125.275 162.737 124.905 162.908 124.4C163.201 123.529 162.733 122.585 161.862 122.291C160.092 121.695 158.442 121.444 156.924 121.552C145.84 112.213 138.378 101.279 132.864 89.8816Z" fill="#191847"/>
<path fill-rule="evenodd" clip-rule="evenodd" d="M115.015 131.254C115.015 131.254 132.455 133.169 142.469 131.254C143.296 131.095 143.26 127.53 142.876 126.556C136.903 111.391 132.973 100.29 132.973 89.7569C131.329 90.6157 127.219 90.0143 127.219 90.0143C119.854 100.869 116.469 113.323 115.015 131.254Z" fill="#FF4133"/>
<path fill-rule="evenodd" clip-rule="evenodd" d="M92.8966 131.437C103.174 102.064 124.251 89.1272 124.251 89.1272L126.249 89.1272L128.457 89.1272C127.981 95.4274 130.219 104.595 132.816 115.231C136.969 132.24 142.038 153.002 138.384 171.789C133.891 172.793 128.612 172.108 122.897 171.366C114.648 170.296 105.491 169.108 96.4803 172.707C96.8277 165.181 101.222 156.851 105.596 148.557C108.369 143.3 111.133 138.059 112.854 133.047C112.46 132.675 112.254 132.118 112.355 131.544L112.548 130.452C112.678 129.711 113.28 129.172 113.99 129.088C114.114 128.533 114.221 127.982 114.309 127.435C114.761 124.639 114.472 121.877 114.187 119.145V119.145C114.031 117.646 113.875 116.155 113.844 114.674C108.891 119.087 102.895 126.78 97.8358 140.115L90.851 138.06C91.1181 137.067 91.398 136.092 91.6897 135.132C90.8812 134.686 89.928 132.57 90.6089 132.218C91.3284 131.845 92.0918 131.585 92.8966 131.437Z" fill="#2F3676"/>
<path fill-rule="evenodd" clip-rule="evenodd" d="M125.779 89.4971L123.871 95.3645L127.713 99.763L124.241 103.22L132.641 117.604L122.368 103.248L125.779 99.763L122.368 95.8759L125.779 89.4971Z" fill="black" fill-opacity="0.1"/>
<path fill-rule="evenodd" clip-rule="evenodd" d="M130.178 123.151C130.994 123.151 131.657 122.489 131.657 121.672C131.657 120.855 130.994 120.192 130.178 120.192C129.361 120.192 128.698 120.855 128.698 121.672C128.698 122.489 129.361 123.151 130.178 123.151ZM132.027 131.657C132.844 131.657 133.506 130.995 133.506 130.178C133.506 129.361 132.844 128.698 132.027 128.698C131.21 128.698 130.547 129.361 130.547 130.178C130.547 130.995 131.21 131.657 132.027 131.657ZM133.876 138.683C133.876 139.5 133.213 140.163 132.396 140.163C131.579 140.163 130.917 139.5 130.917 138.683C130.917 137.866 131.579 137.204 132.396 137.204C133.213 137.204 133.876 137.866 133.876 138.683Z" fill="black" fill-opacity="0.4"/>
</svg>
