<svg width="113" height="167" viewBox="0 0 113 167" fill="none" xmlns="http://www.w3.org/2000/svg">
<g opacity="0.5">
<g opacity="0.5">
<g opacity="0.5">
<path opacity="0.5" d="M99.2993 47.1092C99.2993 47.1092 98.6675 46.6579 97.9901 47.5155C97.3536 48.3221 80.8038 72.8943 75.9674 82.8011C75.9674 80.9452 75.9501 79.5332 75.9128 78.8937C75.7313 75.8246 75.7313 68.5996 75.0078 68.3286C74.2844 68.0576 73.4746 73.8389 73.8334 79.1647C74.1922 84.4906 70.1303 92.3494 69.4991 93.7039C68.9682 94.8443 68.6267 95.1531 67.8296 96.1408C68.3287 91.7146 69.3185 84.4938 69.3185 77.5407C69.3185 70.5877 69.9507 49.2769 69.3185 47.6509C68.6864 46.0249 68.2347 46.0257 68.2347 46.9906C68.2347 47.9554 66.158 62.37 66.158 66.7945C66.158 70.8414 64.948 81.0054 61.8401 89.2057C61.3548 84.3628 60.6496 75.513 60.6496 72.5737C60.6496 68.7811 60.0177 61.8274 59.2951 62.0086C58.5725 62.1897 57.3085 70.3161 57.9407 77.9013C58.4871 84.4594 57.3464 87.0362 56.2686 91.0567C56.189 90.7858 56.0837 90.5232 55.9541 90.2724C54.5095 87.4731 48.4593 59.4803 48.4505 57.4937C48.4417 55.5071 48.1883 55.5071 47.6466 55.9587C47.1049 56.4102 47.6466 65.3499 47.6466 69.5938C47.6466 73.8377 49.4963 87.9446 49.4963 87.9446C48.624 84.724 47.6307 81.1445 47.2863 80.2261C46.6768 78.6007 43.9001 74.1307 42.3425 71.0833C40.7848 68.0359 34.4187 56.1836 32.8608 54.8294C31.3029 53.4753 25.6144 46.2283 23.718 46.4321C21.8215 46.6359 24.8692 49.412 24.8692 49.412C26.9689 51.6467 31.8452 60.9251 35.0282 66.6817C37.3974 70.9661 40.2913 83.3146 42.3146 92.5059C41.3594 91.061 40.5235 89.3936 39.7833 86.4346C38.3385 80.6557 33.3805 74.7408 32.1162 74.1087C30.8519 73.4765 32.1162 76.4576 32.1162 76.4576C36.6355 84.8931 38.2348 99.57 38.8423 108.504C37.3337 105.857 35.5509 102.783 34.9146 101.742C33.9231 100.117 32.8396 97.3159 32.4776 96.1429C32.0191 94.7645 31.3163 93.4798 30.4027 92.3503C29.4978 91.2666 28.685 88.7389 28.3248 87.9264C27.9375 87.0568 27.3265 85.1388 26.4774 84.6459C26.1738 84.4671 26.0222 84.4859 25.9571 84.6106C25.8299 84.8626 26.0493 85.5479 26.1144 85.9977C26.3787 87.8151 26.6588 89.6329 26.8779 91.4563C27.0323 92.7241 27.3791 94.233 27.1515 95.5116C26.8805 97.0449 29.8604 104.901 30.4024 106.618C30.9444 108.336 31.7568 112.486 33.653 115.106C35.2816 117.355 39.3162 125.444 40.9951 128.315H33.5714C32.9037 128.315 32.2632 128.58 31.7909 129.052C31.3185 129.523 31.0528 130.164 31.0521 130.831V136.399C31.0526 136.581 31.1256 136.756 31.2552 136.885C31.3847 137.014 31.5602 137.087 31.743 137.086C31.9075 137.086 32.0666 137.145 32.1899 137.254C32.315 137.361 32.3977 137.509 32.423 137.672L34.6742 152.257C35.0972 154.986 36.3956 157.503 38.3737 159.43C38.7826 159.835 39.2149 160.216 39.6682 160.571C39.8626 160.723 40.9014 161.284 40.7364 161.62C39.84 163.451 30.4461 163.922 28.5174 164.133C22.9192 164.743 17.3248 165.377 11.7344 166.035H50.7615C50.7615 166.035 62.3593 166.398 67.0495 160.517C69.2671 158.338 70.7376 155.513 71.2502 152.446L73.7292 137.663C73.7561 137.502 73.8392 137.356 73.9636 137.251C74.088 137.145 74.2457 137.087 74.4089 137.086H74.4632C74.646 137.087 74.8214 137.014 74.9509 136.885C75.0804 136.756 75.1534 136.581 75.1538 136.399V130.831C75.1531 130.164 74.8873 129.524 74.415 129.052C73.9426 128.58 73.3022 128.315 72.6346 128.315H68.5915C70.3221 127.649 76.5778 124.586 79.2529 114.111C82.3223 102.103 86.7486 81.4247 89.9076 78.2633C91.3947 76.7765 91.6824 76.0492 91.439 75.8851C91.4646 75.8727 91.4904 75.8589 91.5162 75.848C91.4616 75.8452 91.4069 75.8473 91.3527 75.8542C91.1986 75.8451 91.0451 75.8802 90.9102 75.9552C90.0476 76.2421 88.3558 77.2765 86.4347 80.9739C83.655 86.3242 77.4067 99.7326 75.5182 102.918C75.5578 102.255 75.595 101.496 75.63 100.665C77.2645 96.9131 79.5101 91.2877 81.238 86.2114C84.0373 77.9941 94.7604 59.4374 95.7085 56.119C96.6565 52.8006 98.3046 49.2778 98.8463 48.466C99.388 47.6541 99.2993 47.1092 99.2993 47.1092Z" fill="#BDC9E2"/>
</g>
</g>
</g>
<path d="M24.7759 107.613C24.6018 107.208 24.3426 75.198 16.2118 60.0208C16.2118 60.0208 14.6941 56.4434 16.2118 57.2021C17.7295 57.9608 23.6819 65.0618 25.4163 72.0002C27.1507 78.9386 29.3293 79.9683 32.148 84.6297C34.9667 89.2911 35.4001 118.67 35.2917 119.104C35.1834 119.537 30.9553 119.646 30.7386 119.104C30.5219 118.562 24.7759 107.613 24.7759 107.613Z" fill="#33624B"/>
<path d="M35.2764 119.104C35.2503 119.214 34.9446 119.305 34.5024 119.37L26.2645 86.4738C25.152 77.7156 23.243 68.0237 19.9322 61.1875C22.0591 64.0429 24.4139 68.0463 25.4025 72.001C27.1348 78.9382 29.3152 79.9691 32.1347 84.6296C34.9543 89.2901 35.3871 118.671 35.2764 119.104Z" fill="#224031"/>
<path d="M37.0777 73.8132C37.0777 73.8132 34.858 56.8767 34.858 51.7817C34.858 46.6866 34.2077 35.9541 34.858 35.4118C35.5084 34.8695 35.8131 34.8698 35.8234 37.2548C35.8337 39.6398 43.0971 73.2466 44.8318 76.6073C46.5664 79.968 43.9644 83.437 46.4578 92.8684C48.9512 102.3 57.4633 113.791 51.31 112.707C45.1568 111.623 34.4243 107.178 36.1596 97.7468C37.8949 88.3154 37.0777 73.8132 37.0777 73.8132Z" fill="#33624B"/>
<path d="M45.8254 107.613C46.0241 106.745 43.2054 86.3645 44.6148 79.9685C46.0241 73.5724 47.9755 70.862 47.2165 61.7556C46.4575 52.6492 47.9755 42.8927 48.8428 42.6757C49.7102 42.4587 50.4689 50.8065 50.4689 55.3598C50.4689 59.9132 51.8782 76.2827 52.3119 78.8844C52.7455 81.4861 45.8254 107.613 45.8254 107.613Z" fill="#224031"/>
<path d="M45.8253 107.613C45.8253 107.613 46.2408 88.2073 50.7941 78.0168C55.3475 67.8264 57.0819 53.7332 57.0819 48.4206C57.0819 43.1079 59.5752 25.8032 59.5752 24.6449C59.5752 23.4866 60.1172 23.4866 60.8759 25.4377C61.6346 27.3887 60.8759 52.9733 60.8759 61.3211C60.8759 69.6688 59.6859 78.3377 59.0884 83.6515C58.4909 88.9653 49.1678 120.27 46.5661 119.47C43.9644 118.669 40.6037 114.441 41.5793 113.357C42.555 112.273 45.8253 107.613 45.8253 107.613Z" fill="#33624B"/>
<path d="M96.8678 24.7884C96.8678 24.7884 96.1091 24.2464 95.2958 25.2761C94.4824 26.3058 72.0416 59.6356 67.9228 69.6933L68.5764 81.0524L76.5955 65.0078L96.8678 24.7884Z" fill="#33624B"/>
<path d="M35.2928 123.657C34.9059 123.592 34.5001 123.51 34.0796 123.416C33.53 123.296 32.961 123.152 32.3916 122.994C29.7477 122.252 28.3959 124.278 27.6119 123.416C26.5291 122.223 20.3324 109.565 18.0557 106.42C15.779 103.275 14.8036 98.2892 14.153 96.2316C13.5023 94.1739 9.92493 84.7381 10.2502 82.8971C10.5236 81.3621 10.1073 79.5499 9.92201 78.0287C9.65776 75.8398 9.32362 73.6574 9.00476 71.4753C8.92666 70.9356 8.66329 70.1126 8.81627 69.8102C8.89407 69.6604 9.0764 69.6378 9.44048 69.8525C10.4584 70.4444 11.1936 72.7469 11.6587 73.791C12.0912 74.7667 13.0681 77.8009 14.153 79.1019C15.2499 80.4578 16.0938 82 16.6443 83.6549C17.08 85.0643 18.381 88.4261 19.5713 90.3787C20.7616 92.3312 25.3182 100.243 26.7264 102.845C27.6046 104.464 30.704 112.12 32.9216 117.678C33.003 117.876 33.0775 118.071 33.1565 118.263C34.3853 121.351 35.2928 123.657 35.2928 123.657Z" fill="#448465"/>
<path d="M46.4188 116.704L39.2214 123.657L37.6344 123.547L35.9368 123.426L33.3283 123.244C33.3283 123.244 32.5543 97.9638 30.5216 88.7766C28.489 79.5895 23.5293 55.1969 19.7079 48.2873C15.8865 41.3777 10.0324 30.2371 7.51206 27.5541C7.51206 27.5541 3.85334 24.2204 6.12972 23.9764C8.40611 23.7324 15.2362 32.4325 17.1062 34.0585C18.9762 35.6845 26.6192 49.9137 28.489 53.5721C30.3587 57.2305 33.6927 62.5971 34.4244 64.5485C35.156 66.4999 38.3271 78.452 38.8151 80.322C39.3031 82.192 39.4654 84.55 40.6037 85.9321C41.7421 87.3141 41.3354 88.5338 41.0914 89.9161C40.8474 91.2985 42.4738 93.3308 42.7991 93.9815C43.1244 94.6321 42.7991 95.5262 42.7991 97.4775C42.7991 99.4289 45.1568 100.893 44.7505 102.6C44.3441 104.307 44.8318 105.364 45.5635 106.584C46.2951 107.804 45.2381 108.779 45.5635 110.649C45.6838 111.345 45.8333 112.357 45.9745 113.355C46.0236 113.719 46.0755 114.084 46.1213 114.428C46.2887 115.683 46.4188 116.704 46.4188 116.704Z" fill="#448465"/>
<path d="M68.7475 78.4497C68.7475 78.4497 70.3078 76.1739 70.5244 74.5479C70.7411 72.9218 71.0665 73.2469 72.4758 71.5122C73.8851 69.7775 73.8852 68.8022 73.8852 68.0432C73.8852 67.2842 73.9935 67.1761 74.8608 66.2005C75.7282 65.2248 76.0535 63.7068 76.1618 62.9481C76.2701 62.1894 76.1618 63.7068 77.1375 61.8641C78.1132 60.0214 78.1132 57.7444 79.0888 57.2024C80.0645 56.6604 80.9318 56.01 81.0402 55.251C81.1485 54.492 80.2812 53.5167 81.0402 52.866C81.7992 52.2154 82.4496 52.4323 82.7746 51.6736C83.1157 50.7229 83.3697 49.7432 83.5336 48.7466C83.6419 48.096 84.6176 46.6869 84.9429 46.4699C85.2682 46.2529 85.5933 45.1689 85.7016 44.5186C85.81 43.8682 87.5026 44.1933 87.5238 43.1092C87.5449 42.0252 87.1776 41.2662 87.5238 40.7242C87.8699 40.1822 88.5203 40.1822 88.845 39.4235C89.1698 38.6648 88.4114 38.0142 88.845 37.2552C89.2787 36.4962 90.1458 36.4965 90.3627 35.7375C90.5797 34.9785 90.6881 34.2198 91.3384 33.3525C91.9888 32.4851 91.1214 34.4365 92.6394 31.9431C94.1574 29.4497 95.5664 25.3303 96.8674 24.7883C96.8674 24.7883 96.9758 25.4387 96.3254 26.4144C95.6751 27.3901 93.6964 31.6181 92.5584 35.6021C91.4203 39.5862 78.5465 61.8641 75.1858 71.7292C71.8251 81.5943 66.8384 93.1941 65.9711 94.1698L68.7475 78.4497Z" fill="#448465"/>
<path d="M87.5238 59.2877C87.5238 59.2877 84.76 59.0184 81.4231 65.4415C78.0862 71.8646 70.5847 87.9617 68.3186 91.7842C66.0524 95.6068 63.3697 114.957 59.792 117.721C56.2144 120.486 59.6294 120.892 62.5564 118.453C65.4834 116.014 71.3542 100.484 72.8916 95.7689C73.8984 92.6789 77.7538 79.3635 81.6645 69.6287C83.7212 64.5058 85.5076 60.1374 87.5238 59.2877Z" fill="#33624B"/>
<path d="M85.592 62.1894C81.8 65.9849 76.4859 90.8093 72.8011 105.227C69.1162 119.644 59.779 122.369 59.4669 122.463C58.8098 122.665 53.395 123.657 53.395 123.657H53.333C53.5476 123.573 53.772 123.485 54.0083 123.393C54.0174 123.387 54.0273 123.383 54.0377 123.38C63.3074 119.083 70.3039 100.458 71.0673 98.9392C71.8307 97.4206 71.0673 97.5298 71.0673 96.6754C71.0673 95.821 72.1504 96.0122 72.6933 94.929C73.2362 93.8459 73.1261 92.3273 73.0186 90.8771C72.9112 89.427 73.5586 89.7259 74.1017 88.9651C74.6449 88.2044 75.0774 85.1728 74.97 83.9793C74.8625 82.7857 75.1846 82.3533 76.271 81.7026C77.3574 81.052 77.3538 79.4262 77.3538 77.6927C77.3538 75.9592 77.897 75.7413 78.9801 74.7657C80.0633 73.79 83.6404 63.0576 85.1592 60.8883C86.6781 58.7191 89.3876 58.3941 85.592 62.1894Z" fill="#448465"/>
<path d="M68.0301 94.8193C67.3892 97.912 66.7518 117.574 54.0389 123.381C54.0285 123.383 54.0186 123.388 54.0095 123.393C53.8077 123.485 53.6029 123.573 53.395 123.658H39.2214L39.2281 123.651C39.3547 123.492 41.4396 120.88 43.7941 117.677C44.5575 116.636 45.352 115.53 46.1195 114.428C47.7359 112.093 49.2221 109.764 50.0287 108.047C52.4193 102.951 51.8785 102.087 52.094 101C52.3095 99.9138 52.9622 100.568 53.72 99.1595C54.4778 97.7513 54.2632 95.4714 54.2632 94.4958C54.2632 93.5201 55.8892 92.0045 56.322 91.2434C56.7548 90.4824 57.0828 86.2579 58.4912 84.4137C58.7123 84.1242 58.9108 83.8737 59.0896 83.6526V83.6494C60.0456 82.4688 60.4555 82.0982 61.093 80.7288C61.8508 79.1028 66.7303 69.6713 66.2966 63.2741C65.863 56.8768 66.8395 49.9399 67.706 50.265C68.5725 50.59 68.5742 59.2639 68.7924 62.9491C69.0105 66.6342 68.6805 91.6774 68.0301 94.8193Z" fill="#448465"/>
<g opacity="0.8">
<g opacity="0.8">
<g opacity="0.8">
<path opacity="0.8" d="M46.1196 114.427C46.1196 114.427 42.3763 120.118 37.6342 123.546L35.9365 123.426C39.3971 120.98 44.1257 117.146 45.9728 113.354C46.0221 113.718 46.0741 114.082 46.1196 114.427Z" fill="#33624B"/>
</g>
</g>
</g>
<g opacity="0.8">
<g opacity="0.8">
<g opacity="0.8">
<path opacity="0.8" d="M34.0796 123.416C33.53 123.296 32.9609 123.152 32.3916 122.993C32.3526 121.247 32.9219 117.676 32.9219 117.676C33.0032 117.874 33.0778 118.069 33.1568 118.261C33.273 118.908 33.7842 121.793 34.0796 123.416Z" fill="#33624B"/>
</g>
</g>
</g>
<path d="M63.8056 112.779C62.5989 114.568 61.2644 116.267 59.8125 117.864C57.2099 120.674 54.0374 123.307 53.3953 123.657C53.3953 123.657 61.2133 119.044 65.6025 110.371L63.8056 112.779Z" fill="#33624B"/>
<g opacity="0.6">
<g opacity="0.6">
<g opacity="0.6">
<g opacity="0.6">
<path opacity="0.6" d="M87.3734 41.3648C87.3831 41.8267 87.5358 42.396 87.5229 43.1083C87.5003 44.1946 85.8091 43.869 85.6984 44.5197C85.5877 45.1703 85.2659 46.252 84.9406 46.471C84.6152 46.6901 83.6398 48.0971 83.5312 48.7474C83.3654 49.7439 83.1107 50.7235 82.7702 51.6745C82.4451 52.4323 81.7945 52.2144 81.0379 52.865C80.2812 53.5157 81.1453 54.4911 81.0379 55.2521C80.9304 56.0132 80.0622 56.6615 79.0865 57.2035C78.1108 57.7455 78.1108 60.0198 77.1351 61.864C76.1595 63.7082 76.2669 62.189 76.1595 62.9469C76.052 63.7047 75.727 65.2236 74.8587 66.1992C73.9905 67.1749 73.8831 67.2856 73.8831 68.0431C73.8831 68.8007 73.8831 69.7754 72.4737 71.5133C71.0644 73.2512 70.7373 72.9227 70.5224 74.5478C70.3075 76.173 68.7434 78.4505 68.7434 78.4505L68.2818 81.0652C68.285 79.0944 68.8183 73.9753 68.8541 73.8129C68.8811 73.6958 79.2621 55.5446 87.3734 41.3648Z" fill="#224031"/>
</g>
</g>
</g>
</g>
<path d="M72.5929 125.299V131.983C72.5924 132.202 72.5047 132.413 72.3492 132.567C72.1936 132.722 71.9829 132.809 71.7634 132.809H71.6986C71.5026 132.809 71.3132 132.879 71.1638 133.006C71.0145 133.133 70.9147 133.308 70.8823 133.501L67.9062 151.249C67.239 155.229 65.2326 158.861 62.2192 161.545C59.2059 164.229 55.3663 165.803 51.3362 166.008C51.037 166.027 50.7378 166.034 50.4354 166.034H41.5013C37.2715 166.033 33.1813 164.52 29.9704 161.766C26.7595 159.013 24.6397 155.202 23.9943 151.021L21.2931 133.511C21.2626 133.316 21.1633 133.138 21.0133 133.01C20.865 132.88 20.6741 132.808 20.4765 132.809C20.2571 132.809 20.0465 132.722 19.891 132.567C19.7355 132.413 19.6479 132.202 19.6473 131.983V125.299C19.648 124.498 19.967 123.729 20.5341 123.163C21.1011 122.596 21.87 122.278 22.6716 122.278H69.5693C70.3708 122.278 71.1395 122.596 71.7064 123.163C72.2734 123.729 72.5922 124.498 72.5929 125.299V125.299Z" fill="#F4D892"/>
<path d="M71.6986 132.809C71.5027 132.809 71.3132 132.879 71.1639 133.006C71.0145 133.133 70.9148 133.308 70.8823 133.501L67.9063 151.249C67.239 155.229 65.2326 158.861 62.2193 161.545C59.2059 164.229 55.3663 165.804 51.3362 166.008C61.041 157.328 60.5498 144.143 59.0603 138.835C57.5675 133.521 46.4188 132.809 46.4188 132.809H71.6986Z" fill="#EFC764"/>
</svg>
