<svg width="113" height="167" viewBox="0 0 113 167" fill="none" xmlns="http://www.w3.org/2000/svg">
<g opacity="0.5">
<g opacity="0.5">
<g opacity="0.5">
<path opacity="0.5" d="M112.316 62.6064C112.274 62.451 112.178 62.3159 112.044 62.2264C111.91 62.137 111.748 62.0991 111.589 62.1198C111.27 62.1721 110.969 62.2997 110.71 62.4921C107.863 64.2539 104.735 65.5145 101.462 66.2189C100.265 66.4761 99.0121 66.6738 97.9954 67.3554C97.0095 68.0168 96.3457 69.0703 95.3857 69.7685C94.2869 70.5676 92.8957 70.8365 91.6913 71.4654C89.7356 72.4865 88.3859 74.4029 87.5017 76.4244C86.6176 78.4458 86.1277 80.6143 85.4236 82.705C85.244 83.3472 84.9447 83.9497 84.5413 84.4807C84.0777 85.0262 83.4324 85.3791 82.8111 85.7352C75.118 90.1534 68.9271 97.1761 64.8968 105.029C64.5335 105.738 64.1896 106.455 63.858 107.177C64.8103 97.3488 65.9882 87.4567 67.3761 79.936C67.6581 79.9022 67.9336 79.8765 68.169 79.8231C69.4118 79.5405 70.5689 78.9051 71.6871 78.3152C75.4739 76.3161 79.2828 74.3028 82.6622 71.6735C88.3076 67.2826 92.5254 61.3578 96.6569 55.5204C97.0387 54.9804 97.3933 54.1762 96.9842 53.7128C96.9563 53.6813 96.9258 53.6522 96.8931 53.6258C93.5582 56.3896 89.3505 57.5416 85.1227 58.7162C85.6311 56.5401 85.6616 52.4566 86.7125 49.6377C87.9414 46.341 88.8182 43.1798 89.1804 39.6799C89.3961 37.5971 92.2693 34.5665 91.5392 32.5587C90.9359 30.8997 86.1092 35.274 84.2991 37.0841C82.489 38.8942 79.6229 42.816 76.7571 44.475C73.8913 46.134 70.1203 54.2795 69.2298 57.5978C68.3844 60.7502 69.1448 66.4701 69.2228 67.0341C68.8131 67.3874 68.4051 67.7419 67.9985 68.0978C66.819 69.1268 65.6094 70.1936 64.9167 71.5974C63.9054 73.6466 64.1566 76.0993 64.8002 78.2923C64.9907 78.8258 65.1099 79.3822 65.1548 79.9469C65.1455 80.4004 65.0808 80.8512 64.962 81.289C63.3431 88.3894 61.9511 95.527 60.8525 102.709C60.3952 92.0628 59.9435 81.391 60.369 70.8291C60.5359 66.6869 60.3128 62.3473 58.2766 58.7359C57.0253 56.5167 55.1656 54.7142 53.3321 52.9453C48.8512 48.6221 44.3004 44.247 38.8448 41.2453C38.397 43.1777 38.6154 45.2047 39.4645 46.9974C40.0991 48.327 41.0575 49.471 41.8511 50.7125C44.7374 55.2275 45.3401 60.8263 47.6367 65.6678C49.5915 69.7511 52.6886 73.1798 56.5527 75.5386C57.6101 76.1833 58.2597 76.5204 58.6732 77.0053C59.0476 77.4454 59.2287 78.0092 59.3435 79.0376C59.7398 82.5858 59.79 86.1902 59.8974 89.7558C60.0698 95.4888 60.1702 101.224 60.2359 106.961C60.1015 107.95 59.973 108.941 59.8502 109.932C58.9838 106.573 57.8126 103.301 56.3512 100.156C55.7001 98.066 54.942 96.0112 54.0799 93.9994C53.8235 93.406 54.0095 91.9229 53.9111 91.2373C53.5756 88.9003 53.3198 86.3524 51.3502 84.784C50.0044 83.6834 48.5947 82.6634 47.1284 81.7294C46.2365 77.7108 40.4067 73.0865 40.6047 70.8736C40.7885 68.821 38.9035 67.033 37.9904 65.14C36.0761 61.1707 32.9087 61.7969 30.2637 58.7904C29.5596 57.9899 26.8631 53.2977 25.515 54.0016C24.1729 54.7022 24.63 60.9779 24.7369 61.6979C25.0705 63.9438 25.8006 66.8827 27.8842 68.1569C30.1091 69.5165 30.9164 74.824 32.2972 77.5273C29.2588 76.2411 25.607 72.8664 25.32 74.4921C25.32 74.4921 30.7503 84.8497 33.2643 85.7557C35.7783 86.6617 41.5102 89.2739 43.2188 90.9847C44.5279 92.2938 48.9093 93.7815 51.5643 94.3144C53.7225 97.8378 55.439 101.613 56.6752 105.556C57.5111 109.62 58.3235 114.379 58.8993 119.092C58.7951 120.332 58.6974 121.574 58.614 122.816C58.5922 123.144 58.5722 123.471 58.5515 123.798C55.5873 110.006 48.3886 105.315 48.3886 105.315C48.1243 96.6552 41.1177 96.2601 37.7466 96.2601C34.3754 96.2601 30.9382 94.7399 28.692 94.0782C26.8181 93.5271 25.7286 93.4381 25.4169 94.036H25.413L25.4103 94.0507C25.3479 94.1835 25.3173 94.329 25.3208 94.4756C25.3208 95.5332 31.0975 97.118 33.7156 98.7061C34.0451 98.906 43.3001 105.118 44.523 105.613C45.7459 106.109 47.9272 106.44 47.9272 106.44C52.6862 108.885 55.3304 116.818 56.8508 121.18C57.6913 123.592 58.0467 128.246 58.1964 131.926C58.1869 132.367 58.1779 132.81 58.1722 133.252C58.1678 133.476 58.1615 133.7 58.1596 133.924H38.0692C38.0692 133.924 37.3397 155.13 44.6419 163.142C43.0795 163.435 32.8282 164.839 27.5859 164.321C21.4048 163.711 23.033 165.298 23.033 165.298H59.2571L59.1837 165.281C59.1965 165.281 59.2093 165.281 59.2222 165.278C59.235 165.276 59.2451 165.273 59.2571 165.271C59.439 165.245 59.6168 165.195 59.7861 165.124C59.8766 165.085 59.9643 165.041 60.0485 164.99C68.203 160.108 68.8549 141.348 68.8598 135.604C68.8598 134.541 68.8396 133.924 68.8396 133.924H62.3825C62.4401 131.562 62.4234 128.866 62.2636 125.96C62.3847 124.339 62.5137 122.66 62.6511 120.936C62.7831 120.251 62.96 119.576 63.1805 118.914C64.9151 113.936 67.932 104.886 73.3622 102.096C73.3622 102.096 75.8511 101.718 77.2461 101.153C78.6411 100.587 89.2011 93.4995 89.5772 93.271C92.5644 91.4587 99.1556 89.6508 99.1556 88.4437C99.1672 88.3026 99.1442 88.1609 99.0887 88.0307C99.0331 87.9006 98.9467 87.7859 98.8368 87.6967L98.8294 87.6749L98.8144 87.6793C98.2796 87.3059 97.1132 87.4611 95.3091 87.9913C92.7454 88.7456 88.8231 90.4802 84.9768 90.4802C81.1306 90.4802 73.1359 90.9326 72.8342 100.813C72.8342 100.813 66.9771 104.629 63.1183 115.293C63.1809 114.568 63.2445 113.839 63.3092 113.106C63.9463 110.647 64.7691 108.239 65.7703 105.903C67.239 102.471 69.1609 99.2506 71.4848 96.3285C73.294 94.0701 75.3562 92.0266 77.6309 90.238C79.2406 88.9816 80.9445 87.851 82.7277 86.8562C83.9691 86.1588 85.966 84.6793 87.289 84.838C89.0688 85.0537 90.8344 85.7164 92.6257 85.1704C93.9043 84.781 94.9341 83.851 95.9282 82.9578C99.1638 80.0497 102.505 77.2425 105.44 74.0317C108.375 70.8209 110.916 67.159 112.251 63.0177C112.303 62.8872 112.326 62.7467 112.316 62.6064ZM53.202 94.5168C53.2653 94.5149 53.3239 94.5111 53.3752 94.5042C53.6043 94.4737 53.9539 95.1653 54.3736 96.4002C54 95.7633 53.6094 95.1355 53.202 94.5168ZM61.1582 110.08C61.1561 110.023 61.1542 109.965 61.152 109.908C61.587 105.734 62.1425 101.58 62.7469 97.4718C63.5361 92.1037 64.5501 86.7741 65.5407 81.4406C65.5755 81.1481 65.6682 80.8654 65.8134 80.6091C65.9572 80.3998 66.1618 80.2396 66.3995 80.1504C64.6336 88.7295 62.4567 100.157 61.1582 110.08Z" fill="#A8E5D9"/>
</g>
</g>
</g>
<path d="M26.1527 27.8185C29.657 33.3003 30.3885 40.0978 33.1771 45.9758C35.5503 50.9333 39.3104 55.0962 44.0016 57.96C45.2853 58.7427 46.0743 59.1504 46.5764 59.7406C47.031 60.2752 47.2506 60.9594 47.3902 62.208C47.8713 66.5171 47.9322 70.8921 48.0625 75.2206C48.5177 90.3446 48.5761 105.483 48.6183 120.612C48.6287 124.414 48.6339 128.215 48.6339 132.017H50.537C50.5045 124.732 50.0943 117.408 49.9263 110.215C49.4772 90.9602 47.8612 71.4512 48.6352 52.2417C48.8379 47.2127 48.567 41.9433 46.0948 37.5592C44.5757 34.8649 42.3178 32.6774 40.0918 30.5289C34.6514 25.2802 29.1266 19.9681 22.5029 16.3247C21.9593 18.6709 22.2244 21.1318 23.255 23.3084C24.0257 24.9227 25.1892 26.3114 26.1527 27.8185Z" fill="#D23748"/>
<path d="M46.9623 132.017H50.0408C51.5359 108.919 55.4659 57.6968 61.3882 48.8135C62.67 48.8135 78.0518 40.2063 78.679 37.5737C79.3063 34.941 79.3352 29.9509 80.6173 26.5124C82.1094 22.5098 83.1738 18.672 83.6138 14.423C83.8753 11.894 87.3637 8.21462 86.4774 5.77753C85.7448 3.7629 79.8845 9.07372 77.6868 11.2714C75.4892 13.469 72.0098 18.2305 68.5303 20.244C65.0509 22.2576 60.4723 32.1477 59.3926 36.1767C58.3129 40.2057 59.3926 47.6943 59.3926 47.6943C59.3926 47.6943 49.8352 88.9125 48.399 111.624C47.8459 120.372 47.3561 127.073 46.9623 132.017Z" fill="#D23748"/>
<path d="M47.1035 114.192C47.0457 122.483 47.0061 128.145 46.9789 132.017H50.9623C51.6987 117.328 50.5469 86.9146 30.7437 70.7286C30.7437 70.7286 33.642 70.3546 32.5592 65.4747C31.4765 60.5948 24.3987 54.9816 24.639 52.2949C24.8621 49.8028 22.5734 47.6313 21.465 45.3339C19.1408 40.5148 15.2951 41.2752 12.0832 37.625C11.2282 36.653 7.9544 30.9563 6.31777 31.811C4.6885 32.6616 5.24321 40.2805 5.37303 41.1551C5.77803 43.8824 6.66331 47.4497 9.19422 48.9966C12.4907 51.0109 13.2232 60.1677 15.7871 61.9991C18.351 63.8305 27.8738 71.3389 29.8871 71.5219C31.9003 71.7049 47.2868 88.0039 47.1035 114.192Z" fill="#D23748"/>
<path d="M104.706 44.7097C102.709 45.541 100.641 46.188 98.5264 46.6428C97.0734 46.9548 95.5538 47.1948 94.318 48.0226C93.121 48.8252 92.3151 50.1045 91.1495 50.9522C89.8156 51.9223 88.1263 52.249 86.6645 53.0123C84.2898 54.2522 82.6513 56.5788 81.5776 59.0331C80.5039 61.4873 79.9096 64.1197 79.0546 66.6585C78.8362 67.4377 78.4728 68.1686 77.9833 68.8131C77.4212 69.4766 76.6369 69.904 75.8833 70.3373C66.543 75.7024 59.0269 84.2279 54.1337 93.7624C50.0449 101.73 47.6357 110.501 46.572 119.374C46.0588 123.567 45.8638 127.793 45.9887 132.016H49.9053C49.4782 125.218 49.6023 118.368 50.5792 111.624C51.3705 105.845 52.9219 100.196 55.1932 94.8236C56.9763 90.6563 59.3096 86.7466 62.1308 83.1989C64.3275 80.4568 66.8313 77.9757 69.5932 75.8041C71.5473 74.2783 73.6159 72.905 75.7808 71.6966C77.2881 70.8511 79.7124 69.0536 81.319 69.2478C83.4798 69.5096 85.623 70.3141 87.7982 69.6514C89.3503 69.1785 90.601 68.0494 91.8073 66.9651C95.7346 63.4346 99.7922 60.0264 103.356 56.128C106.919 52.2296 110.004 47.7826 111.625 42.7559C111.688 42.597 111.716 42.4258 111.705 42.2549C111.65 41.8685 111.211 41.635 110.822 41.6642C110.435 41.7276 110.069 41.8824 109.754 42.1158C108.143 43.114 106.455 43.9814 104.706 44.7097Z" fill="#D23748"/>
<path d="M33.528 95.4738C39.3063 98.4432 42.5163 108.074 44.3621 113.37C45.9357 117.886 46.1095 128.874 46.1264 132.017H47.9495C47.9902 103.162 34.0899 94.1096 34.0899 94.1096C33.7689 83.5966 25.2622 83.1152 21.1694 83.1152C17.0766 83.1152 12.9034 81.2694 10.1747 80.4667C7.44609 79.6641 6.08191 79.6641 6.08191 80.9481C6.08191 82.2321 13.0954 84.1562 16.274 86.0844C16.6741 86.3271 27.9104 93.8688 29.3951 94.4707C30.8799 95.0726 33.528 95.4738 33.528 95.4738Z" fill="#D23748"/>
<path d="M91.0557 73.0786C87.9422 73.9941 83.181 76.1001 78.5102 76.1001C73.8395 76.1001 64.1343 76.6496 63.768 88.6455C63.768 88.6455 47.868 99.0007 47.9548 132.018H50.0337C50.0496 128.6 50.2315 115.833 52.0476 110.622C54.1536 104.578 57.8163 93.5903 64.4089 90.2022C64.4089 90.2022 67.4307 89.7443 69.1246 89.0568C70.8185 88.3693 83.6391 79.765 84.0957 79.4882C87.7229 77.2881 95.7248 75.0929 95.7248 73.6278C95.7248 72.1627 94.1688 72.1627 91.0557 73.0786Z" fill="#DB616E"/>
<path d="M40.1447 80.9838C41.9408 80.7441 49.8439 117.033 47.3804 132.017H49.3288C49.4597 126.971 49.689 100.503 40.9994 80.3732C40.6882 79.6524 40.9143 77.8518 40.7946 77.0186C40.3871 74.1823 40.0768 71.0879 37.6855 69.1835C34.5647 66.7003 31.1011 64.1178 27.2128 63.0307C23.2435 61.9213 19.0193 61.9786 15.1174 60.5939C11.3325 59.251 6.44904 54.612 6.08276 56.6874C6.08276 56.6874 12.6757 69.2625 15.7277 70.3614C18.7798 71.4602 25.739 74.6342 27.8144 76.7096C29.8899 78.7851 38.3133 81.2279 40.1447 80.9838Z" fill="#DB616E"/>
<path d="M93.0879 31.4598C93.0538 31.4218 93.0167 31.3865 92.9769 31.3543C86.1726 36.994 76.375 37.1045 68.4986 41.113C64.576 43.1096 61.2149 46.0327 57.8977 48.9255C56.4656 50.1746 54.9973 51.4701 54.1565 53.1741C52.9292 55.6624 53.2335 58.6401 54.0149 61.3013C54.2462 61.9491 54.3909 62.6246 54.4453 63.3102C54.4341 63.8609 54.3556 64.4082 54.2116 64.9398C50.4228 81.5559 47.6459 98.3387 46.5043 115.356C46.1326 120.899 45.9043 126.46 45.9569 132.016H49.0985C47.4965 116.284 49.2315 100.164 51.5224 84.5854C52.4811 78.0672 53.7122 71.5976 54.9149 65.1222C54.957 64.7673 55.0693 64.4242 55.2454 64.1131C55.825 63.2344 57.2064 63.3642 58.1055 63.16C59.614 62.8171 61.0185 62.0453 62.3751 61.3289C66.9727 58.9016 71.597 56.4577 75.6999 53.2655C82.5525 47.9337 87.6748 40.741 92.6908 33.6542C93.1547 32.9991 93.5859 32.0225 93.0879 31.4598Z" fill="#DB616E"/>
<path d="M65.6419 128.842H28.2824C28.2824 128.842 27.224 159.535 38.9569 166.561C39.3679 166.806 39.8375 166.934 40.316 166.934H53.6081C54.0865 166.934 54.5562 166.806 54.9671 166.561C66.7003 159.535 65.6419 128.842 65.6419 128.842Z" fill="#2AC0A4"/>
<path d="M54.969 166.561C54.5579 166.805 54.0884 166.934 53.61 166.934H47.5775C48.056 166.935 48.5257 166.806 48.9365 166.561C60.6717 159.535 59.6129 128.842 59.6129 128.842H65.6419C65.6419 128.842 66.7003 159.535 54.969 166.561Z" fill="#188BB8"/>
<path d="M6.19404 80.4143C8.80498 80.8428 11.3821 81.4565 13.9059 82.2509C15.1657 82.655 16.4038 83.1214 17.6486 83.5638C18.8897 84.0162 20.1304 84.4668 21.3639 84.9484C22.6015 85.4202 23.8145 85.9542 24.9983 86.5482C25.5944 86.8384 26.1735 87.1624 26.7565 87.4796C27.3293 87.8167 27.8957 88.1614 28.4434 88.5402C29.5541 89.2765 30.5832 90.129 31.5132 91.0834C32.4529 92.0333 33.1906 93.1636 33.6816 94.4063L33.6478 94.4205C33.0629 93.2432 32.2708 92.1808 31.3094 91.2841C30.3564 90.3859 29.3269 89.5724 28.2325 88.853C26.0232 87.4245 23.7 86.1802 21.2865 85.1328C20.0816 84.5982 18.8592 84.0991 17.6063 83.683C16.3597 83.2507 15.0866 82.8994 13.8184 82.5408C11.2845 81.8126 8.74567 81.1087 6.18695 80.4498L6.19404 80.4143Z" fill="#F9B4B9"/>
<path d="M7.10361 56.6392C7.3637 57.4777 7.75391 58.2702 8.25997 58.9876C8.38979 59.1632 8.50788 59.3473 8.64697 59.5156L9.06615 60.0182C9.36276 60.3376 9.67543 60.6416 10.003 60.9291C10.3301 61.2167 10.672 61.4868 11.0273 61.7386L11.581 62.0863C11.7622 62.2073 11.9509 62.3166 12.1461 62.4136C12.5369 62.607 12.9141 62.8268 13.3231 62.982L13.9261 63.2367C14.1282 63.3185 14.3401 63.3766 14.5466 63.4475C15.3672 63.7437 16.228 63.9597 17.0742 64.2046L19.6269 64.9099C21.3274 65.3863 23.0216 65.8898 24.6857 66.4917C26.3538 67.095 27.9666 67.841 29.5065 68.7215C30.2516 69.2029 31.0337 69.6316 31.7338 70.1803C32.0922 70.4427 32.4525 70.7034 32.8027 70.9767L33.8074 71.8521C36.4533 74.2269 38.6343 77.0731 40.2394 80.2456L40.208 80.2633L38.774 78.0414L37.1965 75.9269L36.3364 74.9293C36.0424 74.6034 35.7808 74.2475 35.4565 73.9513L34.5271 73.0202C34.3706 72.8669 34.2235 72.7036 34.0594 72.5585L33.5614 72.1292L32.5659 71.2707L31.5135 70.4833C30.83 69.9316 30.0642 69.4988 29.3344 69.0125C27.8202 68.1205 26.2433 67.3393 24.6162 66.6752C22.9795 66.02 21.3025 65.4702 19.5956 65.0293C17.8919 64.5657 16.1592 64.2455 14.455 63.7301C12.7369 63.218 11.1536 62.3317 9.81888 61.1348C9.15299 60.5379 8.57499 59.8497 8.10207 59.0907C7.61768 58.3424 7.26785 57.5151 7.06842 56.6463L7.10361 56.6392Z" fill="#F9B4B9"/>
<path d="M22.1933 62.0686C21.9083 60.7146 21.4962 59.3906 20.9625 58.114C20.4073 56.7533 19.7751 55.4252 19.0689 54.1363C18.3701 52.842 17.5921 51.5919 16.7395 50.3932C15.9046 49.1791 14.9566 48.0468 13.9084 47.0113C13.3872 46.4907 12.829 46.0084 12.2382 45.5683C11.6207 45.1789 11.0375 44.7378 10.4947 44.2497C9.45094 43.2316 8.77321 41.9092 8.23839 40.5679C7.17258 37.8649 6.63775 34.9677 6.33748 32.0632H6.30066C6.31575 33.5329 6.45793 34.9985 6.72558 36.4437C6.98093 37.8979 7.39352 39.3201 7.95611 40.6852C8.52461 42.0527 9.35734 43.2946 10.4066 44.3397C10.9641 44.8178 11.55 45.2618 12.161 45.6692C12.453 45.8868 12.7306 46.123 12.9923 46.3762C13.2707 46.6104 13.5124 46.8889 13.7652 47.1488C15.743 49.2916 17.3106 51.7748 18.7354 54.313C19.4314 55.5949 20.1088 56.8917 20.699 58.2248C21.2741 59.4648 21.7541 60.7468 22.1349 62.0596L22.1933 62.0686Z" fill="#F9B4B9"/>
<path d="M22.4308 17.0046C22.5356 17.2361 22.6636 17.4564 22.8126 17.6621C22.9542 17.8781 23.1012 18.0911 23.249 18.303L24.1544 19.563C24.7631 20.3995 25.394 21.2196 26.0256 22.0383C27.2918 23.6736 28.608 25.2669 29.9741 26.8184C30.656 27.5943 31.3552 28.3552 32.0927 29.0771C32.4584 29.4417 32.841 29.7878 33.2299 30.1271C33.6404 30.4456 34.0342 30.7849 34.4098 31.1438C35.8713 32.6299 37.0552 34.3484 38.1865 36.0845C39.309 37.8315 40.3431 39.6338 41.2847 41.4845C42.2297 43.3323 43.1174 45.2111 43.8987 47.1354C44.6992 49.0527 45.3912 51.0134 45.9715 53.0083C46.5205 55.0052 47.0103 57.0559 46.9806 59.1406H46.944C46.8962 58.1084 46.7514 57.083 46.5118 56.0779C46.2878 55.0688 46.0009 54.0774 45.6982 53.0907C45.0788 51.1205 44.3403 49.1891 43.5499 47.2816C41.9655 43.4615 40.1166 39.7565 38.0166 36.1936C37.4831 35.3084 36.9257 34.4359 36.3167 33.6011C35.7241 32.7551 35.0564 31.9642 34.3217 31.2382C33.9446 30.8857 33.5481 30.5545 33.1342 30.246C32.7309 29.9187 32.3332 29.5822 31.9528 29.2282C31.1867 28.5256 30.4541 27.7874 29.7491 27.0248C28.3435 25.4946 27.0491 23.8699 25.8022 22.2115C25.1785 21.3827 24.5848 20.5317 23.9976 19.6768C23.7047 19.2489 23.4207 18.815 23.1456 18.3748C23.0079 18.155 22.8712 17.9343 22.7398 17.7101C22.673 17.5991 22.6108 17.4849 22.5489 17.3706C22.4795 17.256 22.4276 17.1316 22.3951 17.0016L22.4308 17.0046Z" fill="#F9B4B9"/>
<path d="M92.9933 31.6165C92.7236 32.0766 92.4123 32.5111 92.0633 32.9144C91.72 33.3216 91.3589 33.7141 90.9771 34.0855C90.2168 34.8319 89.411 35.5306 88.5645 36.1776C86.8705 37.4675 85.0824 38.6289 83.2153 39.6524C81.3408 40.6588 79.4151 41.5585 77.4736 42.4157C76.5013 42.843 75.5495 43.3056 74.5908 43.7575C74.1136 43.9868 73.6543 44.2522 73.1879 44.5031C72.7273 44.7641 72.2495 44.994 71.8033 45.2804C70.9033 45.8373 69.9902 46.3732 69.1249 46.9828C68.6907 47.2828 68.2409 47.5634 67.8196 47.8827L66.5484 48.8299C66.1164 49.1351 65.7256 49.4924 65.3127 49.8216C64.9052 50.1576 64.4918 50.4868 64.1086 50.8506L62.9358 51.9142L61.8106 53.028C60.3347 54.5379 58.9897 56.1704 57.7901 57.9079C56.5758 59.6414 55.6118 61.5373 54.9264 63.5397L54.8912 63.5299C55.4739 61.4774 56.3712 59.5276 57.5512 57.75C58.7163 55.9632 60.0521 54.2936 61.5398 52.7648C64.531 49.7237 67.9566 47.143 71.7048 45.1067C72.16 44.8323 72.646 44.6138 73.1149 44.3643C73.5908 44.1284 74.0552 43.8701 74.5347 43.6427L77.4223 42.3003L78.8631 41.6288C79.3425 41.4033 79.8067 41.1467 80.2791 40.9069C81.2271 40.4343 82.1421 39.9003 83.0677 39.3884C84.9082 38.3472 86.687 37.2006 88.3954 35.9545C89.2476 35.3301 90.0654 34.6601 90.8451 33.9472C91.6374 33.2474 92.3475 32.4598 92.962 31.5996L92.9933 31.6165Z" fill="#F9B4B9"/>
<path d="M85.8836 5.59753C83.1951 8.63762 80.62 11.7693 78.1076 14.9521C76.8479 16.5418 75.5879 18.1351 74.4258 19.7941C73.2504 21.4497 72.1443 23.1504 71.1076 24.8962C70.0821 26.6433 69.1003 28.416 68.1774 30.2182C67.2727 32.0275 66.4474 33.8734 65.7016 35.7559C64.9688 37.6389 64.3798 39.5747 63.9398 41.5467C63.7456 42.4587 63.5852 43.3781 63.4819 44.3045C63.4123 44.3561 63.3455 44.4071 63.2806 44.4583C63.3454 43.4624 63.4729 42.4715 63.6624 41.4916C64.0481 39.4879 64.6132 37.5229 65.3509 35.6204C66.8445 31.8313 68.7171 28.2028 70.9401 24.7901C72.028 23.0758 73.1746 21.3982 74.3219 19.7209C75.4794 18.0543 76.6442 16.3877 77.8712 14.7688C79.0982 13.1499 80.3909 11.5825 81.7166 10.0405C83.0497 8.50588 84.4122 7.00044 85.8591 5.5719L85.8836 5.59753Z" fill="#F9B4B9"/>
<path d="M110.825 41.9016C110.836 41.9044 110.846 41.9115 110.852 41.9213C110.858 41.9311 110.861 41.9428 110.858 41.9542C110.854 41.9689 110.85 41.9833 110.844 41.9973C110.831 42.0221 110.817 42.0459 110.802 42.0687C110.772 42.114 110.739 42.1566 110.706 42.1983C110.639 42.282 110.57 42.3619 110.498 42.441C110.354 42.5981 110.206 42.7503 110.057 42.9014C109.757 43.2014 109.453 43.4978 109.14 43.7839C108.514 44.3567 107.883 44.9236 107.233 45.468C105.934 46.5589 104.606 47.6166 103.217 48.5926C101.837 49.5875 100.367 50.4507 98.8262 51.171C98.425 51.3294 98.0274 51.4487 97.6478 51.6347C97.2681 51.8207 96.8956 52.0165 96.5296 52.2262C95.7932 52.6407 95.0858 53.1041 94.3857 53.5767C91.6018 55.4916 88.9429 57.5822 86.4253 59.8358C85.8001 60.4023 85.1875 60.9819 84.5877 61.5744C83.9863 62.1649 83.4016 62.7728 82.8518 63.4101C82.2914 64.0387 81.7735 64.7038 81.3014 65.4011C80.8164 66.0903 80.4443 66.8524 80.1993 67.6587L80.1633 67.6508C80.3572 66.8186 80.6891 66.0247 81.1451 65.302C81.5898 64.5748 82.0873 63.8812 82.6334 63.2266C83.7227 61.9197 84.9052 60.6934 86.1717 59.5573C87.4263 58.4119 88.74 57.333 90.0932 56.3089C91.4429 55.2796 92.8372 54.3133 94.2763 53.4101C94.9922 52.9546 95.727 52.53 96.4671 52.1149C96.8381 51.9087 97.2166 51.7159 97.6003 51.5334C97.984 51.351 98.3937 51.21 98.7782 51.054C99.5458 50.7055 100.281 50.2894 100.975 49.8106C101.679 49.3451 102.363 48.8498 103.041 48.3464C104.399 47.3422 105.741 46.3146 107.055 45.2512C107.71 44.718 108.371 44.1895 109.013 43.6402L109.972 42.8109C110.13 42.6701 110.286 42.5277 110.437 42.3813C110.513 42.3076 110.588 42.2346 110.66 42.1579C110.696 42.1197 110.731 42.0805 110.763 42.0401C110.792 42.0087 110.832 41.9357 110.819 41.9376L110.825 41.9016Z" fill="#F9B4B9"/>
<path d="M95.3412 72.7289C92.6333 73.7759 89.9123 74.7763 87.1867 75.7654C85.8231 76.2536 84.4477 76.72 83.107 77.2717C82.4322 77.5368 81.7739 77.839 81.1087 78.1302L79.1178 79.0095C76.4724 80.1962 73.8304 81.3934 71.3527 82.8733C70.7312 83.2393 70.1334 83.6418 69.5421 84.0514C68.95 84.4599 68.3835 84.9043 67.846 85.3823C66.7426 86.3143 65.8362 87.4569 65.1798 88.7434L65.146 88.7292C65.7102 87.3738 66.5659 86.1592 67.6521 85.1715C68.7228 84.174 69.8981 83.295 71.1575 82.5498C72.4056 81.7976 73.6968 81.1194 75.0244 80.5185C76.3444 79.9071 77.6887 79.3542 79.0401 78.8246C80.3914 78.295 81.7281 77.7386 83.0587 77.1547C84.3972 76.5932 85.7292 76.0136 87.0803 75.4813C89.7894 74.4389 92.5389 73.5099 95.3289 72.6943L95.3412 72.7289Z" fill="#F9B4B9"/>
</svg>
