<svg width="113" height="167" viewBox="0 0 113 167" fill="none" xmlns="http://www.w3.org/2000/svg">
<g opacity="0.2">
<g opacity="0.2">
<g opacity="0.2">
<path opacity="0.2" d="M90.9001 48.5867C90.871 46.1321 90.7312 43.5904 89.6125 41.4048C89.3854 40.9611 89.0823 40.507 88.609 40.349C87.675 40.0394 86.8507 41.0342 86.4293 41.9233C83.6762 47.7319 84.2824 54.5088 83.0851 60.8246C81.3759 69.8382 76.0552 77.6657 71.6394 85.7073C67.2236 93.7489 63.5426 102.958 65.5212 111.916C65.7829 113.1 66.1439 114.287 66.0821 115.498C66.0313 116.495 65.6964 117.453 65.3645 118.394C64.0309 122.177 62.6974 125.961 61.3638 129.745C61.3372 118.013 61.3099 106.282 61.2822 94.5498C61.2778 92.612 61.2882 90.6035 62.0983 88.8434C62.7659 87.395 63.921 86.2377 64.8228 84.9219C67.8907 80.4443 67.7881 74.5951 67.5705 69.1722C66.9393 53.4998 66.3082 37.8274 65.6771 22.155C65.6199 20.7374 65.55 19.2683 64.9039 18.0055C64.2578 16.7427 62.8622 15.7443 61.4718 16.0264C60.249 16.2745 59.4073 17.3904 58.827 18.4952C55.964 23.9475 56.7396 30.4833 56.689 36.6405C56.5592 52.3719 50.6497 68.738 56.3974 83.3832C57.2652 85.5949 58.3909 87.7231 58.9228 90.039C59.3776 92.02 59.382 94.0729 59.3852 96.1056L59.4138 121.59C52.4722 91.4085 41.4818 62.3041 26.7414 35.0675C26.363 34.3684 25.6805 33.5525 24.9459 33.8607C24.4979 34.049 24.3153 34.5789 24.219 35.0553C23.7294 37.4737 24.1766 39.9833 24.8227 42.3648C27.5888 52.5623 33.9022 61.4647 37.1776 71.5101C38.8707 76.7032 39.7298 82.1378 41.4007 87.3382C43.0716 92.5385 45.7034 97.6619 50.0942 100.911C51.0531 101.621 52.1035 102.25 52.8331 103.194C53.5374 104.105 53.8837 105.236 54.2026 106.343C56.5636 114.55 58.1663 122.957 58.9905 131.457C59.1641 133.241 59.2797 135.015 59.3553 136.783H44.0763C42.8918 147.679 49.4992 160.577 50.2968 162.086C46.9621 162.373 43.6089 162.578 40.3153 162.886C34.2629 163.45 28.2072 163.989 22.1442 164.424C21.9381 164.439 21.7322 164.454 21.5264 164.468V165.014C29.198 164.864 36.8696 165.446 44.5412 165.231C46.2382 165.184 47.9351 165.133 49.6317 165.079C52.2433 164.995 54.8195 165.024 57.4369 164.974C59.5977 164.933 62.0828 163.969 62.5899 161.868C62.5992 161.829 62.6038 161.79 62.6117 161.751C67.6336 153.495 68.5232 136.784 68.5232 136.784H61.9669C63.0135 129.529 65.2398 122.494 68.5575 115.958C71.2961 116.546 73.4115 113.654 74.6667 111.15C84.4176 91.7055 91.1575 70.3366 90.9001 48.5867Z" fill="#1791B2"/>
</g>
</g>
</g>
<path d="M81.4904 26.4636C81.4752 26.4235 81.459 26.3838 81.4419 26.3444C78.6549 19.7865 74.7203 29.2955 74.5563 35.1975C74.3922 41.0995 73.7366 48.9691 68.8181 55.363C63.8995 61.7568 57.3419 75.2004 53.7352 82.5779C50.1284 89.9554 55.0467 97.333 55.0467 97.333C55.0467 97.333 50.9848 106.313 48.8169 112.273C48.8169 101.161 48.8169 90.0496 48.8169 78.9377C48.8147 76.8038 48.229 73.6029 49.4312 72.0112C50.3781 70.7579 51.7269 69.8509 52.6323 68.482C55.012 64.8356 56.1822 60.532 55.9765 56.1826C55.5957 48.1492 54.7186 24.0495 53.8987 10.6056C53.7591 8.31448 53.9773 2.60756 51.7191 0.98836C46.2126 -2.96035 44.2006 6.74044 43.7226 9.85696C42.8521 15.538 43.8516 21.323 43.1276 27.0378C42.5194 31.8416 41.849 36.6363 41.154 41.4289C39.7646 51.0024 39.716 62.6622 45.4338 71.0188C45.7006 71.3359 45.9475 71.6693 46.1732 72.0169C47.2559 74.1576 46.5211 77.8525 46.5211 80.2598V102.75C46.5211 103.211 46.4161 103.814 46.5211 104.267C45.2912 98.9696 42.9889 91.3067 41.0933 85.2649C40.8368 83.5545 39.7331 80.194 38.0464 75.8111C35.8075 69.991 11.1615 15.3571 7.75252 17.777C3.65283 20.6878 10.1081 32.1653 11.4362 34.87C20.4531 53.2329 25.0439 61.4293 25.6995 68.9711C26.0667 73.1902 29.0508 77.0144 31.858 79.9742C33.3105 81.5188 34.8968 82.9318 36.5983 84.1968C37.7953 85.0777 40.2456 85.8639 40.5702 87.3253C41.5098 91.5439 42.237 95.8082 43.2686 100.007C44.2047 103.815 46.5475 107.855 46.5377 111.76C46.5377 121.105 46.5316 130.451 46.5195 139.796H48.8147V119.466C48.8147 119.466 54.9539 102.354 56.5679 98.3725C59.2225 99.6214 62.5997 96.8128 63.6171 94.7714C69.869 82.2302 76.7889 69.8727 79.5806 56.0461C80.7635 50.2975 81.5856 44.4806 82.0421 38.6293C82.3283 34.7867 82.8656 30.1693 81.4904 26.4636Z" fill="#11A47B"/>
<path d="M63.6389 133.41C63.5867 134.117 63.5029 135.106 63.3815 136.3C63.3598 136.532 63.3337 136.771 63.3075 137.02C63.2814 137.299 63.2509 137.587 63.2159 137.883C63.1506 138.468 63.0766 139.082 62.9982 139.723C62.9373 140.207 62.8719 140.704 62.8021 141.215C62.6844 142.06 62.555 142.94 62.4139 143.853C62.3834 144.041 62.3529 144.233 62.3181 144.425C62.2874 144.608 62.2569 144.795 62.2264 144.983C62.196 145.166 62.1655 145.353 62.1304 145.545C62.0488 146.034 61.9604 146.522 61.8646 147.019C61.8165 147.294 61.7599 147.568 61.7077 147.847L61.5112 148.815C61.4634 149.042 61.4155 149.273 61.3676 149.5C61.2716 149.958 61.1668 150.42 61.0621 150.878C61.0099 151.109 60.9576 151.34 60.901 151.571C60.7741 152.099 60.6432 152.626 60.5085 153.154C60.4037 153.542 60.2993 153.934 60.1946 154.318V154.327C60.0857 154.715 59.9769 155.103 59.8589 155.491C59.8371 155.561 59.8153 155.627 59.7979 155.696C59.6619 156.141 59.5231 156.577 59.3836 157.013C59.3093 157.235 59.2353 157.457 59.161 157.675C59.0127 158.111 58.8601 158.542 58.7032 158.971C58.5419 159.393 58.3806 159.816 58.2105 160.231C58.1289 160.436 58.0449 160.64 57.9578 160.841C57.713 161.421 57.4564 161.988 57.186 162.533C57.0772 162.751 56.9684 162.964 56.8596 163.178C56.7635 163.361 56.6634 163.544 56.5631 163.727C56.467 163.906 56.3669 164.085 56.2622 164.26C56.1618 164.438 56.057 164.608 55.9526 164.778C55.8481 164.948 55.7431 165.114 55.6343 165.28H40.1115C40.1115 165.28 30.7532 148.126 31.8142 133.287C31.8338 132.983 31.9687 132.697 32.1914 132.488C32.4141 132.279 32.708 132.163 33.0133 132.163H62.4367C62.5986 132.162 62.7588 132.194 62.9079 132.257C63.0569 132.32 63.1916 132.413 63.3039 132.53C63.4162 132.646 63.5038 132.784 63.5614 132.935C63.619 133.087 63.6453 133.248 63.6389 133.41Z" fill="#EF5702"/>
<path d="M47.6063 72.4278L49.2777 3.24908L48.0421 72.437C48.0416 72.4656 48.0354 72.4938 48.024 72.52C48.0126 72.5462 47.9961 72.5699 47.9755 72.5897C47.955 72.6096 47.9307 72.6252 47.9041 72.6356C47.8775 72.6461 47.8491 72.6512 47.8205 72.6507C47.7919 72.6502 47.7637 72.644 47.7375 72.6326C47.7113 72.6212 47.6876 72.6047 47.6678 72.5842C47.6479 72.5636 47.6323 72.5393 47.6219 72.5127C47.6114 72.4861 47.6063 72.4577 47.6068 72.4291L47.6063 72.4278Z" fill="#ABF4E6"/>
<path d="M9.81704 21.1261L10.742 23.112L11.7281 25.1719L13.7165 29.286L17.703 37.5101L25.6413 53.9761C28.271 59.4728 30.8724 64.9829 33.4454 70.5063C34.724 73.2716 35.9933 76.0415 37.2235 78.8289C37.8358 80.2239 38.4436 81.6209 39.0233 83.0298C39.3131 83.7341 39.599 84.4403 39.8667 85.1539C40.1446 85.8633 40.3802 86.5886 40.5721 87.3259C40.3758 86.59 40.1359 85.8663 39.8539 85.1588C39.5818 84.4471 39.2932 83.7442 38.9994 83.0401C38.4112 81.6353 37.7953 80.2422 37.1748 78.8507C35.9283 76.0709 34.6429 73.3091 33.3477 70.552C30.7554 65.0382 28.1079 59.5505 25.4459 54.0702L17.4103 37.653L13.3745 29.4528L11.3614 25.3498L10.3619 23.2937L9.86765 22.2621L9.62443 21.7417L9.50446 21.4797C9.45435 21.3652 9.41306 21.2469 9.38096 21.1261C9.36799 21.078 9.3735 21.0269 9.3964 20.9827C9.41931 20.9385 9.45794 20.9045 9.50468 20.8875C9.55142 20.8704 9.60286 20.8714 9.64885 20.8904C9.69485 20.9094 9.73205 20.945 9.75311 20.99L9.81704 21.1261Z" fill="#ABF4E6"/>
<path d="M79.9538 27.6756C79.9707 27.6772 79.9846 27.6342 79.978 27.6522L79.965 27.7066C79.9555 27.7417 79.9495 27.7936 79.9413 27.8366L79.9038 28.1174L79.8437 28.6946L79.7386 29.8587L79.5265 32.1912C79.3774 33.7458 79.208 35.2987 79.0183 36.8497C78.6349 39.951 78.1618 43.0387 77.599 46.113C76.4767 52.2609 74.9592 58.3301 73.0559 64.2828C71.1573 70.2358 68.8103 76.0364 66.0353 81.6348C63.2605 87.232 59.9865 92.5675 56.2532 97.5765C59.9556 92.5485 63.197 87.1968 65.9379 81.5863C68.6766 75.9793 70.9865 70.1728 72.8478 64.2167C74.7126 58.2642 76.1917 52.1976 77.2758 46.0548C77.8221 42.9856 78.2761 39.9024 78.638 36.8053C78.8193 35.2574 78.9794 33.7068 79.1181 32.1534L79.3164 29.8228L79.4149 28.6552L79.4723 28.0681L79.511 27.7689C79.5208 27.7145 79.5246 27.6704 79.5382 27.6108L79.5597 27.5232C79.5781 27.4666 79.6065 27.4137 79.6434 27.3671C79.6637 27.3468 79.6877 27.3308 79.7141 27.3198C79.7406 27.3089 79.7689 27.3032 79.7976 27.3032C79.8262 27.3032 79.8545 27.3089 79.8809 27.3198C79.9074 27.3308 79.9314 27.3468 79.9517 27.3671C79.9719 27.3873 79.9879 27.4113 79.9989 27.4378C80.0099 27.4642 80.0155 27.4925 80.0155 27.5212C80.0155 27.5498 80.0099 27.5781 79.9989 27.6046C79.9879 27.631 79.9719 27.655 79.9517 27.6753L79.9538 27.6756Z" fill="#ABF4E6"/>
<path d="M45.8546 9.73296C46.5832 12.6582 47.2331 15.5971 47.7763 18.5594C48.0498 20.0396 48.2911 21.5263 48.4758 23.0209C48.684 24.512 48.7816 26.0164 48.7677 27.5219C48.7453 26.0186 48.6116 24.5191 48.3678 23.0356C48.1474 21.5494 47.8707 20.072 47.5623 18.6013C46.9493 15.6605 46.2293 12.739 45.4335 9.84613V9.8434C45.4182 9.78763 45.4256 9.72805 45.4542 9.67778C45.4828 9.6275 45.5302 9.59064 45.586 9.57531C45.6418 9.55998 45.7014 9.56743 45.7516 9.59602C45.8019 9.62462 45.8388 9.67202 45.8541 9.72779L45.8546 9.73296Z" fill="#ABF4E6"/>
<path d="M45.2806 30.6413C45.2919 30.6836 45.301 30.7264 45.3078 30.7697L45.3723 30.9446C45.4114 31.0605 45.4724 31.1835 45.5216 31.3026L45.8481 32.0281C46.0695 32.5129 46.2855 33.0026 46.4887 33.4972C46.8988 34.4855 47.2512 35.4968 47.5443 36.5258C47.8374 37.5536 48.0536 38.6018 48.1909 39.6617C48.3276 40.7193 48.38 41.786 48.3476 42.8519C48.3436 41.7885 48.2551 40.7271 48.0829 39.6777C47.911 38.6308 47.6612 37.5982 47.3356 36.5884C47.0107 35.5799 46.6277 34.5911 46.1884 33.627C45.9708 33.1441 45.7406 32.6675 45.5034 32.1917L45.1497 31.4732C45.0932 31.3483 45.0311 31.2346 44.9792 31.1002L44.8995 30.9027C44.8758 30.8167 44.857 30.7294 44.8432 30.6413C44.8347 30.5893 44.8462 30.5361 44.8752 30.4923C44.9043 30.4484 44.9489 30.4172 45 30.4047C45.0511 30.3923 45.1051 30.3996 45.151 30.4252C45.197 30.4508 45.2316 30.4928 45.248 30.5428L45.2806 30.6413Z" fill="#ABF4E6"/>
<path d="M44.5012 51.4559C45.3446 52.0465 45.8217 52.849 46.2573 53.6709C46.6699 54.4964 46.9958 55.3625 47.2298 56.2553C47.362 56.6955 47.4425 57.1481 47.5511 57.5932C47.6278 58.0448 47.7143 58.4945 47.7807 58.9472C47.8351 59.4015 47.8998 59.8542 47.9439 60.3087L48.0508 61.6749L47.8898 60.3147C47.8283 59.8629 47.7451 59.414 47.6738 58.9643C47.5906 58.5165 47.4858 58.0728 47.3922 57.628C47.2665 57.1909 47.1691 56.7461 47.0212 56.3168C46.7578 55.4518 46.4054 54.6164 45.9697 53.8241C45.7539 53.4327 45.5066 53.0597 45.23 52.7087C44.9679 52.3702 44.6529 52.0763 44.2972 51.8381L44.2659 51.8199C44.2161 51.7905 44.1799 51.7426 44.1654 51.6866C44.1509 51.6305 44.1593 51.5711 44.1886 51.5212C44.218 51.4713 44.266 51.4352 44.322 51.4207C44.378 51.4062 44.4375 51.4146 44.4874 51.4439C44.4914 51.4494 44.4966 51.4526 44.5012 51.4559Z" fill="#ABF4E6"/>
<path d="M53.5975 25.3869C52.2768 26.1495 51.1436 27.198 50.2807 28.4555C50.0651 28.7716 49.8675 29.0996 49.6888 29.4379C49.1718 30.4736 48.8601 31.5996 48.7709 32.7538C48.7934 31.9775 48.917 31.2075 49.1387 30.4632C49.2493 30.0895 49.3838 29.7233 49.5413 29.3669C50.3865 27.5794 51.7198 26.0672 53.3874 25.0049C53.4117 24.9897 53.4388 24.9795 53.467 24.9747C53.4952 24.97 53.5241 24.9709 53.552 24.9773C53.5799 24.9837 53.6063 24.9956 53.6296 25.0122C53.6529 25.0288 53.6727 25.0499 53.6879 25.0742C53.7031 25.0984 53.7134 25.1255 53.7181 25.1537C53.7228 25.1819 53.722 25.2108 53.7155 25.2387C53.7091 25.2666 53.6973 25.293 53.6806 25.3163C53.664 25.3396 53.643 25.3594 53.6187 25.3746L53.6105 25.3795L53.5975 25.3869Z" fill="#ABF4E6"/>
<path d="M52.6815 45.3088C52.5505 45.2699 52.4121 45.2625 52.2776 45.287C52.1226 45.3088 51.9724 45.3565 51.8333 45.4282C51.6866 45.5001 51.5466 45.5848 51.4149 45.6815C51.2914 45.795 51.1565 45.8953 51.0406 46.0194C50.5691 46.5265 50.1733 47.0991 49.8656 47.7194C49.7051 48.0298 49.5438 48.3407 49.4129 48.6666C49.2715 48.9877 49.133 49.3106 49.019 49.6436C48.7628 50.2992 48.5663 50.9766 48.3533 51.6482C48.5312 50.9665 48.6928 50.2788 48.9159 49.6079C49.0133 49.2681 49.1358 48.9362 49.2617 48.6052C49.3768 48.2697 49.5234 47.9465 49.6698 47.6223C49.9567 46.9622 50.3378 46.3473 50.8012 45.7966C50.9187 45.657 51.0613 45.5368 51.1919 45.4059C51.3382 45.2861 51.4951 45.1797 51.6606 45.0882C51.8309 44.9902 52.0163 44.9213 52.2093 44.8844C52.4209 44.8347 52.6419 44.8425 52.8494 44.907C52.9047 44.9239 52.951 44.962 52.9781 45.013C53.0053 45.0639 53.0111 45.1236 52.9943 45.1789C52.9774 45.2342 52.9393 45.2805 52.8883 45.3077C52.8373 45.3348 52.7776 45.3406 52.7224 45.3238L52.7128 45.3208L52.6815 45.3088Z" fill="#ABF4E6"/>
<path d="M11.9156 30.4713C12.971 31.4811 13.9249 32.5918 14.7639 33.7875C15.6173 34.9573 16.4105 36.1692 17.1532 37.4092C17.9071 38.6427 18.5991 39.912 19.2809 41.1833L20.2641 43.1126L21.2037 45.0623L20.2153 43.1374L19.1851 41.2352C18.4724 39.9819 17.7501 38.7343 16.9683 37.5243C16.1973 36.308 15.3776 35.1227 14.5022 33.9837C13.6531 32.8369 12.6955 31.7747 11.6427 30.8116L11.6256 30.7969C11.582 30.7591 11.5552 30.7054 11.5511 30.6478C11.5471 30.5902 11.5661 30.5333 11.604 30.4897C11.6418 30.446 11.6955 30.4193 11.7531 30.4152C11.8107 30.4112 11.8676 30.4302 11.9112 30.468L11.9156 30.4713Z" fill="#ABF4E6"/>
<path d="M22.6493 54.9524C23.7174 55.7222 24.7032 56.6002 25.5909 57.5725C26.4781 58.5299 27.3049 59.5416 28.0665 60.6017C28.8219 61.6625 29.5211 62.7623 30.1612 63.8964C30.492 64.4565 30.7736 65.0442 31.0818 65.616C31.3699 66.1984 31.6398 66.7899 31.9194 67.3758C31.6232 66.7975 31.3373 66.2145 31.0334 65.641C30.7094 65.0784 30.4126 64.5006 30.0671 63.9516C29.3986 62.8408 28.6722 61.7659 27.8908 60.7315C27.1071 59.7024 26.2601 58.7232 25.3548 57.7994C24.4631 56.8764 23.4794 56.0469 22.4191 55.3238L22.405 55.3145C22.3566 55.2829 22.3228 55.2333 22.311 55.1768C22.2991 55.1202 22.3102 55.0612 22.3419 55.0128C22.3735 54.9645 22.4231 54.9306 22.4797 54.9188C22.5362 54.907 22.5952 54.9181 22.6436 54.9497L22.6493 54.9524Z" fill="#ABF4E6"/>
<path d="M28.7056 72.2289C29.4024 72.0538 30.1316 72.0519 30.8294 72.2231C31.5049 72.3825 32.1516 72.6456 32.7465 73.0031C33.3354 73.3528 33.8872 73.7616 34.3932 74.2232L35.1184 74.9419L35.789 75.7088L35.0795 74.98L34.3219 74.3056C33.8009 73.8792 33.238 73.5068 32.6417 73.1943C32.054 72.882 31.4214 72.6627 30.7665 72.5442C30.1334 72.4245 29.481 72.4559 28.8622 72.6358L28.835 72.6454C28.8079 72.6546 28.7793 72.6584 28.7507 72.6565C28.7221 72.6546 28.6941 72.6472 28.6685 72.6345C28.6428 72.6218 28.6198 72.6043 28.6009 72.5827C28.5821 72.5612 28.5676 72.5362 28.5584 72.5091C28.5492 72.4819 28.5454 72.4533 28.5472 72.4247C28.5491 72.3961 28.5565 72.3682 28.5692 72.3425C28.5819 72.3168 28.5994 72.2939 28.621 72.275C28.6425 72.2561 28.6675 72.2416 28.6947 72.2324L28.7056 72.2289Z" fill="#ABF4E6"/>
<path d="M62.514 72.8611C63.2823 73.799 63.8591 74.8786 64.2118 76.0386C64.5683 77.1783 64.7638 78.3623 64.7926 79.5561L64.7853 80.4473C64.7853 80.7441 64.7377 81.0387 64.7162 81.3342C64.6613 81.9239 64.5727 82.51 64.4509 83.0897C64.3408 83.6705 64.1571 84.2352 64.014 84.8076L63.4264 86.4777L63.9618 84.791C64.0869 84.2154 64.2521 83.6484 64.344 83.0679C64.4469 82.4895 64.5167 81.9058 64.5532 81.3195C64.5655 81.0265 64.6046 80.7346 64.5946 80.4416L64.5747 79.5634C64.511 78.3974 64.2846 77.2459 63.9022 76.1425C63.533 75.0498 62.9559 74.0388 62.2028 73.1653L62.1867 73.1473C62.1675 73.1261 62.1526 73.1013 62.143 73.0744C62.1334 73.0474 62.1291 73.0189 62.1305 72.9903C62.1319 72.9617 62.1389 72.9337 62.1512 72.9078C62.1634 72.8819 62.1806 72.8587 62.2018 72.8395C62.223 72.8203 62.2478 72.8054 62.2747 72.7958C62.3017 72.7861 62.3303 72.7819 62.3589 72.7833C62.3874 72.7847 62.4155 72.7917 62.4413 72.8039C62.4672 72.8162 62.4904 72.8334 62.5097 72.8546L62.514 72.8611Z" fill="#ABF4E6"/>
<path d="M67.5182 63.4212C67.5248 63.3894 67.5003 63.3616 67.5136 63.3801C67.5202 63.3928 67.5288 63.4043 67.5389 63.4144C67.5596 63.4416 67.5993 63.4799 67.6303 63.5129L67.8526 63.724C68.0049 63.8668 68.1589 64.0132 68.3064 64.1663C68.6041 64.4712 68.8758 64.8004 69.1187 65.1506C69.6011 65.8514 69.9546 66.6327 70.1625 67.4578C70.5766 69.1042 70.4321 70.8197 70.0512 72.4323C70.3624 70.8044 70.425 69.0952 69.9522 67.5157C69.7183 66.7315 69.3463 65.9955 68.8537 65.3421C68.6076 65.0183 68.3345 64.7158 68.0376 64.4378C67.8901 64.2972 67.7361 64.1633 67.5789 64.0281L67.3392 63.8195C67.2951 63.7799 67.2529 63.7381 67.213 63.6943C67.1867 63.6672 67.1635 63.6372 67.1436 63.6051C67.1069 63.5504 67.0854 63.4869 67.0816 63.4212C67.0816 63.3926 67.0872 63.3643 67.0982 63.3379C67.1091 63.3115 67.1252 63.2875 67.1454 63.2673C67.1656 63.2471 67.1896 63.2311 67.216 63.2201C67.2424 63.2092 67.2707 63.2036 67.2993 63.2036C67.3278 63.2036 67.3561 63.2092 67.3825 63.2201C67.4089 63.2311 67.4329 63.2471 67.4531 63.2673C67.4733 63.2875 67.4894 63.3115 67.5003 63.3379C67.5113 63.3643 67.5169 63.3926 67.5169 63.4212H67.5182Z" fill="#ABF4E6"/>
<path d="M78.7515 53.3175C78.6048 53.3231 78.4609 53.3587 78.3284 53.422C78.1707 53.4934 78.0214 53.5822 77.8834 53.6867C77.7397 53.7933 77.6026 53.9086 77.4729 54.0319C77.3499 54.1657 77.2182 54.2914 77.1015 54.4323C76.6312 55.0049 76.2203 55.6238 75.8751 56.2795C75.521 56.9377 75.2012 57.6138 74.917 58.3051C74.6216 58.9937 74.373 59.701 74.1156 60.4056C74.3384 59.6898 74.5528 58.9697 74.8156 58.2654C75.0679 57.5558 75.3569 56.8597 75.6812 56.1799C76.0026 55.4907 76.3934 54.836 76.8477 54.2261C76.9628 54.0727 77.0961 53.9315 77.2202 53.7835C77.3557 53.6418 77.4995 53.5083 77.6511 53.3839C77.8064 53.2547 77.9757 53.1432 78.1557 53.0514C78.2503 53.0034 78.3491 52.9641 78.4509 52.9342C78.5676 52.8956 78.6905 52.8792 78.8132 52.8858C78.8418 52.887 78.8699 52.8938 78.8958 52.9059C78.9218 52.9179 78.9451 52.935 78.9644 52.956C78.9838 52.9771 78.9988 53.0018 79.0086 53.0287C79.0184 53.0555 79.0228 53.0841 79.0216 53.1126C79.0204 53.1412 79.0136 53.1693 79.0015 53.1952C78.9895 53.2212 78.9724 53.2445 78.9513 53.2638C78.9303 53.2832 78.9056 53.2982 78.8787 53.308C78.8518 53.3178 78.8233 53.3222 78.7947 53.321H78.7925L78.7515 53.3175Z" fill="#ABF4E6"/>
<path d="M69.0224 79.0212C69.0357 79.0541 69.0423 79.0894 69.0419 79.125C69.0414 79.1605 69.0339 79.1956 69.0197 79.2282C69.012 79.2461 69.0016 79.2628 68.989 79.2777C68.9754 79.2951 68.9561 79.3199 68.9457 79.33L68.8796 79.395L68.7561 79.5062L68.5132 79.7171L68.0349 80.1357C67.719 80.417 67.4107 80.7062 67.11 81.0033C66.5078 81.5981 65.9432 82.2298 65.4192 82.8945C64.357 84.2244 63.523 85.7214 62.9512 87.3245C63.4583 85.6878 64.2333 84.1466 65.2448 82.7637C65.7465 82.068 66.2909 81.4041 66.8749 80.7759C67.1667 80.461 67.467 80.1545 67.7757 79.8564L68.2403 79.4135L68.471 79.1958L68.5798 79.0887L68.6255 79.0397C68.634 79.0307 68.6293 79.0332 68.6326 79.0302C68.6285 79.0378 68.6459 79.0095 68.6244 79.0473C68.6119 79.0739 68.606 79.1031 68.6073 79.1324C68.6087 79.1618 68.6171 79.1904 68.632 79.2157C68.6193 79.19 68.6118 79.1621 68.6098 79.1336C68.6079 79.105 68.6115 79.0763 68.6207 79.0492C68.6298 79.022 68.6442 78.997 68.663 78.9754C68.6818 78.9538 68.7047 78.9361 68.7304 78.9234C68.756 78.9106 68.7839 78.9031 68.8125 78.9011C68.8411 78.8992 68.8698 78.9029 68.8969 78.912C68.924 78.9211 68.9491 78.9355 68.9707 78.9544C68.9923 78.9732 69.01 78.9961 69.0227 79.0217L69.0224 79.0212Z" fill="#ABF4E6"/>
<path d="M74.3318 48.3287C74.4387 49.4122 74.5092 50.4917 74.5611 51.5747C74.6131 52.6577 74.6378 53.7407 74.6261 54.8243C74.6144 55.9078 74.5774 56.9914 74.4659 58.0692C74.3765 59.1491 74.1759 60.2169 73.8674 61.2557C74.1401 60.2102 74.3041 59.1394 74.3571 58.0602C74.4319 56.984 74.4346 55.904 74.408 54.8259C74.3813 53.7478 74.3217 52.6702 74.2344 51.5954C74.1471 50.5206 74.0399 49.4463 73.8987 48.3815V48.3788C73.8949 48.3504 73.8968 48.3215 73.9042 48.2939C73.9115 48.2662 73.9243 48.2403 73.9417 48.2175C73.9769 48.1716 74.0288 48.1415 74.0861 48.1339C74.1435 48.1263 74.2014 48.1418 74.2474 48.1769C74.2933 48.2121 74.3234 48.264 74.331 48.3214L74.3318 48.3287Z" fill="#ABF4E6"/>
<path d="M76.6668 32.023C76.6649 31.9599 76.6369 31.9613 76.66 31.9782C76.6822 31.9999 76.7063 32.0195 76.7321 32.0369L76.9369 32.1759C77.0851 32.2739 77.2273 32.3806 77.3627 32.4956C77.6348 32.7287 77.8691 33.0028 78.0569 33.3079C78.4121 33.9123 78.637 34.5843 78.7172 35.2808C78.8049 35.9609 78.8217 36.6483 78.7673 37.332C78.7172 38.0106 78.6294 38.686 78.5042 39.3549C78.5934 38.6824 78.6449 38.0055 78.6584 37.3273C78.6759 36.6535 78.6236 35.9797 78.5023 35.3167C78.3924 34.6638 78.1477 34.0409 77.7838 33.4877C77.6007 33.2226 77.3772 32.9878 77.1216 32.7916C76.9927 32.6932 76.8577 32.6029 76.7177 32.5212L76.4938 32.3851C76.4478 32.3569 76.4045 32.3247 76.3643 32.2888C76.3258 32.257 76.2941 32.2176 76.2712 32.1732C76.2483 32.1288 76.2347 32.0802 76.231 32.0304C76.2305 32.0018 76.2356 31.9734 76.246 31.9468C76.2565 31.9202 76.2721 31.8959 76.2919 31.8753C76.3118 31.8548 76.3355 31.8383 76.3617 31.8269C76.3879 31.8155 76.4161 31.8093 76.4447 31.8088C76.4732 31.8083 76.5016 31.8134 76.5282 31.8239C76.5548 31.8343 76.5791 31.8499 76.5997 31.8698C76.6203 31.8896 76.6367 31.9133 76.6482 31.9395C76.6596 31.9657 76.6657 31.9939 76.6663 32.0225L76.6668 32.023Z" fill="#ABF4E6"/>
<path d="M63.639 133.41C63.5867 134.117 63.5029 135.106 63.3816 136.3C63.3598 136.532 63.3337 136.771 63.3076 137.02C63.2815 137.299 63.2509 137.587 63.2159 137.883C63.1506 138.468 63.0766 139.082 62.9983 139.723C62.9373 140.207 62.872 140.704 62.8021 141.215C62.6843 142.06 62.5573 142.941 62.4139 143.853C62.3835 144.041 62.353 144.233 62.3182 144.425C62.2874 144.608 62.257 144.795 62.2265 144.983C62.196 145.166 62.1656 145.353 62.1305 145.545C62.0489 146.034 61.9604 146.522 61.8647 147.019C61.8122 147.294 61.76 147.568 61.7077 147.847L61.5113 148.815C61.4634 149.042 61.4155 149.273 61.3677 149.5C61.2716 149.958 61.1669 150.42 61.0622 150.878C61.0099 151.109 60.9577 151.34 60.9011 151.571C60.7741 152.099 60.6433 152.626 60.5085 153.154C60.4038 153.542 60.2994 153.935 60.1946 154.318V154.327C60.0812 154.719 59.9721 155.103 59.8589 155.491C59.8371 155.561 59.8154 155.627 59.798 155.696C59.662 156.141 59.5232 156.577 59.3836 157.013C59.3094 157.235 59.2354 157.457 59.1611 157.675C59.0127 158.111 58.8601 158.542 58.7033 158.971C58.5419 159.393 58.3806 159.816 58.2106 160.231C58.129 160.436 58.0449 160.64 57.9579 160.841C57.7092 161.421 57.4519 161.988 57.1861 162.533C57.0772 162.751 56.9684 162.964 56.8596 163.178C56.7636 163.361 56.6635 163.544 56.5631 163.728C56.4671 163.906 56.3669 164.085 56.2622 164.26C56.1618 164.438 56.0571 164.608 55.9526 164.778C55.8482 164.948 55.7432 165.114 55.6343 165.28H40.1116C62.7679 161.39 56.2579 132.163 56.2579 132.163H62.4365C62.5983 132.163 62.7585 132.195 62.9075 132.258C63.0565 132.321 63.1913 132.414 63.3036 132.53C63.4159 132.646 63.5035 132.784 63.5611 132.936C63.6188 133.087 63.6453 133.248 63.639 133.41Z" fill="#D14A07"/>
</svg>
