<svg width="113" height="167" viewBox="0 0 113 167" fill="none" xmlns="http://www.w3.org/2000/svg">
<path d="M94.7756 82.9296C94.8176 82.8252 94.8431 82.715 94.8512 82.6028C94.8404 82.6423 94.8116 82.7572 94.7756 82.9296Z" fill="#F9B4B9"/>
<g opacity="0.5">
<g opacity="0.5">
<g opacity="0.5">
<path opacity="0.5" d="M101.258 102.352C101.074 101.874 97.0035 100.796 95.2684 100.914C92.1492 101.13 89.0173 100.544 85.9226 101.101C82.2074 101.77 78.7365 103.369 75.3266 104.928C70.4758 107.141 69.2759 114.09 68.9165 114.507C68.5571 114.924 67.4072 115.944 67.4072 115.944C66.9295 116.38 67.12 115.107 67.12 115.107C67.12 115.107 67.8387 96.4232 67.8995 95.8842C67.9602 95.3451 68.0181 95.5248 69.5166 94.8061C71.0151 94.0874 71.1945 95.1044 73.5289 95.4637C75.8633 95.8231 80.1763 98.5788 82.0914 99.1789C86.5689 100.577 92.8133 96.8506 95.5655 93.5486C96.7657 92.1114 98.7384 88.5187 99.1586 87.8607C99.5787 87.2028 97.7214 85.7048 97.7214 85.7048C96.0723 84.088 93.8373 83.2832 92.3533 82.9023C91.8347 82.7651 91.3078 82.6607 90.776 82.5898C90.7792 82.5867 90.7828 82.5843 90.7868 82.5825C90.8142 82.5565 90.8433 82.5326 90.874 82.5107C91.236 82.204 91.6243 81.9298 92.0344 81.6914C92.5481 81.4326 92.9904 80.8793 93.389 80.4804C93.9568 79.9056 94.5174 79.3174 95.0669 78.7234C95.5529 78.2544 95.9295 77.6839 96.17 77.0528C96.2881 76.7578 96.3242 76.4363 96.2744 76.1224C96.181 75.8636 95.933 75.9212 95.71 75.968C95.2431 76.0578 94.7723 76.1424 94.3054 76.2195C92.3757 76.5283 90.4676 76.6265 88.621 77.3188C84.4459 78.9106 80.2562 80.8473 76.232 82.8093C73.7275 84.0272 70.3897 85.8813 68.6793 88.159C68.5928 88.2915 68.478 88.403 68.3431 88.4856C68.2083 88.5683 68.0567 88.6199 67.8995 88.6367C67.8995 88.6367 67.8995 76.5998 67.7811 76.1832C67.6628 75.7665 68.3775 74.746 68.6182 73.5458C68.8589 72.3456 70.4758 71.0919 71.1334 70.3732C71.7911 69.6544 72.0316 70.3732 73.1105 70.7936C73.8119 71.0491 74.5297 71.2568 75.2592 71.4152C77.6918 71.99 98.6216 76.2622 98.6216 72.8273C98.6216 68.7924 95.6644 62.6512 92.0713 60.5029C91.6832 60.2703 89.1679 59.371 87.6912 59.2704C87.181 59.2346 86.7931 59.2919 86.6599 59.5076C86.6852 59.4573 86.7498 59.3172 86.8972 58.9939C87.1237 58.4836 87.5511 57.5279 88.3201 55.7599C90.1562 51.5598 90.034 46.3208 88.4073 42.0948C88.0692 41.2147 87.9421 39.6083 86.9449 39.2277C86.6043 39.1273 86.2451 39.1074 85.8956 39.1696C82.7122 39.4929 79.3921 39.8988 76.5283 41.4115C74.3801 42.5705 72.3183 43.883 70.3592 45.339C69.1517 46.2193 67.3732 49.471 66.6292 50.8922C66.4137 51.3092 66.2844 51.5676 66.2844 51.5676C66.1945 51.0684 66.0808 50.5724 65.9468 50.0909L65.943 50.0694C65.4315 48.2792 64.7204 46.5521 63.8232 44.9206C60.618 39.6711 55.8213 37.7345 49.8819 37.9572C49.5039 37.9717 47.18 37.5548 47.0616 37.7307C46.8209 38.0938 45.1465 39.4089 43.0493 46.2967C41.472 51.4781 44.7775 57.5718 46.513 60.2738C47.0808 61.1649 47.4832 61.6859 47.4832 61.6859C47.325 61.6859 46.2365 62.225 45.07 62.8178C44.0065 63.3603 42.8784 63.9424 42.332 64.2012C41.1981 64.7402 39.3391 66.7164 39.3391 67.1377C39.3391 67.928 40.3596 69.2468 40.6541 69.969C41.257 71.4788 42.1858 72.8369 43.3741 73.9464C44.7028 75.2283 46.1214 76.4137 47.619 77.4935C46.3176 77.7687 45.0382 78.139 43.791 78.6013C41.4836 79.4334 40.8359 80.076 40.8359 80.076L40.8504 80.0699C39.9955 80.6166 39.1983 81.2486 38.4709 81.9562C37.1044 83.2783 36.1967 84.8846 34.9677 86.3003C34.1917 87.1984 33.6527 89.2368 33.1136 90.073C32.5746 90.9092 32.1542 92.1713 36.1679 93.0096C39.5525 93.7172 41.3601 92.8906 41.8413 92.6141C41.8485 92.6069 41.8558 92.5996 41.8628 92.5996C41.9134 92.5705 41.9456 92.5493 41.9637 92.5385C41.9672 92.5351 41.9706 92.5316 41.9744 92.5316C42.1829 93.4439 42.8943 94.1627 43.9614 94.7555C46.2501 96.024 50.1834 96.7035 54.312 97.4397C58.6491 98.2122 62.4288 96.7678 64.2218 95.8912C64.6013 95.7085 64.9708 95.5057 65.3287 95.2838L65.0304 114.809C65.0304 114.809 61.9761 112.351 60.9599 111.575C60.5604 111.25 60.2274 110.851 59.9789 110.4C59.2811 109.211 58.8581 107.666 58.0783 106.667C56.9572 105.222 55.4087 104.083 53.9174 103.156C52.8147 102.457 51.649 101.861 50.4357 101.378C47.9487 100.421 45.2733 100.056 42.6208 100.311C40.314 100.519 37.7019 100.706 35.6137 101.773C32.0565 103.594 28.4707 107.216 27.001 110.982C26.5843 112.053 26.3436 111.934 26.3436 112.232C26.3436 112.901 28.4311 114.323 28.8731 114.711C30.3248 115.998 31.8338 117.309 33.4829 118.333C37.8234 121.028 44.485 119.443 49.2207 118.818C52.3934 118.401 57.7256 115.527 59.2204 114.029C60.6145 112.633 60.5578 112.85 60.9271 112.739C60.9521 112.732 60.9852 112.721 61.0169 112.71C62.994 113.428 65.149 117.083 65.149 117.083L64.7693 127.503H35.9757L37.1791 141.164C37.3922 143.584 38.1384 145.928 39.3644 148.026L40.4 149.798C41.1624 151.102 41.8268 152.461 42.3879 153.864C43.443 156.502 44.1995 160.251 46.2548 162.245C46.3539 162.323 46.4263 162.431 46.4621 162.552C46.5235 162.892 46.0551 163.046 45.7091 163.06L38.1226 163.349C35.733 163.44 33.1244 163.617 31.3639 165.236C32.3904 165.352 33.4246 165.386 34.4566 165.337C38.1781 165.259 41.8997 165.181 45.6213 165.148C50.2473 165.107 54.8784 165.001 59.5044 165.025C62.3503 165.04 66.2474 165.583 68.0585 162.794C69.3858 160.75 70.0731 157.958 70.973 155.707L71.7103 153.862C72.2742 152.461 72.9395 151.103 73.701 149.799L74.7358 148.027C75.9617 145.929 76.7077 143.586 76.9205 141.166L78.1242 127.505H67.7291C67.6832 126.817 67.6398 125.856 67.6012 124.799C67.4825 121.612 67.407 117.563 67.407 117.563C68.8337 113.851 70.8349 115.586 70.8349 115.586C73.8243 117.214 77.2522 117.724 80.5255 116.728C83.5725 115.801 86.2924 114.026 89.4005 113.25C92.2748 112.531 94.1289 111.874 96.1662 110.796C98.6957 109.456 102.415 105.474 101.258 102.352ZM67.8998 90.4335C68.3885 89.7221 69.0747 88.874 69.9085 88.5757C70.7302 88.2989 71.5815 88.1192 72.445 88.0404C73.214 87.9613 74.2346 87.7962 74.9818 87.9936C73.7531 89.2979 71.7481 89.9305 70.8104 91.5724C70.6973 91.781 70.6046 92.0001 70.5336 92.2266C70.4185 92.6625 70.2059 93.0666 69.912 93.4085C69.373 93.9187 68.5394 94.1019 67.9143 94.49C67.7413 93.1892 67.8998 91.7556 67.8998 90.4335ZM68.4749 69.475C68.7698 69.3833 69.055 69.263 69.3265 69.1157C69.8617 68.8496 70.3397 68.5766 70.4761 68.7525C70.5119 68.8105 70.5247 68.8798 70.5121 68.9468C70.4511 69.6544 68.5351 71.6306 67.9969 71.8714C67.9963 71.8714 67.5759 69.7155 68.4743 69.475H68.4749ZM64.0985 66.938C64.1742 66.9831 64.242 67.0401 64.2994 67.1069C64.358 67.1724 64.4101 67.2433 64.455 67.3189C64.4806 67.3613 64.503 67.4061 64.5256 67.4509C64.5419 67.4817 64.5591 67.5113 64.5742 67.5427C64.646 67.6951 64.7068 67.8521 64.7667 67.9873C64.9789 68.4615 65.2194 68.9215 65.3991 69.4137C65.47 69.6283 65.5075 69.8526 65.5104 70.0786C65.5197 70.4035 65.4966 70.7285 65.4415 71.0489V71.055C65.4339 71.0986 65.427 71.1372 65.4211 71.1689V71.1721C65.4156 71.2012 65.4107 71.2233 65.4075 71.2402L65.4049 71.2518L65.4005 71.2713C65.4005 71.2713 65.3839 71.2152 65.3557 71.1236C65.3077 70.9677 65.224 70.6997 65.1167 70.3732C65.0629 70.215 65.0004 70.0461 64.937 69.8664C64.5634 68.8174 64.0279 67.5131 63.5825 67.1933C63.559 67.175 63.5337 67.1593 63.5069 67.1464C63.5624 67.1717 63.8462 66.7943 64.0979 66.938H64.0985ZM65.3993 76.4815C65.3993 76.4815 65.3778 77.6203 65.3993 78.6373C65.4209 79.6544 65.3993 83.1896 65.3993 83.1896C65.3993 83.1896 65.2162 83.3693 64.512 83.1896C63.7142 82.9884 62.9309 82.7189 62.1511 82.4566C61.4615 82.224 60.7067 81.871 59.9737 81.81C59.5536 81.7739 59.1977 81.2285 58.975 80.9188C58.7197 80.5699 58.3284 79.7079 57.8754 79.5965C57.6445 79.5355 64.5399 78.6984 65.3993 76.4815ZM57.3285 84.4808C57.35 84.47 57.375 84.4628 57.3968 84.4517C57.391 84.4624 57.3837 84.4722 57.375 84.4808H57.3285ZM65.0679 91.9867C64.7455 91.0519 64.2534 90.1845 63.6165 89.4281C62.9803 88.7167 62.2869 88.052 61.5827 87.4054C60.8075 86.6753 59.984 85.9983 59.1177 85.3789C58.6182 85.03 58.04 84.495 57.3968 84.4805C57.4031 84.468 57.4103 84.4559 57.4183 84.4444C58.1445 84.1768 58.8495 83.8549 59.5274 83.4815C59.7194 83.3514 59.924 83.2407 60.138 83.1512C60.4519 83.0556 60.7822 83.0259 61.1082 83.064C62.4555 83.1608 64.3777 83.6998 65.0042 85.0437C65.4999 86.111 65.4964 88.1518 65.4427 89.9448V89.9483C65.4427 90.0131 65.4389 90.0777 65.4354 90.1425V90.1567C65.3993 91.2994 65.3456 92.3199 65.3993 92.8898C65.2906 92.5857 65.183 92.2839 65.0679 91.9855V91.9867Z" fill="#F9B4B9"/>
</g>
</g>
</g>
<path d="M80.5635 70.1469C80.6053 69.9457 80.6388 69.8119 80.6507 69.7657C80.6415 69.8965 80.6121 70.0251 80.5635 70.1469Z" fill="#B1FE26"/>
<path d="M88.1154 92.7744C87.902 92.2177 83.1591 90.9619 81.1375 91.1C77.5032 91.3512 73.8537 90.6688 70.2496 91.3178C65.921 92.0964 61.8761 93.9592 57.9045 95.7758C52.2533 98.3547 50.8551 106.451 50.4367 106.936C50.018 107.426 48.6782 108.611 48.6782 108.611C48.1215 109.117 48.3436 107.635 48.3436 107.635C48.3436 107.635 49.1806 85.8674 49.2519 85.2394C49.3231 84.6114 49.39 84.8207 51.1356 83.9837C52.8813 83.1466 53.0906 84.3326 55.8114 84.7498C58.5322 85.167 63.5558 88.3789 65.7869 89.0782C71.003 90.7063 78.2786 86.3655 81.4853 82.5183C82.8835 80.8439 85.1815 76.6577 85.672 75.8916C86.1625 75.1255 83.9976 73.3801 83.9976 73.3801C82.0763 71.4964 79.4724 70.5599 77.7436 70.1151C77.1393 69.9551 76.5255 69.8334 75.9058 69.7507C75.9095 69.7472 75.9137 69.7444 75.9183 69.7423C75.95 69.7123 75.9836 69.6843 76.0189 69.6586C76.4407 69.3014 76.8932 68.982 77.3709 68.7041C77.9696 68.4028 78.4845 67.758 78.9491 67.2933C79.6105 66.6246 80.2635 65.9373 80.9041 65.2465C81.4704 64.6995 81.9092 64.0344 82.1892 63.2985C82.2764 63.0098 82.4194 62.5158 82.3107 62.2146C82.2019 61.9134 81.9129 61.9799 81.6533 62.0346C81.1093 62.1393 80.561 62.2381 80.0167 62.3274C77.7686 62.6873 75.5459 62.8004 73.3941 63.6084C68.5299 65.4628 63.6488 67.7193 58.9602 70.0049C56.0426 71.424 52.1535 73.584 50.161 76.2382C50.0604 76.3925 49.9267 76.5225 49.7696 76.6188C49.6125 76.7151 49.4359 76.7753 49.2527 76.795C49.2527 76.795 49.2528 62.7714 49.1146 62.2867C48.9722 61.7971 49.8095 60.6123 50.0898 59.2141C50.3701 57.8159 52.2541 56.3552 53.0202 55.5178C53.7864 54.6805 54.0669 55.5178 55.3227 56.0074C56.1398 56.3052 56.9761 56.5472 57.826 56.7317C60.6599 57.4004 85.0443 62.3788 85.0443 58.377C85.0443 53.6759 81.5989 46.5218 77.4128 44.0185C76.9607 43.7463 74.0305 42.6999 72.3099 42.5828C71.7156 42.5409 71.2632 42.6078 71.1085 42.859C71.1376 42.8008 71.2132 42.6371 71.385 42.2603C71.6484 41.6657 72.1468 40.5525 73.0423 38.4928C75.1813 33.5992 75.0391 27.4959 73.1429 22.573C72.7492 21.5472 72.6026 19.6759 71.4391 19.2323C71.0427 19.1159 70.6247 19.093 70.2179 19.1654C66.5089 19.5434 62.6408 20.0152 59.3045 21.7775C56.8017 23.1278 54.3996 24.6569 52.1169 26.353C50.7103 27.3787 48.6381 31.1671 47.7717 32.8247C47.5205 33.3102 47.3699 33.6117 47.3699 33.6117C47.2652 33.0302 47.1312 32.4522 46.9762 31.8911L46.9721 31.8661C46.376 29.7804 45.5475 27.7682 44.5022 25.8674C40.7682 19.7515 35.1797 17.4939 28.2602 17.7556C27.8206 17.7721 25.112 17.2866 24.9748 17.4919C24.6945 17.9146 22.7436 19.4468 20.299 27.4715C18.4612 33.5079 22.3124 40.6077 24.3343 43.7556C24.9957 44.7939 25.4647 45.4007 25.4647 45.4007C25.2804 45.4007 24.011 46.0287 22.6514 46.7195C21.4123 47.3516 20.0981 48.0296 19.4616 48.3311C18.1387 48.9591 15.9747 51.2616 15.9747 51.7512C15.9747 52.672 17.1636 54.2086 17.5067 55.0497C18.209 56.8089 19.2912 58.3913 20.6758 59.6839C22.2231 61.1769 23.8749 62.5576 25.6185 63.8157C21.487 64.7324 18.0591 66.0091 14.9606 69.0149C13.3699 70.5558 12.3107 72.4265 10.8794 74.0759C9.97485 75.1226 9.34713 77.496 8.71912 78.4714C8.0911 79.4469 7.60149 80.916 12.2773 81.8915C16.2207 82.716 18.3248 81.7531 18.8874 81.4309C18.8956 81.4225 18.904 81.4141 18.9124 81.4141C18.9706 81.3806 19.0087 81.3559 19.0287 81.3431C19.0331 81.3388 19.0371 81.3347 19.0412 81.3347C19.2843 82.398 20.1129 83.235 21.3561 83.9258C24.0229 85.4037 28.6065 86.1937 33.4163 87.0528C38.4692 87.9541 42.8729 86.2701 44.9619 85.2502C45.4039 85.0373 45.8343 84.8011 46.2514 84.5428L45.9025 107.29C45.9025 107.29 42.3443 104.427 41.1598 103.522C40.6954 103.146 40.3086 102.682 40.021 102.158L40.0169 102.154C39.2048 100.768 38.7108 98.9682 37.8023 97.8044C36.4962 96.1215 34.6913 94.7945 32.9549 93.7144C31.6699 92.8994 30.3119 92.2057 28.8984 91.6423C26.0009 90.5278 22.8839 90.1022 19.7937 90.399C17.106 90.6418 14.0628 90.8596 11.6307 92.1028C7.48635 94.2253 3.3086 98.4449 1.59668 102.831C1.11084 104.079 0.830566 103.941 0.830566 104.288C0.830566 105.067 3.26267 106.724 3.77758 107.177C5.46885 108.675 7.227 110.203 9.14825 111.396C14.2052 114.536 21.9661 112.69 27.4836 111.961C31.1799 111.476 37.392 108.127 39.1336 106.381C40.7577 104.757 40.6908 105.008 41.122 104.878C41.1511 104.87 41.1889 104.857 41.2267 104.845C43.5291 105.682 46.0409 109.94 46.0409 109.94L45.555 123.264H49.1804C49.08 122.929 48.9835 121.1 48.9041 118.927C48.766 115.214 48.6779 110.495 48.6779 110.495C50.3399 106.171 52.6716 108.193 52.6716 108.193C56.1545 110.089 60.1482 110.684 63.9616 109.524C67.5117 108.444 70.6802 106.376 74.3015 105.472C77.6503 104.635 79.8103 103.869 82.1839 102.613C85.1306 101.051 89.4634 96.4123 88.1154 92.7744ZM49.2501 78.8892C49.8194 78.0603 50.619 77.0723 51.5901 76.7249C52.5475 76.4024 53.5394 76.1929 54.5455 76.1009C55.4413 76.0091 56.6302 75.8163 57.501 76.0466C56.0693 77.5663 53.7335 78.3031 52.6408 80.2162C52.509 80.4591 52.4011 80.7142 52.3187 80.9779C52.1343 81.4844 51.9628 82.0034 51.5944 82.3552C50.9664 82.9495 49.9953 83.1632 49.2667 83.6153C49.067 82.0999 49.2501 80.4296 49.2501 78.8892ZM49.9188 54.4714C50.2624 54.3647 50.5947 54.2245 50.9109 54.0527C51.5345 53.7428 52.0913 53.4247 52.2503 53.63C52.2921 53.6974 52.3071 53.778 52.2922 53.8559C52.221 54.6805 49.9898 56.9829 49.3621 57.2635C49.3644 57.2635 48.8745 54.7517 49.9212 54.4714H49.9188ZM44.8223 51.516C44.9105 51.5684 44.9897 51.6348 45.0567 51.7125C45.196 51.8761 45.3103 52.0596 45.3957 52.2568C45.471 52.4243 45.5382 52.5917 45.601 52.7383C45.8478 53.2907 46.1284 53.8265 46.3377 54.4002C46.4205 54.65 46.4643 54.9112 46.4674 55.1744C46.4787 55.6413 46.4352 56.1078 46.3377 56.5645C46.3377 56.5645 46.208 56.1284 46.0068 55.5178C45.9443 55.3338 45.8731 55.1369 45.7978 54.9276C45.3617 53.7064 44.7386 52.1856 44.2196 51.8131C44.1925 51.792 44.1633 51.7738 44.1324 51.7587C44.1984 51.7878 44.5293 51.3485 44.8223 51.516ZM46.3377 62.6341C46.3377 62.6341 46.3124 63.9611 46.3377 65.1459C46.363 66.3307 46.3377 70.4497 46.3377 70.4497C46.3377 70.4497 46.1243 70.659 45.3038 70.4497C44.3734 70.2154 43.4616 69.9014 42.5534 69.5958C41.7497 69.3236 40.8705 68.9134 40.0166 68.8424C39.527 68.8006 39.1124 68.1641 38.8536 67.8042C38.5562 67.3971 38.1 66.3935 37.5726 66.2632C37.3039 66.1929 45.3373 65.2171 46.3377 62.6341ZM45.9525 80.6974C45.5767 79.6084 45.0035 78.5981 44.2615 77.7169C43.5204 76.888 42.7124 76.1137 41.8919 75.3601C40.9888 74.5095 40.0294 73.7208 39.0202 72.9993C38.4387 72.5922 37.7645 71.9694 37.014 71.9526H36.9344C36.9597 71.9401 36.9887 71.9316 37.014 71.9191C37.0216 71.9144 37.0302 71.9116 37.039 71.9107C37.885 71.5986 38.7064 71.2237 39.4964 70.789C39.7201 70.6371 39.9585 70.5081 40.2079 70.4038C40.5738 70.2929 40.9586 70.2587 41.3383 70.3032C42.9084 70.4163 45.1471 71.0443 45.876 72.61C46.4537 73.8532 46.4497 76.2309 46.3869 78.3196V78.324C46.3869 78.3993 46.3825 78.4746 46.3784 78.5499V78.5668C46.3366 79.8978 46.2738 81.0867 46.3366 81.7522C46.2121 81.3966 46.0865 81.0448 45.9525 80.6974Z" fill="#5960A3"/>
<path d="M1.3075 104.565C4.58504 103.478 7.93431 102.62 11.331 101.998C14.7294 101.361 18.1672 100.958 21.6205 100.79C25.0794 100.627 28.5458 100.811 31.9682 101.337C33.6753 101.621 35.3611 102.022 37.0139 102.535C38.6565 103.072 40.2491 103.751 41.7734 104.565C40.2185 103.826 38.6069 103.213 36.954 102.731C35.3016 102.26 33.6194 101.901 31.9188 101.656C28.5138 101.182 25.0715 101.032 21.6383 101.209C18.2013 101.36 14.7774 101.729 11.3871 102.313C9.68973 102.597 8.00059 102.927 6.31968 103.305C4.63713 103.673 2.96475 104.089 1.3075 104.565Z" fill="#B2B7DC"/>
<path d="M10.3079 108.751C11.2319 107.53 12.2149 106.374 13.1743 105.2C13.6589 104.616 14.132 104.026 14.5935 103.429C14.8214 103.128 15.0459 102.824 15.2506 102.509C15.4777 102.208 15.639 101.863 15.7239 101.495C15.7173 101.885 15.6164 102.267 15.43 102.609C15.2618 102.956 15.0718 103.292 14.8613 103.616C14.4423 104.258 13.987 104.875 13.4977 105.465C12.5293 106.649 11.4622 107.748 10.3079 108.751Z" fill="#B2B7DC"/>
<path d="M13.3078 109.239C13.9021 108.636 14.4769 108.022 15.0482 107.408C15.6195 106.794 16.169 106.162 16.6863 105.507C17.2158 104.866 17.6939 104.183 18.1162 103.466C18.5566 102.756 18.8678 101.974 19.0352 101.156C19.0256 102.016 18.8092 102.861 18.4043 103.62C18.2154 104.004 18.0037 104.377 17.7705 104.737C17.5254 105.086 17.2826 105.439 17.0145 105.769C16.4821 106.432 15.9027 107.056 15.2808 107.637C14.6655 108.221 14.0058 108.757 13.3078 109.239Z" fill="#B2B7DC"/>
<path d="M14.4938 110.635C14.8691 110.293 15.2448 109.957 15.5986 109.596C15.9624 109.247 16.3151 108.888 16.6566 108.52C17.3384 107.782 17.9955 107.023 18.6017 106.227C19.2117 105.434 19.7683 104.601 20.268 103.733L20.6303 103.074C20.7492 102.854 20.8422 102.621 20.9516 102.395C21.1943 101.95 21.3321 101.464 21.5418 100.999C21.3373 101.999 21.0051 102.968 20.5532 103.882C20.1011 104.8 19.5589 105.67 18.9346 106.48C18.3129 107.289 17.6271 108.046 16.884 108.745C16.1486 109.449 15.3483 110.082 14.4938 110.635Z" fill="#B2B7DC"/>
<path d="M20.4241 110.635C20.9475 109.833 21.4862 109.049 22.0215 108.262L23.6189 105.901C24.1541 105.116 24.6618 104.316 25.1665 103.513C25.4209 103.113 25.6535 102.701 25.8817 102.286L26.2094 101.654L26.4941 101C26.2739 101.936 25.9215 102.836 25.4474 103.672C24.9982 104.519 24.5042 105.34 23.9675 106.133C23.4293 106.924 22.8757 107.703 22.2811 108.451C21.6866 109.2 21.0821 109.94 20.4241 110.635Z" fill="#B2B7DC"/>
<path d="M24.4011 109.589C25.4245 108.251 26.4619 106.946 27.4219 105.586C27.9101 104.912 28.3578 104.213 28.7739 103.498C29.2153 102.793 29.5302 102.017 29.7043 101.204C29.6881 102.058 29.4688 102.896 29.0646 103.649C28.6938 104.411 28.2587 105.141 27.7641 105.829C26.7888 107.205 25.6605 108.467 24.4011 109.589Z" fill="#B2B7DC"/>
<path d="M28.7964 108.402L30.0882 106.781C30.5136 106.241 30.9381 105.703 31.3321 105.146C31.7357 104.6 32.0978 104.025 32.4151 103.425C32.5699 103.127 32.692 102.814 32.7794 102.491C32.8773 102.166 32.8751 101.819 32.7733 101.495C32.9558 101.805 33.0292 102.168 32.9817 102.525C32.9405 102.88 32.8501 103.228 32.7131 103.558C32.4397 104.208 32.0903 104.823 31.6722 105.39C30.8552 106.52 29.8877 107.534 28.7964 108.402Z" fill="#B2B7DC"/>
<path d="M10.0281 97.4476C10.3689 97.8768 10.7175 98.2908 11.0615 98.7019C11.4104 99.109 11.7624 99.5122 12.1436 99.8815C12.5122 100.26 12.9141 100.605 13.3444 100.911C13.7788 101.221 14.2597 101.46 14.7691 101.618C14.2087 101.615 13.6587 101.467 13.172 101.189C12.6839 100.918 12.2376 100.577 11.8471 100.178C11.4564 99.7873 11.1058 99.3587 10.8004 98.8985C10.4906 98.4446 10.2317 97.9581 10.0281 97.4476Z" fill="#B2B7DC"/>
<path d="M12.3998 94.0997C12.3493 94.187 12.3958 94.2942 12.4176 94.3876C12.4467 94.4835 12.4798 94.578 12.5173 94.6713C12.5939 94.8574 12.6788 95.0397 12.772 95.2182C12.9502 95.5788 13.15 95.9277 13.3578 96.271C13.7746 96.9548 14.2398 97.6079 14.75 98.2251C15.2559 98.8423 15.8194 99.4099 16.4328 99.9205C17.0543 100.432 17.7381 100.864 18.468 101.204C18.0686 101.107 17.6792 100.973 17.305 100.804C16.9323 100.625 16.5745 100.417 16.2351 100.181C15.5611 99.6997 14.9533 99.132 14.4272 98.4923C13.903 97.8549 13.449 97.1628 13.0732 96.428C12.8848 96.0621 12.7211 95.684 12.5833 95.2962C12.517 95.1014 12.4594 94.9031 12.4115 94.703C12.3874 94.6025 12.3686 94.5008 12.3554 94.3983C12.3542 94.3009 12.3289 94.1797 12.3998 94.0997Z" fill="#B2B7DC"/>
<path d="M17.2847 94.0997C18.2654 95.3156 19.1955 96.5528 20.1675 97.7541C20.6533 98.3537 21.1514 98.9415 21.6724 99.507C21.9422 99.7789 22.2071 100.057 22.5004 100.303C22.6427 100.432 22.7938 100.55 22.9525 100.657C23.0283 100.716 23.1115 100.765 23.2 100.802L23.4593 100.938C22.6819 100.774 22.0274 100.255 21.4439 99.7411C20.8703 99.2049 20.3351 98.6292 19.8421 98.0181C18.8587 96.8023 18.0018 95.4894 17.2847 94.0997Z" fill="#B2B7DC"/>
<path d="M23.4607 92.9121C23.8058 93.6782 24.1605 94.4348 24.5147 95.1887C24.8761 95.9394 25.2415 96.6863 25.6436 97.4103C26.033 98.1383 26.4746 98.8372 26.9648 99.5016C27.4652 100.146 28.0199 100.784 28.7965 101.117C27.9583 100.94 27.2651 100.34 26.7107 99.7086C26.1583 99.0632 25.6772 98.3602 25.2755 97.6117C24.4685 96.1309 23.8584 94.551 23.4607 92.9121Z" fill="#B2B7DC"/>
<path d="M28.7964 93.6113C29.1218 94.3844 29.4707 95.1415 29.821 95.8948C30.1778 96.6446 30.5453 97.3881 30.9614 98.1016C31.36 98.8228 31.8139 99.512 32.3188 100.163C32.8205 100.822 33.4174 101.403 34.0901 101.886C33.3169 101.531 32.6281 101.016 32.0697 100.374C31.503 99.7429 31.0093 99.0498 30.5979 98.308C30.1812 97.5748 29.8216 96.8106 29.5222 96.0221C29.2146 95.2397 28.9719 94.4334 28.7964 93.6113Z" fill="#B2B7DC"/>
<path d="M34.0901 96.0522C34.2797 96.6799 34.4954 97.2919 34.7141 97.8987C34.9406 98.5029 35.1793 99.0992 35.4555 99.6775C35.7323 100.254 36.0457 100.812 36.3937 101.348C36.7592 101.88 37.1725 102.377 37.6285 102.834C37.0585 102.494 36.552 102.057 36.1315 101.543C35.7196 101.021 35.3663 100.456 35.0778 99.8566C34.5111 98.6623 34.176 97.3714 34.0901 96.0522Z" fill="#B2B7DC"/>
<path d="M51.5413 107.356C52.8814 106.407 54.2607 105.513 55.6467 104.631C57.0411 103.762 58.4539 102.922 59.8852 102.112C62.7413 100.466 65.7368 99.0735 68.837 97.9522C70.4216 97.4446 72.0224 97.1053 73.609 96.6863L78.3715 95.441L87.8902 92.9121C84.763 93.9152 81.6145 94.8494 78.4558 95.7501C76.8788 96.2077 75.2916 96.6305 73.7047 97.0535C72.1204 97.4844 70.5065 97.8423 68.9678 98.3476C65.8711 99.378 62.9325 100.86 60.039 102.392C57.1542 103.949 54.3232 105.611 51.5413 107.356Z" fill="#B2B7DC"/>
<path d="M55.5883 99.5342C56.022 99.5586 56.4493 99.6508 56.8545 99.8075C57.2687 99.9572 57.6577 100.169 58.0079 100.436C58.366 100.709 58.661 101.056 58.8725 101.454C59.0677 101.856 59.1346 102.309 59.0641 102.75C58.9733 102.348 58.8129 101.965 58.5902 101.618C58.3534 101.295 58.071 101.009 57.752 100.767C57.4271 100.517 57.0819 100.295 56.7198 100.103C56.3541 99.9058 55.9781 99.7192 55.5883 99.5342Z" fill="#B2B7DC"/>
<path d="M58.5182 97.0161C59.0439 97.0506 59.5604 97.1702 60.0478 97.3702C60.5518 97.5614 61.0136 97.849 61.4073 98.2171C61.8134 98.5979 62.0891 99.0969 62.1953 99.6432C62.2732 100.179 62.1793 100.725 61.9269 101.204C62.0131 100.709 61.996 100.202 61.8766 99.7151C61.7299 99.2579 61.4686 98.846 61.1175 98.5186C60.756 98.1798 60.3494 97.8925 59.9094 97.6647C59.4579 97.4231 58.9935 97.2066 58.5182 97.0161Z" fill="#B2B7DC"/>
<path d="M62.7043 95.2158C63.1339 95.3552 63.5334 95.5743 63.8819 95.8616C64.2404 96.1484 64.5455 96.4962 64.7832 96.8891C65.0235 97.2878 65.1692 97.7362 65.2091 98.2C65.2507 98.6546 65.1808 99.1125 65.0056 99.534C65.0156 99.103 64.9754 98.6723 64.8855 98.2506C64.7943 97.8451 64.6378 97.4572 64.4221 97.1019C63.9629 96.3786 63.3817 95.7404 62.7043 95.2158Z" fill="#B2B7DC"/>
<path d="M67.7974 93.6113C68.0879 93.9159 68.3144 94.2756 68.4635 94.6693C68.6199 95.0666 68.7049 95.4885 68.7144 95.9154C68.7159 96.1295 68.701 96.3433 68.6699 96.5551C68.6293 96.7654 68.5687 96.9714 68.4891 97.1703C68.3365 97.5641 68.1005 97.9203 67.7974 98.2144C67.9543 97.8446 68.0814 97.4627 68.1774 97.0726C68.2695 96.6964 68.3095 96.3092 68.2963 95.9221C68.2653 95.1287 68.0965 94.3468 67.7974 93.6113Z" fill="#B2B7DC"/>
<path d="M71.0068 92.0067C71.1555 92.4847 71.2658 92.9739 71.3366 93.4695C71.3959 93.9713 71.4045 94.4778 71.3621 94.9813C71.323 95.4903 71.2191 95.9923 71.0528 96.4749C70.8874 96.96 70.6669 97.4246 70.3957 97.8595L70.3122 97.5606C70.7846 97.8417 71.207 98.1991 71.5625 98.6183C71.9106 99.0249 72.2138 99.4678 72.467 99.9395C72.7145 100.408 72.9254 100.895 73.0979 101.396C73.1808 101.646 73.2433 101.903 73.3151 102.155C73.375 102.411 73.4253 102.669 73.4738 102.926C73.3799 102.681 73.2933 102.434 73.2069 102.189C73.1043 101.949 73.013 101.706 72.9025 101.472C72.6985 100.998 72.4582 100.542 72.1838 100.105C71.914 99.6723 71.6062 99.2643 71.2639 98.8861C70.9362 98.5128 70.5532 98.192 70.1282 97.9348L69.9319 97.8234L70.0448 97.6359C70.3022 97.229 70.5166 96.7965 70.6844 96.3452C70.854 95.8921 70.9765 95.4227 71.0499 94.9444C71.125 94.4615 71.1542 93.9725 71.1371 93.484C71.1208 92.9896 71.0773 92.4964 71.0068 92.0067Z" fill="#B2B7DC"/>
<path d="M73.5187 92.0067C73.7037 92.408 73.8392 92.8304 73.9222 93.2645C74.0128 93.6992 74.0574 94.1422 74.0554 94.5862C74.0601 95.0374 73.9913 95.4864 73.8518 95.9155C73.7241 96.353 73.4604 96.7385 73.0988 97.016C73.3185 96.6531 73.4665 96.2515 73.5349 95.8329C73.6082 95.4203 73.6422 95.0017 73.6364 94.5827C73.6492 93.7367 73.564 92.8865 73.5187 92.0067Z" fill="#B2B7DC"/>
<path d="M76.8674 92.0067C77.003 92.3625 77.077 92.7388 77.0864 93.1194C77.1017 93.5035 77.0634 93.8879 76.9724 94.2615C76.8743 94.639 76.7095 94.9959 76.4857 95.3154C76.2603 95.63 75.9599 95.8832 75.6117 96.0522C75.8399 95.7701 76.0394 95.4659 76.2071 95.1442C76.359 94.8272 76.4796 94.4961 76.5671 94.1556C76.728 93.4491 76.8285 92.7302 76.8674 92.0067Z" fill="#B2B7DC"/>
<path d="M80.7745 92.0067C80.951 92.3475 81.0377 92.7277 81.0264 93.1113C81.0151 93.495 80.9062 93.8694 80.71 94.1992C80.5104 94.529 80.2418 94.8116 79.9226 95.0276C79.7665 95.131 79.6023 95.2219 79.4318 95.2994C79.2584 95.3647 79.0811 95.4193 78.9009 95.4628C79.0405 95.3366 79.1867 95.2331 79.326 95.1232C79.4557 95.0005 79.5979 94.8982 79.7174 94.7743C79.9615 94.5418 80.1737 94.2778 80.3483 93.9893C80.5166 93.7007 80.6362 93.3864 80.7024 93.0589C80.7715 92.7127 80.7957 92.3591 80.7745 92.0067Z" fill="#B2B7DC"/>
<path d="M63.4067 100.458C63.9122 100.606 64.3825 100.855 64.7889 101.19C65.6283 101.857 66.2149 102.79 66.452 103.836C66.5712 104.347 66.6015 104.875 66.5416 105.396C66.4383 104.898 66.3037 104.408 66.1386 103.927C65.8054 102.991 65.2705 102.139 64.5718 101.432C64.2153 101.071 63.8252 100.745 63.4067 100.458Z" fill="#B2B7DC"/>
<path d="M66.5416 99.0331C67.543 99.6105 68.4072 100.398 69.0745 101.342C69.4109 101.816 69.6873 102.329 69.8974 102.871C70.1032 103.412 70.2126 103.986 70.2204 104.565C70.0553 104.028 69.8473 103.505 69.5982 103.002C69.3441 102.509 69.0551 102.036 68.7335 101.584C68.4137 101.131 68.0613 100.699 67.6955 100.276C67.324 99.8563 66.946 99.4376 66.5416 99.0331Z" fill="#B2B7DC"/>
<path d="M73.8492 96.8208C74.4478 96.7648 75.0484 96.9039 75.5614 97.2171C76.0816 97.5309 76.5173 97.9669 76.8306 98.4874C77.1385 98.9988 77.3613 99.5567 77.4906 100.139C77.54 100.43 77.5897 100.721 77.6205 101.012C77.6252 101.306 77.6435 101.596 77.6348 101.887C77.5493 101.606 77.4894 101.325 77.4182 101.047L77.1757 100.228C76.9988 99.6976 76.764 99.1886 76.4756 98.7098C76.1936 98.2367 75.8227 97.8227 75.3832 97.4907C74.9305 97.1519 74.4055 96.9226 73.8492 96.8208Z" fill="#B2B7DC"/>
<path d="M77.2516 95.9137C77.8568 95.9548 78.4342 96.1836 78.9033 96.5682C79.3833 96.9333 79.802 97.3726 80.1437 97.8695C80.3254 98.1088 80.4635 98.374 80.6213 98.6272C80.7548 98.8933 80.8932 99.1567 81.0095 99.4294C81.1179 99.7053 81.2267 99.9818 81.3183 100.262C81.3927 100.549 81.4805 100.83 81.5418 101.119L80.7158 99.573C80.4382 99.0699 80.1334 98.5822 79.8029 98.112C79.4822 97.642 79.111 97.2084 78.696 96.8191C78.4882 96.6248 78.2645 96.4481 78.0273 96.2911C77.7907 96.1244 77.5288 95.997 77.2516 95.9137Z" fill="#B2B7DC"/>
<path d="M80.4346 95.0386C80.9162 95.0676 81.3843 95.2093 81.8011 95.4523C82.2277 95.6897 82.6073 96.0032 82.9211 96.3772C83.2301 96.7526 83.4734 97.1775 83.6407 97.6341C83.7242 97.8587 83.7901 98.0895 83.8378 98.3243C83.8765 98.5589 83.9017 98.7956 83.9131 99.0331C83.809 98.8165 83.7349 98.597 83.6416 98.3854C83.5351 98.1789 83.4607 97.9623 83.3424 97.7672C83.2863 97.6681 83.2316 97.5692 83.1807 97.4686C83.1226 97.3721 83.0577 97.2797 82.9973 97.1855C82.8775 96.9965 82.7448 96.8161 82.6001 96.6455C82.3134 96.3012 81.9863 95.9927 81.6258 95.7265C81.257 95.4514 80.8572 95.2206 80.4346 95.0386Z" fill="#B2B7DC"/>
<path d="M82.6213 94.4261C83.0051 94.3078 83.4147 94.3024 83.8015 94.4104C84.1977 94.5083 84.567 94.6937 84.8822 94.9529C85.1973 95.2102 85.452 95.5336 85.6282 95.9002C85.8057 96.2546 85.9108 96.6407 85.9373 97.0361C85.7586 96.703 85.5619 96.3798 85.348 96.068C85.1433 95.7707 84.8971 95.5042 84.617 95.2765C84.3405 95.0467 84.0315 94.8591 83.7 94.7198C83.3565 94.5704 82.9932 94.4715 82.6213 94.4261Z" fill="#B2B7DC"/>
<path d="M26.0754 18.6794C27.9171 21.2812 29.5226 24.0425 30.8727 26.9302C31.5705 28.3621 32.1404 29.8668 32.7335 31.3289C33.3441 32.7911 34.0145 34.2294 34.7289 35.6445C36.1032 38.5005 37.7383 41.2235 39.6134 43.7787C40.0817 44.4081 40.6135 44.9877 41.2003 45.5084C41.3573 45.6247 41.4984 45.741 41.6687 45.8573C41.8339 45.9736 42.0057 46.0832 42.1581 46.2155C42.4735 46.4651 42.7712 46.7362 43.0492 47.0269C44.1398 48.1943 45.0712 49.5008 45.8191 50.9125C45.0059 49.5496 44.0265 48.293 42.9035 47.1714C42.6241 46.8952 42.3266 46.6378 42.013 46.401C41.7027 46.1628 41.3681 45.9707 41.0349 45.7154C40.4182 45.1958 39.857 44.6137 39.3602 43.9785C38.3701 42.7239 37.4674 41.4027 36.6586 40.0243C35.8366 38.6578 35.0723 37.2561 34.3532 35.8326C33.6459 34.4033 32.9838 32.9513 32.3799 31.4746L31.5077 29.2541C31.2074 28.5209 30.9027 27.7891 30.5805 27.0648C29.9368 25.6154 29.2326 24.1919 28.4793 22.7946C27.7324 21.3928 26.9311 20.0211 26.0754 18.6794Z" fill="#B2B7DC"/>
<path d="M24.2614 27.0515C25.1443 27.1844 26.0131 27.3985 26.8566 27.6912C27.7082 27.9722 28.5323 28.3305 29.3187 28.7614C30.1141 29.1874 30.8506 29.7152 31.5097 30.3314C31.6739 30.4867 31.8292 30.651 31.9749 30.8237L32.2008 31.0749L32.3971 31.3511C32.6543 31.7185 32.8689 32.1139 33.0367 32.5298C32.9062 32.3475 32.7797 32.1655 32.6588 31.9826C32.5309 31.8041 32.3897 31.6355 32.2363 31.4784L32.0238 31.2304L31.7839 31.0065C31.6297 30.8526 31.467 30.7076 31.2963 30.5722C30.6161 30.0245 29.8867 29.541 29.1175 29.1277C28.3473 28.706 27.5548 28.3264 26.7435 27.9906C26.3397 27.8144 25.9277 27.6557 25.5128 27.5036C25.1014 27.3402 24.6818 27.1981 24.2614 27.0515Z" fill="#B2B7DC"/>
<path d="M25.3082 34.0984C26.2645 33.9361 27.2352 33.8749 28.2043 33.9161C29.1801 33.9431 30.1499 34.0796 31.0952 34.3232C32.0519 34.5607 32.958 34.9685 33.7701 35.5272C34.1718 35.8129 34.5369 36.1467 34.8575 36.5212C35.1636 36.9015 35.4136 37.3237 35.5997 37.7749C35.0967 36.966 34.4092 36.2878 33.5936 35.7958C32.7814 35.3152 31.9037 34.9554 30.9879 34.7276C30.067 34.49 29.1289 34.3247 28.1822 34.2333C27.7074 34.181 27.2297 34.1493 26.7508 34.131C26.2714 34.1028 25.7914 34.0993 25.3082 34.0984Z" fill="#B2B7DC"/>
<path d="M29.2849 42.4008C29.8338 41.8115 30.4817 41.3229 31.1992 40.9572C31.9228 40.5794 32.7105 40.34 33.522 40.2513C33.9301 40.2132 34.3409 40.2122 34.7492 40.2484C35.1543 40.3037 35.5526 40.4012 35.9375 40.5391C36.1314 40.5995 36.3202 40.6756 36.5018 40.7665L37.0325 41.0601C37.2055 41.1619 37.3694 41.2787 37.5221 41.409C37.6811 41.5308 37.8364 41.6564 37.9873 41.7838C37.3164 41.3782 36.5944 41.0641 35.8404 40.8496C35.1023 40.6328 34.3275 40.57 33.5641 40.665C32.7968 40.7477 32.0462 40.9446 31.337 41.2491C30.6135 41.5579 29.9255 41.9441 29.2849 42.4008Z" fill="#B2B7DC"/>
<path d="M34.378 21.7491C34.214 22.2 34.0483 22.6466 33.9157 23.1051C33.7671 23.5572 33.6357 24.0143 33.5171 24.4737C33.2791 25.3899 33.0917 26.3185 32.9557 27.2552C32.8188 28.1898 32.7531 29.1334 32.7591 30.0778L32.7754 30.7875C32.7885 31.0236 32.8219 31.258 32.8423 31.4943C32.8554 31.9732 32.9841 32.432 33.0362 32.912C32.7079 32.004 32.5064 31.0549 32.4375 30.0918C32.3652 29.1258 32.4 28.1548 32.5413 27.1965C32.6799 26.2404 32.9037 25.2986 33.2101 24.3824C33.507 23.4665 33.8984 22.584 34.378 21.7491Z" fill="#B2B7DC"/>
<path d="M39.1224 29.2839C38.9107 29.6735 38.6973 30.0576 38.5118 30.4577C38.3131 30.8492 38.129 31.2466 37.9594 31.6497C37.6155 32.4514 37.3168 33.2717 37.0648 34.1069C36.8152 34.94 36.6322 35.7917 36.5176 36.6538L36.4469 37.3039C36.4263 37.5211 36.4338 37.74 36.424 37.9575C36.3789 38.3971 36.4481 38.8297 36.4423 39.2772C36.2278 38.4106 36.145 37.5166 36.1969 36.6253C36.2489 35.7309 36.4056 34.8458 36.6638 33.9879C36.9212 33.1331 37.258 32.3043 37.6698 31.5122C38.0726 30.7195 38.5596 29.9724 39.1224 29.2839Z" fill="#B2B7DC"/>
<path d="M41.1457 37.7758C40.8314 38.3609 40.5516 38.9639 40.3074 39.5816C40.0864 40.1925 39.9614 40.8339 39.9367 41.4831C39.9226 41.8061 39.9323 42.1297 39.9658 42.4513L40.0239 42.9356L40.1295 43.4136C40.1586 43.5753 40.2007 43.7344 40.2554 43.8893L40.4008 44.3635C40.5028 44.6798 40.6491 44.979 40.7566 45.3023C40.5665 45.0258 40.3813 44.7406 40.2126 44.4452C40.0546 44.1423 39.9214 43.8271 39.8143 43.5026C39.5884 42.8476 39.4881 42.1558 39.5189 41.4636C39.5475 40.7697 39.7132 40.0884 40.0065 39.4589C40.1518 39.1486 40.3236 38.8514 40.52 38.5707C40.7121 38.2895 40.9497 38.0432 41.1457 37.7758Z" fill="#B2B7DC"/>
<path d="M48.6807 53.4242C49.9108 50.3564 51.3478 47.3757 52.9817 44.5026C54.5959 41.6107 56.4424 38.8548 58.503 36.262C59.5422 34.9682 60.6854 33.7651 61.7934 32.55C62.9015 31.335 63.9906 30.0918 65.0864 28.8599C66.175 27.6213 67.2472 26.3685 68.303 25.1014C69.3679 23.8415 70.4087 22.5616 71.4256 21.2618C69.527 23.9657 67.4516 26.5383 65.3306 29.0698C64.2715 30.3372 63.1753 31.5728 62.076 32.8053C60.9712 34.0366 59.8474 35.2383 58.8281 36.5251C56.7681 39.0926 54.9064 41.813 53.2591 44.6628C52.4152 46.0778 51.6158 47.5184 50.861 48.9845C50.0923 50.4419 49.3655 51.9218 48.6807 53.4242Z" fill="#B2B7DC"/>
<path d="M59.4261 23.8421C59.8519 24.5144 60.2274 25.2172 60.5496 25.9448C60.8793 26.6708 61.161 27.4177 61.3928 28.1806C61.6329 28.9451 61.7978 29.7313 61.8853 30.5278C61.9916 31.3253 61.9368 32.136 61.7242 32.912C61.7741 32.1289 61.7194 31.3427 61.5617 30.5741C61.4176 29.8058 61.2274 29.047 60.9921 28.3016C60.7714 27.55 60.5135 26.8077 60.2484 26.0666C59.9762 25.3275 59.7085 24.5847 59.4261 23.8421Z" fill="#B2B7DC"/>
<path d="M62.9151 21.7491C63.5857 22.8896 64.1265 24.1016 64.5273 25.3625C64.731 25.9948 64.8877 26.6414 64.9963 27.2968C65.1299 27.9551 65.1086 28.6354 64.934 29.2841C64.9294 29.1157 64.9471 28.9553 64.934 28.7933C64.9131 28.6308 64.9067 28.4703 64.8744 28.311C64.8233 27.9911 64.752 27.676 64.675 27.3608C64.5106 26.7336 64.3283 26.1099 64.1281 25.4898C63.7315 24.2472 63.2954 23.0165 62.9151 21.7491Z" fill="#B2B7DC"/>
<path d="M55.5182 27.0515C56.1447 27.7794 56.6816 28.5798 57.1173 29.4356C57.5658 30.292 57.9144 31.197 58.1564 32.1329C58.3861 33.0781 58.469 34.0531 58.4024 35.0235C58.3158 35.9877 58.034 36.9242 57.5741 37.776C57.7252 37.3266 57.8436 36.8668 57.9282 36.4002C57.9785 36.1714 58.0157 35.9398 58.0395 35.7068L58.0808 35.0063C58.0803 34.0721 57.9693 33.1411 57.75 32.2329C57.5142 31.3234 57.206 30.4343 56.8283 29.574C56.6442 29.1399 56.4372 28.714 56.2131 28.2971C56.0043 27.872 55.7627 27.4615 55.5182 27.0515Z" fill="#B2B7DC"/>
<path d="M52.1691 30.889C52.7592 31.722 53.2802 32.602 53.7269 33.5199C54.1781 34.4412 54.547 35.4005 54.8294 36.3867C55.1134 37.382 55.2601 38.4113 55.2655 39.4462C55.2567 40.4953 55.0326 41.5314 54.607 42.4904L54.3401 42.2112C55.2272 41.876 56.149 41.6404 57.0882 41.5091C58.0233 41.3695 58.9723 41.3475 59.9128 41.4437C60.8533 41.5344 61.774 41.7698 62.6427 42.1415L63.2823 42.4401L63.8821 42.8082C63.9807 42.8712 64.0839 42.9274 64.1787 42.9954L64.4528 43.2146L64.9951 43.656C64.2568 43.0952 63.4398 42.6464 62.5705 42.3241C61.7097 42.0003 60.805 41.808 59.887 41.7536C58.9712 41.6984 58.0522 41.7408 57.1455 41.8801C56.2415 42.0188 55.3556 42.2568 54.5038 42.5898L54.0278 42.7802L54.2366 42.3107C54.636 41.4047 54.855 40.4296 54.8814 39.4398C54.8816 38.4383 54.7569 37.4406 54.5102 36.4699C54.2701 35.4888 53.9438 34.5309 53.5353 33.6072C53.1422 32.6711 52.6857 31.7629 52.1691 30.889Z" fill="#B2B7DC"/>
<path d="M52.1691 46.2651C53.0593 46.0525 53.9655 45.9134 54.8785 45.8491C55.7931 45.7769 56.7114 45.7671 57.6273 45.82C58.5453 45.8793 59.4568 46.0155 60.3521 46.227C61.2449 46.445 62.1059 46.7773 62.9136 47.2156C62.4711 47.0914 62.0527 46.9208 61.6053 46.8329C61.1729 46.7036 60.7258 46.6294 60.285 46.5422C59.3941 46.4035 58.501 46.2927 57.6008 46.2384C56.7007 46.184 55.7982 46.1703 54.8922 46.1712C54.4392 46.1712 53.9859 46.1834 53.533 46.2049C53.0785 46.2093 52.6258 46.2421 52.1691 46.2651Z" fill="#B2B7DC"/>
<path d="M57.9581 37.2727C59.6178 36.9618 61.3199 36.9535 62.9825 37.2483C63.8224 37.3914 64.6366 37.6575 65.3989 38.0379C66.1647 38.4141 66.8221 38.9792 67.3091 39.6798C66.7178 39.1052 66.0226 38.6484 65.2605 38.3336C64.5031 38.0219 63.7131 37.7959 62.9055 37.6597C62.0946 37.5086 61.2752 37.4081 60.4519 37.3587C59.6267 37.3076 58.7958 37.2692 57.9581 37.2727Z" fill="#B2B7DC"/>
<path d="M60.4728 34.2809C61.271 34.0125 62.0939 33.8243 62.9294 33.7192C63.7688 33.6052 64.6177 33.5765 65.4629 33.6337C66.3188 33.6858 67.1591 33.8857 67.9468 34.2245C68.7426 34.5577 69.403 35.149 69.8218 35.9033C69.293 35.271 68.6017 34.7951 67.8224 34.5266C67.0508 34.2592 66.2461 34.0991 65.431 34.0506C64.6082 33.9937 63.7827 33.9912 62.9596 34.0431C62.1321 34.0939 61.3026 34.1678 60.4728 34.2809Z" fill="#B2B7DC"/>
<path d="M64.1944 30.1344C64.7156 29.8581 65.2958 29.7118 65.8857 29.7078C66.4742 29.684 67.0634 29.7334 67.6397 29.8547C68.212 29.9825 68.7692 30.1701 69.3022 30.4143C69.5718 30.526 69.8215 30.681 70.0771 30.8176C70.3216 30.9764 70.5655 31.134 70.7976 31.3075C70.2524 31.104 69.7218 30.8976 69.1822 30.7182C68.6473 30.5379 68.1032 30.3862 67.5522 30.2638C67.0027 30.1465 66.4455 30.0695 65.8848 30.0332C65.3194 29.9826 64.7497 30.0167 64.1944 30.1344Z" fill="#B2B7DC"/>
<path d="M67.3092 20.6325C67.3118 20.7425 67.3434 20.8498 67.4008 20.9436L67.5354 21.2489C67.6226 21.4547 67.7098 21.6623 67.7796 21.8763C67.9166 22.3068 68.0169 22.7481 68.0794 23.1954C68.1399 23.6443 68.1628 24.0974 68.1477 24.55C68.1323 25.002 68.0888 25.4525 68.0175 25.8991L67.7758 25.6604C68.2577 25.5847 68.7445 25.5449 69.2322 25.5415C69.7195 25.5348 70.2063 25.575 70.6859 25.6616C71.1689 25.7439 71.6379 25.8937 72.0792 26.1067C72.5148 26.3272 72.8895 26.6515 73.1701 27.051C72.837 26.718 72.4354 26.4614 71.9931 26.2992C71.5583 26.1326 71.1022 26.0278 70.6383 25.9881C70.1741 25.9377 69.7068 25.9226 69.2403 25.9427C68.7745 25.9553 68.3099 25.9976 67.8494 26.0695L67.5668 26.1137L67.6078 25.8305L67.7014 25.183C67.7183 24.9661 67.7482 24.7495 67.7596 24.5323C67.7865 24.0974 67.7896 23.6613 67.7689 23.226C67.7423 22.7894 67.6823 22.3555 67.5895 21.9281C67.5494 21.7118 67.4929 21.4986 67.4351 21.2846L67.3438 20.9648C67.3032 20.859 67.2913 20.7444 67.3092 20.6325Z" fill="#B2B7DC"/>
<path d="M81.5418 63.3315C79.3823 65.1858 77.0206 66.7906 74.5013 68.1154C73.239 68.7905 71.9076 69.3278 70.5303 69.718C70.3559 69.7651 70.1863 69.8212 70.011 69.8611L69.4804 69.9634L68.9492 70.0658C68.7698 70.087 68.5884 70.0972 68.4081 70.1132C67.6755 70.1937 66.9919 70.1693 66.2871 70.251C63.4767 70.5121 60.7138 71.1477 58.0718 72.1408C56.7424 72.6169 55.45 73.1902 54.2049 73.8562C52.9484 74.5095 51.7736 75.309 50.7048 76.238C52.7322 74.2319 55.3222 72.886 57.9584 71.8387C60.6163 70.787 63.4081 70.1118 66.2528 69.8326C66.9588 69.7567 67.699 69.7852 68.3776 69.7134C68.5503 69.6994 68.7236 69.6919 68.896 69.6733L69.4104 69.5785L69.9247 69.4843C70.0953 69.4474 70.2625 69.3936 70.4317 69.3491C71.786 68.9692 73.1004 68.4595 74.3568 67.8273C75.6246 67.2015 76.8572 66.5071 78.0493 65.747C79.2478 64.9978 80.4209 64.2002 81.5418 63.3315Z" fill="#B2B7DC"/>
<path d="M75.6118 64.0991C75.6844 64.5209 75.6819 64.9522 75.6045 65.3731C75.5327 65.7979 75.4019 66.2106 75.2158 66.5992C75.1202 66.7929 75.0141 66.9811 74.8977 67.163C74.7744 67.3403 74.6384 67.5084 74.4906 67.6659C74.2015 67.9827 73.8566 68.2436 73.473 68.4356C73.7436 68.1237 73.9982 67.7985 74.2359 67.461C74.4667 67.1319 74.668 66.7831 74.8375 66.4186C75.1848 65.6781 75.4446 64.8997 75.6118 64.0991Z" fill="#B2B7DC"/>
<path d="M71.4256 65.4945C71.5188 65.8649 71.5868 66.2412 71.6291 66.6209C71.6658 67.0096 71.6486 67.4016 71.5779 67.7856C71.5083 68.1795 71.356 68.5542 71.131 68.8849C70.9048 69.2112 70.5878 69.464 70.2192 69.6118C70.4717 69.346 70.684 69.0448 70.8496 68.7177C71 68.3956 71.1068 68.0548 71.1674 67.7045C71.2346 67.3469 71.2802 66.9857 71.3037 66.6226C71.315 66.244 71.3557 65.8668 71.4256 65.4945Z" fill="#B2B7DC"/>
<path d="M69.1929 66.6805C69.1348 66.7654 69.1763 66.8765 69.1798 66.9777C69.1926 67.0818 69.2014 67.1876 69.2072 67.2955C69.2173 67.5148 69.1978 67.7344 69.149 67.9485C69.0449 68.3892 68.8135 68.7895 68.4835 69.0996C68.1614 69.3993 67.7831 69.6323 67.3705 69.7851C66.9709 69.9376 66.55 70.0267 66.1229 70.0491C66.5041 69.8593 66.8789 69.6863 67.2324 69.4892C67.5799 69.3 67.9023 69.0679 68.1919 68.7983C68.475 68.5356 68.6954 68.2126 68.8368 67.8531C68.9084 67.6669 68.9638 67.4747 69.0022 67.2789L69.0633 66.9725C69.0917 66.8765 69.0941 66.7448 69.1929 66.6805Z" fill="#B2B7DC"/>
<path d="M64.4485 68.3649C64.3653 68.6416 64.2401 68.9038 64.0772 69.1424C63.9203 69.3816 63.7401 69.6047 63.5393 69.8085C63.142 70.2277 62.6483 70.5434 62.101 70.7281C62.2839 70.4984 62.479 70.3036 62.6688 70.1024L63.2413 69.5148C63.6306 69.129 64.0057 68.7391 64.4485 68.3649Z" fill="#B2B7DC"/>
<path d="M46.3085 82.8668C45.9044 82.6859 45.5126 82.4789 45.1353 82.2472C44.7498 82.0303 44.3602 81.8219 43.9665 81.6221C43.1844 81.2151 42.3872 80.8371 41.5728 80.5027C39.9518 79.8204 38.2668 79.3015 36.5429 78.9536C35.6831 78.7781 34.8147 78.6479 33.9413 78.5635C33.0664 78.4902 32.1889 78.4684 31.31 78.4788C30.4301 78.495 29.552 78.5655 28.6808 78.6899C27.8045 78.8059 26.9347 78.9658 26.0745 79.1691C27.7625 78.6001 29.5191 78.2598 31.2975 78.1573C33.0827 78.0656 34.8724 78.1954 36.6257 78.5437C38.3728 78.9123 40.0744 79.4708 41.7001 80.2091C42.5084 80.583 43.2965 80.9945 44.0645 81.4436C44.446 81.6719 44.8217 81.9083 45.1917 82.1527L45.7442 82.5214C45.9199 82.6556 46.109 82.7713 46.3085 82.8668Z" fill="#B2B7DC"/>
<path d="M25.7268 82.8673C25.9501 82.1355 26.3157 81.4551 26.8026 80.8649C27.2834 80.2608 27.8656 79.7449 28.5232 79.3402C29.1785 78.9336 29.8981 78.6411 30.6512 78.475C31.023 78.3883 31.4011 78.3311 31.7819 78.3037C32.1616 78.286 32.5425 78.2976 32.9179 78.313C32.5454 78.3927 32.1727 78.4215 31.8098 78.507C31.4476 78.583 31.0895 78.6775 30.737 78.7902L30.2136 78.9646L29.7092 79.183C29.5403 79.2526 29.3762 79.3334 29.2181 79.4249C29.0544 79.5055 28.8959 79.5964 28.7436 79.697C28.1186 80.0795 27.5481 80.5448 27.0477 81.0801C26.5338 81.6177 26.09 82.2182 25.7268 82.8673Z" fill="#B2B7DC"/>
<path d="M29.7048 83.9135C29.6906 83.1943 29.8001 82.4781 30.0284 81.796C30.2515 81.0986 30.6086 80.4515 31.0798 79.891C31.5607 79.3252 32.1878 78.9023 32.8926 78.6684C33.5816 78.4414 34.3145 78.3801 35.0316 78.4896C34.3367 78.5422 33.6547 78.7053 33.0112 78.9728C32.3871 79.2389 31.8339 79.6471 31.3955 80.1649C30.9542 80.6886 30.5958 81.277 30.3329 81.9094C30.0594 82.5556 29.849 83.2268 29.7048 83.9135Z" fill="#B2B7DC"/>
<path d="M34.0901 84.4017C34.1666 84.3601 34.1529 84.2563 34.1625 84.1781C34.1669 84.0938 34.1686 84.0089 34.1686 83.9234L34.1701 83.4079C34.1788 83.0597 34.2164 82.7128 34.2823 82.3708C34.4072 81.6615 34.7246 81.0002 35.1999 80.4591C35.6979 79.9318 36.3476 79.5723 37.059 79.4305C37.7426 79.2875 38.4478 79.2814 39.1337 79.4127C38.4595 79.4446 37.7914 79.5565 37.1436 79.7459C36.5191 79.9261 35.9543 80.2703 35.5078 80.7426C35.077 81.2332 34.7657 81.817 34.5987 82.4481C34.5062 82.7711 34.4309 83.0988 34.373 83.4297L34.2786 83.9339C34.2626 84.0185 34.246 84.1034 34.2248 84.188C34.1963 84.263 34.1812 84.3781 34.0901 84.4017Z" fill="#B2B7DC"/>
<path d="M36.6118 74.076C36.5318 74.4993 36.4644 74.9128 36.4123 75.3242C36.3598 75.7302 36.3372 76.1395 36.3449 76.5488C36.3558 76.9511 36.4149 77.3506 36.5208 77.7388C36.6491 78.1324 36.8307 78.5065 37.0607 78.8506C36.6948 78.6008 36.4029 78.2572 36.2155 77.8557C36.0378 77.4461 35.9397 77.0064 35.9265 76.5601C35.9198 76.1212 35.9759 75.6835 36.0931 75.2605C36.2017 74.8405 36.3768 74.4406 36.6118 74.076Z" fill="#B2B7DC"/>
<path d="M40.5875 75.4014C40.5156 75.7085 40.3583 75.9751 40.3017 76.2716C40.225 76.5547 40.1917 76.8477 40.2031 77.1407C40.2345 77.7182 40.4317 78.2745 40.7709 78.743C40.9337 78.9879 41.1161 79.2191 41.3164 79.4344C41.5266 79.6443 41.7408 79.8536 41.9638 80.0557C42.2014 80.2412 42.4229 80.4503 42.6666 80.6337C42.9102 80.8172 43.1577 80.9977 43.3961 81.1989C43.1108 81.0803 42.837 80.9373 42.5544 80.8053C42.2796 80.6599 42.0237 80.4814 41.7609 80.311C41.5086 80.1235 41.2659 79.9232 41.034 79.7109C40.8087 79.4842 40.6044 79.2376 40.4235 78.9741C40.0414 78.4391 39.8495 77.7914 39.8786 77.1346C39.898 76.8122 39.9768 76.4961 40.1112 76.2024C40.2539 75.9262 40.4129 75.6587 40.5875 75.4014Z" fill="#B2B7DC"/>
<path d="M10.5867 78.2986C11.7869 77.9299 12.9845 77.556 14.1766 77.1647C15.3716 76.7829 16.5651 76.398 17.7528 75.9918C20.1212 75.1777 22.5062 74.3819 24.7781 73.3521C25.9062 72.8506 27.0119 72.222 28.1711 71.7239C29.3221 71.2078 30.5018 70.758 31.7043 70.3769C34.1012 69.6317 36.6179 69.0738 39.1352 69.2619C37.8826 69.2599 36.6336 69.3965 35.411 69.6689C34.1886 69.928 32.9843 70.2663 31.8057 70.6816C30.6285 71.0985 29.4626 71.5489 28.3278 72.0702C27.1846 72.5747 26.1106 73.2041 24.9505 73.7321C23.7954 74.2467 22.6155 74.6866 21.4304 75.1079C20.2453 75.5292 19.0544 75.9308 17.8519 76.2956C15.4477 77.0333 13.0325 77.7252 10.5867 78.2986Z" fill="#B2B7DC"/>
<path d="M13.3078 74.7039C13.7855 75.3345 14.4309 75.8181 15.1703 76.0994C15.2589 76.1349 15.3502 76.163 15.4433 76.1835C15.5347 76.2116 15.6284 76.2316 15.7233 76.2434L16.0091 76.2896C16.106 76.291 16.2034 76.2963 16.3013 76.3033C16.4976 76.3254 16.6944 76.2908 16.8971 76.2937C17.098 76.2794 17.2983 76.2451 17.5106 76.2375C17.3253 76.3358 17.1337 76.4219 16.9372 76.4951C16.7346 76.56 16.5263 76.605 16.315 76.6295C15.8822 76.6844 15.4426 76.638 15.0308 76.494C14.6178 76.3493 14.2455 76.108 13.9448 75.7901C13.6459 75.4863 13.427 75.1131 13.3078 74.7039Z" fill="#B2B7DC"/>
<path d="M16.5171 70.7281C16.7882 71.2409 17.0892 71.7374 17.4184 72.215C17.7385 72.684 18.1038 73.1206 18.509 73.5184C18.9137 73.905 19.3765 74.2258 19.8805 74.4691C20.4072 74.6945 20.9682 74.8296 21.5398 74.8689C20.9487 74.9922 20.3357 74.9594 19.7613 74.7735C19.187 74.5663 18.6622 74.2418 18.2203 73.8205C17.7917 73.3985 17.4283 72.915 17.1422 72.3859C16.8526 71.8675 16.6419 71.3087 16.5171 70.7281Z" fill="#B2B7DC"/>
<path d="M21.8907 67.5538C22.1026 68.1246 22.3396 68.677 22.5832 69.2213C22.8237 69.7624 23.1043 70.2847 23.4229 70.7837C23.7262 71.2825 24.1005 71.7345 24.5342 72.1252C24.9802 72.5134 25.5063 72.7983 26.0751 72.9597C25.4479 72.952 24.8385 72.7502 24.3306 72.382C23.8246 72.0108 23.3959 71.5445 23.0685 71.0091C22.7375 70.4879 22.4723 69.9277 22.2788 69.3413C22.0782 68.7633 21.9479 68.1631 21.8907 67.5538Z" fill="#B2B7DC"/>
<path d="M26.7732 66.2673C27.1047 66.802 27.4968 67.2966 27.9417 67.7414C28.374 68.1824 28.8612 68.5659 29.3914 68.8826C29.9184 69.2043 30.4839 69.4583 31.0745 69.6385C31.6775 69.8216 32.2934 69.959 32.917 70.0497C32.5995 70.0729 32.2773 70.0907 31.9537 70.0825C31.63 70.0664 31.3081 70.0236 30.9914 69.9546C29.6977 69.687 28.5354 68.9825 27.6995 67.9595C27.2817 67.4623 26.9669 66.8872 26.7732 66.2673Z" fill="#B2B7DC"/>
<path d="M14.4938 80.1455C15.0282 79.4221 15.5991 78.7263 16.2042 78.0609C16.8011 77.3942 17.3914 76.738 18.0171 76.0748C17.8416 76.4961 17.6203 76.8969 17.357 77.2697C17.0989 77.6426 16.8184 77.9995 16.5171 78.3385C15.9199 79.0222 15.2403 79.6292 14.4938 80.1455Z" fill="#B2B7DC"/>
<path d="M20.4241 78.1103C20.8637 77.4381 21.3513 76.8327 21.8127 76.2088C22.2934 75.5974 22.7284 74.9515 23.1141 74.2762C23.0778 74.6805 22.9637 75.074 22.7783 75.4351C22.602 75.7966 22.3906 76.1399 22.1471 76.46C21.9064 76.7786 21.6416 77.0784 21.3551 77.3567C21.072 77.6398 20.76 77.8924 20.4241 78.1103Z" fill="#B2B7DC"/>
<path d="M26.4941 76.4632C26.7583 75.4333 27.1554 74.4423 27.6754 73.515C27.935 73.0474 28.2336 72.6025 28.568 72.1851C28.8892 71.7449 29.3335 71.4097 29.8449 71.2216C29.6296 71.3668 29.4394 71.5464 29.2821 71.753C29.1175 71.9502 28.9768 72.1674 28.8308 72.3787C28.5546 72.8149 28.2938 73.2644 28.0406 73.7188C27.5312 74.6282 27.0491 75.5543 26.4941 76.4632Z" fill="#B2B7DC"/>
<path d="M81.5418 76.0748C79.0995 76.7092 76.6445 77.2849 74.1836 77.8384C71.7227 78.392 69.251 78.8968 66.775 79.3846C65.5345 79.6172 64.2901 79.8313 63.0418 80.0269C62.415 80.1141 61.7916 80.2188 61.1575 80.2758C60.5196 80.3485 59.912 80.3874 59.2909 80.4909C58.0538 80.6943 56.8369 81.0064 55.6545 81.4234C54.4612 81.8247 53.2966 82.3071 52.1691 82.8672C54.3595 81.5858 56.7467 80.6756 59.2342 80.1734C59.8538 80.047 60.5045 79.9879 61.1186 79.9158C61.7387 79.8542 62.3606 79.7446 62.9793 79.6507C64.2199 79.4436 65.4582 79.218 66.6942 78.9738C69.1725 78.5214 71.641 78.0111 74.1144 77.525L77.824 76.7894L81.5418 76.0748Z" fill="#B2B7DC"/>
<path d="M64.4485 85.8668C64.0385 85.2178 63.6053 84.5927 63.1581 83.9816C62.7154 83.3736 62.2296 82.7983 61.7044 82.26C61.1953 81.721 60.5998 81.2707 59.9425 80.9278C59.2723 80.5903 58.5064 80.4939 57.7735 80.6548C58.1344 80.4934 58.5247 80.4078 58.92 80.4031C59.3154 80.3985 59.7075 80.4751 60.0721 80.6281C60.8003 80.9365 61.457 81.3918 62.0013 81.9655C62.543 82.5223 63.0216 83.1372 63.4285 83.799C63.8386 84.4514 64.1804 85.1443 64.4485 85.8668Z" fill="#B2B7DC"/>
<path d="M69.7159 85.0994C69.6774 84.6908 69.5995 84.287 69.4833 83.8934C69.4365 83.696 69.3577 83.5076 69.2973 83.316C69.2159 83.1316 69.1432 82.9441 69.0562 82.7635C68.7102 82.0483 68.1904 81.4312 67.5443 80.9688C67.2199 80.7429 66.8692 80.5574 66.5 80.4163C66.1297 80.2649 65.746 80.1489 65.3539 80.0698C64.9605 79.9854 64.5531 79.9631 64.1487 79.8994C63.7417 79.884 63.3308 79.8825 62.9145 79.8546C63.3215 79.788 63.7356 79.7482 64.1513 79.6941C64.5707 79.6898 64.9899 79.7076 65.4074 79.7476C66.2583 79.8507 67.0732 80.1521 67.7865 80.6274C68.4894 81.1314 69.0334 81.8262 69.354 82.6295C69.6711 83.4118 69.7953 84.259 69.7159 85.0994Z" fill="#B2B7DC"/>
<path d="M75.6118 82.8675C75.4562 82.2685 75.2545 81.6824 75.0085 81.1146C74.775 80.5597 74.4616 80.042 74.0781 79.578C73.6934 79.1313 73.2013 78.7899 72.6482 78.5859C72.0663 78.3989 71.4538 78.3253 70.8441 78.3693C71.4555 78.1612 72.1128 78.1279 72.7421 78.2731C73.3844 78.4418 73.9604 78.8013 74.3941 79.3041C74.8071 79.8042 75.1189 80.3798 75.3123 80.9989C75.5127 81.6014 75.6138 82.2325 75.6118 82.8675Z" fill="#B2B7DC"/>
<path d="M79.8924 80.1458C79.5912 79.7902 79.328 79.4189 79.0291 79.0828C78.7414 78.7467 78.421 78.44 78.0726 78.1672C77.732 77.8978 77.3478 77.6887 76.9366 77.5488C76.5082 77.415 76.0602 77.3551 75.6117 77.3717C76.0564 77.1893 76.5447 77.1408 77.0166 77.2322C77.4949 77.3274 77.9441 77.5341 78.3276 77.8355C79.0661 78.434 79.6106 79.2379 79.8924 80.1458Z" fill="#B2B7DC"/>
<path d="M63.8996 76.4634C63.7849 76.8682 63.6188 77.2566 63.4053 77.6192C63.1996 77.9856 62.9619 78.3331 62.695 78.6577C62.4279 78.9858 62.1256 79.2836 61.7937 79.5459C61.4634 79.8135 61.0859 80.017 60.6807 80.1457C60.9932 79.8805 61.2915 79.5991 61.5745 79.3026C61.8533 79.0118 62.1153 78.7031 62.3717 78.3905C62.8907 77.7686 63.3765 77.1176 63.8996 76.4634Z" fill="#B2B7DC"/>
<path d="M70.5184 74.8834C70.6165 75.2827 70.6585 75.6937 70.6431 76.1046C70.6217 76.5266 70.5186 76.9406 70.3396 77.3234C70.1583 77.71 69.8887 78.0486 69.5525 78.3119C69.2282 78.5731 68.849 78.7574 68.4433 78.8512C68.7611 78.618 69.0579 78.3575 69.3304 78.0726C69.5899 77.7987 69.8033 77.4845 69.9622 77.1422C70.1247 76.7982 70.245 76.4357 70.3204 76.0627C70.4079 75.6838 70.4279 75.2887 70.5184 74.8834Z" fill="#B2B7DC"/>
<path d="M77.6348 72.9594C77.5045 73.4554 77.3868 73.9503 77.2135 74.4352C77.0468 74.9257 76.8326 75.3986 76.5739 75.8474C76.3125 76.3055 75.9771 76.7172 75.5813 77.0656C75.1874 77.4236 74.6855 77.6401 74.1548 77.6808C74.6142 77.4902 75.0249 77.1989 75.3568 76.8284C75.6839 76.4628 75.9709 76.0631 76.2128 75.6363C76.4677 75.2121 76.6878 74.7626 76.9105 74.3108C77.1222 73.845 77.3641 73.3936 77.6348 72.9594Z" fill="#B2B7DC"/>
<path d="M57.7724 72.079C59.0633 72.2125 60.3289 72.4108 61.5992 72.5762C62.2333 72.6614 62.8677 72.7434 63.5036 72.8088C64.1401 72.8693 64.7762 72.9336 65.4254 72.9586C64.1423 73.185 62.8303 73.1955 61.5437 72.9897C60.2573 72.8239 58.9927 72.5186 57.7724 72.079Z" fill="#B2B7DC"/>
<path d="M63.8996 70.3517C64.4321 70.4526 64.9587 70.5827 65.4769 70.7414C65.9947 70.8754 66.5117 70.9975 67.0339 71.085C67.5551 71.1768 68.0818 71.2343 68.6106 71.2571C69.1474 71.2755 69.6849 71.2637 70.2204 71.2217C69.7075 71.4246 69.1662 71.5467 68.6158 71.5836C68.0633 71.6211 67.5084 71.5918 66.9629 71.4964C66.4206 71.3996 65.889 71.25 65.3757 71.0498C65.1199 70.9516 64.8701 70.8388 64.6259 70.7172C64.3817 70.5957 64.1499 70.4494 63.8996 70.3517Z" fill="#B2B7DC"/>
<path d="M67.06 56.1455C67.1224 55.505 67.1497 54.8616 67.1417 54.2181C67.1342 53.5782 67.0806 52.9396 66.9812 52.3073C66.897 51.6798 66.7222 51.0678 66.4622 50.4905C66.2164 49.925 65.8243 49.4352 65.3262 49.0716L64.6991 48.6381L65.4504 48.748C66.9829 48.9799 68.501 49.2987 69.9974 49.7028C71.4922 50.1098 72.962 50.6037 74.3993 51.1819C75.8351 51.7668 77.2226 52.4641 78.5488 53.2671C79.8653 54.0825 81.0823 55.0485 82.1753 56.1455C81.0099 55.1426 79.7524 54.2521 78.4195 53.4857C77.0751 52.7488 75.6866 52.0954 74.2618 51.5293C72.8322 50.9731 71.368 50.5117 69.891 50.0977C68.4153 49.681 66.9172 49.3481 65.4039 49.1007L65.5277 48.7774C66.0679 49.1882 66.4846 49.7397 66.7323 50.3716C66.9821 50.9799 67.1423 51.6213 67.208 52.2757C67.2844 52.9208 67.3055 53.5714 67.271 54.2202C67.2457 54.8661 67.1751 55.5094 67.06 56.1455Z" fill="#B2B7DC"/>
<path d="M73.7998 55.4476C73.6693 54.9242 73.521 54.4137 73.3712 53.9089C73.223 53.4076 73.0425 52.9164 72.8307 52.4383C72.4205 51.4896 71.8323 50.6151 70.8444 50.1528C71.3962 50.234 71.9061 50.4939 72.2961 50.8927C72.6872 51.2882 72.9986 51.7553 73.2131 52.2685C73.4328 52.7688 73.592 53.2936 73.6873 53.8316C73.7897 54.3638 73.8275 54.9063 73.7998 55.4476Z" fill="#B2B7DC"/>
<path d="M78.9009 56.4232C79.0423 55.7402 78.9981 55.0317 78.7727 54.3716C78.6526 54.0581 78.4738 53.7704 78.2459 53.5238C78.1301 53.3927 78.0066 53.2687 77.8761 53.1523C77.7435 53.033 77.5961 52.9304 77.4583 52.7987C77.6397 52.8456 77.8172 52.9064 77.9892 52.9807C78.1607 53.0641 78.3221 53.1668 78.4703 53.2869C78.7813 53.5296 79.0205 53.8522 79.1626 54.2202C79.2986 54.5815 79.3459 54.9702 79.3003 55.3536C79.2548 55.7369 79.1178 56.1038 78.9009 56.4232Z" fill="#B2B7DC"/>
<path d="M74.5427 46.5978C74.4825 46.645 74.4369 46.7083 74.4113 46.7804L74.3054 46.9883C74.2342 47.1279 74.1566 47.2663 74.0708 47.4006C73.8933 47.6682 73.6823 47.9119 73.4428 48.1257C72.9568 48.5485 72.3935 48.8732 71.7841 49.082C70.5819 49.4794 69.3047 49.5967 68.0503 49.4248C69.2698 49.2987 70.4738 49.0518 71.6445 48.6877C72.2122 48.4952 72.7487 48.221 73.2372 47.8736C73.4799 47.6957 73.7052 47.4951 73.91 47.2747C74.0161 47.1657 74.1161 47.0494 74.213 46.9284C74.3139 46.8162 74.3909 46.6598 74.5427 46.5978Z" fill="#B2B7DC"/>
<path d="M80.2861 50.1528C80.3383 50.3925 80.3093 50.6428 80.2035 50.8642C80.0933 51.0888 79.9344 51.286 79.7383 51.4414C79.3459 51.7342 78.891 51.9321 78.4093 52.0197C77.4792 52.1821 76.5249 52.1401 75.6126 51.8967C76.0798 51.8365 76.5372 51.8266 76.9908 51.7804C77.4388 51.7477 77.8847 51.6903 78.3264 51.6083C78.7545 51.5325 79.1672 51.3864 79.5476 51.1759C79.7398 51.072 79.906 50.926 80.0339 50.7488C80.1617 50.5717 80.248 50.3679 80.2861 50.1528Z" fill="#B2B7DC"/>
<path d="M18.4017 51.952C20.7277 52.3931 23.0359 52.9211 25.3366 53.4784C27.6373 54.0358 29.9214 54.6621 32.1983 55.3084C34.4678 55.9835 36.7316 56.6851 38.9578 57.4986C41.198 58.2749 43.3753 59.2219 45.4706 60.3314L43.8453 59.6208L42.193 58.9811C41.0855 58.5712 39.9769 58.1644 38.8517 57.8042C36.613 57.0567 34.3553 56.3536 32.0808 55.7108C29.817 55.0322 27.5358 54.4123 25.2549 53.7901L18.4017 51.952Z" fill="#B2B7DC"/>
<path d="M36.192 64.0991C36.4982 63.4411 36.8746 62.8182 37.3148 62.2412C37.749 61.654 38.245 61.1151 38.7941 60.6337C39.3436 60.1411 39.9676 59.7388 40.643 59.4416C41.3194 59.1467 42.0606 59.0319 42.7945 59.1084C42.0912 59.1927 41.4094 59.4057 40.7831 59.7367C40.6317 59.824 40.4799 59.9112 40.327 59.9952L39.8937 60.2929C39.7458 60.386 39.6129 60.5026 39.4739 60.6096C39.3334 60.7154 39.1984 60.8283 39.0695 60.948C38.536 61.4135 38.0342 61.914 37.5672 62.4462C37.0968 62.9812 36.6316 63.5255 36.192 64.0991Z" fill="#B2B7DC"/>
<path d="M40.4305 53.4243C40.4684 54.3481 40.5569 55.2691 40.6956 56.1832C40.7658 56.6294 40.8794 57.0676 41.0349 57.4916C41.1965 57.9202 41.426 58.3201 41.7147 58.6758C41.2979 58.4248 40.9596 58.0623 40.7381 57.6291C40.5135 57.1991 40.3601 56.7355 40.2836 56.2565C40.203 55.7849 40.1754 55.3058 40.2014 54.828C40.2186 54.3524 40.2956 53.8808 40.4305 53.4243Z" fill="#B2B7DC"/>
<path d="M37.0607 57.0219C35.876 57.0745 34.727 57.4439 33.7334 58.0915C33.2363 58.4089 32.7659 58.7665 32.3271 59.1606C32.1046 59.3581 31.8842 59.5604 31.6659 59.7674L31.3319 60.075C31.2173 60.1666 31.115 60.3093 30.9594 60.3314C31.0321 60.3195 31.0684 60.2375 31.1153 60.1837L31.2487 60.0014L31.513 59.6307C31.6961 59.3863 31.8916 59.1515 32.0989 58.9271C32.5152 58.4705 32.9898 58.0706 33.5104 57.7377C34.0358 57.4007 34.6165 57.1592 35.2258 57.0242C35.83 56.8895 36.4563 56.8887 37.0607 57.0219Z" fill="#B2B7DC"/>
<path d="M24.2614 57.7498C24.4647 57.2184 24.7518 56.723 25.1118 56.2824C25.4718 55.8311 25.9011 55.4398 26.3839 55.1232C26.8802 54.8111 27.4397 54.6134 28.0219 54.5444C28.5966 54.4885 29.176 54.5809 29.7048 54.8127C29.1613 54.7436 28.6102 54.762 28.0725 54.8671C27.5532 54.9867 27.0578 55.1932 26.6072 55.4777C26.1545 55.7733 25.7345 56.1161 25.354 56.5002C24.9629 56.8924 24.5979 57.3099 24.2614 57.7498Z" fill="#B2B7DC"/>
<path d="M24.8604 48.401C25.086 49.1486 25.4112 49.8625 25.8271 50.5235C26.2352 51.1801 26.7086 51.7938 27.2401 52.3552C27.5166 52.6244 27.7806 52.9076 28.0833 53.1498C28.3659 53.4161 28.6822 53.6406 28.9898 53.879C29.2974 54.1174 29.6335 54.3168 29.9528 54.5454C30.281 54.7602 30.6273 54.9451 30.9594 55.1661C30.5881 55.0315 30.22 54.8818 29.8545 54.725C29.4962 54.5507 29.1469 54.3584 28.8078 54.1491C28.1267 53.724 27.4992 53.2186 26.9389 52.6436C26.3855 52.0579 25.9158 51.3984 25.5433 50.6839C25.1644 49.9767 24.9321 49.2002 24.8604 48.401Z" fill="#B2B7DC"/>
<path d="M32.3681 51.7833C33.3447 52.6846 34.2495 53.6385 35.1695 54.5765C35.6236 55.0507 36.0847 55.517 36.5479 55.9808C37.0169 56.4384 37.4754 56.9074 37.9877 57.3298C37.3913 57.0304 36.8341 56.6586 36.3287 56.223C35.8177 55.7986 35.3305 55.3463 34.8694 54.8681C33.9404 53.9208 33.103 52.8879 32.3681 51.7833Z" fill="#B2B7DC"/>
<path d="M20.4241 54.5562C20.3966 54.2503 20.477 53.9444 20.6515 53.6916C20.8264 53.4292 21.0708 53.2205 21.3574 53.0888C21.6383 52.9652 21.9422 52.9022 22.2491 52.9042C22.3974 52.9102 22.5451 52.925 22.6916 52.9484C22.8351 52.9829 22.9762 53.0265 23.1141 53.079C22.9735 53.1118 22.8312 53.1368 22.6879 53.154L22.2808 53.2293C22.0239 53.2825 21.7733 53.3627 21.5333 53.4686C21.0489 53.6919 20.6569 54.0763 20.4241 54.5562Z" fill="#B2B7DC"/>
<g opacity="0.6">
<g opacity="0.6">
<g opacity="0.6">
<path opacity="0.6" d="M37.057 71.8686C37.053 71.877 37.0486 71.8895 37.0402 71.9105C37.031 71.9239 37.0226 71.9378 37.0152 71.9523C36.5421 72.9237 32.1635 81.3376 21.3547 83.9247C20.1114 83.2339 19.2828 82.3968 19.0397 81.3336C21.723 80.2578 34.3484 75.3683 36.9899 71.9523C37 71.9426 37.0085 71.9313 37.0152 71.9189C37.0304 71.9032 37.0444 71.8864 37.057 71.8686Z" fill="#3B4179"/>
</g>
</g>
</g>
<g opacity="0.6">
<g opacity="0.6">
<g opacity="0.6">
<path opacity="0.6" d="M77.7433 70.1146C77.0399 71.5881 74.8841 76.356 70.9322 79.169C66.3277 82.4469 59.4204 82.3797 57.047 81.4714C54.6736 80.5632 53.8404 80.0064 53.003 80.7053C52.8095 80.8647 52.571 80.9598 52.3209 80.9775C52.4034 80.7137 52.5113 80.4586 52.6431 80.2157C53.7357 78.3026 56.0716 77.5658 57.5032 76.0461C57.5139 76.0398 57.5251 76.0342 57.5366 76.0295C58.3028 75.749 70.6729 76.3098 75.9055 69.7494C76.5251 69.8324 77.1389 69.9543 77.7433 70.1146Z" fill="#3B4179"/>
</g>
</g>
</g>
<g opacity="0.6">
<g opacity="0.6">
<g opacity="0.6">
<path opacity="0.6" d="M72.3084 42.5839C67.3564 55.1674 55.748 54.9622 54.4335 54.7528C53.1109 54.5435 53.1109 55.1017 52.621 55.3343C52.1311 55.5669 50.5276 57.9589 49.6196 59.1937C48.7991 60.3157 48.4348 62.5847 48.372 62.9905C48.4183 62.4213 48.7823 58.1557 48.7823 56.9834C48.7823 55.7277 48.0874 54.8194 47.878 55.6565C47.6687 56.4935 46.3417 61.6595 46.3417 61.6595C46.3417 61.6595 45.894 56.3638 45.7977 54.9281C46.1199 55.8294 46.3377 56.565 46.3377 56.565C46.3377 56.565 46.6432 55.2381 46.3377 54.4007C46.1283 53.8271 45.8478 53.2912 45.6009 52.7388C45.4742 52.3705 45.2906 52.0244 45.0566 51.713C45.0641 51.6625 45.0831 51.6143 45.1121 51.5722C45.1411 51.5301 45.1795 51.4952 45.2241 51.4703C45.6662 51.2668 46.0504 50.956 46.3417 50.566C46.7604 50.0764 47.6687 49.101 47.6687 49.101C50.5991 43.7259 47.4094 34.0112 47.4094 34.0112L46.9732 31.8928C47.1282 32.454 47.2622 33.0317 47.3669 33.6135C47.3669 33.6135 47.5175 33.312 47.7687 32.8264L48.0156 33.1236C50.7367 36.3343 51.1556 46.8669 49.8996 49.6589C48.7483 52.2175 49.9959 54.1254 50.9126 54.0544C50.5964 54.2262 50.2641 54.3664 49.9205 54.4731C48.8739 54.7534 49.3638 57.2643 49.3638 57.2643C49.9915 56.9837 52.2227 54.6813 52.2939 53.8567C52.3088 53.7788 52.2938 53.6982 52.252 53.6308C53.0191 53.4708 53.7949 53.3561 54.5754 53.2874C63.3661 52.9359 70.759 42.2611 70.759 42.2611H71.3829C71.2111 42.6391 71.1358 42.8011 71.1064 42.8598C71.262 42.6074 71.7141 42.5406 72.3084 42.5839Z" fill="#3B4179"/>
</g>
</g>
</g>
<g opacity="0.6">
<g opacity="0.6">
<g opacity="0.6">
<path opacity="0.6" d="M45.7977 54.9271C45.873 55.1364 45.9431 55.3342 46.0068 55.5173C43.361 56.7731 30.0325 58.9624 23.0293 47.3543C22.8993 47.1365 22.7697 46.9231 22.6481 46.7181C24.0085 46.0273 25.2771 45.3993 25.4614 45.3993C25.4614 45.3993 24.9924 44.7925 24.331 43.7543C25.3024 44.6501 26.0641 45.4202 26.0641 45.4202C26.1688 45.6296 34.1225 52.3275 37.9946 52.6915C41.5278 53.0224 43.0975 51.9938 44.2195 51.8126C44.7385 52.1851 45.3622 53.7048 45.7977 54.9271Z" fill="#3B4179"/>
</g>
</g>
</g>
<g opacity="0.6">
<g opacity="0.6">
<g opacity="0.6">
<path opacity="0.6" d="M37.5719 66.2634C37.5719 66.2634 32.0084 62.3092 25.6161 63.8147C19.2237 65.3202 17.7133 66.8234 17.7133 66.8234C17.7133 66.8234 28.8061 62.0772 37.5719 66.2634Z" fill="#3B4179"/>
</g>
</g>
</g>
<g opacity="0.6">
<g opacity="0.6">
<g opacity="0.6">
<path opacity="0.6" d="M46.2498 84.5388L45.9009 107.286C45.9009 107.286 42.3428 104.423 41.1583 103.518C40.6939 103.142 40.3071 102.678 40.0194 102.154C40.2287 102.95 40.6434 103.673 40.9992 104.565C41.0452 104.678 41.083 104.779 41.1205 104.875C41.1495 104.867 41.1873 104.854 41.2251 104.841C43.5276 105.679 46.0393 109.936 46.0393 109.936L45.5535 123.261H49.1788C49.0785 122.926 48.982 121.096 48.9026 118.924C48.3942 118.198 47.9449 117.432 47.5588 116.634C45.9053 112.866 47.3326 110.564 47.5338 107.737C47.735 104.91 46.8095 99.4693 46.3908 95.0737C45.9722 90.6782 46.9142 89.0038 47.4375 86.7002C47.9149 84.5946 46.4664 79.8601 46.3786 78.5625C46.3368 79.8935 46.274 81.0824 46.3368 81.7479C46.5759 82.6673 46.5458 83.6361 46.2498 84.5388Z" fill="#3B4179"/>
</g>
</g>
</g>
<path d="M68.7301 123.825L67.5787 137.991C67.3591 140.789 66.5624 143.511 65.2388 145.986L64.1293 148.051C63.9258 148.432 63.7275 148.813 63.535 149.202C63.3426 149.591 63.1571 149.981 62.9826 150.374C62.6267 151.165 62.2972 151.969 61.9941 152.785L58.7895 161.496C58.58 162.088 58.1637 162.585 57.6172 162.894C57.3285 163.057 56.9682 163.243 56.5414 163.438C56.4702 163.472 56.3992 163.505 56.3236 163.539C56.2364 163.576 56.1437 163.618 56.0474 163.66C55.9311 163.706 55.8131 163.756 55.6915 163.806C55.5409 163.864 55.386 163.927 55.2264 163.986C55.0923 164.036 54.9583 164.082 54.8161 164.131C54.8018 164.136 54.7878 164.141 54.7742 164.147C54.6318 164.194 54.4855 164.244 54.3381 164.29C54.1747 164.344 54.0032 164.395 53.8314 164.445C53.6595 164.495 53.4798 164.546 53.2955 164.596C53.1501 164.633 52.9943 164.675 52.8353 164.712C52.7222 164.741 52.605 164.766 52.4919 164.791C52.1863 164.858 51.8682 164.926 51.5417 164.984C51.3408 165.017 51.1399 165.051 50.9346 165.085C50.9233 165.084 50.9121 165.086 50.9012 165.089C50.6878 165.122 50.4651 165.151 50.2398 165.176C48.9886 165.328 47.7273 165.38 46.4679 165.331C40.8504 165.54 36.9529 163.799 35.3244 162.89C34.7782 162.581 34.3609 162.087 34.1484 161.496L30.9417 152.785C30.3448 151.157 29.6327 149.573 28.8108 148.046L27.7016 145.982C26.379 143.507 25.5809 140.787 25.3573 137.99L24.2103 123.82C24.1921 123.598 24.2203 123.373 24.293 123.162C24.3657 122.951 24.4814 122.757 24.6329 122.592C24.7843 122.428 24.9681 122.297 25.1728 122.207C25.3774 122.117 25.5984 122.071 25.8219 122.071H67.1156C67.3396 122.071 67.5611 122.117 67.7662 122.207C67.9713 122.298 68.1555 122.429 68.3072 122.594C68.4589 122.759 68.5748 122.953 68.6476 123.165C68.7204 123.377 68.7485 123.602 68.7301 123.825Z" fill="#F4605A"/>
<g opacity="0.8">
<g opacity="0.8">
<g opacity="0.8">
<path opacity="0.8" d="M68.7301 123.825L67.5787 137.991C67.3591 140.789 66.5624 143.511 65.2388 145.986L64.1293 148.051C63.9258 148.432 63.7275 148.813 63.535 149.202C63.3426 149.591 63.1623 149.981 62.9826 150.374C62.6267 151.165 62.2972 151.969 61.9941 152.785L58.7894 161.496C58.58 162.088 58.1637 162.585 57.6172 162.894C57.3284 163.058 56.9682 163.243 56.5414 163.438C56.4702 163.472 56.3992 163.505 56.3236 163.539C56.2364 163.577 56.1436 163.618 56.0474 163.66C55.9311 163.707 55.8131 163.757 55.6915 163.806C55.5409 163.864 55.386 163.927 55.2263 163.986C55.0923 164.036 54.9583 164.082 54.8161 164.131C54.8018 164.136 54.7878 164.141 54.7742 164.148C54.6318 164.194 54.4855 164.244 54.3381 164.29C54.1747 164.344 54.0032 164.395 53.8313 164.445C53.6595 164.495 53.4798 164.546 53.2955 164.596C53.1501 164.633 52.9943 164.675 52.8352 164.712C52.7221 164.741 52.605 164.766 52.4919 164.792C52.1863 164.858 51.8682 164.926 51.5417 164.984C51.3408 165.018 51.1399 165.051 50.9346 165.085C50.9233 165.084 50.9121 165.086 50.9012 165.089C50.6878 165.122 50.4651 165.152 50.2397 165.176C50.5802 164.859 50.8363 164.462 50.9849 164.021L54.1927 154.752C54.7862 153.025 55.4981 151.341 56.3233 149.712L57.4331 147.515C58.7619 144.861 59.5582 141.972 59.7771 139.012L61.0666 122.075H67.1156C67.3392 122.076 67.5603 122.122 67.765 122.212C67.9698 122.302 68.1537 122.433 68.3054 122.597C68.457 122.762 68.573 122.955 68.6461 123.167C68.7192 123.378 68.7478 123.602 68.7301 123.825Z" fill="#CC4242"/>
</g>
</g>
</g>
</svg>
