<svg width="609" height="132" viewBox="0 0 609 132" fill="none" xmlns="http://www.w3.org/2000/svg">
<path fill-rule="evenodd" clip-rule="evenodd" d="M253.997 22.1634C256.963 22.1634 258.041 18.6129 259.726 16.6646C260.932 15.2705 262.989 15.6862 263.598 13.7346C265.129 8.82715 261.031 5.37317 255.684 5.37317C250.337 5.37317 246.732 8.40241 245.953 12.9562C245.175 17.5099 248.65 22.1634 253.997 22.1634Z" fill="#191847"/>
<path fill-rule="evenodd" clip-rule="evenodd" d="M257.354 21.5244C259.034 22.5371 260.685 23.0264 261.46 22.8266C263.403 22.3257 263.582 15.2165 262.078 12.4138C260.574 9.6111 252.844 8.38951 252.455 13.9425C252.319 15.8699 253.129 17.5899 254.325 18.9935L252.181 28.9858H258.408L257.354 21.5244Z" fill="#B28B67"/>
<path fill-rule="evenodd" clip-rule="evenodd" d="M252.86 10.0437C248.09 14.7144 252.878 19.6787 254.19 19.6787C254.275 19.0048 254.533 18.3492 254.912 17.7253C254.71 17.4649 254.591 17.141 254.591 16.79C254.591 15.9302 255.307 15.2331 256.189 15.2331C256.464 15.2331 256.724 15.3012 256.95 15.4209C258.862 13.79 261.261 12.6531 262.452 12.4295C264.523 12.0407 257.63 5.37308 252.86 10.0437Z" fill="#191847"/>
<path fill-rule="evenodd" clip-rule="evenodd" d="M250.105 50.5229L259.869 82.4454L264.599 109.593H268.308L263.31 50.5229H250.105Z" fill="#997659"/>
<path fill-rule="evenodd" clip-rule="evenodd" d="M246.612 50.5229C247.275 68.0501 246.494 77.0909 246.346 78.6833C246.198 80.2757 244.165 90.601 239.353 110.128L243.305 108.771C250.91 90.8616 253.501 81.5539 254.373 79.2023C255.246 76.8506 257.562 67.2908 261.323 50.5229H246.612Z" fill="#B28B67"/>
<path fill-rule="evenodd" clip-rule="evenodd" d="M240.168 108.49C239.853 108.354 239.481 108.493 239.365 108.816C239.18 109.335 238.947 110.069 238.947 110.49C238.947 111.192 239.181 112.539 239.181 112.539C239.995 112.539 253.816 112.539 253.816 112.539C253.816 112.539 254.387 110.653 253.158 110.503C251.928 110.352 251.116 110.231 251.116 110.231L244.344 107.212C244.194 107.145 244.018 107.216 243.955 107.368L243.53 108.397C243.53 108.397 242.393 108.928 241.681 108.928C241.268 108.928 240.63 108.69 240.168 108.49Z" fill="#E4E4E4"/>
<path fill-rule="evenodd" clip-rule="evenodd" d="M264.559 108.49C264.245 108.354 263.872 108.493 263.756 108.816C263.571 109.335 263.338 110.069 263.338 110.49C263.338 111.192 263.572 112.539 263.572 112.539C264.386 112.539 278.207 112.539 278.207 112.539C278.207 112.539 278.778 110.653 277.549 110.503C276.32 110.352 275.507 110.231 275.507 110.231L268.736 107.212C268.585 107.145 268.409 107.216 268.346 107.368L267.922 108.397C267.922 108.397 266.784 108.928 266.072 108.928C265.659 108.928 265.022 108.69 264.559 108.49Z" fill="#E4E4E4"/>
<path fill-rule="evenodd" clip-rule="evenodd" d="M248.807 50.5229L252.959 66.7871H265.64L263.749 50.5229H248.807Z" fill="#69A1AC"/>
<path fill-rule="evenodd" clip-rule="evenodd" d="M246.472 50.5229C244.423 56.6651 245.694 66.7871 245.694 66.7871H258.634L262.192 50.5229H246.472Z" fill="#89C5CC"/>
<path fill-rule="evenodd" clip-rule="evenodd" d="M280.301 53.5738L272.951 46.4031L270.509 50.6274L278.153 55.1339C280.069 58.153 281.195 59.4575 281.53 59.0474C281.812 58.7016 281.683 58.3226 281.564 57.9735C281.471 57.7015 281.384 57.4477 281.503 57.2419C281.775 56.7718 283.309 57.041 284.755 57.3587C286.2 57.6764 285.866 56.9664 285.558 56.5959C284.192 55.4935 282.44 54.4861 280.301 53.5738ZM236.975 63.9919C237.735 62.4492 240.324 47.4141 240.324 47.4141L245.747 47.4354C245.747 47.4354 240.725 63.6479 240.324 64.6399C239.805 65.9285 240.688 67.8008 241.287 69.0704C241.379 69.2668 241.465 69.4488 241.538 69.6119C240.707 69.9838 240.308 69.5343 239.887 69.0605C239.412 68.5252 238.909 67.9589 237.724 68.5098C237.267 68.7226 236.834 68.9742 236.411 69.2201C234.95 70.0692 233.608 70.8493 231.783 69.7228C231.493 69.5442 231.176 68.8718 231.942 68.3463C233.852 67.0372 236.603 64.746 236.975 63.9919Z" fill="#B28B67"/>
<path fill-rule="evenodd" clip-rule="evenodd" d="M255.734 24.6609L257.978 24.2761C261.841 33.9262 268.586 42.6946 278.211 50.5812L270.938 59.4182C261.313 48.1887 255.38 36.6029 255.734 24.6609Z" fill="#191847"/>
<path fill-rule="evenodd" clip-rule="evenodd" d="M245.953 52.858H265.933C265.933 52.858 258.99 35.9756 258.99 24.1752L252.963 23.2772C248.226 30.8951 246.889 40.2743 245.953 52.858Z" fill="#DDE3E9"/>
<path fill-rule="evenodd" clip-rule="evenodd" d="M252.835 23.2814L252.83 23.2772C252.83 23.2772 239.056 36.7692 236.871 61.4209H246.61C246.531 60.335 246.481 59.2624 246.459 58.2048H259.537C259.537 58.2048 257.069 35.138 256.838 27.5266L255.382 23.3647C255.382 23.3647 253.937 23.3014 253.231 23.2771H252.838C252.837 23.2785 252.836 23.28 252.835 23.2814Z" fill="#2F3676"/>
<path fill-rule="evenodd" clip-rule="evenodd" d="M246.461 58.3073C246.357 53.7015 246.766 49.3769 247.447 45.4633C247.804 50.1072 248.549 55.6952 250.105 58.3073H246.461Z" fill="black" fill-opacity="0.1"/>
<path fill-rule="evenodd" clip-rule="evenodd" d="M249.355 50.2631L255.813 47.2607V50.2631H249.355Z" fill="white" fill-opacity="0.2"/>
<path fill-rule="evenodd" clip-rule="evenodd" d="M351.838 40.4664C350.158 41.479 348.507 41.9683 347.732 41.7686C345.789 41.2677 345.61 34.1584 347.114 31.3557C348.617 28.5531 356.347 27.3315 356.737 32.8845C356.872 34.8119 356.063 36.5319 354.867 37.9354L357.011 47.9279H350.783L351.838 40.4664Z" fill="#915B3C"/>
<path fill-rule="evenodd" clip-rule="evenodd" d="M355.346 39.185C356.127 35.7077 358.354 33.3374 358.014 31.7831C357.674 30.2289 356.201 29.8501 356.201 29.8501C356.201 29.8501 355.439 26.7688 351.288 27.2289C347.137 27.689 344.603 29.4131 345.697 33.2067C346.703 33.2067 347.917 32.8429 349.596 33.4662C350.395 33.7628 350.739 35.3059 350.739 35.3059H351.498C351.498 35.3059 352.603 33.4747 353.676 33.96C354.75 34.4454 354.165 36.318 354.165 36.318L354.538 39.185H355.346Z" fill="#191847"/>
<path fill-rule="evenodd" clip-rule="evenodd" d="M373.866 80.363C376.452 80.363 378.548 82.4593 378.548 85.0452V107.856C378.548 110.442 376.452 112.539 373.866 112.539H345.086C342.501 112.539 340.404 110.442 340.404 107.856V85.0452C340.404 82.4593 342.501 80.363 345.086 80.363H373.866ZM370.112 87.6287C370.758 87.6287 371.282 88.1528 371.282 88.7993V104.103C371.282 104.749 370.758 105.273 370.112 105.273H348.84C348.194 105.273 347.67 104.749 347.67 104.103V88.7993C347.67 88.1528 348.194 87.6287 348.84 87.6287H370.112Z" fill="#C5CFD6"/>
<path fill-rule="evenodd" clip-rule="evenodd" d="M314.674 111.241C319.79 104.994 323.252 100.362 325.059 97.3468C328.153 92.1834 330.686 87.5889 331.485 85.8338C333.391 81.6486 327.098 79.6888 325.673 81.641C323.517 84.5956 318.914 93.8929 311.861 109.533L314.674 111.241Z" fill="#B28B67"/>
<path fill-rule="evenodd" clip-rule="evenodd" d="M325.158 109.425L334.679 85.4583C336.715 81.0894 326.881 78.2176 325.385 80.2508C321.987 84.8668 313.911 103.076 312.899 104.452L325.158 109.425Z" fill="#2F3676"/>
<path fill-rule="evenodd" clip-rule="evenodd" d="M350.515 104.618C348.661 101.913 341.915 92.8114 338.24 89.0454C337.185 87.9633 336.154 86.9246 335.18 85.9567C332.284 83.0797 326.516 87.9153 329.407 90.5358C336.607 97.0618 347.112 105.872 347.989 106.657C349.219 107.758 351.681 106.319 350.515 104.618Z" fill="#915B3C"/>
<path fill-rule="evenodd" clip-rule="evenodd" d="M349.271 103.563C349.475 103.288 349.868 103.222 350.129 103.444C350.549 103.801 351.118 104.32 351.328 104.685C351.679 105.293 352.15 106.576 352.15 106.576C351.445 106.983 339.476 113.894 339.476 113.894C339.476 113.894 338.039 112.546 339.028 111.801C340.017 111.056 340.661 110.545 340.661 110.545L345.015 104.545C345.112 104.411 345.3 104.384 345.431 104.485L346.313 105.164C346.313 105.164 347.563 105.055 348.18 104.699C348.537 104.493 348.97 103.967 349.271 103.563Z" fill="#E4E4E4"/>
<path fill-rule="evenodd" clip-rule="evenodd" d="M316.09 110.046C316.404 109.91 316.777 110.05 316.892 110.372C317.078 110.891 317.31 111.625 317.31 112.047C317.31 112.749 317.077 114.095 317.077 114.095C316.262 114.095 302.441 114.095 302.441 114.095C302.441 114.095 301.871 112.209 303.1 112.059C304.329 111.909 305.142 111.787 305.142 111.787L311.913 108.769C312.064 108.702 312.24 108.772 312.303 108.925L312.727 109.954C312.727 109.954 313.865 110.485 314.576 110.485C314.989 110.485 315.627 110.246 316.09 110.046Z" fill="#E4E4E4"/>
<path fill-rule="evenodd" clip-rule="evenodd" d="M338.105 86.6553C338.105 86.6553 349.975 84.7215 354.006 84.0107C361.667 82.6599 363.901 78.5375 362.58 69.5431L348.465 69.5431C345.663 70.3522 325.051 79.5511 325.051 79.5511C322.579 80.7784 323.04 84.3971 323.491 85.5893C323.519 85.6623 335.995 107.015 335.995 107.015L347.541 99.6593L338.083 87.522C338.083 87.522 337.708 86.7674 338.105 86.6553Z" fill="#5C63AB"/>
<path fill-rule="evenodd" clip-rule="evenodd" d="M328.811 72.2245L337.088 66.1465L338.917 70.6695L330.721 74.0684C328.403 76.7914 327.107 77.9265 326.832 77.4738C326.601 77.0921 326.782 76.7348 326.948 76.4056C327.078 76.1493 327.199 75.91 327.11 75.6896C326.906 75.1863 325.349 75.2393 323.874 75.3528C322.398 75.4662 322.828 74.8097 323.184 74.4855C324.69 73.5839 326.566 72.8303 328.811 72.2245ZM372.217 82.9341C371.457 81.3915 368.867 66.3563 368.867 66.3563L363.445 66.3776C363.445 66.3776 368.467 82.5901 368.867 83.5821C369.387 84.8708 368.504 86.7431 367.905 88.0126C367.812 88.209 367.726 88.391 367.654 88.5542C368.485 88.926 368.884 88.4766 369.305 88.0027C369.78 87.4675 370.283 86.9011 371.467 87.452C371.925 87.6648 372.358 87.9164 372.78 88.1623C374.241 89.0114 375.583 89.7915 377.409 88.665C377.698 88.4864 378.016 87.814 377.249 87.2886C375.34 85.9795 372.589 83.6883 372.217 82.9341Z" fill="#915B3C"/>
<path fill-rule="evenodd" clip-rule="evenodd" d="M353.457 43.603L351.214 43.2181C342.889 50.4098 339.469 64.2257 329.265 71.5446L331.721 74.589C349.424 72.3972 353.812 55.545 353.457 43.603Z" fill="#E87613"/>
<path fill-rule="evenodd" clip-rule="evenodd" d="M363.239 71.8002C363.239 71.8002 349.744 71.8002 343.385 71.8002C342.478 71.8002 342.649 70.4903 342.78 69.8293C344.294 62.2004 350.202 53.9769 350.202 43.1174L355.928 42.2194C360.665 49.8374 362.303 59.2166 363.239 71.8002Z" fill="#DDE3E9"/>
<path fill-rule="evenodd" clip-rule="evenodd" d="M365.471 77.2493C366.363 79.3919 367.238 81.2615 368.063 82.6976H372.32C372.778 67.8867 367.171 56.49 362.478 49.6179C363.52 49.5433 364.461 49.1073 365.055 48.0347C367.148 44.2579 366.392 42.1785 364.155 41.495C362.925 41.1192 361.768 41.3757 360.384 41.6828C359.251 41.934 357.965 42.2191 356.362 42.2194C356.362 42.2189 356.361 42.2186 356.361 42.2186L356.36 42.2194C356.36 42.2194 356.36 42.2194 356.36 42.2194C356.205 42.2194 356.063 42.2298 355.935 42.2497L354.034 42.3581C354.034 42.3581 346.319 68.5062 349.779 77.2493H365.471Z" fill="#FF9B21"/>
<path fill-rule="evenodd" clip-rule="evenodd" d="M365.471 77.2495C364.3 74.4378 363.1 71.156 361.944 67.7667C361.514 71.4992 360.798 75.248 359.606 77.2495H365.471Z" fill="black" fill-opacity="0.1"/>
<path fill-rule="evenodd" clip-rule="evenodd" d="M405.81 40.4664C404.13 41.479 402.479 41.9683 401.704 41.7686C399.761 41.2677 399.582 34.1584 401.086 31.3557C402.589 28.5531 410.319 27.3315 410.709 32.8845C410.844 34.8119 410.035 36.5319 408.839 37.9354L410.983 47.9279H404.755L405.81 40.4664Z" fill="#B28B67"/>
<path fill-rule="evenodd" clip-rule="evenodd" d="M403.545 28.3031C404.396 28.0436 405.632 27.9556 406.151 28.0151C405.856 27.3069 405.738 26.5179 405.834 25.7496C405.927 25.003 406.26 24.3674 406.569 23.7013C406.711 23.3943 406.872 23.0889 407.113 22.8541C407.357 22.6149 407.667 22.4569 407.992 22.3816C408.325 22.3045 408.672 22.3109 409.005 22.3809C409.153 22.4118 409.285 22.4792 409.429 22.5166C409.577 22.555 409.649 22.4624 409.756 22.3693C410.015 22.1451 410.395 22.0344 410.722 21.9948C411.089 21.9504 411.47 22.0058 411.821 22.1265C412.162 22.2441 412.489 22.435 412.736 22.7131C412.846 22.8368 412.945 22.9777 413.01 23.1333C413.037 23.1971 413.041 23.235 413.105 23.2583C413.164 23.28 413.233 23.2806 413.293 23.3012C413.881 23.5004 414.384 23.9546 414.658 24.5379C414.817 24.8782 414.893 25.4773 414.872 26.1488C414.852 26.8203 414.245 28.5725 413.678 29.2116C413.172 29.782 412.428 30.1585 411.71 30.3232C412.186 30.868 412.504 31.5488 412.738 32.2412C412.993 32.9932 413.151 33.7747 413.209 34.5709C413.264 35.3274 413.27 36.1274 413.092 36.8677C412.926 37.56 412.571 38.128 411.979 38.4883C411.708 38.6534 411.416 38.7774 411.122 38.8907C410.833 39.0024 410.543 39.111 410.24 39.1736C409.666 39.2922 409.005 39.2718 408.563 38.8152C408.404 38.6507 408.229 38.4438 408.113 38.2427C408.071 38.1704 408.046 38.1231 408.097 38.0525C408.157 37.9678 408.256 37.903 408.334 37.8367C408.779 37.4592 409.055 36.9551 409.124 36.3561C409.195 35.7483 409.032 34.9638 408.441 34.6985C407.711 34.3711 406.908 34.7469 406.26 35.0973C405.984 34.1248 405.418 33.2492 404.531 32.8031C403.55 32.3096 402.424 32.2519 401.416 31.8284C401.153 31.7181 400.885 31.5928 400.692 31.368C400.611 31.2741 400.516 31.1522 400.484 31.0279C400.441 30.8647 400.547 30.7278 400.628 30.6006C401.059 29.9258 402.694 28.5626 403.545 28.3031Z" fill="#191847"/>
<path fill-rule="evenodd" clip-rule="evenodd" d="M382.386 88.8407C382.869 94.1188 382.387 105.464 382.127 108.737C381.964 110.794 379.16 110.255 378.899 108.609C378.854 108.33 378.674 107.35 378.404 105.889C377.083 98.7203 373.624 79.9598 373.618 75.398C373.615 73.3063 378.272 71.6336 380.135 74.1603C381.667 73.0845 383.841 72.7961 385.181 74.969C386.196 76.614 388.607 81.2842 391.179 86.7376C393.431 91.5151 396.951 103.112 396.951 103.112L393.963 104.478C393.963 104.478 386.581 92.6095 381.933 84.2885C382.088 85.7203 382.241 87.2532 382.386 88.8407Z" fill="#B28B67"/>
<path fill-rule="evenodd" clip-rule="evenodd" d="M396.737 98.8187L386.481 74.5214C384.024 70.5688 377.135 75.3257 377.973 77.6181C379.875 82.8227 389.55 99.6721 390.117 101.223L396.737 98.8187Z" fill="#1F28CF"/>
<path fill-rule="evenodd" clip-rule="evenodd" d="M373.358 77.2951C373.358 84.1821 376.377 100.371 376.379 101.887L383.692 101.641C383.692 101.641 381.774 80.5281 382.075 80.385C382.525 80.1704 400.536 82.8778 405.937 83.0822C413.727 83.377 416.949 78.5983 417.211 69.5299L402.122 69.5299C402.122 69.5299 382.77 71.84 376.684 72.7433C374.078 73.13 373.358 75.398 373.358 77.2951Z" fill="#2B44FF"/>
<path fill-rule="evenodd" clip-rule="evenodd" d="M396.53 102.287C396.803 102.079 397.198 102.124 397.388 102.409C397.694 102.868 398.097 103.524 398.199 103.933C398.369 104.614 398.468 105.977 398.468 105.977C397.678 106.174 384.267 109.518 384.267 109.518C384.267 109.518 383.257 107.826 384.414 107.382C385.57 106.939 386.329 106.625 386.329 106.625L392.169 102.058C392.299 101.956 392.487 101.982 392.585 102.115L393.245 103.011C393.245 103.011 394.478 103.25 395.168 103.078C395.569 102.978 396.13 102.593 396.53 102.287Z" fill="#E4E4E4"/>
<path fill-rule="evenodd" clip-rule="evenodd" d="M381.738 104.597C382.053 104.461 382.426 104.601 382.541 104.923C382.727 105.442 382.959 106.176 382.959 106.598C382.959 107.3 382.725 108.646 382.725 108.646C381.911 108.646 368.09 108.646 368.09 108.646C368.09 108.646 367.519 106.76 368.749 106.61C369.978 106.46 370.791 106.338 370.791 106.338L377.562 103.32C377.712 103.253 377.889 103.323 377.951 103.476L378.376 104.505C378.376 104.505 379.514 105.036 380.225 105.036C380.638 105.036 381.276 104.797 381.738 104.597Z" fill="#E4E4E4"/>
<rect width="13.7525" height="1.81637" rx="0.908183" transform="matrix(-1 0 0 1 382.7 108.646)" fill="#2F3676"/>
<path d="M420.584 73.9481C420.584 72.3319 419.274 71.0217 417.657 71.0217H390.556C388.94 71.0217 387.63 72.3319 387.63 73.9481V86.3311H419.413C420.06 86.3311 420.584 85.807 420.584 85.1605V73.9481Z" fill="#2F3676"/>
<path fill-rule="evenodd" clip-rule="evenodd" d="M390.224 71.0217H389.937C388.504 71.0217 387.281 72.0597 387.049 73.474L381.402 107.868H384.175" fill="#2F3676"/>
<path fill-rule="evenodd" clip-rule="evenodd" d="M382.7 113.057C380.12 113.057 378.029 110.966 378.029 108.387C378.029 105.807 380.12 103.716 382.7 103.716C385.279 103.716 387.37 105.807 387.37 108.387C387.37 110.966 385.279 113.057 382.7 113.057Z" fill="#191847"/>
<path fill-rule="evenodd" clip-rule="evenodd" d="M397.49 92.818C397.49 103.709 406.319 112.539 417.211 112.539C428.102 112.539 436.931 103.709 436.931 92.818C436.931 81.9267 428.102 73.0975 417.211 73.0975C406.319 73.0975 397.49 81.9267 397.49 92.818ZM401.123 92.818C401.123 101.703 408.325 108.906 417.211 108.906C426.096 108.906 433.298 101.703 433.298 92.818C433.298 83.9329 426.096 76.7302 417.211 76.7302C408.325 76.7302 401.123 83.9329 401.123 92.818Z" fill="#191847"/>
<rect width="2.07584" height="34.2515" transform="matrix(-1 0 0 1 418.248 75.6923)" fill="#191847"/>
<rect width="2.07585" height="34.2515" rx="0.585276" transform="matrix(-0.707107 0.707107 0.707107 0.707107 405.835 79.9744)" fill="#191847"/>
<rect width="2.07585" height="34.2515" rx="0.585276" transform="matrix(0 1 1 0 400.085 91.78)" fill="#191847"/>
<rect width="2.07585" height="34.2515" rx="0.585276" transform="matrix(0.707107 0.707107 0.707107 -0.707107 404.367 104.194)" fill="#191847"/>
<path fill-rule="evenodd" clip-rule="evenodd" d="M381.049 39.8739L390.885 42.8264L388.373 47.0096L380.726 42.5092C377.157 42.2966 375.47 41.9445 375.666 41.453C375.832 41.0385 376.226 40.9679 376.589 40.9028C376.872 40.8522 377.136 40.8049 377.258 40.601C377.538 40.1356 376.558 38.9239 375.58 37.8138C374.601 36.7036 375.384 36.6519 375.857 36.741C377.484 37.4013 379.214 38.4456 381.049 39.8739ZM383.477 66.2448L391.754 60.1668L393.583 64.6898L385.387 68.0886C383.069 70.8116 381.773 71.9468 381.498 71.494C381.267 71.1123 381.448 70.755 381.614 70.4259C381.744 70.1695 381.865 69.9302 381.776 69.7098C381.572 69.2066 380.015 69.2596 378.54 69.373C377.064 69.4865 377.494 68.8299 377.85 68.5057C379.356 67.6042 381.232 66.8505 383.477 66.2448Z" fill="#B28B67"/>
<path fill-rule="evenodd" clip-rule="evenodd" d="M404.61 43.7987C400.103 52.2031 393.585 58.6457 384.136 65.3431L387.713 69.3772C398.264 65.4565 403.832 63.0909 406.566 55.1504C407.253 53.1575 407.732 46.8045 408.144 43.4619L404.61 43.7987Z" fill="#2026A2"/>
<path fill-rule="evenodd" clip-rule="evenodd" d="M417.211 71.8002H397.23C397.23 71.8002 404.019 51.0958 404.166 43.3797C404.171 43.1175 404.656 42.6553 404.87 42.7159C407.22 43.3797 409.9 42.2194 409.9 42.2194C414.637 49.8374 416.275 59.2166 417.211 71.8002Z" fill="#F2F2F2"/>
<path fill-rule="evenodd" clip-rule="evenodd" d="M404.889 53.8418C401.768 67.2275 401.912 78.1852 408.801 78.1852H419.455C421.147 66.8142 416.7 51.0481 412.577 43.0958C412.42 42.7921 412.085 42.2196 411.295 42.2196H408.2C408.198 42.2237 408.197 42.2277 408.196 42.2318C407.264 42.2394 406.238 42.2735 405.127 42.3103C399.408 42.5002 391.433 42.7649 382.46 39.8842L381.402 45.1707C389.501 50.3797 397.703 54.4148 404.889 53.8418Z" fill="#1F28CF"/>
<path fill-rule="evenodd" clip-rule="evenodd" d="M203.122 21.5244C204.802 22.5371 206.453 23.0264 207.228 22.8266C209.171 22.3257 209.35 15.2165 207.846 12.4138C206.343 9.6111 198.613 8.38951 198.223 13.9425C198.088 15.8699 198.897 17.59 200.093 18.9935L197.949 28.9858H204.177L203.122 21.5244Z" fill="#B28B67"/>
<path fill-rule="evenodd" clip-rule="evenodd" d="M203.433 14.5559C203.972 13.7539 204.489 13.1421 205.162 12.7868C207.9 12.8301 208.22 12.3392 208.22 10.685C207.778 10.3686 206.218 9.83577 204.471 9.68589C203.579 9.43081 202.523 9.47879 201.506 9.90428C200.25 10.2606 199.187 11.0278 198.717 12.4643C197.018 15.3967 198.308 18.4491 200.046 19.4918C200.509 18.9437 200.912 18.4126 201.273 17.9041C200.983 17.6214 200.804 17.2268 200.804 16.7903C200.804 15.9305 201.501 15.2334 202.36 15.2334C202.424 15.2334 202.486 15.2372 202.547 15.2445C202.586 16.3195 202.745 19.9567 203.163 21.2201C203.656 22.7096 206.534 23.0753 207.537 23.0753C208.404 23.0753 208.375 22.2545 208.353 21.6663C208.35 21.5816 208.348 21.5017 208.348 21.4297C208.348 21.2795 208.152 21.2799 207.931 21.2803C207.645 21.2809 207.315 21.2815 207.315 20.9525C207.315 20.5939 207.811 20.3188 208.254 20.0726C208.531 19.919 208.787 19.7767 208.89 19.6324C209.216 19.1771 209.325 18.5629 208.834 18.5629C208.566 18.5629 208.198 18.7176 207.755 18.9036C207.087 19.1845 206.248 19.5369 205.325 19.5369C203.8 19.5369 203.438 14.613 203.433 14.5559Z" fill="#191847"/>
<path fill-rule="evenodd" clip-rule="evenodd" d="M195.873 50.5229L205.281 83.5359L212.145 107.868H217.151L209.857 50.5229H195.873Z" fill="#191847"/>
<path fill-rule="evenodd" clip-rule="evenodd" d="M193.358 50.5229C193.14 67.5382 192.398 76.8188 192.17 78.3647C191.941 79.9106 188.487 89.7451 181.806 107.868H186.992C195.497 90.4822 200.245 80.6477 201.235 78.3647C202.225 76.0817 205.282 66.8011 209.885 50.5229H193.358Z" fill="#2F3676"/>
<path fill-rule="evenodd" clip-rule="evenodd" d="M181.343 112.539L181.602 107.09L187.051 107.09C190.927 109.814 197.171 111.501 197.171 111.501V112.539H187.311L183.937 112.02V112.539H181.343Z" fill="#191847"/>
<path fill-rule="evenodd" clip-rule="evenodd" d="M211.442 112.539L211.702 107.09L217.151 107.09C221.027 109.814 227.271 111.501 227.271 111.501V112.539H217.41L214.037 112.02V112.539H211.442Z" fill="#191847"/>
<path fill-rule="evenodd" clip-rule="evenodd" d="M175.729 59.9376C176.696 58.5158 182.294 43.3962 182.294 43.3962L186.89 44.0637C186.89 44.0637 179.49 60.1189 178.956 61.0455C178.261 62.2492 178.875 64.2262 179.292 65.5668C179.356 65.7742 179.416 65.9663 179.465 66.1381C178.591 66.3906 178.258 65.89 177.907 65.3622C177.511 64.766 177.092 64.1352 175.842 64.5159C175.36 64.663 174.896 64.8519 174.443 65.0365C172.878 65.674 171.441 66.2598 169.79 64.8902C169.528 64.673 169.307 63.963 170.139 63.5493C172.212 62.5187 175.255 60.6327 175.729 59.9376ZM225.596 52.9102L217.763 46.2697L215.622 50.654L223.562 54.6163C225.684 57.4944 226.898 58.7172 227.203 58.2847C227.461 57.9201 227.305 57.551 227.162 57.2111C227.05 56.9463 226.946 56.6991 227.051 56.4855C227.289 55.9976 228.838 56.1591 230.302 56.3752C231.766 56.5914 231.383 55.9064 231.051 55.5582C229.611 54.5538 227.793 53.6711 225.596 52.9102Z" fill="#B28B67"/>
<path fill-rule="evenodd" clip-rule="evenodd" d="M201.503 24.6608L204.351 23.719C208.214 33.3692 213.975 42.7062 223.601 50.5928L221.22 54.6995C212.761 49.7162 204.752 45.845 201.503 38.3673C200.412 35.8575 201.414 27.6617 201.503 24.6608Z" fill="#C5CFD6"/>
<path fill-rule="evenodd" clip-rule="evenodd" d="M191.722 51.8201C191.722 51.8201 203.958 53.1175 210.985 51.8201C211.565 51.713 211.657 50.7413 211.387 50.0819C207.196 39.8125 204.322 30.8519 204.322 23.7191C203.169 24.3006 200.285 23.8934 200.285 23.8934C195.117 31.244 192.742 39.678 191.722 51.8201Z" fill="#323337"/>
<path fill-rule="evenodd" clip-rule="evenodd" d="M198.804 23.2772C198.937 23.1875 199.008 23.1428 199.008 23.1428L199 23.2772H201.153C201.262 23.9136 201.42 26.2724 201.651 29.7118C202.491 42.2103 204.29 68.9787 208.118 79.2228H181.702C182.259 67.5763 186.553 53.6488 191.001 41.8227C187.719 45.0884 183.886 50.5627 180.788 59.6755L175.84 58.4053C180.882 36.6768 195.656 25.4708 198.522 23.4705C198.551 23.4057 198.578 23.3413 198.606 23.2772H198.804Z" fill="#DDE3E9"/>
<path fill-rule="evenodd" clip-rule="evenodd" d="M149.15 21.5244C150.83 22.5371 152.481 23.0264 153.256 22.8266C155.199 22.3257 155.378 15.2165 153.874 12.4138C152.371 9.6111 144.641 8.38951 144.251 13.9425C144.116 15.8699 144.925 17.5899 146.121 18.9934L143.977 28.9858H150.205L149.15 21.5244Z" fill="#B28B67"/>
<path fill-rule="evenodd" clip-rule="evenodd" d="M151.415 9.36132C150.564 9.10184 149.329 9.01384 148.809 9.07337C149.105 8.36514 149.222 7.57608 149.126 6.8078C149.033 6.06127 148.7 5.42562 148.391 4.75953C148.249 4.45251 148.088 4.14716 147.848 3.91233C147.603 3.67308 147.293 3.51515 146.968 3.43981C146.636 3.36269 146.288 3.36911 145.955 3.4391C145.808 3.47006 145.675 3.53741 145.531 3.57485C145.383 3.61321 145.311 3.52061 145.204 3.42755C144.945 3.20332 144.566 3.09263 144.238 3.05301C143.871 3.00858 143.49 3.06399 143.139 3.18475C142.798 3.3023 142.471 3.49319 142.224 3.77128C142.115 3.89507 142.015 4.03597 141.95 4.19153C141.924 4.25537 141.919 4.29319 141.856 4.31657C141.797 4.33822 141.728 4.33885 141.667 4.35945C141.079 4.55858 140.576 5.01286 140.303 5.59613C140.143 5.93641 140.067 6.53553 140.088 7.20703C140.109 7.87854 140.715 9.63069 141.282 10.2698C141.788 10.8402 142.532 11.2167 143.25 11.3815C142.774 11.9263 142.457 12.607 142.222 13.2994C141.967 14.0515 141.809 14.8329 141.751 15.6291C141.696 16.3856 141.691 17.1856 141.868 17.9259C142.034 18.6183 142.389 19.1862 142.981 19.5465C143.252 19.7116 143.544 19.8356 143.838 19.9489C144.127 20.0606 144.417 20.1692 144.72 20.2318C145.294 20.3504 145.955 20.3301 146.397 19.8735C146.556 19.7089 146.731 19.5021 146.847 19.301C146.889 19.2287 146.914 19.1814 146.864 19.1107C146.803 19.026 146.705 18.9612 146.626 18.895C146.181 18.5174 145.905 18.0133 145.836 17.4143C145.765 16.8065 145.929 16.022 146.519 15.7568C147.249 15.4293 148.052 15.8052 148.701 16.1555C148.976 15.183 149.542 14.3074 150.429 13.8613C151.41 13.3678 152.536 13.3101 153.545 12.8867C153.807 12.7763 154.075 12.6511 154.269 12.4263C154.349 12.3323 154.444 12.2104 154.477 12.0861C154.519 11.9229 154.414 11.786 154.332 11.6588C153.901 10.984 152.266 9.6208 151.415 9.36132Z" fill="#191847"/>
<path fill-rule="evenodd" clip-rule="evenodd" d="M142.42 50.5229L161.701 82.7575L176.157 110.009H179.27L155.05 50.5229L142.42 50.5229Z" fill="#997659"/>
<path fill-rule="evenodd" clip-rule="evenodd" d="M175.038 108.49C174.724 108.354 174.351 108.493 174.236 108.816C174.05 109.335 173.818 110.069 173.818 110.49C173.818 111.192 174.051 112.539 174.051 112.539C174.866 112.539 188.687 112.539 188.687 112.539C188.687 112.539 189.257 110.653 188.028 110.503C186.799 110.352 185.986 110.231 185.986 110.231L179.215 107.212C179.064 107.145 178.888 107.216 178.825 107.368L178.401 108.397C178.401 108.397 177.263 108.928 176.552 108.928C176.139 108.928 175.501 108.69 175.038 108.49Z" fill="#E4E4E4"/>
<path fill-rule="evenodd" clip-rule="evenodd" d="M172.142 105.645L178.146 103.829C178.146 103.829 174.2 92.0323 168.474 77.8656C162.747 63.6988 156.173 50.5229 156.173 50.5229H139.214C139.214 50.5229 146.523 67.1898 154.711 80.8109C162.899 94.432 172.142 105.645 172.142 105.645Z" fill="#DB2721"/>
<path fill-rule="evenodd" clip-rule="evenodd" d="M141.153 50.5229C139.333 61.8504 135.824 76.3225 135.492 76.7691C135.272 77.0668 127.322 79.7307 111.643 84.7606L112.316 87.5062C131.013 84.8086 140.864 82.7157 141.87 81.2275C143.38 78.9951 150.918 61.3597 153.838 50.5229H141.153Z" fill="#B28B67"/>
<path fill-rule="evenodd" clip-rule="evenodd" d="M117.155 82.3873L118.339 86.8092C132.323 88.0357 140.892 87.1495 144.044 84.1506C147.197 81.1517 150.79 69.9425 154.823 50.5229H138.652C136.097 66.4249 134.668 74.7097 134.366 75.3773C134.064 76.0448 128.327 78.3815 117.155 82.3873Z" fill="#FF4133"/>
<path fill-rule="evenodd" clip-rule="evenodd" d="M112.805 84.3449C112.884 84.0115 112.682 83.6686 112.344 83.611C111.801 83.5183 111.038 83.4168 110.622 83.4901C109.931 83.6119 108.646 84.0761 108.646 84.0761C108.787 84.8779 111.187 98.4889 111.187 98.4889C111.187 98.4889 113.144 98.7232 113.078 97.4867C113.013 96.2501 112.991 95.4285 112.991 95.4285L114.788 88.236C114.828 88.0761 114.728 87.9147 114.567 87.8793L113.48 87.6402C113.48 87.6402 112.759 86.6119 112.636 85.9113C112.564 85.5046 112.688 84.835 112.805 84.3449Z" fill="#E4E4E4"/>
<path fill-rule="evenodd" clip-rule="evenodd" d="M164.567 29.4244L155.56 34.3572L158.886 37.927L165.43 31.935C168.878 30.9848 170.454 30.2898 170.16 29.8498C169.912 29.4788 169.512 29.4917 169.143 29.5036C168.856 29.5128 168.588 29.5214 168.426 29.3475C168.056 28.9503 168.762 27.5614 169.488 26.2721C170.215 24.9828 169.438 25.095 168.994 25.2805C167.54 26.2645 166.064 27.6458 164.567 29.4244ZM173.622 36.3458L169.666 38.5191L169.891 42.4893C169.891 42.4893 172.453 40.6399 174.658 40.0253C177.469 39.2416 178.606 38.6431 179.979 36.893C180.714 35.9566 181.338 34.0743 180.638 33.4613C180.37 33.2261 179.37 33.7817 178.35 34.3485C177.573 34.7805 176.784 35.2191 176.297 35.3192C175.643 35.4539 175.719 34.6055 175.781 33.9275C175.825 33.441 175.861 33.0423 175.613 33.1576C174.455 33.1774 173.622 36.3458 173.622 36.3458Z" fill="#997659"/>
<path fill-rule="evenodd" clip-rule="evenodd" d="M151.174 33.2583C154.328 33.225 158.535 32.5587 163.024 29.7095L164.787 33.6406C161.69 36.7133 157.337 39.2378 153.53 39.1309C150.53 39.0467 148.997 35.4182 151.174 33.2583Z" fill="#2026A2"/>
<path fill-rule="evenodd" clip-rule="evenodd" d="M150.667 23.2772C150.667 23.2771 150.667 23.2771 150.667 23.2771H144.411C144.411 23.2771 144.411 23.2772 144.411 23.2772H144.184C143.395 23.2772 138.029 33.5636 138.024 40.2464C138.022 42.5412 137.218 44.5212 136.371 46.6057C134.967 50.0644 133.445 53.8111 135.278 59.7618C136.911 59.4403 139.666 59.7995 142.665 60.1906C148.278 60.9223 154.743 61.7652 156.296 58.4643C157.454 56.0008 157.799 53.3046 157.648 50.4711C162.423 50.3671 168.219 48.7921 174.982 45.2596C175.203 42.6755 172.27 36.6075 172.27 36.6075C172.27 36.6075 160.651 40.7419 155.419 39.5541C155.108 38.5027 154.785 37.4488 154.462 36.3964C153.08 31.8902 151.706 27.4126 151.384 23.2772H150.667Z" fill="#1F28CF"/>
<path fill-rule="evenodd" clip-rule="evenodd" d="M94.9186 21.5244C96.5988 22.5371 98.2497 23.0264 99.0246 22.8266C100.968 22.3257 101.147 15.2165 99.643 12.4138C98.1393 9.6111 90.4093 8.38951 90.0197 13.9425C89.8845 15.8699 90.6938 17.5899 91.8896 18.9934L89.7457 28.9858H95.9733L94.9186 21.5244Z" fill="#B28B67"/>
<path fill-rule="evenodd" clip-rule="evenodd" d="M96.0937 9.18381C95.2729 9.04922 93.063 8.95668 92.6554 8.95674C92.3949 8.95674 92.1127 9.01624 91.9584 8.77709C91.8321 8.58126 91.8784 8.25005 91.8407 8.0228C91.7969 7.7588 91.7347 7.49821 91.6718 7.23827C91.4929 6.49861 91.2222 5.79492 90.8436 5.13424C90.133 3.89472 89.0921 2.9238 87.7781 2.35882C86.3269 1.735 84.6848 1.59216 83.1239 1.71869C81.4536 1.85407 79.9415 2.40548 78.3644 2.9244C76.8615 3.41888 75.2874 3.61352 73.7155 3.37204C72.1318 3.12877 70.9352 2.27041 69.5993 1.45571C68.2318 0.621661 66.669 0.0761612 65.0524 0.201559C63.5433 0.318652 62.1524 0.941756 60.9046 1.77413C59.737 2.55292 58.7737 3.48991 58.2298 4.80864C57.6447 6.22721 57.6452 7.78431 58.6074 9.03798C60.002 10.8552 62.5911 11.3251 64.745 11.2784C65.9909 11.2515 67.2146 11.024 68.3908 10.6103C69.9595 10.0585 71.3152 9.12335 72.7827 8.36458C73.4715 8.00852 74.1834 7.71608 74.9296 7.50544C75.6537 7.30094 76.3669 7.20715 77.0225 7.64457C77.7161 8.10733 78.3375 8.5619 79.131 8.85159C79.8921 9.12951 80.6984 9.28496 81.5093 9.27868C83.0871 9.26649 84.6425 8.77488 86.1749 8.44559C87.4246 8.17711 88.7617 7.90953 90.0357 8.16761C90.5673 8.27532 91.3438 8.49768 91.5358 9.05017C88.3041 9.63588 87.0349 13.6326 87.9459 16.5665C88.4377 18.1501 91.3934 20.0013 92.5426 19.1688C93.2707 18.6414 92.8287 17.949 92.5426 17.4919C91.9948 16.6166 91.8074 15.4922 92.8211 14.8827C93.6955 14.3571 94.6148 15.6053 94.6322 15.6039C94.8725 15.585 96.9491 14.4106 98.3798 12.6969C99.7912 12.7806 100.005 11.8499 99.6683 11.0888C99.3313 10.3277 97.2277 9.36991 96.0937 9.18381Z" fill="#191847"/>
<path fill-rule="evenodd" clip-rule="evenodd" d="M84.7233 50.5228C85.1911 56.9085 115.332 75.7089 115.508 76.2364C115.625 76.588 106.126 98.4691 106.126 98.4691L108.761 99.493C108.761 99.493 123.331 76.3193 122.583 73.8501C121.511 70.3148 99.1966 50.5907 99.1966 50.5907L84.7233 50.5228Z" fill="#B28B67"/>
<path fill-rule="evenodd" clip-rule="evenodd" d="M106.82 95.1749L111.121 96.7408C120.192 86.5063 123.748 78.0618 123.099 73.7592C122.451 69.4567 99.794 50.5386 99.794 50.5386L84.4148 50.5386C84.9395 65.327 112.877 76.2929 113.25 76.923C113.624 77.5532 109.947 83.7253 106.82 95.1749Z" fill="#2F3676"/>
<path fill-rule="evenodd" clip-rule="evenodd" d="M105.984 97.9893C105.735 97.754 105.337 97.7574 105.118 98.0211C104.766 98.4453 104.297 99.0556 104.153 99.4518C103.913 100.111 103.672 101.457 103.672 101.457C104.437 101.735 117.425 106.462 117.425 106.462C117.425 106.462 118.606 104.885 117.502 104.323C116.399 103.762 115.676 103.37 115.676 103.37L110.346 98.2174C110.227 98.1028 110.037 98.1087 109.926 98.2304L109.176 99.0524C109.176 99.0524 107.925 99.1621 107.256 98.9188C106.868 98.7775 106.35 98.3354 105.984 97.9893Z" fill="#E4E4E4"/>
<path fill-rule="evenodd" clip-rule="evenodd" d="M88.1889 50.5229L74.7618 82.7575L61.5651 110.009H64.6786L98.7429 50.5229H88.1889Z" fill="#997659"/>
<path fill-rule="evenodd" clip-rule="evenodd" d="M62.1642 108.49C61.8497 108.354 61.4768 108.493 61.3615 108.816C61.1758 109.335 60.9434 110.069 60.9434 110.49C60.9434 111.192 61.1772 112.539 61.1772 112.539C61.9915 112.539 75.8124 112.539 75.8124 112.539C75.8124 112.539 76.3829 110.653 75.1538 110.503C73.9247 110.352 73.1117 110.231 73.1117 110.231L66.3406 107.212C66.19 107.145 66.0137 107.216 65.9509 107.368L65.5267 108.397C65.5267 108.397 64.3888 108.928 63.6775 108.928C63.2645 108.928 62.6266 108.69 62.1642 108.49Z" fill="#E4E4E4"/>
<path fill-rule="evenodd" clip-rule="evenodd" d="M62.7568 104.348L69.6751 105.645C75.0243 97.7809 97.411 65.5344 99.8655 50.5229H84.4638C76.267 61.3747 67.8557 96.3534 62.7568 104.348Z" fill="#5C63AB"/>
<path fill-rule="evenodd" clip-rule="evenodd" d="M120.944 39.2884L111.542 43.4174L114.544 47.2635L121.586 41.8647C125.103 41.2186 126.734 40.6636 126.48 40.1997C126.265 39.8085 125.865 39.7864 125.496 39.7661C125.21 39.7503 124.942 39.7355 124.795 39.5481C124.461 39.1202 125.286 37.7981 126.122 36.577C126.958 35.3559 126.174 35.4 125.716 35.5461C124.182 36.3997 122.591 37.6471 120.944 39.2884ZM78.8476 45.6098L73.5304 44.5548C69.9243 54.0594 67.7744 59.2679 67.0807 60.1802C66.5721 60.8492 63.4351 62.5724 61.3118 63.4926C60.4596 63.862 60.6426 64.5822 60.8925 64.8126C62.4692 66.2659 63.935 65.7565 65.5306 65.202C65.9925 65.0415 66.4653 64.8772 66.9548 64.7556C68.2219 64.441 68.6075 65.0925 68.9718 65.7083C69.2945 66.2535 69.6005 66.7706 70.4869 66.5642C70.4466 66.3903 70.3971 66.1953 70.3436 65.985C69.9981 64.6252 69.4884 62.6199 70.2445 61.4548C70.6325 60.8569 73.5002 55.5752 78.8476 45.6098Z" fill="#B28B67"/>
<path fill-rule="evenodd" clip-rule="evenodd" d="M93.2994 24.6609L95.5431 24.2761C100.43 29.0168 102.425 40.4063 105.682 41.9139C108.761 43.3393 113.126 41.96 118.315 40.0975L119.904 43.6478C115.189 48.7481 105.146 53.0571 101.075 50.5972C94.566 46.6643 93.0634 32.617 93.2994 24.6609Z" fill="#DB2721"/>
<path fill-rule="evenodd" clip-rule="evenodd" d="M83.5182 52.858C83.5182 52.858 97.0132 52.858 103.371 52.858C104.279 52.858 104.108 51.548 103.977 50.887C102.463 43.2582 96.5549 35.0346 96.5549 24.1752L90.8283 23.2772C86.0916 30.8951 84.4536 40.2743 83.5182 52.858Z" fill="#DDE3E9"/>
<path fill-rule="evenodd" clip-rule="evenodd" d="M96.9781 58.307H79.1071C79.3898 54.0421 80.2964 49.5318 81.538 45.1342C77.4909 52.4346 74.089 57.6905 71.3324 60.9019L67.171 60.0868C69.8516 43.4624 77.6142 31.1925 90.4589 23.2772H90.5242C90.5242 23.2772 90.5242 23.2771 90.5243 23.2771H92.7263C92.7263 23.2771 100.438 49.5639 96.9781 58.307Z" fill="#FF4133"/>
<path fill-rule="evenodd" clip-rule="evenodd" d="M40.8336 9.00604C37.6092 9.00604 34.9953 11.6199 34.9953 14.8444V19.7745C34.9953 22.6992 37.1459 25.1216 39.9519 25.5467C39.9532 25.5706 39.9545 25.5946 39.9559 25.6187H47.4809C48.7605 24.3684 47.3143 15.8881 46.4125 13.0775C46.285 12.68 46.1615 12.3942 46.0401 12.1999C45.0755 10.3045 43.1062 9.00604 40.8336 9.00604Z" fill="#191847"/>
<path fill-rule="evenodd" clip-rule="evenodd" d="M40.9467 21.5245C42.6269 22.5372 44.2778 23.0264 45.0527 22.8267C46.996 22.3258 47.1747 15.2165 45.6711 12.4138C44.1674 9.61116 36.4374 8.38957 36.0478 13.9426C35.9126 15.8699 36.7219 17.59 37.9176 18.9935L35.7738 28.9857H42.0013L40.9467 21.5245Z" fill="#B28B67"/>
<path fill-rule="evenodd" clip-rule="evenodd" d="M35.224 13.9752C35.4048 13.7964 35.5797 13.6234 35.7533 13.4686L35.7449 13.2668C35.7449 13.2668 37.6995 9.26538 40.7043 9.26538C43.7064 9.26538 44.6558 10.661 45.4629 11.8474L45.465 11.8506C45.0429 13.2991 43.7707 13.8851 42.3318 14.5479C41.7124 14.8332 41.0621 15.1327 40.4355 15.5213C40.1901 15.3219 39.8771 15.2024 39.5363 15.2024C38.7481 15.2024 38.1091 15.8414 38.1091 16.6296C38.1091 17.4178 38.7481 18.0567 39.5363 18.0567C39.558 18.0567 39.5796 18.0562 39.6011 18.0553C39.888 21.1374 39.7731 24.6572 38.918 25.4927H31.393C31.177 21.7396 32.1479 20.6689 33.14 19.5749C34.0735 18.5455 35.0258 17.4954 35.0258 14.1704C35.0928 14.105 35.1588 14.0397 35.224 13.9752Z" fill="#191847"/>
<path fill-rule="evenodd" clip-rule="evenodd" d="M25.7598 75.975C25.7598 75.975 35.097 78.5866 41.8715 78.5866C48.646 78.5866 54.4564 74.5647 54.4564 74.5647C54.4564 74.5647 45.3191 71.8842 39.4065 71.8842C33.4939 71.8842 25.7598 75.975 25.7598 75.975Z" fill="#1F28CF"/>
<path fill-rule="evenodd" clip-rule="evenodd" d="M47.2602 81.0962C47.2001 81.0059 47.1494 80.9078 47.1092 80.8014C46.2772 78.601 32.9498 54.863 31.6221 50.523H46.6268C47.6363 53.8227 52.18 74.5301 52.8194 78.6615C54.8369 85.1784 58.9909 106.284 59.5212 107.746C60.079 109.284 56.9402 110.887 56.1038 108.996C54.7729 105.987 51.6017 97.6616 50.1898 92.5782C48.8661 87.8124 47.7882 83.5249 47.2602 81.0962Z" fill="#997659"/>
<path fill-rule="evenodd" clip-rule="evenodd" d="M34.9842 83.9944C28.8911 85.5344 6.60397 88.3184 5.07453 88.755C3.50121 89.2042 2.12171 85.9613 4.06642 85.2588C7.16077 84.141 15.6871 81.5584 20.8567 80.5045C25.0148 79.6568 28.8091 78.965 31.3564 78.5599C31.1406 71.4043 30.1541 54.2319 30.8007 50.523H44.0771C43.4571 54.0796 38.2155 80.0306 37.2413 82.6282C36.9321 83.5556 36.0096 83.9654 34.9842 83.9944Z" fill="#B28B67"/>
<path fill-rule="evenodd" clip-rule="evenodd" d="M4.6012 85.1233C4.68051 84.7899 4.47856 84.447 4.1408 84.3893C3.59746 84.2967 2.83417 84.1952 2.41894 84.2684C1.72772 84.3903 0.44224 84.8544 0.44224 84.8544C0.583629 85.6563 2.98361 99.2673 2.98361 99.2673C2.98361 99.2673 4.93999 99.5016 4.87466 98.2651C4.80932 97.0285 4.78749 96.2069 4.78749 96.2069L6.58444 89.0144C6.6244 88.8545 6.52441 88.6931 6.36339 88.6577L5.27624 88.4186C5.27624 88.4186 4.55584 87.3902 4.43231 86.6897C4.3606 86.283 4.48458 85.6134 4.6012 85.1233Z" fill="#E4E4E4"/>
<path fill-rule="evenodd" clip-rule="evenodd" d="M55.9366 108.49C55.6221 108.354 55.2493 108.493 55.1339 108.816C54.9483 109.335 54.7159 110.069 54.7159 110.491C54.7159 111.192 54.9497 112.539 54.9497 112.539C55.7639 112.539 69.5849 112.539 69.5849 112.539C69.5849 112.539 70.1554 110.653 68.9263 110.503C67.6972 110.352 66.8842 110.231 66.8842 110.231L60.1131 107.212C59.9625 107.145 59.7862 107.216 59.7234 107.368L59.2991 108.397C59.2991 108.397 58.1613 108.928 57.4499 108.928C57.0369 108.928 56.3991 108.69 55.9366 108.49Z" fill="#E4E4E4"/>
<path fill-rule="evenodd" clip-rule="evenodd" d="M30.8436 50.5231C30.8436 50.5231 39.6193 48.0123 47.4504 50.5231C49.2668 58.8102 53.6803 62.0994 54.4564 74.805C45.634 79.1886 34.7358 71.6787 25.654 75.9536C23.0592 69.974 26.6919 55.5738 30.8436 50.5231Z" fill="#2B44FF"/>
<path fill-rule="evenodd" clip-rule="evenodd" d="M66.2583 38.8267L56.0132 40.2242L57.8514 44.8142L66.1644 41.5184C69.7475 41.872 71.4801 41.7869 71.3622 41.2632C71.2628 40.8216 70.882 40.6883 70.5311 40.5655C70.2579 40.4698 70.0028 40.3805 69.9133 40.1569C69.7087 39.6462 70.8735 38.5875 72.0214 37.6305C73.1694 36.6735 72.3988 36.4974 71.9144 36.5116C70.1931 36.9151 68.3077 37.6868 66.2583 38.8267ZM16.4159 63.9921C17.1763 62.4495 23.8298 42.5957 23.8298 42.5957L29.5117 42.617C29.5117 42.617 20.1661 63.6481 19.7658 64.6401C19.2459 65.9288 20.1291 67.8011 20.728 69.0706C20.8207 69.267 20.9065 69.449 20.9793 69.6122C20.1483 69.9841 19.7491 69.5346 19.3282 69.0607C18.8529 68.5255 18.3499 67.9591 17.1658 68.51C16.7084 68.7228 16.2755 68.9745 15.8526 69.2203C14.3917 70.0695 13.0497 70.8495 11.224 69.7231C10.9346 69.5445 10.6174 68.872 11.3837 68.3466C13.2929 67.0375 16.0442 64.7463 16.4159 63.9921Z" fill="#997659"/>
<path fill-rule="evenodd" clip-rule="evenodd" d="M39.3934 24.5747L43.8422 24.8711C44.9378 34.7836 50.9058 41.0447 64.2676 38.9251L66.0428 51.6901C53.5541 53.3042 42.6015 48.3042 40.3568 34.7668C39.7758 31.2623 39.317 27.6153 39.3934 24.5747Z" fill="#AFB9C5"/>
<path fill-rule="evenodd" clip-rule="evenodd" d="M17.1954 61.4208C20.2842 44.9863 26.8036 32.2717 36.7536 23.2771H37.195L37.1986 23.2813L43.939 24.825C43.939 32.9219 45.7404 38.9717 47.4722 44.7882C48.2201 47.3 48.955 49.7682 49.5263 52.339H31.3221C31.0656 55.2843 30.9081 58.3116 30.8261 61.4208H17.1954Z" fill="#C5CFD6"/>
<path fill-rule="evenodd" clip-rule="evenodd" d="M31.3221 52.3393C31.8441 46.3428 32.7764 40.6859 34.3176 35.3687C33.9798 41.055 33.886 48.1092 35.0219 52.3393H31.3221Z" fill="black" fill-opacity="0.1"/>
<path fill-rule="evenodd" clip-rule="evenodd" d="M567.986 40.4663C566.305 41.479 564.655 41.9683 563.88 41.7686C561.936 41.2677 561.758 34.1584 563.261 31.3557C564.765 28.5531 572.495 27.3315 572.884 32.8845C573.02 34.8118 572.21 36.5319 571.015 37.9354L573.159 47.9279H566.931L567.986 40.4663Z" fill="#B28B67"/>
<path fill-rule="evenodd" clip-rule="evenodd" d="M560.502 27.4703C560.631 27.017 560.978 26.6288 561.445 26.5137C561.559 26.4858 561.676 26.4745 561.793 26.4792C561.834 26.4809 561.846 26.4929 561.866 26.4637C561.88 26.442 561.88 26.389 561.886 26.3635C561.905 26.2842 561.928 26.2059 561.957 26.1297C562.055 25.8696 562.219 25.6394 562.417 25.4455C562.788 25.0827 563.289 24.8324 563.809 24.7871C564.094 24.7623 564.376 24.8086 564.646 24.9012C564.785 24.9492 564.92 25.0089 565.052 25.0749C565.091 25.0947 565.22 25.1921 565.26 25.1858C565.304 25.1788 565.392 25.0696 565.428 25.0422C565.869 24.7035 566.414 24.5704 566.964 24.5744C567.585 24.579 568.183 24.61 568.7 24.9884C568.81 25.0685 568.914 25.1562 569.014 25.2486C569.066 25.2972 569.117 25.3476 569.165 25.4002C569.194 25.4318 569.222 25.4643 569.25 25.4975C569.296 25.554 569.289 25.5726 569.354 25.5332C569.603 25.3818 569.891 25.311 570.182 25.3468C570.355 25.368 570.523 25.4198 570.682 25.4881C570.737 25.5113 570.862 25.6039 570.92 25.6048C570.978 25.6057 571.102 25.5198 571.161 25.498C571.48 25.3801 571.825 25.351 572.16 25.4055C572.507 25.4617 572.847 25.5999 573.141 25.7909C573.282 25.8828 573.405 25.9846 573.504 26.1212C573.547 26.1801 573.585 26.2425 573.634 26.2972C573.662 26.3292 573.718 26.3621 573.733 26.4026C573.724 26.3783 574.112 26.2288 574.149 26.2192C574.344 26.1683 574.542 26.1786 574.733 26.2415C575.092 26.3596 575.401 26.6247 575.655 26.8964C575.785 27.0359 575.899 27.1902 575.996 27.3546C576.043 27.4333 576.085 27.5143 576.124 27.597C576.143 27.637 576.155 27.6871 576.18 27.7232C576.212 27.7697 576.233 27.7706 576.291 27.7909C576.585 27.8939 576.853 28.0681 577.057 28.3036C577.263 28.5419 577.397 28.8352 577.454 29.1442C577.457 29.1624 577.459 29.2378 577.469 29.2477C577.484 29.2612 577.543 29.2552 577.566 29.2579C577.643 29.267 577.72 29.2805 577.796 29.2984C577.935 29.3315 578.072 29.3802 578.2 29.4439C578.702 29.6922 579.061 30.1577 579.237 30.6815C579.421 31.2312 579.418 31.861 579.197 32.4004C579.162 32.4875 579.12 32.5721 579.07 32.6521C579.039 32.7012 579.029 32.7014 579.049 32.7529C579.071 32.8102 579.112 32.8659 579.138 32.9219C579.224 33.1047 579.283 33.2986 579.321 33.4966C579.383 33.8214 579.414 34.1628 579.353 34.49C579.324 34.642 579.275 34.7906 579.199 34.9259C579.161 34.9949 579.116 35.0604 579.065 35.1209C579.039 35.1524 579.01 35.1824 578.981 35.2112C578.964 35.2276 578.942 35.242 578.928 35.2603C578.893 35.3051 578.886 35.2683 578.904 35.334C578.929 35.4259 578.986 35.5165 579.021 35.6059C579.057 35.698 579.089 35.7914 579.119 35.8857C579.179 36.0767 579.23 36.2711 579.262 36.4688C579.323 36.8485 579.312 37.2531 579.132 37.6015C579.056 37.7506 578.945 37.8813 578.812 37.9831C578.746 38.0328 578.676 38.0757 578.601 38.1109C578.563 38.1291 578.514 38.1368 578.497 38.1738C578.478 38.2135 578.506 38.2923 578.512 38.3367C578.568 38.7229 578.595 39.1283 578.481 39.5068C578.375 39.8553 578.142 40.1631 577.84 40.3668C577.253 40.7621 576.463 40.7398 575.847 40.4234C575.686 40.3409 575.536 40.2385 575.402 40.1177C575.061 40.5771 574.359 40.5626 573.86 40.4316C573.238 40.2686 572.74 39.8365 572.452 39.2687C572.06 39.747 571.235 39.5918 570.963 39.073C570.896 38.9461 570.857 38.8061 570.837 38.6645C570.827 38.59 570.833 38.5149 570.826 38.4411C570.816 38.3469 570.753 38.2554 570.717 38.1644C570.646 37.9872 570.603 37.8041 570.601 37.6129C570.6 37.5131 570.613 37.4159 570.622 37.3168C570.631 37.2277 570.606 37.1447 570.592 37.0567C570.751 37.083 570.945 37.04 571.096 36.9938C571.243 36.9484 571.381 36.829 571.485 36.7199C571.726 36.4666 571.874 36.1346 571.975 35.8041C572.196 35.0788 572.105 34.2086 571.376 33.8105C571.036 33.6251 570.018 33.6257 569.613 33.7173C569.188 33.8137 568.705 34.7528 568.681 34.8411C568.667 34.8957 568.674 34.9634 568.624 34.9998C568.513 35.0798 568.332 34.9409 568.25 34.8723C568.11 34.754 568.01 34.5966 567.923 34.437C567.734 34.0894 567.582 33.7166 567.474 33.336C567.391 33.0426 567.338 32.7401 567.23 32.4542C567.122 32.1696 566.952 31.9154 566.687 31.7542C566.399 31.5789 566.07 31.4865 565.754 31.3763C565.441 31.2671 565.133 31.1337 564.89 30.902C564.837 30.851 564.785 30.7969 564.742 30.7369C564.708 30.6895 564.675 30.5989 564.623 30.5689C564.543 30.5221 564.426 30.6436 564.356 30.6877C564.014 30.9053 563.728 31.2088 563.497 31.5404C563.268 31.8701 563.08 32.1874 562.927 32.5556C562.814 32.8286 562.743 33.1784 562.543 33.4022C562.454 33.5021 561.793 33.5625 561.578 33.4753C561.364 33.3881 561.124 33.1615 561.052 33.0196C560.978 32.8743 560.96 32.7146 560.992 32.5556C561.01 32.462 561.048 32.3746 561.069 32.2826C561.086 32.2054 561.102 32.1324 561.14 32.0617C561.211 31.9277 561.333 31.8313 561.479 31.791C561.327 31.6502 561.2 31.4818 561.112 31.2935C561.021 31.0979 560.944 30.86 560.922 30.6452C560.905 30.4709 560.932 30.2902 561.028 30.1403C561.128 29.9831 561.305 29.8805 561.459 29.7824C561.224 29.599 561.024 29.3759 560.859 29.1289C560.538 28.6485 560.339 28.043 560.502 27.4703Z" fill="#191847"/>
<path fill-rule="evenodd" clip-rule="evenodd" d="M590.013 80.363C592.599 80.363 594.695 82.4593 594.695 85.0452V107.856C594.695 110.442 592.599 112.539 590.013 112.539H561.234C558.648 112.539 556.552 110.442 556.552 107.856V85.0452C556.552 82.4593 558.648 80.363 561.234 80.363H590.013ZM586.259 87.6287C586.906 87.6287 587.43 88.1528 587.43 88.7993V104.103C587.43 104.749 586.906 105.273 586.259 105.273H564.988C564.341 105.273 563.817 104.749 563.817 104.103V88.7993C563.817 88.1528 564.341 87.6287 564.988 87.6287H586.259Z" fill="#C5CFD6"/>
<path fill-rule="evenodd" clip-rule="evenodd" d="M544.69 94.5255C543.725 97.906 541.321 104.313 537.996 111.672L534.837 110.75C537.601 93.8177 539.901 82.6077 541.219 79.1958C542.089 76.9415 548.675 77.2057 547.918 81.7415C547.6 83.6437 546.343 88.7371 544.69 94.5255ZM557.676 82.5326C562.828 83.6001 573.51 87.3734 576.561 88.5791C578.478 89.3369 577.242 91.9068 575.606 91.682C575.329 91.6439 574.35 91.5343 572.888 91.3708C568.192 90.8454 558.521 89.7635 551.186 88.7078C547.324 88.152 549.401 80.9178 553.411 81.6834C554.76 81.9409 556.195 82.2259 557.676 82.5326Z" fill="#B28B67"/>
<path fill-rule="evenodd" clip-rule="evenodd" d="M541.017 77.2849C541.544 75.566 565.488 69.4647 565.488 69.4647H567.45V71.2932L550.95 79.6925C550.972 79.9635 550.959 80.25 550.906 80.5522C551.025 86.7788 548.36 91.4305 545.721 96.0361C543.996 99.0478 542.282 102.04 541.365 105.44L535.303 104.535C535.48 104.084 535.759 102.047 536.141 99.2633C537.103 92.2434 538.718 80.469 540.983 77.3539C540.991 77.343 540.999 77.3322 541.007 77.3215C541.01 77.3093 541.013 77.2971 541.017 77.2849Z" fill="#1F28CF"/>
<path fill-rule="evenodd" clip-rule="evenodd" d="M566.079 84.6808C567.589 84.3786 568.979 84.1089 570.169 83.9002C577.853 82.5524 580.093 78.4392 578.769 69.4647H564.611C562.298 70.1291 550.279 75.1694 544.043 77.8502C539.916 79.6245 541.217 86.0207 543.554 87.6853C543.567 87.7875 543.609 87.8568 543.684 87.8879C552.545 91.5607 560.102 91.2866 564.955 91.1106C566.987 91.0369 568.545 90.9804 569.526 91.2383L571.063 86.3903L566.079 84.6808Z" fill="#2B44FF"/>
<path fill-rule="evenodd" clip-rule="evenodd" d="M574.939 88.3998C574.954 88.0576 575.243 87.7836 575.584 87.8213C576.131 87.8819 576.893 87.9948 577.272 88.1797C577.903 88.4873 579.011 89.2878 579.011 89.2878C578.654 90.0196 572.595 102.442 572.595 102.442C572.595 102.442 570.65 102.128 571.053 100.957C571.457 99.7866 571.705 99.0028 571.705 99.0028L571.96 91.5936C571.965 91.4289 572.106 91.3013 572.271 91.3116L573.382 91.3815C573.382 91.3815 574.357 90.5915 574.669 89.9521C574.85 89.5809 574.916 88.9031 574.939 88.3998Z" fill="#E4E4E4"/>
<path fill-rule="evenodd" clip-rule="evenodd" d="M538.724 110.046C539.039 109.91 539.412 110.05 539.527 110.372C539.713 110.891 539.945 111.625 539.945 112.047C539.945 112.749 539.711 114.095 539.711 114.095C538.897 114.095 525.076 114.095 525.076 114.095C525.076 114.095 524.505 112.209 525.735 112.059C526.964 111.909 527.777 111.787 527.777 111.787L534.548 108.769C534.698 108.702 534.875 108.772 534.937 108.925L535.362 109.954C535.362 109.954 536.5 110.485 537.211 110.485C537.624 110.485 538.262 110.246 538.724 110.046Z" fill="#E4E4E4"/>
<path fill-rule="evenodd" clip-rule="evenodd" d="M545.038 72.5159L552.389 65.3452L554.83 69.5695L547.186 74.076C545.27 77.0951 544.144 78.3996 543.809 77.9894C543.527 77.6436 543.657 77.2646 543.776 76.9155C543.869 76.6436 543.955 76.3898 543.836 76.1839C543.565 75.7139 542.03 75.9831 540.585 76.3008C539.139 76.6185 539.474 75.9085 539.781 75.538C541.147 74.4355 542.899 73.4282 545.038 72.5159ZM588.365 82.9344C587.604 81.3917 585.015 66.3566 585.015 66.3566L579.592 66.3779C579.592 66.3779 584.614 82.5904 585.015 83.5824C585.535 84.871 584.651 86.7433 584.053 88.0129C583.96 88.2093 583.874 88.3913 583.801 88.5544C584.632 88.9263 585.031 88.4768 585.452 88.0029C585.928 87.4677 586.431 86.9014 587.615 87.4522C588.072 87.6651 588.505 87.9167 588.928 88.1625C590.389 89.0117 591.731 89.7918 593.557 88.6653C593.846 88.4867 594.163 87.8143 593.397 87.2888C591.488 85.9797 588.736 83.6885 588.365 82.9344Z" fill="#B28B67"/>
<path fill-rule="evenodd" clip-rule="evenodd" d="M569.605 43.603L567.361 43.2181C563.498 52.8683 556.754 61.6367 547.128 69.5233L554.402 78.3603C564.026 67.1308 569.959 55.545 569.605 43.603Z" fill="#191847"/>
<path fill-rule="evenodd" clip-rule="evenodd" d="M579.386 71.8002H559.406C559.406 71.8002 566.349 54.9178 566.349 43.1174L572.376 42.2194C577.113 49.8374 578.451 59.2166 579.386 71.8002Z" fill="#DDE3E9"/>
<path fill-rule="evenodd" clip-rule="evenodd" d="M572.504 42.2238L572.509 42.2197C572.509 42.2197 586.283 55.7117 588.468 80.3634H578.729C578.809 79.2775 578.858 78.2048 578.88 77.1471H565.802C565.802 77.1471 568.27 54.0803 568.501 46.4689L569.957 42.307C569.957 42.307 571.402 42.2437 572.108 42.2194H572.502C572.502 42.2209 572.503 42.2224 572.504 42.2238Z" fill="#2F3676"/>
<path fill-rule="evenodd" clip-rule="evenodd" d="M578.878 77.2494C578.982 72.6436 578.574 68.319 577.892 64.4054C577.535 69.0493 576.79 74.6373 575.234 77.2494H578.878Z" fill="black" fill-opacity="0.1"/>
<path fill-rule="evenodd" clip-rule="evenodd" d="M575.984 69.2055L569.526 66.2031V69.2055H575.984Z" fill="white" fill-opacity="0.2"/>
<path fill-rule="evenodd" clip-rule="evenodd" d="M460.042 40.4663C458.361 41.479 456.711 41.9683 455.936 41.7686C453.992 41.2677 453.814 34.1584 455.317 31.3557C456.821 28.5531 464.551 27.3315 464.94 32.8845C465.076 34.8119 464.266 36.5319 463.071 37.9354L465.214 47.9279H458.987L460.042 40.4663Z" fill="#B28B67"/>
<path fill-rule="evenodd" clip-rule="evenodd" d="M462.879 31.5804C459.286 31.6061 456.785 31.4547 455.354 31.0614C455.419 29.8435 456.686 28.4666 460.025 28.4666C463.74 28.4666 465.733 30.6321 465.733 33.1373C465.733 35.426 464.26 38.2134 463.139 38.3269C462.848 38.2633 462.6 37.9132 462.353 37.4309C462.815 37.2062 463.139 36.6765 463.139 35.9915C463.139 35.3331 462.558 34.6941 461.841 34.6941C461.58 34.6941 461.337 34.7791 461.133 34.9191C460.662 34.1609 460.072 33.5946 459.246 33.6562L459.765 32.0993L462.879 31.8399V31.5804Z" fill="#191847"/>
<path fill-rule="evenodd" clip-rule="evenodd" d="M467.809 114.615C456.775 114.615 447.829 106.076 447.829 95.5427C447.829 85.0096 456.775 76.4709 467.809 76.4709C478.844 76.4709 487.789 85.0096 487.789 95.5427C487.789 106.076 478.844 114.615 467.809 114.615Z" fill="#C5CFD6"/>
<path fill-rule="evenodd" clip-rule="evenodd" d="M436.747 94.5255C435.781 97.906 433.377 104.313 430.052 111.672L426.893 110.75C429.657 93.8177 431.957 82.6077 433.275 79.1958C434.145 76.9415 440.732 77.2057 439.974 81.7415C439.656 83.6437 438.399 88.7371 436.747 94.5255ZM449.732 82.5326C454.884 83.6001 465.566 87.3734 468.617 88.5791C470.534 89.3369 469.298 91.9068 467.662 91.682C467.385 91.6439 466.406 91.5343 464.944 91.3708C460.248 90.8454 450.577 89.7635 443.242 88.7078C439.38 88.152 441.457 80.9178 445.467 81.6834C446.817 81.9409 448.251 82.2259 449.732 82.5326Z" fill="#B28B67"/>
<path fill-rule="evenodd" clip-rule="evenodd" d="M433.073 77.2849C433.6 75.566 457.544 69.4647 457.544 69.4647H459.506V71.2932L443.006 79.6925C443.028 79.9635 443.015 80.25 442.962 80.5522C443.081 86.7788 440.416 91.4305 437.777 96.0361C436.052 99.0478 434.338 102.04 433.421 105.44L427.359 104.535C427.536 104.084 427.815 102.047 428.197 99.2632C429.159 92.2433 430.774 80.469 433.039 77.3539C433.047 77.3429 433.055 77.3321 433.063 77.3213C433.066 77.3092 433.069 77.297 433.073 77.2849Z" fill="#1F28CF"/>
<path fill-rule="evenodd" clip-rule="evenodd" d="M458.135 84.6808C459.645 84.3786 461.035 84.1089 462.225 83.9002C469.909 82.5524 472.15 78.4392 470.825 69.4647H456.667C454.354 70.1291 442.335 75.1694 436.099 77.8502C431.972 79.6245 433.273 86.0207 435.61 87.6853C435.623 87.7875 435.665 87.8568 435.74 87.8879C444.601 91.5607 452.158 91.2866 457.011 91.1106C459.043 91.0369 460.601 90.9804 461.582 91.2383L463.119 86.3903L458.135 84.6808Z" fill="#2B44FF"/>
<path fill-rule="evenodd" clip-rule="evenodd" d="M466.995 88.3998C467.01 88.0576 467.299 87.7836 467.64 87.8213C468.187 87.8819 468.949 87.9948 469.328 88.1797C469.959 88.4873 471.067 89.2878 471.067 89.2878C470.71 90.0196 464.651 102.442 464.651 102.442C464.651 102.442 462.706 102.128 463.11 100.957C463.513 99.7866 463.761 99.0028 463.761 99.0028L464.016 91.5936C464.021 91.4289 464.162 91.3013 464.327 91.3116L465.438 91.3815C465.438 91.3815 466.413 90.5915 466.725 89.9521C466.906 89.5809 466.972 88.9031 466.995 88.3998Z" fill="#E4E4E4"/>
<path fill-rule="evenodd" clip-rule="evenodd" d="M430.78 110.046C431.095 109.91 431.468 110.05 431.583 110.372C431.769 110.891 432.001 111.625 432.001 112.047C432.001 112.749 431.767 114.095 431.767 114.095C430.953 114.095 417.132 114.095 417.132 114.095C417.132 114.095 416.561 112.209 417.791 112.059C419.02 111.909 419.833 111.787 419.833 111.787L426.604 108.769C426.754 108.702 426.931 108.772 426.993 108.925L427.418 109.954C427.418 109.954 428.556 110.485 429.267 110.485C429.68 110.485 430.318 110.246 430.78 110.046Z" fill="#E4E4E4"/>
<path fill-rule="evenodd" clip-rule="evenodd" d="M488.561 78.0803C487.545 76.6931 481.422 61.7781 481.422 61.7781L476.853 62.6056C476.853 62.6056 484.808 78.3927 485.375 79.3002C486.111 80.4789 485.566 82.4761 485.197 83.8304C485.139 84.0399 485.087 84.2341 485.043 84.4074C485.926 84.6293 486.241 84.1173 486.573 83.5776C486.949 82.9679 487.346 82.3229 488.607 82.6597C489.095 82.7899 489.565 82.9625 490.024 83.1312C491.61 83.7138 493.067 84.249 494.67 82.8226C494.924 82.5964 495.119 81.8792 494.273 81.4947C492.166 80.5371 489.058 78.7584 488.561 78.0803ZM435.689 70.3871L443.966 64.3091L445.795 68.8321L437.599 72.2309C435.281 74.9539 433.985 76.089 433.71 75.6363C433.479 75.2546 433.66 74.8973 433.826 74.5682C433.956 74.3118 434.077 74.0725 433.988 73.8521C433.785 73.3489 432.227 73.4018 430.752 73.5153C429.276 73.6288 429.706 72.9722 430.062 72.648C431.568 71.7465 433.444 70.9928 435.689 70.3871Z" fill="#B28B67"/>
<path fill-rule="evenodd" clip-rule="evenodd" d="M458.918 42.7491L461.693 43.8872C461.664 44.612 461.667 45.6431 461.67 46.8244C461.681 50.5321 461.695 55.7193 460.737 57.5603C457.419 63.9382 450.605 67.2605 443.016 70.9607C441.998 71.4567 440.967 71.9595 439.928 72.4773L437.84 68.2146C438.082 68.0432 438.322 67.8708 438.56 67.6974C438.232 67.5825 437.958 67.3229 437.839 66.9681C437.633 66.3569 437.961 65.6946 438.572 65.4887C439.814 65.0703 440.972 64.8938 442.037 64.9702C449.814 58.4171 455.05 50.7455 458.918 42.7491Z" fill="#69A1AC"/>
<path fill-rule="evenodd" clip-rule="evenodd" d="M471.442 71.7769C471.442 71.7769 459.206 73.1211 452.179 71.7769C451.599 71.6659 451.624 69.1641 451.893 68.4808C456.085 57.8407 458.842 50.0517 458.842 42.6613C459.995 43.2639 462.879 42.8419 462.879 42.8419C468.046 50.4579 470.422 59.1964 471.442 71.7769Z" fill="#191847"/>
<path fill-rule="evenodd" clip-rule="evenodd" d="M486.961 71.9057C479.75 51.2962 464.961 42.2196 464.961 42.2196L463.56 42.2196L462.01 42.2196C462.345 46.64 460.774 53.0727 458.952 60.5348L458.952 60.5349L458.952 60.5349C456.038 72.4691 452.481 87.0368 455.045 100.218C458.198 100.922 461.902 100.442 465.912 99.9213C471.699 99.1703 478.124 98.3367 484.446 100.862C484.203 95.5819 481.12 89.7367 478.051 83.9179C476.105 80.2295 474.165 76.5516 472.958 73.035C473.235 72.7743 473.379 72.3836 473.308 71.981L473.173 71.2144C473.081 70.6948 472.66 70.3165 472.161 70.2574C472.074 69.8681 471.999 69.4814 471.937 69.0975C471.62 67.1362 471.823 65.1979 472.023 63.2814V63.2814C472.132 62.2292 472.242 61.1835 472.264 60.1442C475.739 63.2401 479.946 68.6381 483.495 77.9945L488.396 76.5524C488.209 75.8562 488.012 75.1714 487.808 74.498C488.375 74.1853 489.044 72.7008 488.566 72.4533C488.061 72.1918 487.526 72.0098 486.961 71.9057Z" fill="#89C5CC"/>
<path fill-rule="evenodd" clip-rule="evenodd" d="M463.89 42.4789L465.228 46.5957L462.533 49.6819L464.969 52.1071L459.075 62.1995L466.283 52.1273L463.89 49.6819L466.283 46.9546L463.89 42.4789Z" fill="black" fill-opacity="0.1"/>
<path fill-rule="evenodd" clip-rule="evenodd" d="M460.803 66.0915C460.23 66.0915 459.765 65.6268 459.765 65.0535C459.765 64.4803 460.23 64.0156 460.803 64.0156C461.377 64.0156 461.841 64.4803 461.841 65.0535C461.841 65.6268 461.377 66.0915 460.803 66.0915ZM459.506 72.0594C458.933 72.0594 458.468 71.5947 458.468 71.0214C458.468 70.4482 458.933 69.9835 459.506 69.9835C460.079 69.9835 460.544 70.4482 460.544 71.0214C460.544 71.5947 460.079 72.0594 459.506 72.0594ZM458.209 76.9894C458.209 77.5627 458.673 78.0274 459.246 78.0274C459.82 78.0274 460.284 77.5627 460.284 76.9894C460.284 76.4162 459.82 75.9515 459.246 75.9515C458.673 75.9515 458.209 76.4162 458.209 76.9894Z" fill="black" fill-opacity="0.4"/>
<path fill-rule="evenodd" clip-rule="evenodd" d="M514.014 40.4663C512.333 41.479 510.683 41.9683 509.908 41.7686C507.964 41.2677 507.786 34.1584 509.289 31.3557C510.793 28.5531 518.523 27.3315 518.912 32.8845C519.048 34.8119 518.238 36.5319 517.043 37.9354L519.186 47.9279H512.959L514.014 40.4663Z" fill="#B28B67"/>
<path fill-rule="evenodd" clip-rule="evenodd" d="M510.692 29.5075C510.835 29.4224 511.133 29.2428 511.285 29.1777C511.32 29.1621 511.571 28.9834 511.578 28.9856C511.767 29.0496 512.317 29.2859 512.364 29.49C512.371 29.5055 512.378 29.52 512.385 29.5327C512.463 29.6741 512.534 29.8191 512.603 29.9659C512.752 30.288 512.881 30.6247 513.004 30.9588C513.244 31.6093 513.453 32.2751 513.645 32.9423C513.84 33.6216 514.005 34.3087 514.191 34.9908C514.458 35.9722 514.799 36.9296 515.064 37.9106C515.234 38.537 515.328 39.1708 515.283 39.8155C515.283 39.8233 515.283 39.8309 515.282 39.8388C515.282 39.842 515.281 39.8452 515.281 39.8484C515.273 39.9475 515.263 40.0469 515.248 40.1465C515.236 40.2317 515.223 40.3172 515.21 40.4028C514.968 39.92 514.783 39.3881 514.587 38.8832C514.567 38.8338 514.549 38.784 514.531 38.7341C514.468 38.6317 514.403 38.53 514.338 38.4288C513.927 37.7902 513.514 37.1539 513.12 36.5038C512.411 35.3345 511.708 34.1405 510.867 33.0667C510.619 32.7496 510.365 32.4374 510.12 32.1177C509.98 31.9358 509.844 31.7508 509.713 31.5626C509.619 31.428 509.21 30.9588 509.358 30.6769C509.434 30.5326 510.322 29.7284 510.692 29.5075Z" fill="#2C2C2C"/>
<path fill-rule="evenodd" clip-rule="evenodd" d="M511.24 29.2013C511.101 29.248 511.168 28.9593 511.303 28.8577C511.925 28.3871 514.305 28.2163 516.376 28.6462C517.763 28.9342 519.377 29.651 520.485 30.5725C521.484 31.4032 522.171 32.7349 522.524 34.0216C522.896 35.3726 522.952 36.7811 522.745 38.1664C522.7 38.4708 522.602 38.7608 522.547 39.0586C522.486 39.394 522.455 39.717 522.345 40.0433C522.279 40.2431 522.165 40.439 522.108 40.6399C522.043 40.8692 522.082 41.0813 522.13 41.3145C522.207 41.6946 522.303 42.0739 522.44 42.4369C522.645 42.982 522.893 43.4925 523.049 44.0582C523.257 44.8109 524.124 47.2602 523.49 47.9278H511.42C511.723 47.0987 512.636 46.1229 512.821 45.2353C512.929 44.7125 512.981 43.5707 512.992 43.5292C513.264 41.6541 513.796 40.7587 514.128 40.4337C514.461 40.1088 514.904 40.0088 514.927 39.7269C515.021 38.5611 514.558 37.4441 514.218 36.356C513.812 35.0592 513.516 33.7303 513.098 32.4379C512.913 31.8656 511.96 28.9593 511.24 29.2013Z" fill="#8991DC"/>
<path fill-rule="evenodd" clip-rule="evenodd" d="M515.927 34.731C516.025 32.7576 515.927 31.9867 515.472 30.5424H515.752C516.196 31.1156 516.567 32.8687 516.15 34.731H515.927ZM521.427 34.6381L521.427 34.6381L521.427 34.6379C521.476 34.5181 521.526 34.3955 521.578 34.2697L521.757 34.3555C521.194 36.4147 520.509 38.0043 518.157 39.337L517.975 39.2089C520.198 37.6452 520.675 36.4782 521.427 34.6381ZM518.093 32.175C518.07 32.3536 518.047 32.5275 518.025 32.6974C517.687 35.3061 517.473 36.9605 515.588 39.9608L515.802 40.0261C517.867 37.2436 518.195 34.9726 518.292 32.191L518.093 32.175ZM520.127 40.631L520.31 40.8531C519.395 41.0446 518.773 41.7177 518.059 42.4892C517.305 43.3056 516.448 44.2322 515.035 44.8155L514.772 44.6565C516.315 43.8544 517.033 43.0572 517.659 42.3611C518.308 41.6405 518.859 41.0282 520.127 40.631Z" fill="black" fill-opacity="0.2"/>
<path fill-rule="evenodd" clip-rule="evenodd" d="M530.442 80.363H510.396L507.769 112.539H537.61L530.442 80.363Z" fill="#C5CFD6"/>
<path fill-rule="evenodd" clip-rule="evenodd" d="M530.442 80.363H524.277L520.587 112.539H537.61L530.442 80.363Z" fill="black" fill-opacity="0.1"/>
<path fill-rule="evenodd" clip-rule="evenodd" d="M499.382 86.7373C501.635 91.5148 505.155 103.112 505.155 103.112L502.166 104.477C502.166 104.477 494.584 92.2866 489.95 83.9531C490.166 85.8292 490.386 87.9414 490.59 90.1618C491.073 95.4216 490.59 106.785 490.33 110.068C490.167 112.131 487.364 111.699 487.102 110.062C487.058 109.785 486.877 108.812 486.608 107.361C485.286 100.243 481.827 81.6132 481.821 77.0517C481.819 75.2162 485.405 73.5674 487.542 74.8506C489.01 73.284 491.788 72.381 493.385 74.9687C494.4 76.6138 496.811 81.2839 499.382 86.7373Z" fill="#B28B67"/>
<path fill-rule="evenodd" clip-rule="evenodd" d="M504.941 98.8187L494.684 74.5214C492.227 70.5688 485.338 75.3257 486.176 77.6181C488.079 82.8227 497.753 99.6721 498.32 101.223L504.941 98.8187Z" fill="#1F28CF"/>
<path fill-rule="evenodd" clip-rule="evenodd" d="M504.7 101.747C504.904 101.472 505.297 101.406 505.558 101.628C505.978 101.984 506.547 102.504 506.758 102.869C507.109 103.477 507.579 104.76 507.579 104.76C506.874 105.167 494.905 112.078 494.905 112.078C494.905 112.078 493.468 110.73 494.457 109.985C495.446 109.24 496.09 108.729 496.09 108.729L500.444 102.729C500.541 102.595 500.729 102.568 500.86 102.669L501.742 103.348C501.742 103.348 502.993 103.239 503.609 102.883C503.966 102.677 504.4 102.151 504.7 101.747Z" fill="#E4E4E4"/>
<path fill-rule="evenodd" clip-rule="evenodd" d="M490.201 108.489C490.516 108.353 490.889 108.493 491.004 108.815C491.19 109.334 491.422 110.068 491.422 110.49C491.422 111.192 491.188 112.538 491.188 112.538C490.374 112.538 476.553 112.538 476.553 112.538C476.553 112.538 475.983 110.652 477.212 110.502C478.441 110.352 479.254 110.231 479.254 110.231L486.025 107.212C486.175 107.145 486.352 107.215 486.415 107.368L486.839 108.397C486.839 108.397 487.977 108.928 488.688 108.928C489.101 108.928 489.739 108.689 490.201 108.489Z" fill="#E4E4E4"/>
<path fill-rule="evenodd" clip-rule="evenodd" d="M481.102 78.9184C481.102 85.812 484.376 101.892 484.378 103.41L491.422 103.415C491.422 103.415 489.876 81.8933 490.325 81.6614C490.775 81.4296 508.762 83.4572 514.156 83.4572C521.935 83.4572 525.153 78.5518 525.414 69.4647H510.004C506.867 69.8005 490.501 73.1014 484.423 74.2362C481.821 74.722 481.102 77.0194 481.102 78.9184Z" fill="#2B44FF"/>
<path fill-rule="evenodd" clip-rule="evenodd" d="M537.506 81.1177C536.746 79.5751 532.947 59.7213 532.947 59.7213L527.265 59.7426C527.265 59.7426 533.756 80.7737 534.157 81.7657C534.677 83.0544 533.793 84.9267 533.194 86.1962C533.102 86.3926 533.016 86.5746 532.943 86.7378C533.774 87.1096 534.173 86.6602 534.594 86.1863C535.069 85.6511 535.572 85.0847 536.757 85.6356C537.214 85.8484 537.647 86.1001 538.07 86.3459C539.531 87.195 540.873 87.9751 542.698 86.8486C542.988 86.6701 543.305 85.9976 542.539 85.4722C540.629 84.1631 537.878 81.8719 537.506 81.1177ZM489.652 73.3817L497.003 66.2109L499.444 70.4353L491.801 74.9418C489.884 77.9608 488.758 79.2653 488.424 78.8552C488.141 78.5094 488.271 78.1304 488.39 77.7813C488.483 77.5094 488.569 77.2556 488.45 77.0497C488.179 76.5797 486.644 76.8489 485.199 77.1666C483.753 77.4843 484.088 76.7743 484.395 76.4037C485.761 75.3013 487.513 74.294 489.652 73.3817Z" fill="#B28B67"/>
<path fill-rule="evenodd" clip-rule="evenodd" d="M515.633 43.603L513.389 43.2181C509.855 55.7126 491.694 64.2294 490.579 68.9001C490.17 70.613 491.403 71.4789 490.766 72.0006L493.683 74.1356C494.176 73.5593 495.23 74.6134 497.431 73.8761C499.632 73.1388 515.633 58.3975 515.633 43.603Z" fill="#DB2721"/>
<path fill-rule="evenodd" clip-rule="evenodd" d="M519.491 41.0038C520.136 40.9587 520.696 41.445 520.741 42.0899L520.838 43.4774C525.06 46.727 535.526 56.4373 538.253 74.5136C538.54 76.4125 538.022 77.4295 537.608 78.2422C537.325 78.7981 537.09 79.2583 537.195 79.8397L533.378 80.8933C533.378 80.464 532.897 80.1374 532.277 79.7161C531.374 79.1035 530.177 78.2905 529.734 76.6701C529.314 75.1341 528.7 73.2156 527.966 71.0814C527.896 73.9079 527.36 76.5074 526.192 78.6604C523.279 84.0318 506.444 78.1411 504.685 72.6613C503.746 69.7372 505.078 67.2822 506.839 64.0354C509.075 59.914 512.003 54.5166 511.859 45.2639L511.681 42.7234C511.636 42.0785 512.122 41.5191 512.767 41.474L519.491 41.0038Z" fill="#FF4133"/>
</svg>
