<svg viewBox="0 0 55 20">
  <path d="M0 0H11.2442L13 3.32432H3.99109V7.94595H11.0025L12.0012 9.62162L11.0025 11.2973H3.99109V16.6486H13L11.5408 20H0V0Z" fill="#699AFE"/>
  <path d="M23.5261 20C22.3415 20 21.2875 19.832 20.3641 19.496C19.4408 19.1424 18.6481 18.5942 17.9861 17.8515C17.3415 17.1088 16.8449 16.1538 16.4965 14.9867C16.1655 13.8196 16 12.4226 16 10.7958V0L19.8676 1.45395V11.1406C19.8676 12.1662 19.946 13.0327 20.1028 13.7401C20.277 14.4297 20.5209 14.9867 20.8345 15.4111C21.1481 15.8355 21.5314 16.145 21.9843 16.3395C22.4373 16.5164 22.9512 16.6048 23.5261 16.6048C24.101 16.6048 24.615 16.5164 25.0679 16.3395C25.5383 16.145 25.939 15.8355 26.27 15.4111C26.601 14.9867 26.8537 14.4297 27.0279 13.7401C27.2021 13.0327 27.2892 12.1662 27.2892 11.1406V1.45395L31 0V10.7958C31 12.4226 30.8345 13.8196 30.5035 14.9867C30.1725 16.1538 29.6847 17.1088 29.0401 17.8515C28.3955 18.5942 27.6115 19.1424 26.6882 19.496C25.7648 19.832 24.7108 20 23.5261 20Z" fill="#373E6A"/>
  <path d="M33 0L37 1.001V18.999L33 20V0Z" fill="#373E6A"/>
  <path d="M39 1.001L41.6806 0H44.7083C46.3017 0 47.7264 0.198198 48.9824 0.594594C50.2572 0.99099 51.3351 1.6036 52.2162 2.43243C53.116 3.24324 53.8002 4.27027 54.2689 5.51351C54.7563 6.75676 55 8.22523 55 9.91892C55 11.5946 54.7563 13.0631 54.2689 14.3243C53.8002 15.5856 53.1254 16.6396 52.2443 17.4865C51.382 18.3153 50.3322 18.9459 49.0949 19.3784C47.8576 19.7928 46.4704 20 44.9332 20H41.9666L39 18.999V1.001ZM44.4552 16.7838C45.43 16.7838 46.3017 16.6577 47.0703 16.4054C47.8576 16.1351 48.5231 15.7297 49.0668 15.1892C49.6104 14.6306 50.0228 13.9189 50.304 13.0541C50.604 12.1892 50.754 11.1441 50.754 9.91892C50.754 8.69369 50.604 7.65766 50.304 6.81081C50.0228 5.94595 49.6104 5.25225 49.0668 4.72973C48.5231 4.18919 47.8576 3.8018 47.0703 3.56757C46.3017 3.31531 45.43 3.18919 44.4552 3.18919H43.1617V16.7838H44.4552Z" fill="#373E6A"/>
</svg>
