<svg width="44" height="16" viewBox="0 0 44 16">
<path d="M0 0H8.87105L10.2563 2.62272H3.14876V6.26894H8.68036L9.46834 7.59096L8.68036 8.91298H3.14876V13.1349H10.2563L9.10508 15.779H0V0Z" fill="white"/>
<path d="M18.5609 15.779C17.6263 15.779 16.7947 15.6464 16.0662 15.3813C15.3378 15.1023 14.7124 14.6698 14.1901 14.0839C13.6815 13.4979 13.2898 12.7445 13.0149 11.8238C12.7537 10.903 12.6232 9.80081 12.6232 8.51729V0L15.6745 1.14709V8.78934C15.6745 9.59852 15.7364 10.2821 15.8601 10.8402C15.9975 11.3843 16.1899 11.8238 16.4373 12.1586C16.6847 12.4934 16.9871 12.7376 17.3445 12.891C17.7018 13.0305 18.1073 13.1003 18.5609 13.1003C19.0145 13.1003 19.4199 13.0305 19.7773 12.891C20.1484 12.7376 20.4645 12.4934 20.7257 12.1586C20.9868 11.8238 21.1861 11.3843 21.3236 10.8402C21.461 10.2821 21.5298 9.59852 21.5298 8.78934V1.14709L24.4574 0V8.51729C24.4574 9.80081 24.3268 10.903 24.0657 11.8238C23.8045 12.7445 23.4197 13.4979 22.9111 14.0839C22.4025 14.6698 21.784 15.1023 21.0556 15.3813C20.3271 15.6464 19.4955 15.779 18.5609 15.779Z" fill="#373E6A"/>
<path d="M26.0353 0L29.1911 0.789738V14.9892L26.0353 15.779V0Z" fill="#373E6A"/>
<path d="M30.769 0.789738L32.8838 0H35.2725C36.5296 0 37.6536 0.156368 38.6446 0.469103C39.6503 0.781839 40.5007 1.26516 41.1958 1.91906C41.9057 2.55875 42.4456 3.36902 42.8153 4.34987C43.1999 5.33073 43.3921 6.48927 43.3921 7.82551C43.3921 9.14753 43.1999 10.3061 42.8153 11.3011C42.4456 12.2962 41.9131 13.1278 41.218 13.7959C40.5377 14.4498 39.7094 14.9474 38.7333 15.2885C37.7572 15.6155 36.6627 15.779 35.4499 15.779H33.1094L30.769 14.9892V0.789738ZM35.0728 13.2415C35.8419 13.2415 36.5296 13.142 37.136 12.943C37.7572 12.7298 38.2822 12.4099 38.7111 11.9835C39.14 11.5428 39.4654 10.9813 39.6872 10.299C39.9239 9.61663 40.0422 8.79215 40.0422 7.82551C40.0422 6.85887 39.9239 6.04149 39.6872 5.37337C39.4654 4.69104 39.14 4.14375 38.7111 3.73151C38.2822 3.30505 37.7572 2.99942 37.136 2.81462C36.5296 2.61561 35.8419 2.5161 35.0728 2.5161H34.0523V13.2415H35.0728Z" fill="#373E6A"/>
</svg>
