<svg width="189" height="95" viewBox="0 0 189 95" fill="none" xmlns="http://www.w3.org/2000/svg">
<path fill-rule="evenodd" clip-rule="evenodd" d="M34.2472 18.0102C35.6726 18.8693 37.0731 19.2844 37.7306 19.115C39.3791 18.69 39.5307 12.6591 38.2551 10.2816C36.9796 7.90401 30.4221 6.86771 30.0916 11.5784C29.9768 13.2134 30.6633 14.6724 31.6776 15.863L29.8589 24.3398H35.1419L34.2472 18.0102Z" fill="#E0D0C1"/>
<path fill-rule="evenodd" clip-rule="evenodd" d="M40.5956 6.98571C40.4862 6.60117 40.1919 6.27193 39.7954 6.17425C39.6992 6.15056 39.5999 6.14099 39.5009 6.14498C39.4654 6.14639 39.4555 6.15663 39.4389 6.13181C39.4266 6.1134 39.4263 6.06845 39.4212 6.04682C39.4055 5.97957 39.3858 5.91316 39.3615 5.84847C39.2785 5.62783 39.1391 5.43256 38.971 5.26807C38.6565 4.96033 38.2317 4.74795 37.7904 4.70952C37.5488 4.68851 37.309 4.72775 37.0806 4.80633C36.9624 4.84701 36.8477 4.89767 36.7361 4.95367C36.7024 4.97052 36.5934 5.05308 36.5596 5.04773C36.5224 5.04184 36.4475 4.94923 36.4172 4.92599C36.0426 4.63865 35.5802 4.52567 35.1137 4.52913C34.5871 4.53302 34.0801 4.55933 33.641 4.88031C33.548 4.94826 33.4595 5.02267 33.3752 5.101C33.3308 5.14225 33.2878 5.18503 33.2468 5.2296C33.2221 5.25649 33.198 5.28399 33.1748 5.31222C33.1355 5.36014 33.1418 5.37588 33.0867 5.34244C32.8753 5.21405 32.6304 5.154 32.3838 5.18431C32.2373 5.20232 32.0948 5.2463 31.9595 5.30418C31.9134 5.32388 31.8067 5.40248 31.7576 5.40325C31.7089 5.404 31.6038 5.33114 31.5536 5.31262C31.2826 5.21257 30.9905 5.18791 30.7056 5.23414C30.4117 5.28185 30.1231 5.39908 29.8741 5.56109C29.7544 5.63902 29.6499 5.72537 29.566 5.84124C29.5298 5.89128 29.497 5.9442 29.4559 5.99059C29.4319 6.01775 29.3843 6.04562 29.3714 6.08C29.3791 6.05941 29.05 5.93255 29.019 5.92444C28.8535 5.88123 28.6851 5.88999 28.5231 5.9433C28.2184 6.04355 27.9565 6.26837 27.7411 6.49887C27.6306 6.61726 27.5338 6.74813 27.4516 6.88756C27.4123 6.95434 27.3763 7.02304 27.3433 7.09319C27.3274 7.12718 27.3168 7.16969 27.2958 7.20031C27.2686 7.23976 27.2504 7.24051 27.2013 7.25771C26.952 7.34506 26.7248 7.4929 26.5517 7.69266C26.3766 7.89477 26.263 8.14366 26.2154 8.40576C26.2126 8.42119 26.2109 8.48518 26.2019 8.49353C26.1895 8.50504 26.1394 8.49995 26.1204 8.50218C26.0547 8.50988 25.9895 8.52134 25.9252 8.53658C25.8066 8.56465 25.6911 8.60597 25.5819 8.66C25.1562 8.87064 24.8517 9.26553 24.7027 9.70988C24.5464 10.1762 24.5492 10.7104 24.736 11.1681C24.7662 11.242 24.8021 11.3137 24.8443 11.3816C24.8702 11.4232 24.8786 11.4233 24.8617 11.4671C24.843 11.5157 24.8088 11.5629 24.7865 11.6105C24.7139 11.7655 24.6631 11.93 24.631 12.098C24.5784 12.3735 24.5523 12.6631 24.6042 12.9407C24.6283 13.0696 24.6703 13.1957 24.7344 13.3105C24.7671 13.369 24.8053 13.4246 24.8484 13.4759C24.8708 13.5026 24.8946 13.5281 24.9195 13.5525C24.9338 13.5664 24.9524 13.5786 24.9645 13.5942C24.9941 13.6321 25.0003 13.6009 24.985 13.6567C24.9637 13.7346 24.9155 13.8115 24.8859 13.8873C24.8554 13.9655 24.8279 14.0447 24.8027 14.1247C24.7517 14.2867 24.7085 14.4516 24.6815 14.6194C24.6297 14.9414 24.6388 15.2846 24.7912 15.5803C24.8563 15.7067 24.9498 15.8176 25.0631 15.9039C25.1186 15.9461 25.1787 15.9825 25.2417 16.0124C25.2741 16.0278 25.3155 16.0344 25.3302 16.0657C25.3461 16.0994 25.3225 16.1662 25.3171 16.2039C25.2703 16.5315 25.2468 16.8755 25.3442 17.1965C25.4339 17.4922 25.6314 17.7533 25.8878 17.9261C26.3852 18.2614 27.0556 18.2425 27.5783 17.9741C27.7145 17.9041 27.8419 17.8172 27.9556 17.7147C28.2451 18.1045 28.8409 18.0921 29.264 17.9811C29.7912 17.8428 30.2142 17.4762 30.4579 16.9946C30.7911 17.4003 31.4905 17.2686 31.7216 16.8285C31.7781 16.7208 31.8117 16.6021 31.8282 16.482C31.8369 16.4188 31.8314 16.3551 31.8379 16.2924C31.8462 16.2126 31.8996 16.135 31.9302 16.0577C31.9899 15.9074 32.027 15.7521 32.0286 15.5899C32.0294 15.5053 32.0187 15.4227 32.0107 15.3388C32.0034 15.2631 32.0244 15.1927 32.0363 15.1181C31.9011 15.1403 31.7364 15.1039 31.609 15.0647C31.484 15.0262 31.3669 14.9249 31.2787 14.8324C31.0739 14.6175 30.9487 14.3358 30.8631 14.0555C30.6753 13.4402 30.7523 12.702 31.3711 12.3643C31.6594 12.207 32.5232 12.2075 32.8666 12.2852C33.2276 12.367 33.6369 13.1637 33.6571 13.2385C33.6695 13.2849 33.6633 13.3422 33.7058 13.3731C33.7994 13.441 33.9537 13.3232 34.0227 13.265C34.1418 13.1647 34.2268 13.0311 34.3003 12.8958C34.4606 12.6009 34.5899 12.2846 34.6812 11.9618C34.7515 11.7129 34.7965 11.4562 34.8885 11.2136C34.9801 10.9723 35.1244 10.7566 35.3487 10.6198C35.5928 10.4711 35.8725 10.3928 36.1405 10.2993C36.406 10.2067 36.667 10.0934 36.8729 9.89689C36.9182 9.85367 36.9621 9.80774 36.9986 9.75686C37.0273 9.71668 37.0558 9.63978 37.0996 9.61431C37.1677 9.57468 37.2671 9.67773 37.3261 9.71514C37.6167 9.89974 37.8592 10.1572 38.0548 10.4385C38.2493 10.7182 38.4089 10.9873 38.5386 11.2997C38.6347 11.5313 38.6948 11.828 38.864 12.0179C38.9395 12.1026 39.5009 12.1539 39.6828 12.0799C39.8646 12.0059 40.0684 11.8137 40.1295 11.6933C40.192 11.57 40.2069 11.4346 40.1802 11.2997C40.1645 11.2203 40.1324 11.1461 40.1149 11.0681C40.1001 11.0026 40.0867 10.9407 40.0548 10.8807C39.9944 10.767 39.8912 10.6853 39.7667 10.6511C39.8962 10.5317 40.0036 10.3888 40.0779 10.229C40.155 10.0631 40.2205 9.86126 40.239 9.67911C40.2541 9.53117 40.2308 9.3779 40.1498 9.25076C40.0649 9.11739 39.9144 9.03038 39.7841 8.94718C39.9831 8.79155 40.1533 8.60228 40.2933 8.39273C40.5654 7.98522 40.7338 7.47155 40.5956 6.98571Z" fill="#191847"/>
<path fill-rule="evenodd" clip-rule="evenodd" d="M25.8184 41.9497C26.2153 47.3669 51.7846 63.3156 51.9338 63.7631C52.0332 64.0614 43.975 82.6235 43.975 82.6235L46.2101 83.4921C46.2101 83.4921 58.5701 63.8334 57.9352 61.7387C57.0263 58.7397 38.0963 42.0073 38.0963 42.0073L25.8184 41.9497Z" fill="#E0D0C1"/>
<path fill-rule="evenodd" clip-rule="evenodd" d="M44.5632 79.829L48.2124 81.1574C55.9073 72.4753 58.9235 65.3117 58.3736 61.6617C57.8236 58.0118 38.6031 41.9632 38.6031 41.9632L25.5567 41.9632C26.0018 54.5085 49.7014 63.811 50.0184 64.3456C50.3354 64.8802 47.2158 70.1161 44.5632 79.829Z" fill="#2F3676"/>
<path fill-rule="evenodd" clip-rule="evenodd" d="M43.8528 82.2148C43.6425 82.0159 43.3063 82.0188 43.1214 82.2415C42.8227 82.6014 42.4233 83.1203 42.3008 83.457C42.0972 84.0165 41.8929 85.1577 41.8929 85.1577C42.542 85.394 53.5594 89.404 53.5594 89.404C53.5594 89.404 54.5614 88.0661 53.6252 87.5896C52.6891 87.1131 52.0762 86.7807 52.0762 86.7807L47.5536 82.409C47.4534 82.3122 47.2931 82.3172 47.1992 82.4201L46.5617 83.1181C46.5617 83.1181 45.5007 83.2112 44.9336 83.0048C44.6038 82.8848 44.1635 82.5086 43.8528 82.2148Z" fill="#E4E4E4"/>
<path fill-rule="evenodd" clip-rule="evenodd" d="M28.7583 41.9497L17.3679 69.2948L6.17285 92.4128H8.81412L37.7115 41.9497H28.7583Z" fill="#E0D0C1"/>
<path fill-rule="evenodd" clip-rule="evenodd" d="M6.67903 91.1233C6.41336 91.0083 6.09842 91.126 6.00089 91.3986C5.8433 91.8389 5.64548 92.4631 5.64548 92.8214C5.64548 93.4168 5.84386 94.5591 5.84386 94.5591C6.53458 94.5591 18.2592 94.5591 18.2592 94.5591C18.2592 94.5591 18.7431 92.9592 17.7004 92.8316C16.6578 92.7041 15.9681 92.6013 15.9681 92.6013L10.2231 90.0401C10.0959 89.9834 9.94693 90.0429 9.89384 90.1717L9.53354 91.0457C9.53354 91.0457 8.56831 91.496 7.96483 91.496C7.61388 91.496 7.07149 91.2931 6.67903 91.1233Z" fill="#E4E4E4"/>
<path fill-rule="evenodd" clip-rule="evenodd" d="M7.18381 87.6103L13.0527 88.7109C17.5906 82.0394 36.5816 54.6842 38.6638 41.9497H25.5982C18.6448 51.1554 11.5093 80.8285 7.18381 87.6103Z" fill="#5C63AB"/>
<path fill-rule="evenodd" clip-rule="evenodd" d="M56.1051 33.0797L48.1291 36.5825L50.6759 39.8452L56.6495 35.2653C59.6332 34.7172 61.0169 34.2464 60.8007 33.8528C60.6184 33.521 60.2792 33.5023 59.9667 33.485C59.7234 33.4716 59.4962 33.4591 59.3721 33.3001C59.0887 32.9371 59.7881 31.8156 60.4973 30.7797C61.2066 29.7438 60.5418 29.7812 60.1527 29.9051C58.8515 30.6292 57.5023 31.6874 56.1051 33.0797ZM20.3937 38.4423L15.883 37.5473C12.8239 45.6103 11.0001 50.0287 10.4116 50.8026C9.98013 51.3702 7.31898 52.832 5.51776 53.6126C4.79478 53.926 4.95001 54.5369 5.16206 54.7324C6.4996 55.9653 7.74306 55.5332 9.09662 55.0628C9.48848 54.9266 9.88957 54.7872 10.3048 54.6841C11.3797 54.4172 11.7068 54.9699 12.0159 55.4922C12.2896 55.9547 12.5492 56.3934 13.3012 56.2183C13.267 56.0708 13.225 55.9054 13.1796 55.7269C12.8864 54.5734 12.4541 52.8723 13.0955 51.8839C13.4247 51.3767 15.8574 46.8961 20.3937 38.4423Z" fill="#E0D0C1"/>
<path fill-rule="evenodd" clip-rule="evenodd" d="M32.6534 20.6709L34.5568 20.3444C38.7027 24.3661 40.3945 34.028 43.1574 35.3069C45.7696 36.5161 49.4726 35.346 53.8742 33.7661L55.2222 36.7778C51.2229 41.1045 42.7029 44.7599 39.2494 42.6731C33.7279 39.3368 32.4532 27.4202 32.6534 20.6709Z" fill="#C8AF59"/>
<path fill-rule="evenodd" clip-rule="evenodd" d="M24.3559 44.5912C24.3559 44.5912 35.8039 44.5912 41.1977 44.5912C41.9673 44.5912 41.8223 43.48 41.7111 42.9192C40.4271 36.4476 35.4151 29.4714 35.4151 20.2591L30.5571 19.4973C26.5389 25.9598 25.1494 33.9163 24.3559 44.5912Z" fill="#DDE3E9"/>
<path fill-rule="evenodd" clip-rule="evenodd" d="M35.7741 49.2136H20.6138C20.8536 45.5957 21.6226 41.7696 22.6759 38.0391C19.2427 44.2321 16.3568 48.6907 14.0184 51.415L10.4882 50.7236C12.7622 36.6208 19.3473 26.212 30.2437 19.4973H30.299C30.2991 19.4972 30.2991 19.4971 30.2992 19.4971H32.1672C32.1672 19.4971 38.709 41.7966 35.7741 49.2136Z" fill="#E5D084"/>
<path fill-rule="evenodd" clip-rule="evenodd" d="M103.259 21.8437C104.275 23.162 105.429 24.0575 106.103 24.1385C107.793 24.3414 110.125 18.7776 109.801 16.0991C109.476 13.4206 103.743 10.0729 101.724 14.3418C101.023 15.8233 101.132 17.4322 101.645 18.9099L96.8709 26.147L101.793 28.0661L103.259 21.8437Z" fill="#E0D0C1"/>
<path fill-rule="evenodd" clip-rule="evenodd" d="M111.197 14.2493C110.77 15.3446 109.562 15.9045 108.459 15.541C107.766 15.4907 106.917 15.321 106.013 15.0365C105.973 15.3916 105.877 15.7752 105.716 16.1882C105.573 16.5528 105.382 16.9239 105.155 17.2877C105.053 16.986 104.855 16.7381 104.596 16.637C103.87 16.3541 103.132 16.7541 102.885 17.3877C102.572 18.192 102.809 18.9548 103.469 19.2656C102.402 20.1992 101.213 20.7524 100.37 20.4236C98.7682 19.799 98.4643 17.2133 99.3621 14.9106C99.3937 14.8297 99.4266 14.7499 99.4609 14.6713C98.7735 14.832 98.0808 15.1239 97.3831 15.4178C95.9008 16.0424 94.3959 16.6765 92.8713 16.082C89.821 14.8927 91.0085 8.26782 95.2702 9.92951C98.1686 11.0596 99.4295 12.0381 100.414 13.1421C100.923 12.5535 101.517 12.1232 102.125 11.8983C102.281 11.8182 102.494 11.766 102.752 11.7414C102.911 11.7208 103.069 11.7153 103.226 11.7256C104.073 11.7422 105.221 11.9686 106.437 12.3943C106.664 12.4737 106.884 12.5572 107.098 12.6437C107.542 11.5153 108.815 10.958 109.946 11.3988C111.078 11.8405 111.638 13.1167 111.197 14.2493Z" fill="#191847"/>
<path fill-rule="evenodd" clip-rule="evenodd" d="M78.3756 63.5411C78.3756 63.5411 86.2965 65.7566 92.0434 65.7566C97.7903 65.7566 102.719 62.3448 102.719 62.3448C102.719 62.3448 94.9681 60.0708 89.9523 60.0708C84.9365 60.0708 78.3756 63.5411 78.3756 63.5411Z" fill="#C8AF59"/>
<path fill-rule="evenodd" clip-rule="evenodd" d="M96.6147 67.8855C96.5638 67.8089 96.5208 67.7256 96.4867 67.6354C95.7808 65.7688 84.475 45.6314 83.3486 41.9497H96.0774C96.9338 44.7489 100.788 62.3154 101.331 65.8201C103.042 71.3485 106.566 89.2529 107.016 90.4933C107.489 91.7981 104.826 93.1574 104.117 91.5533C102.988 89.0008 100.298 81.9382 99.0999 77.6259C97.977 73.583 97.0626 69.9458 96.6147 67.8855Z" fill="#E0D0C1"/>
<path fill-rule="evenodd" clip-rule="evenodd" d="M86.2007 70.3441C81.0319 71.6505 62.1253 74.0122 60.8279 74.3826C59.4932 74.7637 58.3229 72.0126 59.9727 71.4167C62.5977 70.4685 69.8307 68.2776 74.2161 67.3835C77.7435 66.6644 80.9623 66.0776 83.1233 65.7339C82.9402 59.6637 82.1033 45.096 82.6519 41.9497H93.9145C93.3885 44.9668 88.9419 66.9815 88.1155 69.1851C87.8532 69.9718 87.0706 70.3195 86.2007 70.3441Z" fill="#E0D0C1"/>
<path fill-rule="evenodd" clip-rule="evenodd" d="M60.4269 71.2999C60.494 71.0183 60.3234 70.7285 60.038 70.6798C59.577 70.6011 58.9279 70.5147 58.5751 70.5769C57.9887 70.6803 56.8982 71.074 56.8982 71.074C57.0182 71.7542 59.0541 83.3007 59.0541 83.3007C59.0541 83.3007 60.7138 83.4994 60.6583 82.4505C60.6029 81.4015 60.5844 80.7045 60.5844 80.7045L62.109 74.602C62.1428 74.4668 62.0583 74.3305 61.9223 74.3006L60.999 74.0975C60.999 74.0975 60.3879 73.2252 60.2831 72.6309C60.2222 72.2852 60.3278 71.7158 60.4269 71.2999Z" fill="#E4E4E4"/>
<path fill-rule="evenodd" clip-rule="evenodd" d="M103.973 91.1233C103.707 91.0083 103.392 91.126 103.295 91.3986C103.137 91.8389 102.939 92.4631 102.939 92.8214C102.939 93.4168 103.138 94.5591 103.138 94.5591C103.829 94.5591 115.553 94.5591 115.553 94.5591C115.553 94.5591 116.037 92.9592 114.994 92.8316C113.952 92.7041 113.262 92.6013 113.262 92.6013L107.517 90.0401C107.39 89.9834 107.241 90.0429 107.188 90.1717L106.828 91.0457C106.828 91.0457 105.862 91.496 105.259 91.496C104.908 91.496 104.366 91.2931 103.973 91.1233Z" fill="#E4E4E4"/>
<path fill-rule="evenodd" clip-rule="evenodd" d="M82.6883 41.9497C82.6883 41.9497 90.1328 39.8198 96.7761 41.9497C98.3169 48.9799 102.061 51.7701 102.719 62.5485C95.2352 66.2672 85.9901 59.8964 78.2858 63.5229C76.0846 58.4503 79.1663 46.2343 82.6883 41.9497Z" fill="#E5D084"/>
<path fill-rule="evenodd" clip-rule="evenodd" d="M111.253 54.5039L107.612 46.5902L104.394 49.1936L109.078 55.0863C109.678 58.06 110.173 59.4354 110.562 59.2123C110.891 59.0242 110.904 58.6848 110.915 58.3721C110.925 58.1285 110.933 57.9011 111.09 57.7743C111.448 57.4846 112.582 58.1643 113.63 58.8553C114.678 59.5464 114.629 58.8824 114.498 58.4955C113.751 57.2072 112.67 55.8766 111.253 54.5039ZM73.7725 49.5833C74.8437 48.5928 81.4654 37.4726 81.4654 37.4726L85.7533 39.1379C85.7533 39.1379 76.8471 50.451 76.2285 51.115C75.425 51.9774 75.5553 53.7288 75.6437 54.9163C75.6573 55.1 75.67 55.2702 75.678 55.4216C74.9068 55.4635 74.7273 54.9861 74.5381 54.4829C74.3243 53.9145 74.0981 53.3131 72.9929 53.3894C72.5659 53.4188 72.1466 53.4865 71.7369 53.5526C70.3218 53.781 69.0218 53.9908 67.9184 52.5437C67.7435 52.3143 67.6967 51.6853 68.4633 51.5021C70.3734 51.0457 73.2488 50.0676 73.7725 49.5833Z" fill="#E0D0C1"/>
<path fill-rule="evenodd" clip-rule="evenodd" d="M100.587 24.1375L102.481 24.5148C102.606 33.3319 105.282 42.3266 110.508 51.4989L102.061 56.2863C97.8522 44.4668 96.6758 33.4876 100.587 24.1375Z" fill="#191847"/>
<path fill-rule="evenodd" clip-rule="evenodd" d="M84.2681 43.4953L100.092 49.5694C100.092 49.5694 99.7252 34.0882 103.313 24.7426L98.8125 22.1991C92.7452 26.7923 88.8345 33.8138 84.2681 43.4953Z" fill="#DDE3E9"/>
<path fill-rule="evenodd" clip-rule="evenodd" d="M98.7097 22.1638L98.7074 22.1592C98.7074 22.1592 83.697 28.657 74.4721 47.5162L82.1848 50.4768C82.4522 49.5926 82.7393 48.728 83.0433 47.8834L93.4009 51.8593C93.4009 51.8593 98.459 32.8409 100.59 26.7426L100.702 23.0037C100.702 23.0037 99.5767 22.5143 99.0249 22.2804L98.7133 22.1608C98.7121 22.1618 98.7109 22.1628 98.7097 22.1638Z" fill="#2F3676"/>
<path fill-rule="evenodd" clip-rule="evenodd" d="M83.014 47.9654C84.3315 44.2861 85.9698 40.9854 87.6994 38.0932C86.57 41.8794 85.4613 46.5313 85.8996 49.0731L83.014 47.9654Z" fill="black" fill-opacity="0.1"/>
<path fill-rule="evenodd" clip-rule="evenodd" d="M87.7513 42.4745L93.7788 42.06L92.8661 44.4379L87.7513 42.4745Z" fill="white" fill-opacity="0.2"/>
<path fill-rule="evenodd" clip-rule="evenodd" d="M142.419 22.1323C141.203 23.2691 139.92 23.9663 139.241 23.9372C137.541 23.8643 136.138 17.9967 136.892 15.4059C137.645 12.8151 143.844 10.4381 145.147 14.9771C145.599 16.5525 145.231 18.1224 144.486 19.4979L148.027 27.4115L142.86 28.5098L142.419 22.1323Z" fill="#E0D0C1"/>
<path fill-rule="evenodd" clip-rule="evenodd" d="M145.103 20.451C145.139 17.4278 146.568 15.0681 146.012 13.8385C145.456 12.6088 144.167 12.5542 144.167 12.5542C144.167 12.5542 142.991 10.1317 139.628 11.2457C136.264 12.3597 134.466 14.2372 136.043 17.1921C136.877 17.0147 137.821 16.4987 139.324 16.7197C140.039 16.8249 140.597 18.0446 140.597 18.0446L141.227 17.9108C141.227 17.9108 141.82 16.1964 142.797 16.4098C143.773 16.6232 143.618 18.2803 143.618 18.2803L144.434 20.5934L145.103 20.451Z" fill="#191847"/>
<path fill-rule="evenodd" clip-rule="evenodd" d="M159.511 41.9495L143.154 69.2946L130.892 92.4125H128.25L148.797 41.9495L159.511 41.9495Z" fill="#E0D0C1"/>
<path fill-rule="evenodd" clip-rule="evenodd" d="M131.843 91.123C132.108 91.0081 132.423 91.1258 132.521 91.3983C132.678 91.8387 132.876 92.4629 132.876 92.8211C132.876 93.4165 132.678 94.5588 132.678 94.5588C131.987 94.5588 120.262 94.5588 120.262 94.5588C120.262 94.5588 119.778 92.9589 120.821 92.8314C121.864 92.7038 122.553 92.601 122.553 92.601L128.299 90.0398C128.426 89.9831 128.575 90.0426 128.628 90.1714L128.988 91.0454C128.988 91.0454 129.953 91.4958 130.557 91.4958C130.908 91.4958 131.45 91.2928 131.843 91.123Z" fill="#E4E4E4"/>
<path fill-rule="evenodd" clip-rule="evenodd" d="M134.297 88.7107L129.204 87.1698C129.204 87.1698 132.551 77.1626 137.409 65.1447C142.268 53.1268 147.844 41.9495 147.844 41.9495H162.231C162.231 41.9495 156.031 56.0883 149.085 67.6433C142.139 79.1983 134.297 88.7107 134.297 88.7107Z" fill="#DB2721"/>
<path fill-rule="evenodd" clip-rule="evenodd" d="M160.586 41.9495C162.13 51.5587 165.107 63.8357 165.388 64.2145C165.575 64.4671 172.319 66.7269 185.62 70.9939L185.049 73.323C169.188 71.0346 160.831 69.2591 159.977 67.9967C158.697 66.1029 152.302 51.1425 149.826 41.9495H160.586Z" fill="#E0D0C1"/>
<path fill-rule="evenodd" clip-rule="evenodd" d="M180.944 68.9806L179.939 72.7318C168.076 73.7722 160.808 73.0204 158.133 70.4764C155.459 67.9324 152.411 58.4234 148.989 41.9495H162.707C164.875 55.4394 166.087 62.4675 166.343 63.0338C166.6 63.6001 171.466 65.5824 180.944 68.9806Z" fill="#FF4133"/>
<path fill-rule="evenodd" clip-rule="evenodd" d="M184.634 70.639C184.567 70.3574 184.737 70.0677 185.023 70.0189C185.484 69.9402 186.133 69.8538 186.486 69.916C187.072 70.0194 188.163 70.4131 188.163 70.4131C188.043 71.0933 186.007 82.6398 186.007 82.6398C186.007 82.6398 184.347 82.8386 184.402 81.7896C184.458 80.7406 184.476 80.0436 184.476 80.0436L182.952 73.9411C182.918 73.8059 183.002 73.6696 183.138 73.6397L184.062 73.4366C184.062 73.4366 184.673 72.5643 184.778 71.97C184.839 71.6243 184.733 71.0549 184.634 70.639Z" fill="#E4E4E4"/>
<path fill-rule="evenodd" clip-rule="evenodd" d="M127.013 43.4687L135.552 41.4609L135.491 45.6549L127.906 45.5719C125.175 46.9412 123.777 47.4006 123.711 46.95C123.656 46.57 123.917 46.3487 124.158 46.1448C124.345 45.9859 124.52 45.8377 124.523 45.6333C124.529 45.1667 123.285 44.6824 122.085 44.2734C120.885 43.8645 121.442 43.4908 121.83 43.3547C123.316 43.151 125.043 43.189 127.013 43.4687ZM174.137 48.2464C173.066 47.2558 161.761 33.5549 161.761 33.5549L157.267 35.2991C157.267 35.2991 171.063 49.114 171.681 49.778C172.485 50.6405 172.354 52.3918 172.266 53.5793C172.252 53.763 172.24 53.9333 172.232 54.0846C173.003 54.1265 173.182 53.6491 173.372 53.1459C173.585 52.5775 173.812 51.9761 174.917 52.0524C175.344 52.0819 175.763 52.1495 176.173 52.2157C177.588 52.4441 178.888 52.6539 179.991 51.2067C180.166 50.9773 180.213 50.3483 179.446 50.1651C177.536 49.7088 174.661 48.7306 174.137 48.2464Z" fill="#E0D0C1"/>
<path fill-rule="evenodd" clip-rule="evenodd" d="M143.956 24.0144L140.523 25.6016C142.669 33.7851 139.846 40.558 128.619 42.9415L131.094 53.5907C141.476 51.0723 148.63 43.7828 146.292 32.3791C145.687 29.427 144.941 26.3992 143.956 24.0144Z" fill="#D7DADC"/>
<path fill-rule="evenodd" clip-rule="evenodd" d="M172.738 46.447C165.296 34.3704 156.267 26.2828 145.653 22.1842L145.303 22.3184L145.302 22.3229L140.433 25.5946C142.894 32.0071 143.307 37.3461 143.703 42.479C143.875 44.6957 144.043 46.8739 144.372 49.0835L158.79 43.5492C159.888 45.8039 160.933 48.1535 161.943 50.5909L172.738 46.447Z" fill="#ECEFF2"/>
<path fill-rule="evenodd" clip-rule="evenodd" d="M158.789 43.5491C156.553 38.9589 154.095 34.7623 151.258 31.0198C153.254 35.4205 155.473 40.9785 155.859 44.6739L158.789 43.5491Z" fill="black" fill-opacity="0.1"/>
</svg>
