<svg xmlns="http://www.w3.org/2000/svg" width="12" height="12" fill="none" viewBox="0 0 12 12"><path fill="#fff" d="M10.667 2.847a5.692 5.692 0 0 0-2.08-2.08A5.592 5.592 0 0 0 5.716 0a5.592 5.592 0 0 0-2.87.767 5.691 5.691 0 0 0-2.08 2.08A5.592 5.592 0 0 0 0 5.717c0 1.245.363 2.365 1.09 3.36a5.6 5.6 0 0 0 2.818 2.066c.134.025.233.007.298-.052a.291.291 0 0 0 .096-.223l-.003-.402a66.343 66.343 0 0 1-.004-.663l-.171.03c-.11.02-.247.028-.414.026a3.148 3.148 0 0 1-.517-.052 1.156 1.156 0 0 1-.499-.223.944.944 0 0 1-.327-.458l-.074-.171a1.86 1.86 0 0 0-.235-.38.898.898 0 0 0-.324-.283l-.052-.037a.547.547 0 0 1-.164-.194c-.014-.034-.002-.063.038-.085a.483.483 0 0 1 .216-.034l.148.023c.1.02.222.079.369.178.146.1.267.228.36.387.115.204.253.359.414.466.161.106.324.16.487.16.164 0 .306-.013.425-.038a1.48 1.48 0 0 0 .335-.111c.044-.333.166-.588.364-.767a5.098 5.098 0 0 1-.763-.134 3.038 3.038 0 0 1-.7-.29 1.98 1.98 0 0 1-.598-.5 2.397 2.397 0 0 1-.391-.78 3.716 3.716 0 0 1-.153-1.117c0-.6.196-1.112.588-1.534-.183-.451-.166-.957.052-1.518.144-.045.358-.011.64.1.283.112.49.208.622.287.132.08.237.146.316.2a5.285 5.285 0 0 1 1.43-.193c.49 0 .967.065 1.429.194l.283-.179c.193-.119.422-.228.685-.327.263-.1.464-.127.603-.082.223.56.243 1.067.06 1.518.391.422.587.933.587 1.534 0 .422-.05.795-.152 1.12a2.303 2.303 0 0 1-.395.782 2.08 2.08 0 0 1-.603.495c-.24.134-.474.23-.7.29-.225.06-.48.104-.762.134.257.223.386.576.386 1.057v1.57c0 .09.032.164.094.224s.16.077.294.052a5.598 5.598 0 0 0 2.817-2.066 5.557 5.557 0 0 0 1.09-3.36 5.596 5.596 0 0 0-.766-2.87z"/></svg>