<svg width="9" height="11" viewBox="0 0 9 11" fill="none" xmlns="http://www.w3.org/2000/svg">
<path d="M5.39973 2.87508C6.14762 2.87508 6.7539 2.2688 6.7539 1.52091C6.7539 0.773029 6.14762 0.166748 5.39973 0.166748C4.65184 0.166748 4.04556 0.773029 4.04556 1.52091C4.04556 2.2688 4.65184 2.87508 5.39973 2.87508Z" fill="#373E6A"/>
<path d="M5.67057 6.47716L3.17891 5.36674C2.90807 5.23133 2.77266 5.63757 2.63724 5.90841C2.50182 6.17924 1.52682 7.85841 1.60807 8.15632C1.68932 8.40007 1.90599 8.53549 2.12266 8.53549C2.17682 8.53549 2.23099 8.53549 2.28516 8.50841L5.61641 7.47924C5.83307 7.42507 5.99557 7.20841 5.99557 6.99174C5.99557 6.77507 5.86016 6.55841 5.67057 6.47716Z" fill="#373E6A"/>
<path d="M5.07473 3.20004L4.4789 2.92921C4.12682 2.76671 3.69349 2.92921 3.53099 3.28129L0.308068 10.2146C0.172652 10.4855 0.308068 10.8105 0.578902 10.9459C0.660152 10.973 0.741402 11 0.822652 11C1.03932 11 1.2289 10.8917 1.31015 10.7021C1.31015 10.7021 3.91015 7.10004 4.12682 6.66671C4.34348 6.23337 5.4539 4.14796 5.4539 4.14796C5.58932 3.79587 5.4539 3.36254 5.07473 3.20004Z" fill="#373E6A"/>
<path d="M8.78514 3.33546C8.59555 3.11879 8.24347 3.06463 8.0268 3.25421L6.67264 4.39171L4.9393 3.44379C4.64139 3.28129 4.23514 3.33546 4.04555 3.68754C3.82889 4.03963 3.93722 4.47296 4.26222 4.60838L6.51014 5.52921C6.59139 5.55629 6.67264 5.58338 6.75389 5.58338C6.8893 5.58338 6.99764 5.52921 7.10597 5.44796L8.73097 4.09379C8.94764 3.90421 8.97472 3.57921 8.78514 3.33546Z" fill="#373E6A"/>
<path d="M0.985156 5.33958L1.90599 3.95833L3.15182 4.12083L3.55807 3.28125C3.66641 3.0375 3.88307 2.90208 4.12682 2.875C4.09974 2.875 4.07266 2.875 4.07266 2.875H1.63516C1.44557 2.875 1.28307 2.95625 1.17474 3.11875L0.0914062 4.74375C-0.0710938 4.9875 -0.016927 5.33958 0.253906 5.50208C0.308073 5.55625 0.416406 5.58333 0.52474 5.58333C0.68724 5.58333 0.876823 5.50208 0.985156 5.33958Z" fill="#373E6A"/>
</svg>
