<svg width="306" height="294" viewBox="0 0 306 294" fill="none" xmlns="http://www.w3.org/2000/svg">
<path fill-rule="evenodd" clip-rule="evenodd" d="M289.586 65.4819L293.278 61.7898C293.505 61.5633 293.872 61.5633 294.099 61.7898L297.791 65.4819C298.017 65.7085 298.017 66.0759 297.791 66.3024C297.564 66.529 297.197 66.529 296.97 66.3024L294.269 63.6007L294.269 198.068L293.108 198.068L293.108 63.6007L290.407 66.3024C290.18 66.529 289.813 66.529 289.586 66.3024C289.36 66.0759 289.36 65.7085 289.586 65.4819Z" fill="#373E6A"/>
<path d="M157.931 136.571L161.992 142.372L166.634 136.571" stroke="black" stroke-width="1.16032"/>
<path d="M8.67154 46.5112C8.82006 45.9357 8.91289 45.4252 8.95002 44.9796C8.98715 44.5248 9.00571 44.0839 9.00571 43.6569H1.96027V42.2088H10.8437V43.267C10.8437 43.7775 10.8251 44.3113 10.788 44.8682C10.7601 45.4252 10.658 46.0332 10.4816 46.6922L8.67154 46.5112ZM6.36019 53.0833C7.23275 53.0833 7.90573 52.9997 8.37914 52.8326C8.85255 52.6563 9.08926 52.3964 9.08926 52.0529C9.08926 51.7002 8.85255 51.4403 8.37914 51.2732C7.90573 51.0968 7.23275 51.0086 6.36019 51.0086C5.48763 51.0086 4.81465 51.0968 4.34124 51.2732C3.87711 51.4403 3.64505 51.7002 3.64505 52.0529C3.64505 52.3964 3.87711 52.6563 4.34124 52.8326C4.81465 52.9997 5.48763 53.0833 6.36019 53.0833ZM6.36019 49.6302C7.05638 49.6302 7.68295 49.6859 8.23991 49.7973C8.79686 49.9086 9.27491 50.0711 9.67406 50.2846C10.0732 50.4888 10.3795 50.7441 10.593 51.0504C10.8065 51.3474 10.9133 51.6816 10.9133 52.0529C10.9133 52.4242 10.8065 52.7584 10.593 53.0554C10.3795 53.3525 10.0732 53.6031 9.67406 53.8073C9.27491 54.0208 8.79686 54.1833 8.23991 54.2946C7.68295 54.406 7.05638 54.4617 6.36019 54.4617C5.67328 54.4617 5.04671 54.406 4.48048 54.2946C3.92352 54.1833 3.44547 54.0208 3.04632 53.8073C2.65646 53.6031 2.35478 53.3525 2.14128 53.0554C1.92778 52.7584 1.82103 52.4242 1.82103 52.0529C1.82103 51.6816 1.92778 51.3474 2.14128 51.0504C2.35478 50.7441 2.65646 50.4888 3.04632 50.2846C3.44547 50.0711 3.92352 49.9086 4.48048 49.7973C5.04671 49.6859 5.67328 49.6302 6.36019 49.6302ZM12.2082 47.3745V48.8226H0.665353V47.3745H4.93996V45.1328H6.77791V47.3745H12.2082ZM19.712 42.3759C19.712 44.0839 19.1922 45.5087 18.1526 46.6505C17.1222 47.7829 15.6556 48.5952 13.7526 49.0871L13.0286 47.6391C14.4581 47.2863 15.5627 46.7758 16.3425 46.1074C17.1222 45.4391 17.5771 44.6826 17.707 43.8379H13.6413V42.3759H19.712ZM16.7463 52.8744H21.4525V50.7441H16.7463V52.8744ZM14.9501 49.296H23.2626V54.3086H14.9501V49.296ZM24.9613 45.9264H23.2626V48.7808H21.4247V41.6379H23.2626V44.4227H24.9613V45.9264Z" fill="#373E6A"/>
<path d="M7.7108 130.616H0.679277V129.182H3.36657V127.984H5.20451V129.182H7.7108V130.616ZM2.99063 133.512C2.99063 133.846 3.1113 134.111 3.35265 134.306C3.59399 134.491 3.90496 134.584 4.28554 134.584C4.65685 134.584 4.96317 134.491 5.20451 134.306C5.45514 134.111 5.58046 133.846 5.58046 133.512C5.58046 133.178 5.45514 132.918 5.20451 132.732C4.96317 132.547 4.65685 132.454 4.28554 132.454C3.90496 132.454 3.59399 132.547 3.35265 132.732C3.1113 132.918 2.99063 133.178 2.99063 133.512ZM7.27916 133.512C7.27916 133.865 7.20026 134.194 7.04246 134.501C6.89394 134.798 6.68508 135.057 6.41589 135.28C6.15597 135.494 5.84037 135.661 5.46907 135.781C5.10705 135.902 4.71254 135.963 4.28554 135.963C3.85855 135.963 3.4594 135.902 3.0881 135.781C2.72608 135.661 2.41047 135.494 2.14128 135.28C1.87208 135.057 1.65859 134.798 1.50078 134.501C1.35226 134.194 1.278 133.865 1.278 133.512C1.278 133.159 1.35226 132.834 1.50078 132.537C1.65859 132.231 1.87208 131.971 2.14128 131.758C2.41047 131.535 2.72608 131.363 3.0881 131.242C3.4594 131.122 3.85855 131.061 4.28554 131.061C4.71254 131.061 5.10705 131.122 5.46907 131.242C5.84037 131.363 6.15597 131.535 6.41589 131.758C6.68508 131.971 6.89394 132.231 7.04246 132.537C7.20026 132.834 7.27916 133.159 7.27916 133.512ZM2.62861 136.812H11.3588V140.919H9.5209V138.274H2.62861V136.812ZM11.3588 128.082V136.241H9.5209V134.876H7.83611V133.414H9.5209V132.412H7.87789V130.95H9.5209V128.082H11.3588ZM23.8196 137.438H21.9677V128.096H23.8196V137.438ZM20.088 135.503C19.3732 135.262 18.7699 134.914 18.2779 134.459C17.7952 134.004 17.4146 133.475 17.1361 132.871C16.8391 133.521 16.4399 134.097 15.9387 134.598C15.4374 135.09 14.8109 135.466 14.059 135.726L13.1261 134.264C13.6552 134.087 14.11 133.846 14.4906 133.54C14.8805 133.233 15.2007 132.895 15.4513 132.523C15.702 132.143 15.883 131.744 15.9944 131.326C16.1151 130.899 16.1754 130.472 16.1754 130.045V128.792H18.0412V130.045C18.0412 130.463 18.0969 130.876 18.2083 131.284C18.3289 131.693 18.5099 132.073 18.7513 132.426C18.9926 132.779 19.299 133.094 19.6703 133.373C20.0508 133.651 20.5011 133.874 21.0209 134.041L20.088 135.503ZM24.1398 139.221V140.683H15.2843V136.547H17.1222V139.221H24.1398Z" fill="#373E6A"/>
<path d="M159.232 162.529C159.351 161.846 159.443 161.207 159.508 160.612C159.584 160.016 159.638 159.458 159.67 158.939C159.703 158.408 159.719 157.91 159.719 157.444C159.73 156.968 159.735 156.513 159.735 156.08H150.882V154.374H161.879V155.82C161.879 156.275 161.874 156.751 161.863 157.249C161.863 157.747 161.847 158.278 161.814 158.841C161.782 159.394 161.733 159.995 161.668 160.644C161.603 161.283 161.506 161.982 161.376 162.74L159.232 162.529ZM163.114 164.527V166.249H149.566V164.527H152.409V159.8H154.521V164.527H156.113V159.8H158.208V164.527H163.114ZM170.943 155.04C169.925 155.04 169.134 155.148 168.571 155.365C168.019 155.581 167.742 155.901 167.742 156.323C167.742 156.767 168.019 157.098 168.571 157.314C169.134 157.52 169.925 157.623 170.943 157.623C171.971 157.623 172.762 157.52 173.314 157.314C173.877 157.098 174.159 156.767 174.159 156.323C174.159 155.901 173.877 155.581 173.314 155.365C172.762 155.148 171.971 155.04 170.943 155.04ZM170.943 159.28C170.12 159.28 169.372 159.215 168.701 159.085C168.04 158.944 167.472 158.749 166.995 158.5C166.529 158.24 166.167 157.926 165.907 157.558C165.658 157.19 165.533 156.778 165.533 156.323C165.533 155.868 165.658 155.462 165.907 155.105C166.167 154.748 166.529 154.444 166.995 154.195C167.472 153.935 168.04 153.74 168.701 153.61C169.372 153.47 170.12 153.399 170.943 153.399C171.766 153.399 172.513 153.47 173.184 153.61C173.856 153.74 174.424 153.935 174.89 154.195C175.366 154.444 175.729 154.748 175.978 155.105C176.238 155.462 176.368 155.868 176.368 156.323C176.368 156.778 176.238 157.19 175.978 157.558C175.729 157.926 175.366 158.24 174.89 158.5C174.424 158.749 173.856 158.944 173.184 159.085C172.513 159.215 171.766 159.28 170.943 159.28ZM172.356 161.765H169.513V163.146H172.356V161.765ZM174.484 161.765V163.146H176.076V168.068H173.932V164.819H165.679V163.146H167.369V161.765H164.185V160.06H177.7V161.765H174.484ZM157.299 173.618C157.299 174.744 157.185 175.827 156.957 176.867C156.73 177.895 156.351 178.87 155.82 179.791C155.3 180.7 154.613 181.55 153.757 182.341C152.913 183.131 151.867 183.841 150.622 184.469L149.42 182.828C151.164 181.929 152.501 180.879 153.432 179.677C154.375 178.464 154.943 177.024 155.138 175.356H150.248V173.618H157.299ZM163.374 179.563H161.278V187.019H159.134V172.074H161.278V177.792H163.374V179.563ZM170.017 176.753C170.017 177.294 170.092 177.847 170.244 178.41C170.396 178.962 170.618 179.493 170.91 180.002C171.213 180.5 171.592 180.96 172.047 181.382C172.502 181.805 173.038 182.146 173.655 182.406L172.518 184.047C171.674 183.7 170.953 183.191 170.358 182.52C169.773 181.837 169.313 181.068 168.977 180.213C168.641 181.123 168.176 181.94 167.58 182.666C166.984 183.381 166.259 183.927 165.403 184.306L164.25 182.666C164.867 182.395 165.398 182.043 165.842 181.61C166.297 181.166 166.676 180.679 166.979 180.148C167.282 179.617 167.504 179.065 167.645 178.491C167.797 177.906 167.872 177.327 167.872 176.753V176.233H164.753V174.527H167.872V172.448H170.017V174.527H173.071V176.233H170.017V176.753ZM176.596 172.091V187.052H174.451V172.091H176.596Z" fill="#373E6A"/>
<path d="M290.318 41.624V54.4896H288.48V41.624H290.318ZM283.425 42.529C283.908 42.529 284.354 42.6358 284.762 42.8493C285.18 43.0628 285.537 43.3691 285.834 43.7682C286.131 44.1581 286.363 44.6362 286.53 45.2024C286.707 45.7593 286.795 46.3906 286.795 47.096C286.795 47.8015 286.707 48.4374 286.53 49.0036C286.363 49.5698 286.131 50.0525 285.834 50.4517C285.537 50.8508 285.18 51.1571 284.762 51.3706C284.354 51.5841 283.908 51.6909 283.425 51.6909C282.943 51.6909 282.492 51.5841 282.075 51.3706C281.666 51.1571 281.314 50.8508 281.017 50.4517C280.72 50.0525 280.483 49.5698 280.306 49.0036C280.139 48.4374 280.056 47.8015 280.056 47.096C280.056 46.3906 280.139 45.7593 280.306 45.2024C280.483 44.6362 280.72 44.1581 281.017 43.7682C281.314 43.3691 281.666 43.0628 282.075 42.8493C282.492 42.6358 282.943 42.529 283.425 42.529ZM283.425 44.186C282.952 44.186 282.567 44.4319 282.27 44.9239C281.973 45.4159 281.824 46.1399 281.824 47.096C281.824 48.0521 281.973 48.7808 282.27 49.2821C282.567 49.774 282.952 50.02 283.425 50.02C283.899 50.02 284.284 49.774 284.581 49.2821C284.878 48.7808 285.027 48.0521 285.027 47.096C285.027 46.1399 284.878 45.4159 284.581 44.9239C284.284 44.4319 283.899 44.186 283.425 44.186ZM295.301 50.1732C295.654 50.1732 295.942 50.0432 296.165 49.7833C296.387 49.5141 296.499 49.1382 296.499 48.6555C296.499 48.1728 296.387 47.7969 296.165 47.5277C295.942 47.2585 295.654 47.1239 295.301 47.1239C294.949 47.1239 294.661 47.2585 294.438 47.5277C294.215 47.7969 294.104 48.1728 294.104 48.6555C294.104 49.1382 294.215 49.5141 294.438 49.7833C294.661 50.0432 294.949 50.1732 295.301 50.1732ZM295.301 45.5923C295.71 45.5923 296.086 45.6665 296.429 45.815C296.773 45.9636 297.07 46.1771 297.32 46.4555C297.571 46.7247 297.766 47.0496 297.905 47.4302C298.044 47.8015 298.114 48.2099 298.114 48.6555C298.114 49.1011 298.044 49.5095 297.905 49.8808C297.766 50.2521 297.571 50.577 297.32 50.8555C297.07 51.1247 296.773 51.3335 296.429 51.482C296.086 51.6306 295.71 51.7048 295.301 51.7048C294.893 51.7048 294.517 51.6306 294.173 51.482C293.83 51.3335 293.533 51.1247 293.282 50.8555C293.032 50.577 292.837 50.2521 292.698 49.8808C292.558 49.5095 292.489 49.1011 292.489 48.6555C292.489 48.2099 292.558 47.8015 292.698 47.4302C292.837 47.0496 293.032 46.7247 293.282 46.4555C293.533 46.1771 293.83 45.9636 294.173 45.815C294.517 45.6665 294.893 45.5923 295.301 45.5923ZM296.206 43.5733H298.337V45.0353H292.21V43.5733H294.396V41.986H296.206V43.5733ZM303.224 41.624V54.4478H301.483V48.3353H300.509V53.9187H298.796V41.8746H300.509V46.8593H301.483V41.624H303.224Z" fill="#373E6A"/>
<path d="M285.918 212.218C285.129 214.223 283.323 215.621 280.501 216.41L279.791 214.961C281.258 214.572 282.353 214.042 283.077 213.374C283.811 212.706 284.238 211.935 284.358 211.063H280.487V209.587H286.363C286.363 209.995 286.335 210.385 286.28 210.756H288.577V208.724H290.415V216.103H288.577V214.878H285.751V213.402H288.577V212.218H285.918ZM286.182 220.058C286.971 220.058 287.584 219.96 288.02 219.765C288.466 219.561 288.689 219.264 288.689 218.874C288.689 218.484 288.466 218.192 288.02 217.997C287.584 217.793 286.971 217.691 286.182 217.691C285.384 217.691 284.762 217.793 284.316 217.997C283.88 218.192 283.662 218.484 283.662 218.874C283.662 219.264 283.88 219.561 284.316 219.765C284.762 219.96 285.384 220.058 286.182 220.058ZM286.182 216.27C286.832 216.27 287.422 216.331 287.951 216.451C288.489 216.572 288.944 216.748 289.315 216.98C289.696 217.203 289.988 217.477 290.192 217.802C290.397 218.118 290.499 218.475 290.499 218.874C290.499 219.273 290.397 219.635 290.192 219.96C289.988 220.276 289.696 220.545 289.315 220.768C288.944 221 288.489 221.176 287.951 221.297C287.422 221.417 286.832 221.478 286.182 221.478C285.523 221.478 284.929 221.417 284.4 221.297C283.871 221.176 283.416 221 283.036 220.768C282.655 220.545 282.363 220.276 282.158 219.96C281.954 219.635 281.852 219.273 281.852 218.874C281.852 218.475 281.954 218.118 282.158 217.802C282.363 217.477 282.655 217.203 283.036 216.98C283.416 216.748 283.871 216.572 284.4 216.451C284.929 216.331 285.523 216.27 286.182 216.27ZM299.757 211.286H292.252V209.851H295.079V208.626H296.916V209.851H299.757V211.286ZM294.689 214.015C294.689 214.33 294.809 214.572 295.051 214.739C295.301 214.896 295.622 214.975 296.011 214.975C296.401 214.975 296.717 214.896 296.958 214.739C297.209 214.572 297.334 214.33 297.334 214.015C297.334 213.708 297.209 213.476 296.958 213.318C296.717 213.151 296.401 213.068 296.011 213.068C295.622 213.068 295.301 213.151 295.051 213.318C294.809 213.476 294.689 213.708 294.689 214.015ZM299.089 214.015C299.089 214.358 299.01 214.674 298.852 214.961C298.703 215.24 298.494 215.481 298.225 215.686C297.956 215.89 297.631 216.048 297.251 216.159C296.87 216.27 296.457 216.326 296.011 216.326C295.566 216.326 295.153 216.27 294.772 216.159C294.392 216.048 294.067 215.89 293.798 215.686C293.528 215.481 293.315 215.24 293.157 214.961C293.009 214.674 292.934 214.358 292.934 214.015C292.934 213.671 293.009 213.36 293.157 213.082C293.315 212.803 293.528 212.562 293.798 212.358C294.067 212.153 294.392 211.996 294.772 211.884C295.153 211.773 295.566 211.717 296.011 211.717C296.457 211.717 296.87 211.773 297.251 211.884C297.631 211.996 297.956 212.153 298.225 212.358C298.494 212.562 298.703 212.803 298.852 213.082C299.01 213.36 299.089 213.671 299.089 214.015ZM296.22 219.96H301.149V218.456H296.22V219.96ZM294.41 217.008H302.945V221.394H294.41V217.008ZM302.945 208.724V216.465H301.108V213.959H299.506V212.469H301.108V208.724H302.945Z" fill="#373E6A"/>
<path d="M286.53 286.785C285.825 286.553 285.231 286.219 284.748 285.783C284.265 285.346 283.89 284.84 283.62 284.265C283.333 284.896 282.938 285.458 282.437 285.95C281.936 286.432 281.309 286.794 280.557 287.036L279.624 285.588C280.135 285.411 280.58 285.184 280.961 284.905C281.341 284.627 281.652 284.316 281.894 283.973C282.144 283.62 282.33 283.249 282.451 282.859C282.571 282.469 282.636 282.074 282.646 281.675H280.125V280.213H287.018V281.675H284.525C284.535 282.037 284.595 282.404 284.706 282.775C284.827 283.137 285.003 283.485 285.235 283.819C285.477 284.144 285.778 284.441 286.141 284.711C286.503 284.97 286.93 285.184 287.422 285.351L286.53 286.785ZM281.671 287.704H290.415V292.341H288.577V289.166H281.671V287.704ZM290.415 279.517V287.133H288.577V284.042H286.684V282.566H288.577V279.517H290.415ZM303.809 285.49V286.938H292.224V285.49H303.809ZM297.989 287.635C298.685 287.635 299.307 287.686 299.854 287.788C300.402 287.89 300.866 288.043 301.247 288.247C301.637 288.451 301.934 288.702 302.138 288.999C302.342 289.287 302.444 289.616 302.444 289.988C302.444 290.368 302.342 290.702 302.138 290.99C301.934 291.278 301.637 291.524 301.247 291.728C300.866 291.932 300.402 292.085 299.854 292.188C299.307 292.29 298.685 292.341 297.989 292.341C297.292 292.341 296.67 292.29 296.123 292.188C295.575 292.085 295.111 291.932 294.73 291.728C294.35 291.524 294.057 291.278 293.853 290.99C293.649 290.702 293.547 290.368 293.547 289.988C293.547 289.616 293.649 289.287 293.853 288.999C294.057 288.702 294.35 288.451 294.73 288.247C295.111 288.043 295.575 287.89 296.123 287.788C296.67 287.686 297.292 287.635 297.989 287.635ZM297.989 289.027C296.262 289.027 295.399 289.347 295.399 289.988C295.399 290.322 295.612 290.568 296.039 290.726C296.476 290.874 297.125 290.948 297.989 290.948C298.852 290.948 299.497 290.874 299.924 290.726C300.36 290.568 300.578 290.322 300.578 289.988C300.578 289.347 299.715 289.027 297.989 289.027ZM298.016 279.781C298.722 279.781 299.362 279.842 299.938 279.963C300.513 280.074 301.001 280.241 301.4 280.464C301.808 280.677 302.119 280.937 302.333 281.243C302.556 281.55 302.667 281.898 302.667 282.288C302.667 282.678 302.556 283.03 302.333 283.346C302.119 283.662 301.808 283.926 301.4 284.14C301.001 284.353 300.513 284.52 299.938 284.641C299.362 284.752 298.722 284.808 298.016 284.808C297.311 284.808 296.67 284.752 296.095 284.641C295.529 284.52 295.041 284.353 294.633 284.14C294.234 283.926 293.923 283.662 293.7 283.346C293.487 283.03 293.38 282.678 293.38 282.288C293.38 281.898 293.487 281.55 293.7 281.243C293.923 280.937 294.234 280.677 294.633 280.464C295.041 280.241 295.529 280.074 296.095 279.963C296.67 279.842 297.311 279.781 298.016 279.781ZM298.016 281.188C297.144 281.188 296.466 281.281 295.984 281.466C295.51 281.652 295.273 281.926 295.273 282.288C295.273 282.668 295.51 282.951 295.984 283.137C296.466 283.313 297.144 283.402 298.016 283.402C298.898 283.402 299.576 283.313 300.049 283.137C300.532 282.951 300.773 282.668 300.773 282.288C300.773 281.926 300.532 281.652 300.049 281.466C299.576 281.281 298.898 281.188 298.016 281.188Z" fill="#373E6A"/>
<path d="M3.65897 285.295H9.18672V281.898H3.65897V285.295ZM12.25 289.347V290.837H0.637506V289.347H5.51084V286.743H1.8628V280.45H10.9829V286.743H7.34878V289.347H12.25ZM23.4018 283.833H14.6159V279.893H23.2905V281.327H16.4399V282.399H23.4018V283.833ZM20.1158 285.95H17.9159V286.813H20.1158V285.95ZM21.9538 285.95V286.813H23.3461V290.113H16.3285V290.851H23.6803V292.229H14.5045V288.846H21.5361V288.164H14.4906V286.813H16.0779V285.95H13.1539V284.516H24.7525V285.95H21.9538Z" fill="#373E6A"/>
<path fill-rule="evenodd" clip-rule="evenodd" d="M77.4074 47.8064L35.375 47.8064V48.9667L77.4074 48.9667V47.8064ZM112.217 48.9667L272.562 48.9667L269.861 51.6684C269.634 51.895 269.634 52.2623 269.861 52.4889C270.087 52.7154 270.455 52.7154 270.681 52.4889L274.373 48.7968C274.6 48.5702 274.6 48.2029 274.373 47.9763L270.681 44.2842C270.455 44.0576 270.087 44.0576 269.861 44.2842C269.634 44.5107 269.634 44.8781 269.861 45.1047L272.562 47.8064L112.217 47.8064V48.9667Z" fill="black"/>
<path fill-rule="evenodd" clip-rule="evenodd" d="M290.351 30.7734C282.997 11.6534 264.432 1.25271 244.334 0.813592C229.317 0.485525 213.41 5.71156 200.591 17.0313L201.481 17.7938C214.056 6.74534 229.623 1.65281 244.308 1.97363C264.041 2.40475 282.118 12.5996 289.268 31.1899L290.351 30.7734ZM193.611 26.014L192.729 25.2588C191.35 26.9667 190.03 28.7673 188.776 30.6614C177.346 47.9276 170.66 73.9935 166.826 96.4748C162.989 118.972 161.992 137.983 161.992 141.212H163.153C163.153 138.059 164.142 119.113 167.969 96.6699C171.8 74.2108 178.457 48.3525 189.744 31.3019C190.971 29.4483 192.262 27.686 193.611 26.014Z" fill="black"/>
<path fill-rule="evenodd" clip-rule="evenodd" d="M18.1543 264.405L14.4622 268.097C14.2357 268.323 13.8683 268.323 13.6418 268.097L9.94965 264.405C9.72309 264.178 9.72309 263.811 9.94965 263.584C10.1762 263.358 10.5436 263.358 10.7701 263.584L13.4718 266.286L13.4718 150.494H14.6322V150.646L14.6861 150.639C20.7698 196.784 46.4822 224.562 75.2835 234.14L75.0277 235.278C47.2165 226.077 22.3507 200.22 14.6322 157.795L14.6322 266.286L17.3339 263.584C17.5604 263.358 17.9278 263.358 18.1543 263.584C18.3809 263.811 18.3809 264.178 18.1543 264.405ZM87.7666 238.308C117.828 242.755 146.921 228.118 161.318 192.711L160.252 192.251C146.088 227.116 117.558 241.507 88.0217 237.173L87.7666 238.308Z" fill="black"/>
<path fill-rule="evenodd" clip-rule="evenodd" d="M77.4074 284.511L35.375 284.511V285.671L77.4074 285.671V284.511ZM112.217 285.671L272.562 285.671L269.861 288.373C269.634 288.6 269.634 288.967 269.861 289.194C270.087 289.42 270.455 289.42 270.681 289.194L274.373 285.501C274.6 285.275 274.6 284.908 274.373 284.681L270.681 280.989C270.455 280.762 270.087 280.762 269.861 280.989C269.634 281.215 269.634 281.583 269.861 281.809L272.562 284.511L112.217 284.511V285.671Z" fill="black"/>
<path fill-rule="evenodd" clip-rule="evenodd" d="M217.104 185.696C218.616 180.608 219.428 175.219 219.428 169.64C219.428 138.56 194.233 113.364 163.153 113.364C139.969 113.364 120.06 127.383 111.44 147.407L110.343 147.019C119.125 126.545 139.464 112.204 163.153 112.204C194.874 112.204 220.588 137.919 220.588 169.64C220.588 175.406 219.739 180.974 218.158 186.225L217.104 185.696ZM212.648 196.442C203.122 213.997 184.529 225.915 163.153 225.915C132.073 225.915 106.877 200.72 106.877 169.64C106.877 165.823 107.257 162.095 107.982 158.491L106.877 158.1C106.116 161.828 105.717 165.687 105.717 169.64C105.717 201.361 131.432 227.075 163.153 227.075C184.983 227.075 203.968 214.897 213.685 196.963L212.648 196.442Z" fill="#373E6A"/>
</svg>
