<svg width="234" height="467" viewBox="0 0 234 467" fill="none" xmlns="http://www.w3.org/2000/svg">
<path fill-rule="evenodd" clip-rule="evenodd" d="M233.5 467C362.458 467 467 362.458 467 233.5C467 104.542 362.458 0 233.5 0C104.542 0 0 104.542 0 233.5C0 362.458 104.542 467 233.5 467ZM233.5 443.162C349.293 443.162 443.162 349.293 443.162 233.5C443.162 117.707 349.293 23.8376 233.5 23.8376C117.707 23.8376 23.8376 117.707 23.8376 233.5C23.8376 349.293 117.707 443.162 233.5 443.162Z" fill="#F6F9FB"/>
<path fill-rule="evenodd" clip-rule="evenodd" d="M233.5 422.575C337.923 422.575 422.575 337.923 422.575 233.5C422.575 129.077 337.923 44.4246 233.5 44.4246C129.077 44.4246 44.4246 129.077 44.4246 233.5C44.4246 337.923 129.077 422.575 233.5 422.575ZM233.5 403.273C327.263 403.273 403.273 327.263 403.273 233.5C403.273 139.737 327.263 63.7269 233.5 63.7269C139.737 63.7269 63.727 139.737 63.727 233.5C63.727 327.263 139.737 403.273 233.5 403.273Z" fill="#F6F9FB"/>
<path fill-rule="evenodd" clip-rule="evenodd" d="M233.5 384.652C316.979 384.652 384.652 316.979 384.652 233.5C384.652 150.021 316.979 82.348 233.5 82.348C150.021 82.348 82.3481 150.021 82.3481 233.5C82.3481 316.979 150.021 384.652 233.5 384.652ZM233.5 369.221C308.457 369.221 369.221 308.457 369.221 233.5C369.221 158.543 308.457 97.7788 233.5 97.7788C158.543 97.7788 97.779 158.543 97.779 233.5C97.779 308.457 158.543 369.221 233.5 369.221Z" fill="#F6F9FB"/>
<path fill-rule="evenodd" clip-rule="evenodd" d="M233.5 351.063C298.428 351.063 351.063 298.428 351.063 233.5C351.063 168.572 298.428 115.937 233.5 115.937C168.572 115.937 115.937 168.572 115.937 233.5C115.937 298.428 168.572 351.063 233.5 351.063ZM233.5 339.061C291.8 339.061 339.061 291.8 339.061 233.5C339.061 175.2 291.8 127.939 233.5 127.939C175.2 127.939 127.939 175.2 127.939 233.5C127.939 291.8 175.2 339.061 233.5 339.061Z" fill="#F6F9FB"/>
<path fill-rule="evenodd" clip-rule="evenodd" d="M233.5 321.807C282.271 321.807 321.807 282.271 321.807 233.5C321.807 184.729 282.271 145.193 233.5 145.193C184.729 145.193 145.193 184.729 145.193 233.5C145.193 282.271 184.729 321.807 233.5 321.807ZM233.5 312.792C277.292 312.792 312.792 277.292 312.792 233.5C312.792 189.708 277.292 154.208 233.5 154.208C189.708 154.208 154.208 189.708 154.208 233.5C154.208 277.292 189.708 312.792 233.5 312.792Z" fill="#F6F9FB"/>
<path fill-rule="evenodd" clip-rule="evenodd" d="M233.5 297.97C269.106 297.97 297.97 269.106 297.97 233.5C297.97 197.894 269.106 169.03 233.5 169.03C197.894 169.03 169.03 197.894 169.03 233.5C169.03 269.106 197.894 297.97 233.5 297.97ZM233.5 291.388C265.471 291.388 291.388 265.471 291.388 233.5C291.388 201.529 265.471 175.612 233.5 175.612C201.529 175.612 175.612 201.529 175.612 233.5C175.612 265.471 201.529 291.388 233.5 291.388Z" fill="#F6F9FB"/>
<path fill-rule="evenodd" clip-rule="evenodd" d="M233.5 279.55C258.933 279.55 279.55 258.933 279.55 233.5C279.55 208.067 258.933 187.45 233.5 187.45C208.067 187.45 187.45 208.067 187.45 233.5C187.45 258.933 208.067 279.55 233.5 279.55ZM233.5 274.849C256.336 274.849 274.849 256.336 274.849 233.5C274.849 210.664 256.336 192.151 233.5 192.151C210.664 192.151 192.151 210.664 192.151 233.5C192.151 256.336 210.664 274.849 233.5 274.849Z" fill="#F6F9FB"/>
<path fill-rule="evenodd" clip-rule="evenodd" d="M233.5 262.213C249.358 262.213 262.214 249.358 262.214 233.5C262.214 217.642 249.358 204.786 233.5 204.786C217.642 204.786 204.787 217.642 204.787 233.5C204.787 249.358 217.642 262.213 233.5 262.213ZM233.5 259.282C247.739 259.282 259.282 247.739 259.282 233.5C259.282 219.261 247.739 207.718 233.5 207.718C219.261 207.718 207.718 219.261 207.718 233.5C207.718 247.739 219.261 259.282 233.5 259.282Z" fill="#F6F9FB"/>
<circle cx="234.042" cy="234.042" r="10.8353" fill="#F6F9FB"/>
</svg>
