<svg xmlns="http://www.w3.org/2000/svg" width="11" height="8" fill="none" viewBox="0 0 11 8"><path fill="#fff" d="M10.533.729C10.234.198 9.91.1 9.25.063 8.592.02 6.936 0 5.501 0 4.064 0 2.407.019 1.75.063 1.091.1.767.197.465.729.158 1.259 0 2.172 0 3.779v.006c0 1.6.158 2.52.465 3.045.302.53.625.627 1.283.671.659.039 2.316.061 3.753.061 1.435 0 3.091-.022 3.75-.06.66-.045.984-.14 1.282-.672.31-.524.467-1.444.467-3.045V3.78c0-1.608-.157-2.521-.467-3.051zM4.125 5.844V1.719L7.563 3.78 4.124 5.844z"/></svg>